<?xml version="1.0" encoding="utf-8" standalone="no"?>
<!DOCTYPE svg PUBLIC "-//W3C//DTD SVG 1.1//EN"
  "http://www.w3.org/Graphics/SVG/1.1/DTD/svg11.dtd">
<!-- Created with matplotlib (https://matplotlib.org/) -->
<svg height="252pt" version="1.1" viewBox="0 0 360 252" width="360pt" xmlns="http://www.w3.org/2000/svg" xmlns:xlink="http://www.w3.org/1999/xlink">
 <defs>
  <style type="text/css">
*{stroke-linecap:butt;stroke-linejoin:round;}
  </style>
 </defs>
 <g id="figure_1">
  <g id="patch_1">
   <path d="M 0 252 
L 360 252 
L 360 0 
L 0 0 
z
" style="fill:#ffffff;"/>
  </g>
  <g id="axes_1">
   <g id="patch_2">
    <path d="M 45 224.28 
L 324 224.28 
L 324 30.24 
L 45 30.24 
z
" style="fill:#ffffff;"/>
   </g>
   <g id="matplotlib.axis_1">
    <g id="xtick_1">
     <g id="line2d_1">
      <defs>
       <path d="M 0 0 
L 0 3.5 
" id="me508d2d394" style="stroke:#000000;stroke-width:0.8;"/>
      </defs>
      <g>
       <use style="stroke:#000000;stroke-width:0.8;" x="57.681818" xlink:href="#me508d2d394" y="224.28"/>
      </g>
     </g>
     <g id="text_1">
      <!-- 0 -->
      <defs>
       <path d="M 31.78125 66.40625 
Q 24.171875 66.40625 20.328125 58.90625 
Q 16.5 51.421875 16.5 36.375 
Q 16.5 21.390625 20.328125 13.890625 
Q 24.171875 6.390625 31.78125 6.390625 
Q 39.453125 6.390625 43.28125 13.890625 
Q 47.125 21.390625 47.125 36.375 
Q 47.125 51.421875 43.28125 58.90625 
Q 39.453125 66.40625 31.78125 66.40625 
z
M 31.78125 74.21875 
Q 44.046875 74.21875 50.515625 64.515625 
Q 56.984375 54.828125 56.984375 36.375 
Q 56.984375 17.96875 50.515625 8.265625 
Q 44.046875 -1.421875 31.78125 -1.421875 
Q 19.53125 -1.421875 13.0625 8.265625 
Q 6.59375 17.96875 6.59375 36.375 
Q 6.59375 54.828125 13.0625 64.515625 
Q 19.53125 74.21875 31.78125 74.21875 
z
" id="DejaVuSans-48"/>
      </defs>
      <g transform="translate(54.500568 238.878438)scale(0.1 -0.1)">
       <use xlink:href="#DejaVuSans-48"/>
      </g>
     </g>
    </g>
    <g id="xtick_2">
     <g id="line2d_2">
      <g>
       <use style="stroke:#000000;stroke-width:0.8;" x="108.409091" xlink:href="#me508d2d394" y="224.28"/>
      </g>
     </g>
     <g id="text_2">
      <!-- 20 -->
      <defs>
       <path d="M 19.1875 8.296875 
L 53.609375 8.296875 
L 53.609375 0 
L 7.328125 0 
L 7.328125 8.296875 
Q 12.9375 14.109375 22.625 23.890625 
Q 32.328125 33.6875 34.8125 36.53125 
Q 39.546875 41.84375 41.421875 45.53125 
Q 43.3125 49.21875 43.3125 52.78125 
Q 43.3125 58.59375 39.234375 62.25 
Q 35.15625 65.921875 28.609375 65.921875 
Q 23.96875 65.921875 18.8125 64.3125 
Q 13.671875 62.703125 7.8125 59.421875 
L 7.8125 69.390625 
Q 13.765625 71.78125 18.9375 73 
Q 24.125 74.21875 28.421875 74.21875 
Q 39.75 74.21875 46.484375 68.546875 
Q 53.21875 62.890625 53.21875 53.421875 
Q 53.21875 48.921875 51.53125 44.890625 
Q 49.859375 40.875 45.40625 35.40625 
Q 44.1875 33.984375 37.640625 27.21875 
Q 31.109375 20.453125 19.1875 8.296875 
z
" id="DejaVuSans-50"/>
      </defs>
      <g transform="translate(102.046591 238.878438)scale(0.1 -0.1)">
       <use xlink:href="#DejaVuSans-50"/>
       <use x="63.623047" xlink:href="#DejaVuSans-48"/>
      </g>
     </g>
    </g>
    <g id="xtick_3">
     <g id="line2d_3">
      <g>
       <use style="stroke:#000000;stroke-width:0.8;" x="159.136364" xlink:href="#me508d2d394" y="224.28"/>
      </g>
     </g>
     <g id="text_3">
      <!-- 40 -->
      <defs>
       <path d="M 37.796875 64.3125 
L 12.890625 25.390625 
L 37.796875 25.390625 
z
M 35.203125 72.90625 
L 47.609375 72.90625 
L 47.609375 25.390625 
L 58.015625 25.390625 
L 58.015625 17.1875 
L 47.609375 17.1875 
L 47.609375 0 
L 37.796875 0 
L 37.796875 17.1875 
L 4.890625 17.1875 
L 4.890625 26.703125 
z
" id="DejaVuSans-52"/>
      </defs>
      <g transform="translate(152.773864 238.878438)scale(0.1 -0.1)">
       <use xlink:href="#DejaVuSans-52"/>
       <use x="63.623047" xlink:href="#DejaVuSans-48"/>
      </g>
     </g>
    </g>
    <g id="xtick_4">
     <g id="line2d_4">
      <g>
       <use style="stroke:#000000;stroke-width:0.8;" x="209.863636" xlink:href="#me508d2d394" y="224.28"/>
      </g>
     </g>
     <g id="text_4">
      <!-- 60 -->
      <defs>
       <path d="M 33.015625 40.375 
Q 26.375 40.375 22.484375 35.828125 
Q 18.609375 31.296875 18.609375 23.390625 
Q 18.609375 15.53125 22.484375 10.953125 
Q 26.375 6.390625 33.015625 6.390625 
Q 39.65625 6.390625 43.53125 10.953125 
Q 47.40625 15.53125 47.40625 23.390625 
Q 47.40625 31.296875 43.53125 35.828125 
Q 39.65625 40.375 33.015625 40.375 
z
M 52.59375 71.296875 
L 52.59375 62.3125 
Q 48.875 64.0625 45.09375 64.984375 
Q 41.3125 65.921875 37.59375 65.921875 
Q 27.828125 65.921875 22.671875 59.328125 
Q 17.53125 52.734375 16.796875 39.40625 
Q 19.671875 43.65625 24.015625 45.921875 
Q 28.375 48.1875 33.59375 48.1875 
Q 44.578125 48.1875 50.953125 41.515625 
Q 57.328125 34.859375 57.328125 23.390625 
Q 57.328125 12.15625 50.6875 5.359375 
Q 44.046875 -1.421875 33.015625 -1.421875 
Q 20.359375 -1.421875 13.671875 8.265625 
Q 6.984375 17.96875 6.984375 36.375 
Q 6.984375 53.65625 15.1875 63.9375 
Q 23.390625 74.21875 37.203125 74.21875 
Q 40.921875 74.21875 44.703125 73.484375 
Q 48.484375 72.75 52.59375 71.296875 
z
" id="DejaVuSans-54"/>
      </defs>
      <g transform="translate(203.501136 238.878438)scale(0.1 -0.1)">
       <use xlink:href="#DejaVuSans-54"/>
       <use x="63.623047" xlink:href="#DejaVuSans-48"/>
      </g>
     </g>
    </g>
    <g id="xtick_5">
     <g id="line2d_5">
      <g>
       <use style="stroke:#000000;stroke-width:0.8;" x="260.590909" xlink:href="#me508d2d394" y="224.28"/>
      </g>
     </g>
     <g id="text_5">
      <!-- 80 -->
      <defs>
       <path d="M 31.78125 34.625 
Q 24.75 34.625 20.71875 30.859375 
Q 16.703125 27.09375 16.703125 20.515625 
Q 16.703125 13.921875 20.71875 10.15625 
Q 24.75 6.390625 31.78125 6.390625 
Q 38.8125 6.390625 42.859375 10.171875 
Q 46.921875 13.96875 46.921875 20.515625 
Q 46.921875 27.09375 42.890625 30.859375 
Q 38.875 34.625 31.78125 34.625 
z
M 21.921875 38.8125 
Q 15.578125 40.375 12.03125 44.71875 
Q 8.5 49.078125 8.5 55.328125 
Q 8.5 64.0625 14.71875 69.140625 
Q 20.953125 74.21875 31.78125 74.21875 
Q 42.671875 74.21875 48.875 69.140625 
Q 55.078125 64.0625 55.078125 55.328125 
Q 55.078125 49.078125 51.53125 44.71875 
Q 48 40.375 41.703125 38.8125 
Q 48.828125 37.15625 52.796875 32.3125 
Q 56.78125 27.484375 56.78125 20.515625 
Q 56.78125 9.90625 50.3125 4.234375 
Q 43.84375 -1.421875 31.78125 -1.421875 
Q 19.734375 -1.421875 13.25 4.234375 
Q 6.78125 9.90625 6.78125 20.515625 
Q 6.78125 27.484375 10.78125 32.3125 
Q 14.796875 37.15625 21.921875 38.8125 
z
M 18.3125 54.390625 
Q 18.3125 48.734375 21.84375 45.5625 
Q 25.390625 42.390625 31.78125 42.390625 
Q 38.140625 42.390625 41.71875 45.5625 
Q 45.3125 48.734375 45.3125 54.390625 
Q 45.3125 60.0625 41.71875 63.234375 
Q 38.140625 66.40625 31.78125 66.40625 
Q 25.390625 66.40625 21.84375 63.234375 
Q 18.3125 60.0625 18.3125 54.390625 
z
" id="DejaVuSans-56"/>
      </defs>
      <g transform="translate(254.228409 238.878438)scale(0.1 -0.1)">
       <use xlink:href="#DejaVuSans-56"/>
       <use x="63.623047" xlink:href="#DejaVuSans-48"/>
      </g>
     </g>
    </g>
    <g id="xtick_6">
     <g id="line2d_6">
      <g>
       <use style="stroke:#000000;stroke-width:0.8;" x="311.318182" xlink:href="#me508d2d394" y="224.28"/>
      </g>
     </g>
     <g id="text_6">
      <!-- 100 -->
      <defs>
       <path d="M 12.40625 8.296875 
L 28.515625 8.296875 
L 28.515625 63.921875 
L 10.984375 60.40625 
L 10.984375 69.390625 
L 28.421875 72.90625 
L 38.28125 72.90625 
L 38.28125 8.296875 
L 54.390625 8.296875 
L 54.390625 0 
L 12.40625 0 
z
" id="DejaVuSans-49"/>
      </defs>
      <g transform="translate(301.774432 238.878438)scale(0.1 -0.1)">
       <use xlink:href="#DejaVuSans-49"/>
       <use x="63.623047" xlink:href="#DejaVuSans-48"/>
       <use x="127.246094" xlink:href="#DejaVuSans-48"/>
      </g>
     </g>
    </g>
    <g id="text_7">
     <!-- Generations -->
     <defs>
      <path d="M 59.515625 10.40625 
L 59.515625 29.984375 
L 43.40625 29.984375 
L 43.40625 38.09375 
L 69.28125 38.09375 
L 69.28125 6.78125 
Q 63.578125 2.734375 56.6875 0.65625 
Q 49.8125 -1.421875 42 -1.421875 
Q 24.90625 -1.421875 15.25 8.5625 
Q 5.609375 18.5625 5.609375 36.375 
Q 5.609375 54.25 15.25 64.234375 
Q 24.90625 74.21875 42 74.21875 
Q 49.125 74.21875 55.546875 72.453125 
Q 61.96875 70.703125 67.390625 67.28125 
L 67.390625 56.78125 
Q 61.921875 61.421875 55.765625 63.765625 
Q 49.609375 66.109375 42.828125 66.109375 
Q 29.4375 66.109375 22.71875 58.640625 
Q 16.015625 51.171875 16.015625 36.375 
Q 16.015625 21.625 22.71875 14.15625 
Q 29.4375 6.6875 42.828125 6.6875 
Q 48.046875 6.6875 52.140625 7.59375 
Q 56.25 8.5 59.515625 10.40625 
z
" id="DejaVuSans-71"/>
      <path d="M 56.203125 29.59375 
L 56.203125 25.203125 
L 14.890625 25.203125 
Q 15.484375 15.921875 20.484375 11.0625 
Q 25.484375 6.203125 34.421875 6.203125 
Q 39.59375 6.203125 44.453125 7.46875 
Q 49.3125 8.734375 54.109375 11.28125 
L 54.109375 2.78125 
Q 49.265625 0.734375 44.1875 -0.34375 
Q 39.109375 -1.421875 33.890625 -1.421875 
Q 20.796875 -1.421875 13.15625 6.1875 
Q 5.515625 13.8125 5.515625 26.8125 
Q 5.515625 40.234375 12.765625 48.109375 
Q 20.015625 56 32.328125 56 
Q 43.359375 56 49.78125 48.890625 
Q 56.203125 41.796875 56.203125 29.59375 
z
M 47.21875 32.234375 
Q 47.125 39.59375 43.09375 43.984375 
Q 39.0625 48.390625 32.421875 48.390625 
Q 24.90625 48.390625 20.390625 44.140625 
Q 15.875 39.890625 15.1875 32.171875 
z
" id="DejaVuSans-101"/>
      <path d="M 54.890625 33.015625 
L 54.890625 0 
L 45.90625 0 
L 45.90625 32.71875 
Q 45.90625 40.484375 42.875 44.328125 
Q 39.84375 48.1875 33.796875 48.1875 
Q 26.515625 48.1875 22.3125 43.546875 
Q 18.109375 38.921875 18.109375 30.90625 
L 18.109375 0 
L 9.078125 0 
L 9.078125 54.6875 
L 18.109375 54.6875 
L 18.109375 46.1875 
Q 21.34375 51.125 25.703125 53.5625 
Q 30.078125 56 35.796875 56 
Q 45.21875 56 50.046875 50.171875 
Q 54.890625 44.34375 54.890625 33.015625 
z
" id="DejaVuSans-110"/>
      <path d="M 41.109375 46.296875 
Q 39.59375 47.171875 37.8125 47.578125 
Q 36.03125 48 33.890625 48 
Q 26.265625 48 22.1875 43.046875 
Q 18.109375 38.09375 18.109375 28.8125 
L 18.109375 0 
L 9.078125 0 
L 9.078125 54.6875 
L 18.109375 54.6875 
L 18.109375 46.1875 
Q 20.953125 51.171875 25.484375 53.578125 
Q 30.03125 56 36.53125 56 
Q 37.453125 56 38.578125 55.875 
Q 39.703125 55.765625 41.0625 55.515625 
z
" id="DejaVuSans-114"/>
      <path d="M 34.28125 27.484375 
Q 23.390625 27.484375 19.1875 25 
Q 14.984375 22.515625 14.984375 16.5 
Q 14.984375 11.71875 18.140625 8.90625 
Q 21.296875 6.109375 26.703125 6.109375 
Q 34.1875 6.109375 38.703125 11.40625 
Q 43.21875 16.703125 43.21875 25.484375 
L 43.21875 27.484375 
z
M 52.203125 31.203125 
L 52.203125 0 
L 43.21875 0 
L 43.21875 8.296875 
Q 40.140625 3.328125 35.546875 0.953125 
Q 30.953125 -1.421875 24.3125 -1.421875 
Q 15.921875 -1.421875 10.953125 3.296875 
Q 6 8.015625 6 15.921875 
Q 6 25.140625 12.171875 29.828125 
Q 18.359375 34.515625 30.609375 34.515625 
L 43.21875 34.515625 
L 43.21875 35.40625 
Q 43.21875 41.609375 39.140625 45 
Q 35.0625 48.390625 27.6875 48.390625 
Q 23 48.390625 18.546875 47.265625 
Q 14.109375 46.140625 10.015625 43.890625 
L 10.015625 52.203125 
Q 14.9375 54.109375 19.578125 55.046875 
Q 24.21875 56 28.609375 56 
Q 40.484375 56 46.34375 49.84375 
Q 52.203125 43.703125 52.203125 31.203125 
z
" id="DejaVuSans-97"/>
      <path d="M 18.3125 70.21875 
L 18.3125 54.6875 
L 36.8125 54.6875 
L 36.8125 47.703125 
L 18.3125 47.703125 
L 18.3125 18.015625 
Q 18.3125 11.328125 20.140625 9.421875 
Q 21.96875 7.515625 27.59375 7.515625 
L 36.8125 7.515625 
L 36.8125 0 
L 27.59375 0 
Q 17.1875 0 13.234375 3.875 
Q 9.28125 7.765625 9.28125 18.015625 
L 9.28125 47.703125 
L 2.6875 47.703125 
L 2.6875 54.6875 
L 9.28125 54.6875 
L 9.28125 70.21875 
z
" id="DejaVuSans-116"/>
      <path d="M 9.421875 54.6875 
L 18.40625 54.6875 
L 18.40625 0 
L 9.421875 0 
z
M 9.421875 75.984375 
L 18.40625 75.984375 
L 18.40625 64.59375 
L 9.421875 64.59375 
z
" id="DejaVuSans-105"/>
      <path d="M 30.609375 48.390625 
Q 23.390625 48.390625 19.1875 42.75 
Q 14.984375 37.109375 14.984375 27.296875 
Q 14.984375 17.484375 19.15625 11.84375 
Q 23.34375 6.203125 30.609375 6.203125 
Q 37.796875 6.203125 41.984375 11.859375 
Q 46.1875 17.53125 46.1875 27.296875 
Q 46.1875 37.015625 41.984375 42.703125 
Q 37.796875 48.390625 30.609375 48.390625 
z
M 30.609375 56 
Q 42.328125 56 49.015625 48.375 
Q 55.71875 40.765625 55.71875 27.296875 
Q 55.71875 13.875 49.015625 6.21875 
Q 42.328125 -1.421875 30.609375 -1.421875 
Q 18.84375 -1.421875 12.171875 6.21875 
Q 5.515625 13.875 5.515625 27.296875 
Q 5.515625 40.765625 12.171875 48.375 
Q 18.84375 56 30.609375 56 
z
" id="DejaVuSans-111"/>
      <path d="M 44.28125 53.078125 
L 44.28125 44.578125 
Q 40.484375 46.53125 36.375 47.5 
Q 32.28125 48.484375 27.875 48.484375 
Q 21.1875 48.484375 17.84375 46.4375 
Q 14.5 44.390625 14.5 40.28125 
Q 14.5 37.15625 16.890625 35.375 
Q 19.28125 33.59375 26.515625 31.984375 
L 29.59375 31.296875 
Q 39.15625 29.25 43.1875 25.515625 
Q 47.21875 21.78125 47.21875 15.09375 
Q 47.21875 7.46875 41.1875 3.015625 
Q 35.15625 -1.421875 24.609375 -1.421875 
Q 20.21875 -1.421875 15.453125 -0.5625 
Q 10.6875 0.296875 5.421875 2 
L 5.421875 11.28125 
Q 10.40625 8.6875 15.234375 7.390625 
Q 20.0625 6.109375 24.8125 6.109375 
Q 31.15625 6.109375 34.5625 8.28125 
Q 37.984375 10.453125 37.984375 14.40625 
Q 37.984375 18.0625 35.515625 20.015625 
Q 33.0625 21.96875 24.703125 23.78125 
L 21.578125 24.515625 
Q 13.234375 26.265625 9.515625 29.90625 
Q 5.8125 33.546875 5.8125 39.890625 
Q 5.8125 47.609375 11.28125 51.796875 
Q 16.75 56 26.8125 56 
Q 31.78125 56 36.171875 55.265625 
Q 40.578125 54.546875 44.28125 53.078125 
z
" id="DejaVuSans-115"/>
     </defs>
     <g transform="translate(154.002344 252.556563)scale(0.1 -0.1)">
      <use xlink:href="#DejaVuSans-71"/>
      <use x="77.490234" xlink:href="#DejaVuSans-101"/>
      <use x="139.013672" xlink:href="#DejaVuSans-110"/>
      <use x="202.392578" xlink:href="#DejaVuSans-101"/>
      <use x="263.916016" xlink:href="#DejaVuSans-114"/>
      <use x="305.029297" xlink:href="#DejaVuSans-97"/>
      <use x="366.308594" xlink:href="#DejaVuSans-116"/>
      <use x="405.517578" xlink:href="#DejaVuSans-105"/>
      <use x="433.300781" xlink:href="#DejaVuSans-111"/>
      <use x="494.482422" xlink:href="#DejaVuSans-110"/>
      <use x="557.861328" xlink:href="#DejaVuSans-115"/>
     </g>
    </g>
   </g>
   <g id="matplotlib.axis_2">
    <g id="ytick_1">
     <g id="line2d_7">
      <defs>
       <path d="M 0 0 
L -3.5 0 
" id="m9e4d405599" style="stroke:#000000;stroke-width:0.8;"/>
      </defs>
      <g>
       <use style="stroke:#000000;stroke-width:0.8;" x="45" xlink:href="#m9e4d405599" y="215.46"/>
      </g>
     </g>
     <g id="text_8">
      <!-- 0 -->
      <g transform="translate(31.6375 219.259219)scale(0.1 -0.1)">
       <use xlink:href="#DejaVuSans-48"/>
      </g>
     </g>
    </g>
    <g id="ytick_2">
     <g id="line2d_8">
      <g>
       <use style="stroke:#000000;stroke-width:0.8;" x="45" xlink:href="#m9e4d405599" y="187.008387"/>
      </g>
     </g>
     <g id="text_9">
      <!-- 50 -->
      <defs>
       <path d="M 10.796875 72.90625 
L 49.515625 72.90625 
L 49.515625 64.59375 
L 19.828125 64.59375 
L 19.828125 46.734375 
Q 21.96875 47.46875 24.109375 47.828125 
Q 26.265625 48.1875 28.421875 48.1875 
Q 40.625 48.1875 47.75 41.5 
Q 54.890625 34.8125 54.890625 23.390625 
Q 54.890625 11.625 47.5625 5.09375 
Q 40.234375 -1.421875 26.90625 -1.421875 
Q 22.3125 -1.421875 17.546875 -0.640625 
Q 12.796875 0.140625 7.71875 1.703125 
L 7.71875 11.625 
Q 12.109375 9.234375 16.796875 8.0625 
Q 21.484375 6.890625 26.703125 6.890625 
Q 35.15625 6.890625 40.078125 11.328125 
Q 45.015625 15.765625 45.015625 23.390625 
Q 45.015625 31 40.078125 35.4375 
Q 35.15625 39.890625 26.703125 39.890625 
Q 22.75 39.890625 18.8125 39.015625 
Q 14.890625 38.140625 10.796875 36.28125 
z
" id="DejaVuSans-53"/>
      </defs>
      <g transform="translate(25.275 190.807606)scale(0.1 -0.1)">
       <use xlink:href="#DejaVuSans-53"/>
       <use x="63.623047" xlink:href="#DejaVuSans-48"/>
      </g>
     </g>
    </g>
    <g id="ytick_3">
     <g id="line2d_9">
      <g>
       <use style="stroke:#000000;stroke-width:0.8;" x="45" xlink:href="#m9e4d405599" y="158.556774"/>
      </g>
     </g>
     <g id="text_10">
      <!-- 100 -->
      <g transform="translate(18.9125 162.355993)scale(0.1 -0.1)">
       <use xlink:href="#DejaVuSans-49"/>
       <use x="63.623047" xlink:href="#DejaVuSans-48"/>
       <use x="127.246094" xlink:href="#DejaVuSans-48"/>
      </g>
     </g>
    </g>
    <g id="ytick_4">
     <g id="line2d_10">
      <g>
       <use style="stroke:#000000;stroke-width:0.8;" x="45" xlink:href="#m9e4d405599" y="130.105161"/>
      </g>
     </g>
     <g id="text_11">
      <!-- 150 -->
      <g transform="translate(18.9125 133.90438)scale(0.1 -0.1)">
       <use xlink:href="#DejaVuSans-49"/>
       <use x="63.623047" xlink:href="#DejaVuSans-53"/>
       <use x="127.246094" xlink:href="#DejaVuSans-48"/>
      </g>
     </g>
    </g>
    <g id="ytick_5">
     <g id="line2d_11">
      <g>
       <use style="stroke:#000000;stroke-width:0.8;" x="45" xlink:href="#m9e4d405599" y="101.653548"/>
      </g>
     </g>
     <g id="text_12">
      <!-- 200 -->
      <g transform="translate(18.9125 105.452767)scale(0.1 -0.1)">
       <use xlink:href="#DejaVuSans-50"/>
       <use x="63.623047" xlink:href="#DejaVuSans-48"/>
       <use x="127.246094" xlink:href="#DejaVuSans-48"/>
      </g>
     </g>
    </g>
    <g id="ytick_6">
     <g id="line2d_12">
      <g>
       <use style="stroke:#000000;stroke-width:0.8;" x="45" xlink:href="#m9e4d405599" y="73.201935"/>
      </g>
     </g>
     <g id="text_13">
      <!-- 250 -->
      <g transform="translate(18.9125 77.001154)scale(0.1 -0.1)">
       <use xlink:href="#DejaVuSans-50"/>
       <use x="63.623047" xlink:href="#DejaVuSans-53"/>
       <use x="127.246094" xlink:href="#DejaVuSans-48"/>
      </g>
     </g>
    </g>
    <g id="ytick_7">
     <g id="line2d_13">
      <g>
       <use style="stroke:#000000;stroke-width:0.8;" x="45" xlink:href="#m9e4d405599" y="44.750323"/>
      </g>
     </g>
     <g id="text_14">
      <!-- 300 -->
      <defs>
       <path d="M 40.578125 39.3125 
Q 47.65625 37.796875 51.625 33 
Q 55.609375 28.21875 55.609375 21.1875 
Q 55.609375 10.40625 48.1875 4.484375 
Q 40.765625 -1.421875 27.09375 -1.421875 
Q 22.515625 -1.421875 17.65625 -0.515625 
Q 12.796875 0.390625 7.625 2.203125 
L 7.625 11.71875 
Q 11.71875 9.328125 16.59375 8.109375 
Q 21.484375 6.890625 26.8125 6.890625 
Q 36.078125 6.890625 40.9375 10.546875 
Q 45.796875 14.203125 45.796875 21.1875 
Q 45.796875 27.640625 41.28125 31.265625 
Q 36.765625 34.90625 28.71875 34.90625 
L 20.21875 34.90625 
L 20.21875 43.015625 
L 29.109375 43.015625 
Q 36.375 43.015625 40.234375 45.921875 
Q 44.09375 48.828125 44.09375 54.296875 
Q 44.09375 59.90625 40.109375 62.90625 
Q 36.140625 65.921875 28.71875 65.921875 
Q 24.65625 65.921875 20.015625 65.03125 
Q 15.375 64.15625 9.8125 62.3125 
L 9.8125 71.09375 
Q 15.4375 72.65625 20.34375 73.4375 
Q 25.25 74.21875 29.59375 74.21875 
Q 40.828125 74.21875 47.359375 69.109375 
Q 53.90625 64.015625 53.90625 55.328125 
Q 53.90625 49.265625 50.4375 45.09375 
Q 46.96875 40.921875 40.578125 39.3125 
z
" id="DejaVuSans-51"/>
      </defs>
      <g transform="translate(18.9125 48.549541)scale(0.1 -0.1)">
       <use xlink:href="#DejaVuSans-51"/>
       <use x="63.623047" xlink:href="#DejaVuSans-48"/>
       <use x="127.246094" xlink:href="#DejaVuSans-48"/>
      </g>
     </g>
    </g>
    <g id="text_15">
     <!-- Health points -->
     <defs>
      <path d="M 9.8125 72.90625 
L 19.671875 72.90625 
L 19.671875 43.015625 
L 55.515625 43.015625 
L 55.515625 72.90625 
L 65.375 72.90625 
L 65.375 0 
L 55.515625 0 
L 55.515625 34.71875 
L 19.671875 34.71875 
L 19.671875 0 
L 9.8125 0 
z
" id="DejaVuSans-72"/>
      <path d="M 9.421875 75.984375 
L 18.40625 75.984375 
L 18.40625 0 
L 9.421875 0 
z
" id="DejaVuSans-108"/>
      <path d="M 54.890625 33.015625 
L 54.890625 0 
L 45.90625 0 
L 45.90625 32.71875 
Q 45.90625 40.484375 42.875 44.328125 
Q 39.84375 48.1875 33.796875 48.1875 
Q 26.515625 48.1875 22.3125 43.546875 
Q 18.109375 38.921875 18.109375 30.90625 
L 18.109375 0 
L 9.078125 0 
L 9.078125 75.984375 
L 18.109375 75.984375 
L 18.109375 46.1875 
Q 21.34375 51.125 25.703125 53.5625 
Q 30.078125 56 35.796875 56 
Q 45.21875 56 50.046875 50.171875 
Q 54.890625 44.34375 54.890625 33.015625 
z
" id="DejaVuSans-104"/>
      <path id="DejaVuSans-32"/>
      <path d="M 18.109375 8.203125 
L 18.109375 -20.796875 
L 9.078125 -20.796875 
L 9.078125 54.6875 
L 18.109375 54.6875 
L 18.109375 46.390625 
Q 20.953125 51.265625 25.265625 53.625 
Q 29.59375 56 35.59375 56 
Q 45.5625 56 51.78125 48.09375 
Q 58.015625 40.1875 58.015625 27.296875 
Q 58.015625 14.40625 51.78125 6.484375 
Q 45.5625 -1.421875 35.59375 -1.421875 
Q 29.59375 -1.421875 25.265625 0.953125 
Q 20.953125 3.328125 18.109375 8.203125 
z
M 48.6875 27.296875 
Q 48.6875 37.203125 44.609375 42.84375 
Q 40.53125 48.484375 33.40625 48.484375 
Q 26.265625 48.484375 22.1875 42.84375 
Q 18.109375 37.203125 18.109375 27.296875 
Q 18.109375 17.390625 22.1875 11.75 
Q 26.265625 6.109375 33.40625 6.109375 
Q 40.53125 6.109375 44.609375 11.75 
Q 48.6875 17.390625 48.6875 27.296875 
z
" id="DejaVuSans-112"/>
     </defs>
     <g transform="translate(12.832812 160.624063)rotate(-90)scale(0.1 -0.1)">
      <use xlink:href="#DejaVuSans-72"/>
      <use x="75.195312" xlink:href="#DejaVuSans-101"/>
      <use x="136.71875" xlink:href="#DejaVuSans-97"/>
      <use x="197.998047" xlink:href="#DejaVuSans-108"/>
      <use x="225.78125" xlink:href="#DejaVuSans-116"/>
      <use x="264.990234" xlink:href="#DejaVuSans-104"/>
      <use x="328.369141" xlink:href="#DejaVuSans-32"/>
      <use x="360.15625" xlink:href="#DejaVuSans-112"/>
      <use x="423.632812" xlink:href="#DejaVuSans-111"/>
      <use x="484.814453" xlink:href="#DejaVuSans-105"/>
      <use x="512.597656" xlink:href="#DejaVuSans-110"/>
      <use x="575.976562" xlink:href="#DejaVuSans-116"/>
      <use x="615.185547" xlink:href="#DejaVuSans-115"/>
     </g>
    </g>
   </g>
   <g id="line2d_14">
    <path clip-path="url(#pd6d4e89af6)" d="M 57.681818 160.94671 
L 60.218182 158.613677 
L 62.754545 159.353419 
L 65.290909 159.353419 
L 67.827273 160.150065 
L 70.363636 158.158452 
L 72.9 145.127613 
L 75.436364 147.176129 
L 77.972727 148.826323 
L 80.509091 143.932645 
L 83.045455 141.087484 
L 85.581818 140.347742 
L 88.118182 136.364516 
L 90.654545 131.243226 
L 93.190909 126.178839 
L 95.727273 124.585548 
L 98.263636 126.406452 
L 100.8 123.732 
L 103.336364 106.604129 
L 105.872727 102.564 
L 108.409091 100.856903 
L 110.945455 99.718839 
L 113.481818 100.743097 
L 116.018182 100.230968 
L 118.554545 92.947355 
L 121.090909 96.759871 
L 123.627273 96.816774 
L 126.163636 96.646065 
L 128.7 91.183355 
L 131.236364 92.093806 
L 133.772727 89.021032 
L 136.309091 89.760774 
L 138.845455 88.793419 
L 141.381818 88.679613 
L 143.918182 89.248645 
L 146.454545 87.086323 
L 148.990909 85.891355 
L 151.527273 84.867097 
L 154.063636 84.696387 
L 156.6 83.387613 
L 159.136364 82.306452 
L 161.672727 82.306452 
L 164.209091 82.135742 
L 166.745455 82.761677 
L 169.281818 81.737419 
L 171.818182 82.078839 
L 174.354545 82.192645 
L 176.890909 81.680516 
L 179.427273 81.965032 
L 181.963636 81.623613 
L 184.5 82.761677 
L 187.036364 82.761677 
L 189.572727 81.623613 
L 192.109091 84.241161 
L 194.645455 80.314839 
L 197.181818 80.144129 
L 199.718182 79.233677 
L 202.254545 79.632 
L 204.790909 79.404387 
L 207.327273 80.599355 
L 209.863636 79.404387 
L 212.4 79.916516 
L 214.936364 81.396 
L 217.472727 81.851226 
L 220.009091 81.908129 
L 222.545455 80.257935 
L 225.081818 79.347484 
L 227.618182 78.095613 
L 230.154545 77.469677 
L 232.690909 76.160903 
L 235.227273 76.104 
L 237.763636 76.502323 
L 240.3 75.990194 
L 242.836364 75.990194 
L 245.372727 76.559226 
L 247.909091 76.445419 
L 250.445455 75.364258 
L 252.981818 75.307355 
L 255.518182 73.998581 
L 258.054545 73.543355 
L 260.590909 72.803613 
L 263.127273 72.860516 
L 265.663636 71.437935 
L 268.2 71.665548 
L 270.736364 72.177677 
L 273.272727 71.722452 
L 275.809091 71.722452 
L 278.345455 71.722452 
L 280.881818 75.364258 
L 283.418182 73.429548 
L 285.954545 73.201935 
L 288.490909 73.486452 
L 291.027273 73.657161 
L 293.563636 73.657161 
L 296.1 72.689806 
L 298.636364 72.632903 
L 301.172727 72.803613 
L 303.709091 72.689806 
L 306.245455 72.462194 
L 308.781818 72.348387 
L 311.318182 72.576 
" style="fill:none;stroke:#1f77b4;stroke-linecap:square;stroke-width:1.5;"/>
   </g>
   <g id="line2d_15">
    <path clip-path="url(#pd6d4e89af6)" d="M 57.681818 104.49871 
L 60.218182 104.49871 
L 62.754545 104.49871 
L 65.290909 104.49871 
L 67.827273 104.49871 
L 70.363636 104.49871 
L 72.9 70.356774 
L 75.436364 70.356774 
L 77.972727 70.356774 
L 80.509091 70.356774 
L 83.045455 70.356774 
L 85.581818 70.356774 
L 88.118182 58.976129 
L 90.654545 58.976129 
L 93.190909 58.976129 
L 95.727273 58.976129 
L 98.263636 58.976129 
L 100.8 58.976129 
L 103.336364 58.976129 
L 105.872727 58.976129 
L 108.409091 58.976129 
L 110.945455 44.750323 
L 113.481818 44.750323 
L 116.018182 44.750323 
L 118.554545 44.750323 
L 121.090909 44.750323 
L 123.627273 44.750323 
L 126.163636 44.750323 
L 128.7 44.750323 
L 131.236364 44.750323 
L 133.772727 44.750323 
L 136.309091 44.750323 
L 138.845455 44.750323 
L 141.381818 44.750323 
L 143.918182 44.750323 
L 146.454545 44.750323 
L 148.990909 44.750323 
L 151.527273 44.750323 
L 154.063636 44.750323 
L 156.6 44.750323 
L 159.136364 44.750323 
L 161.672727 44.750323 
L 164.209091 44.750323 
L 166.745455 44.750323 
L 169.281818 44.750323 
L 171.818182 44.750323 
L 174.354545 44.750323 
L 176.890909 44.750323 
L 179.427273 44.750323 
L 181.963636 44.750323 
L 184.5 44.750323 
L 187.036364 44.750323 
L 189.572727 44.750323 
L 192.109091 44.750323 
L 194.645455 44.750323 
L 197.181818 44.750323 
L 199.718182 44.750323 
L 202.254545 44.750323 
L 204.790909 44.750323 
L 207.327273 44.750323 
L 209.863636 44.750323 
L 212.4 44.750323 
L 214.936364 44.750323 
L 217.472727 44.750323 
L 220.009091 44.750323 
L 222.545455 44.750323 
L 225.081818 44.750323 
L 227.618182 44.750323 
L 230.154545 44.750323 
L 232.690909 44.750323 
L 235.227273 44.750323 
L 237.763636 44.750323 
L 240.3 44.750323 
L 242.836364 44.750323 
L 245.372727 44.750323 
L 247.909091 44.750323 
L 250.445455 44.750323 
L 252.981818 44.750323 
L 255.518182 44.750323 
L 258.054545 44.750323 
L 260.590909 44.750323 
L 263.127273 44.750323 
L 265.663636 44.750323 
L 268.2 44.750323 
L 270.736364 44.750323 
L 273.272727 44.750323 
L 275.809091 44.750323 
L 278.345455 44.750323 
L 280.881818 39.06 
L 283.418182 39.06 
L 285.954545 39.06 
L 288.490909 39.06 
L 291.027273 39.06 
L 293.563636 39.06 
L 296.1 39.06 
L 298.636364 39.06 
L 301.172727 39.06 
L 303.709091 39.06 
L 306.245455 39.06 
L 308.781818 39.06 
L 311.318182 39.06 
" style="fill:none;stroke:#ff7f0e;stroke-dasharray:6,2.25;stroke-dashoffset:0;stroke-width:1.5;"/>
   </g>
   <g id="line2d_16">
    <path clip-path="url(#pd6d4e89af6)" d="M 57.681818 118.360335 
L 60.218182 134.395665 
L 62.754545 141.155768 
L 65.290909 147.813445 
L 67.827273 153.481006 
L 70.363636 153.105445 
L 72.9 150.317187 
L 75.436364 158.773006 
L 77.972727 162.448955 
L 80.509091 159.273755 
L 83.045455 158.670581 
L 85.581818 160.650813 
L 88.118182 167.501961 
L 90.654545 165.783484 
L 93.190909 164.372284 
L 95.727273 164.634039 
L 98.263636 169.015587 
L 100.8 168.309987 
L 103.336364 158.716103 
L 105.872727 156.883819 
L 108.409091 157.316284 
L 110.945455 159.785884 
L 113.481818 163.393548 
L 116.018182 163.461832 
L 118.554545 162.426194 
L 121.090909 168.560361 
L 123.627273 169.652903 
L 126.163636 170.677161 
L 128.7 164.156052 
L 131.236364 166.181806 
L 133.772727 164.941316 
L 136.309091 165.88591 
L 138.845455 165.100645 
L 141.381818 166.306994 
L 143.918182 166.853265 
L 146.454545 164.48609 
L 148.990909 165.3624 
L 151.527273 164.542994 
L 154.063636 164.816129 
L 156.6 164.247097 
L 159.136364 163.086271 
L 161.672727 162.54 
L 164.209091 164.964077 
L 166.745455 165.840387 
L 169.281818 165.396542 
L 171.818182 166.989832 
L 174.354545 167.797858 
L 176.890909 167.524723 
L 179.427273 169.732568 
L 181.963636 170.11951 
L 184.5 171.997316 
L 187.036364 171.997316 
L 189.572727 169.891897 
L 192.109091 173.328852 
L 194.645455 171.246194 
L 197.181818 170.882013 
L 199.718182 169.823613 
L 202.254545 170.312981 
L 204.790909 170.369884 
L 207.327273 173.078477 
L 209.863636 172.088361 
L 212.4 172.930529 
L 214.936364 175.809832 
L 217.472727 177.129987 
L 220.009091 177.403123 
L 222.545455 175.377368 
L 225.081818 175.855355 
L 227.618182 173.670271 
L 230.154545 173.670271 
L 232.690909 172.577729 
L 235.227273 172.099742 
L 237.763636 172.850865 
L 240.3 174.569342 
L 242.836364 174.569342 
L 245.372727 175.115613 
L 247.909091 175.115613 
L 250.445455 171.826606 
L 252.981818 172.998813 
L 255.518182 173.29471 
L 258.054545 172.202168 
L 260.590909 170.631639 
L 263.127273 171.416903 
L 265.663636 169.004206 
L 268.2 170.267458 
L 270.736364 172.270452 
L 273.272727 171.451045 
L 275.809091 171.451045 
L 278.345455 171.451045 
L 280.881818 174.523819 
L 283.418182 174.523819 
L 285.954545 177.255174 
L 288.490909 177.983535 
L 291.027273 178.802942 
L 293.563636 178.802942 
L 296.1 177.653497 
L 298.636364 177.676258 
L 301.172727 178.370477 
L 303.709091 178.222529 
L 306.245455 178.404619 
L 308.781818 178.040439 
L 311.318182 178.7688 
" style="fill:none;stroke:#2ca02c;stroke-dasharray:1.5,1.5;stroke-dashoffset:0;stroke-width:1.5;"/>
   </g>
   <g id="line2d_17">
    <path clip-path="url(#pd6d4e89af6)" d="M 57.681818 189.853548 
L 60.218182 206.355484 
L 62.754545 206.355484 
L 65.290909 215.46 
L 67.827273 215.46 
L 70.363636 215.46 
L 72.9 215.46 
L 75.436364 215.46 
L 77.972727 215.46 
L 80.509091 215.46 
L 83.045455 215.46 
L 85.581818 215.46 
L 88.118182 215.46 
L 90.654545 215.46 
L 93.190909 215.46 
L 95.727273 215.46 
L 98.263636 215.46 
L 100.8 215.46 
L 103.336364 215.46 
L 105.872727 215.46 
L 108.409091 215.46 
L 110.945455 215.46 
L 113.481818 215.46 
L 116.018182 215.46 
L 118.554545 215.46 
L 121.090909 215.46 
L 123.627273 215.46 
L 126.163636 215.46 
L 128.7 215.46 
L 131.236364 215.46 
L 133.772727 215.46 
L 136.309091 215.46 
L 138.845455 215.46 
L 141.381818 215.46 
L 143.918182 215.46 
L 146.454545 215.46 
L 148.990909 215.46 
L 151.527273 215.46 
L 154.063636 215.46 
L 156.6 215.46 
L 159.136364 215.46 
L 161.672727 215.46 
L 164.209091 215.46 
L 166.745455 215.46 
L 169.281818 215.46 
L 171.818182 215.46 
L 174.354545 215.46 
L 176.890909 215.46 
L 179.427273 215.46 
L 181.963636 215.46 
L 184.5 215.46 
L 187.036364 215.46 
L 189.572727 215.46 
L 192.109091 215.46 
L 194.645455 215.46 
L 197.181818 215.46 
L 199.718182 215.46 
L 202.254545 215.46 
L 204.790909 215.46 
L 207.327273 215.46 
L 209.863636 215.46 
L 212.4 215.46 
L 214.936364 215.46 
L 217.472727 215.46 
L 220.009091 215.46 
L 222.545455 215.46 
L 225.081818 215.46 
L 227.618182 215.46 
L 230.154545 215.46 
L 232.690909 215.46 
L 235.227273 215.46 
L 237.763636 215.46 
L 240.3 215.46 
L 242.836364 215.46 
L 245.372727 215.46 
L 247.909091 215.46 
L 250.445455 215.46 
L 252.981818 215.46 
L 255.518182 215.46 
L 258.054545 215.46 
L 260.590909 215.46 
L 263.127273 215.46 
L 265.663636 215.46 
L 268.2 215.46 
L 270.736364 215.46 
L 273.272727 215.46 
L 275.809091 215.46 
L 278.345455 215.46 
L 280.881818 215.46 
L 283.418182 215.46 
L 285.954545 215.46 
L 288.490909 215.46 
L 291.027273 215.46 
L 293.563636 215.46 
L 296.1 215.46 
L 298.636364 215.46 
L 301.172727 215.46 
L 303.709091 215.46 
L 306.245455 215.46 
L 308.781818 215.46 
L 311.318182 215.46 
" style="fill:none;stroke:#d62728;stroke-dasharray:4.5,1.875,2.25,1.875;stroke-dashoffset:0;stroke-width:1.5;"/>
   </g>
   <g id="line2d_18"/>
   <g id="line2d_19"/>
   <g id="line2d_20"/>
   <g id="line2d_21"/>
   <g id="patch_3">
    <path d="M 45 224.28 
L 45 30.24 
" style="fill:none;stroke:#000000;stroke-linecap:square;stroke-linejoin:miter;stroke-width:0.8;"/>
   </g>
   <g id="patch_4">
    <path d="M 324 224.28 
L 324 30.24 
" style="fill:none;stroke:#000000;stroke-linecap:square;stroke-linejoin:miter;stroke-width:0.8;"/>
   </g>
   <g id="patch_5">
    <path d="M 45 224.28 
L 324 224.28 
" style="fill:none;stroke:#000000;stroke-linecap:square;stroke-linejoin:miter;stroke-width:0.8;"/>
   </g>
   <g id="patch_6">
    <path d="M 45 30.24 
L 324 30.24 
" style="fill:none;stroke:#000000;stroke-linecap:square;stroke-linejoin:miter;stroke-width:0.8;"/>
   </g>
   <g id="legend_1">
    <g id="patch_7">
     <path d="M 164.321875 158.6725 
L 317 158.6725 
Q 319 158.6725 319 156.6725 
L 319 97.8475 
Q 319 95.8475 317 95.8475 
L 164.321875 95.8475 
Q 162.321875 95.8475 162.321875 97.8475 
L 162.321875 156.6725 
Q 162.321875 158.6725 164.321875 158.6725 
z
" style="fill:#ffffff;opacity:0.8;stroke:#cccccc;stroke-linejoin:miter;"/>
    </g>
    <g id="line2d_22">
     <path d="M 166.321875 103.945938 
L 186.321875 103.945938 
" style="fill:none;stroke:#1f77b4;stroke-linecap:square;stroke-width:1.5;"/>
    </g>
    <g id="line2d_23"/>
    <g id="text_16">
     <!-- aver damage_to_enemy -->
     <defs>
      <path d="M 2.984375 54.6875 
L 12.5 54.6875 
L 29.59375 8.796875 
L 46.6875 54.6875 
L 56.203125 54.6875 
L 35.6875 0 
L 23.484375 0 
z
" id="DejaVuSans-118"/>
      <path d="M 45.40625 46.390625 
L 45.40625 75.984375 
L 54.390625 75.984375 
L 54.390625 0 
L 45.40625 0 
L 45.40625 8.203125 
Q 42.578125 3.328125 38.25 0.953125 
Q 33.9375 -1.421875 27.875 -1.421875 
Q 17.96875 -1.421875 11.734375 6.484375 
Q 5.515625 14.40625 5.515625 27.296875 
Q 5.515625 40.1875 11.734375 48.09375 
Q 17.96875 56 27.875 56 
Q 33.9375 56 38.25 53.625 
Q 42.578125 51.265625 45.40625 46.390625 
z
M 14.796875 27.296875 
Q 14.796875 17.390625 18.875 11.75 
Q 22.953125 6.109375 30.078125 6.109375 
Q 37.203125 6.109375 41.296875 11.75 
Q 45.40625 17.390625 45.40625 27.296875 
Q 45.40625 37.203125 41.296875 42.84375 
Q 37.203125 48.484375 30.078125 48.484375 
Q 22.953125 48.484375 18.875 42.84375 
Q 14.796875 37.203125 14.796875 27.296875 
z
" id="DejaVuSans-100"/>
      <path d="M 52 44.1875 
Q 55.375 50.25 60.0625 53.125 
Q 64.75 56 71.09375 56 
Q 79.640625 56 84.28125 50.015625 
Q 88.921875 44.046875 88.921875 33.015625 
L 88.921875 0 
L 79.890625 0 
L 79.890625 32.71875 
Q 79.890625 40.578125 77.09375 44.375 
Q 74.3125 48.1875 68.609375 48.1875 
Q 61.625 48.1875 57.5625 43.546875 
Q 53.515625 38.921875 53.515625 30.90625 
L 53.515625 0 
L 44.484375 0 
L 44.484375 32.71875 
Q 44.484375 40.625 41.703125 44.40625 
Q 38.921875 48.1875 33.109375 48.1875 
Q 26.21875 48.1875 22.15625 43.53125 
Q 18.109375 38.875 18.109375 30.90625 
L 18.109375 0 
L 9.078125 0 
L 9.078125 54.6875 
L 18.109375 54.6875 
L 18.109375 46.1875 
Q 21.1875 51.21875 25.484375 53.609375 
Q 29.78125 56 35.6875 56 
Q 41.65625 56 45.828125 52.96875 
Q 50 49.953125 52 44.1875 
z
" id="DejaVuSans-109"/>
      <path d="M 45.40625 27.984375 
Q 45.40625 37.75 41.375 43.109375 
Q 37.359375 48.484375 30.078125 48.484375 
Q 22.859375 48.484375 18.828125 43.109375 
Q 14.796875 37.75 14.796875 27.984375 
Q 14.796875 18.265625 18.828125 12.890625 
Q 22.859375 7.515625 30.078125 7.515625 
Q 37.359375 7.515625 41.375 12.890625 
Q 45.40625 18.265625 45.40625 27.984375 
z
M 54.390625 6.78125 
Q 54.390625 -7.171875 48.1875 -13.984375 
Q 42 -20.796875 29.203125 -20.796875 
Q 24.46875 -20.796875 20.265625 -20.09375 
Q 16.0625 -19.390625 12.109375 -17.921875 
L 12.109375 -9.1875 
Q 16.0625 -11.328125 19.921875 -12.34375 
Q 23.78125 -13.375 27.78125 -13.375 
Q 36.625 -13.375 41.015625 -8.765625 
Q 45.40625 -4.15625 45.40625 5.171875 
L 45.40625 9.625 
Q 42.625 4.78125 38.28125 2.390625 
Q 33.9375 0 27.875 0 
Q 17.828125 0 11.671875 7.65625 
Q 5.515625 15.328125 5.515625 27.984375 
Q 5.515625 40.671875 11.671875 48.328125 
Q 17.828125 56 27.875 56 
Q 33.9375 56 38.28125 53.609375 
Q 42.625 51.21875 45.40625 46.390625 
L 45.40625 54.6875 
L 54.390625 54.6875 
z
" id="DejaVuSans-103"/>
      <path d="M 50.984375 -16.609375 
L 50.984375 -23.578125 
L -0.984375 -23.578125 
L -0.984375 -16.609375 
z
" id="DejaVuSans-95"/>
      <path d="M 32.171875 -5.078125 
Q 28.375 -14.84375 24.75 -17.8125 
Q 21.140625 -20.796875 15.09375 -20.796875 
L 7.90625 -20.796875 
L 7.90625 -13.28125 
L 13.1875 -13.28125 
Q 16.890625 -13.28125 18.9375 -11.515625 
Q 21 -9.765625 23.484375 -3.21875 
L 25.09375 0.875 
L 2.984375 54.6875 
L 12.5 54.6875 
L 29.59375 11.921875 
L 46.6875 54.6875 
L 56.203125 54.6875 
z
" id="DejaVuSans-121"/>
     </defs>
     <g transform="translate(194.321875 107.445938)scale(0.1 -0.1)">
      <use xlink:href="#DejaVuSans-97"/>
      <use x="61.279297" xlink:href="#DejaVuSans-118"/>
      <use x="120.458984" xlink:href="#DejaVuSans-101"/>
      <use x="181.982422" xlink:href="#DejaVuSans-114"/>
      <use x="223.095703" xlink:href="#DejaVuSans-32"/>
      <use x="254.882812" xlink:href="#DejaVuSans-100"/>
      <use x="318.359375" xlink:href="#DejaVuSans-97"/>
      <use x="379.638672" xlink:href="#DejaVuSans-109"/>
      <use x="477.050781" xlink:href="#DejaVuSans-97"/>
      <use x="538.330078" xlink:href="#DejaVuSans-103"/>
      <use x="601.806641" xlink:href="#DejaVuSans-101"/>
      <use x="663.330078" xlink:href="#DejaVuSans-95"/>
      <use x="713.330078" xlink:href="#DejaVuSans-116"/>
      <use x="752.539062" xlink:href="#DejaVuSans-111"/>
      <use x="813.720703" xlink:href="#DejaVuSans-95"/>
      <use x="863.720703" xlink:href="#DejaVuSans-101"/>
      <use x="925.244141" xlink:href="#DejaVuSans-110"/>
      <use x="988.623047" xlink:href="#DejaVuSans-101"/>
      <use x="1050.146484" xlink:href="#DejaVuSans-109"/>
      <use x="1147.558594" xlink:href="#DejaVuSans-121"/>
     </g>
    </g>
    <g id="line2d_24">
     <path d="M 166.321875 118.902188 
L 186.321875 118.902188 
" style="fill:none;stroke:#ff7f0e;stroke-dasharray:6,2.25;stroke-dashoffset:0;stroke-width:1.5;"/>
    </g>
    <g id="line2d_25"/>
    <g id="text_17">
     <!-- best damage_to_enemy -->
     <defs>
      <path d="M 48.6875 27.296875 
Q 48.6875 37.203125 44.609375 42.84375 
Q 40.53125 48.484375 33.40625 48.484375 
Q 26.265625 48.484375 22.1875 42.84375 
Q 18.109375 37.203125 18.109375 27.296875 
Q 18.109375 17.390625 22.1875 11.75 
Q 26.265625 6.109375 33.40625 6.109375 
Q 40.53125 6.109375 44.609375 11.75 
Q 48.6875 17.390625 48.6875 27.296875 
z
M 18.109375 46.390625 
Q 20.953125 51.265625 25.265625 53.625 
Q 29.59375 56 35.59375 56 
Q 45.5625 56 51.78125 48.09375 
Q 58.015625 40.1875 58.015625 27.296875 
Q 58.015625 14.40625 51.78125 6.484375 
Q 45.5625 -1.421875 35.59375 -1.421875 
Q 29.59375 -1.421875 25.265625 0.953125 
Q 20.953125 3.328125 18.109375 8.203125 
L 18.109375 0 
L 9.078125 0 
L 9.078125 75.984375 
L 18.109375 75.984375 
z
" id="DejaVuSans-98"/>
     </defs>
     <g transform="translate(194.321875 122.402188)scale(0.1 -0.1)">
      <use xlink:href="#DejaVuSans-98"/>
      <use x="63.476562" xlink:href="#DejaVuSans-101"/>
      <use x="125" xlink:href="#DejaVuSans-115"/>
      <use x="177.099609" xlink:href="#DejaVuSans-116"/>
      <use x="216.308594" xlink:href="#DejaVuSans-32"/>
      <use x="248.095703" xlink:href="#DejaVuSans-100"/>
      <use x="311.572266" xlink:href="#DejaVuSans-97"/>
      <use x="372.851562" xlink:href="#DejaVuSans-109"/>
      <use x="470.263672" xlink:href="#DejaVuSans-97"/>
      <use x="531.542969" xlink:href="#DejaVuSans-103"/>
      <use x="595.019531" xlink:href="#DejaVuSans-101"/>
      <use x="656.542969" xlink:href="#DejaVuSans-95"/>
      <use x="706.542969" xlink:href="#DejaVuSans-116"/>
      <use x="745.751953" xlink:href="#DejaVuSans-111"/>
      <use x="806.933594" xlink:href="#DejaVuSans-95"/>
      <use x="856.933594" xlink:href="#DejaVuSans-101"/>
      <use x="918.457031" xlink:href="#DejaVuSans-110"/>
      <use x="981.835938" xlink:href="#DejaVuSans-101"/>
      <use x="1043.359375" xlink:href="#DejaVuSans-109"/>
      <use x="1140.771484" xlink:href="#DejaVuSans-121"/>
     </g>
    </g>
    <g id="line2d_26">
     <path d="M 166.321875 133.858438 
L 186.321875 133.858438 
" style="fill:none;stroke:#2ca02c;stroke-dasharray:1.5,1.5;stroke-dashoffset:0;stroke-width:1.5;"/>
    </g>
    <g id="line2d_27"/>
    <g id="text_18">
     <!-- aver damage_to_mine -->
     <g transform="translate(194.321875 137.358438)scale(0.1 -0.1)">
      <use xlink:href="#DejaVuSans-97"/>
      <use x="61.279297" xlink:href="#DejaVuSans-118"/>
      <use x="120.458984" xlink:href="#DejaVuSans-101"/>
      <use x="181.982422" xlink:href="#DejaVuSans-114"/>
      <use x="223.095703" xlink:href="#DejaVuSans-32"/>
      <use x="254.882812" xlink:href="#DejaVuSans-100"/>
      <use x="318.359375" xlink:href="#DejaVuSans-97"/>
      <use x="379.638672" xlink:href="#DejaVuSans-109"/>
      <use x="477.050781" xlink:href="#DejaVuSans-97"/>
      <use x="538.330078" xlink:href="#DejaVuSans-103"/>
      <use x="601.806641" xlink:href="#DejaVuSans-101"/>
      <use x="663.330078" xlink:href="#DejaVuSans-95"/>
      <use x="713.330078" xlink:href="#DejaVuSans-116"/>
      <use x="752.539062" xlink:href="#DejaVuSans-111"/>
      <use x="813.720703" xlink:href="#DejaVuSans-95"/>
      <use x="863.720703" xlink:href="#DejaVuSans-109"/>
      <use x="961.132812" xlink:href="#DejaVuSans-105"/>
      <use x="988.916016" xlink:href="#DejaVuSans-110"/>
      <use x="1052.294922" xlink:href="#DejaVuSans-101"/>
     </g>
    </g>
    <g id="line2d_28">
     <path d="M 166.321875 148.814688 
L 186.321875 148.814688 
" style="fill:none;stroke:#d62728;stroke-dasharray:4.5,1.875,2.25,1.875;stroke-dashoffset:0;stroke-width:1.5;"/>
    </g>
    <g id="line2d_29"/>
    <g id="text_19">
     <!-- best damage_to_mine -->
     <g transform="translate(194.321875 152.314688)scale(0.1 -0.1)">
      <use xlink:href="#DejaVuSans-98"/>
      <use x="63.476562" xlink:href="#DejaVuSans-101"/>
      <use x="125" xlink:href="#DejaVuSans-115"/>
      <use x="177.099609" xlink:href="#DejaVuSans-116"/>
      <use x="216.308594" xlink:href="#DejaVuSans-32"/>
      <use x="248.095703" xlink:href="#DejaVuSans-100"/>
      <use x="311.572266" xlink:href="#DejaVuSans-97"/>
      <use x="372.851562" xlink:href="#DejaVuSans-109"/>
      <use x="470.263672" xlink:href="#DejaVuSans-97"/>
      <use x="531.542969" xlink:href="#DejaVuSans-103"/>
      <use x="595.019531" xlink:href="#DejaVuSans-101"/>
      <use x="656.542969" xlink:href="#DejaVuSans-95"/>
      <use x="706.542969" xlink:href="#DejaVuSans-116"/>
      <use x="745.751953" xlink:href="#DejaVuSans-111"/>
      <use x="806.933594" xlink:href="#DejaVuSans-95"/>
      <use x="856.933594" xlink:href="#DejaVuSans-109"/>
      <use x="954.345703" xlink:href="#DejaVuSans-105"/>
      <use x="982.128906" xlink:href="#DejaVuSans-110"/>
      <use x="1045.507812" xlink:href="#DejaVuSans-101"/>
     </g>
    </g>
   </g>
  </g>
 </g>
 <defs>
  <clipPath id="pd6d4e89af6">
   <rect height="194.04" width="279" x="45" y="30.24"/>
  </clipPath>
 </defs>
</svg>
