<?xml version="1.0" encoding="UTF-8" standalone="no"?>
<svg
   xmlns:dc="http://purl.org/dc/elements/1.1/"
   xmlns:cc="http://creativecommons.org/ns#"
   xmlns:rdf="http://www.w3.org/1999/02/22-rdf-syntax-ns#"
   xmlns:svg="http://www.w3.org/2000/svg"
   xmlns="http://www.w3.org/2000/svg"
   xmlns:xlink="http://www.w3.org/1999/xlink"
   xmlns:sodipodi="http://sodipodi.sourceforge.net/DTD/sodipodi-0.dtd"
   xmlns:inkscape="http://www.inkscape.org/namespaces/inkscape"
   height="238.82971pt"
   version="1.1"
   viewBox="0 0 237.9425 238.82971"
   width="237.9425pt"
   id="svg1220"
   sodipodi:docname="3loops.svg"
   inkscape:version="1.0.1 (c497b03c, 2020-09-10)">
  <sodipodi:namedview
     pagecolor="#ffffff"
     bordercolor="#666666"
     borderopacity="1"
     objecttolerance="10"
     gridtolerance="10"
     guidetolerance="10"
     inkscape:pageopacity="0"
     inkscape:pageshadow="2"
     inkscape:window-width="1440"
     inkscape:window-height="855"
     id="namedview1222"
     showgrid="false"
     inkscape:zoom="2.3229167"
     inkscape:cx="173.25667"
     inkscape:cy="195.65919"
     inkscape:window-x="0"
     inkscape:window-y="23"
     inkscape:window-maximized="1"
     inkscape:current-layer="figure_1" />
  <metadata
     id="metadata833">
    <rdf:RDF>
      <cc:Work>
        <dc:type
           rdf:resource="http://purl.org/dc/dcmitype/StillImage" />
        <dc:date>2020-11-23T15:20:44.790858</dc:date>
        <dc:format>image/svg+xml</dc:format>
        <dc:creator>
          <cc:Agent>
            <dc:title>Matplotlib v3.3.1, https://matplotlib.org/</dc:title>
          </cc:Agent>
        </dc:creator>
      </cc:Work>
    </rdf:RDF>
  </metadata>
  <defs
     id="defs837">
    <style
       type="text/css"
       id="style835">*{stroke-linecap:butt;stroke-linejoin:round;}</style>
  </defs>
  <g
     id="figure_1"
     transform="translate(21.9425)">
    <g
       id="patch_1">
      <path
         d="M 0,216 H 216 V 0 H 0 Z"
         style="fill:#ffffff"
         id="path839" />
    </g>
    <g
       id="axes_1">
      <g
         id="patch_2">
        <path
           d="M 27,192.24 H 194.4 V 25.92 H 27 Z"
           style="fill:#ffffff"
           id="path842" />
      </g>
      <g
         id="matplotlib.axis_1">
        <g
           id="xtick_1">
          <g
             id="line2d_1">
            <defs
               id="defs846">
              <path
                 d="M 0,0 V 6"
                 id="m6cf0a6eeb5"
                 style="stroke:#262626;stroke-width:1.25" />
            </defs>
            <g
               id="g850">
              <use
                 style="fill:#262626;stroke:#262626;stroke-width:1.25"
                 x="43.740002"
                 xlink:href="#m6cf0a6eeb5"
                 y="192.24001"
                 id="use848"
                 width="100%"
                 height="100%" />
            </g>
          </g>
          <g
             id="text_1">
            <!-- 3+pa -->
            <g
               style="fill:#262626"
               transform="matrix(0.11,0,0,-0.11,31.352109,209.64625)"
               id="g867">
              <defs
                 id="defs857">
                <path
                   d="m 4.203125,18.890625 8.78125,1.171875 Q 14.5,12.59375 18.140625,9.296875 21.78125,6 27,6 33.203125,6 37.46875,10.296875 41.75,14.59375 41.75,20.953125 q 0,6.046875 -3.953125,9.96875 -3.953125,3.9375 -10.0625,3.9375 -2.484375,0 -6.203125,-0.96875 l 0.984375,7.71875 Q 23.390625,41.5 23.921875,41.5 q 5.625,0 10.109375,2.921875 4.5,2.9375 4.5,9.046875 0,4.828125 -3.28125,8 -3.265625,3.1875 -8.4375,3.1875 -5.125,0 -8.546875,-3.234375 -3.421875,-3.21875 -4.390625,-9.65625 l -8.796875,1.5625 q 1.609375,8.828125 7.3125,13.6875 5.71875,4.859375 14.21875,4.859375 5.859375,0 10.78125,-2.515625 4.9375,-2.515625 7.546875,-6.859375 2.625,-4.34375 2.625,-9.234375 0,-4.625 -2.5,-8.4375 -2.484375,-3.8125 -7.359375,-6.0625 6.34375,-1.453125 9.859375,-6.078125 3.515625,-4.609375 3.515625,-11.546875 0,-9.375 -6.84375,-15.890625 -6.828125,-6.515625 -17.28125,-6.515625 -9.421875,0 -15.65625,5.609375 -6.21875,5.625 -7.09375,14.546875 z"
                   id="ArialMT-51" />
                <path
                   d="m 25.046875,11.578125 v 19.625 H 5.5625 V 39.40625 H 25.046875 V 58.890625 H 33.34375 V 39.40625 H 52.828125 V 31.203125 H 33.34375 v -19.625 z"
                   id="ArialMT-43" />
                <path
                   d="m 6.59375,-19.875 v 71.734375 h 8 V 45.125 Q 17.4375,49.078125 21,51.046875 q 3.5625,1.984375 8.640625,1.984375 6.640625,0 11.71875,-3.421875 5.078125,-3.421875 7.65625,-9.65625 2.59375,-6.21875 2.59375,-13.640625 0,-7.953125 -2.859375,-14.328125 Q 45.90625,5.609375 40.453125,2.21875 35.015625,-1.171875 29,-1.171875 q -4.390625,0 -7.890625,1.859375 Q 17.625,2.546875 15.375,5.375 v -25.25 z m 7.953125,45.515625 q 0,-10.015625 4.046875,-14.796875 4.0625,-4.78125 9.828125,-4.78125 5.859375,0 10.03125,4.953125 Q 42.625,15.96875 42.625,26.375 q 0,9.90625 -4.078125,14.828125 -4.078125,4.9375 -9.734375,4.9375 -5.625,0 -9.953125,-5.25 -4.3125,-5.25 -4.3125,-15.25 z"
                   id="ArialMT-112" />
                <path
                   d="M 40.4375,6.390625 Q 35.546875,2.25 31.03125,0.53125 q -4.515625,-1.703125 -9.6875,-1.703125 -8.546875,0 -13.140625,4.171875 -4.59375,4.171875 -4.59375,10.671875 0,3.8125 1.734375,6.953125 1.734375,3.15625 4.546875,5.0625 2.8125,1.90625 6.328125,2.875 2.578125,0.6875 7.8125,1.328125 10.640625,1.265625 15.671875,3.015625 0.04687,1.8125 0.04687,2.296875 0,5.375 -2.5,7.578125 -3.359375,2.96875 -10,2.96875 -6.203125,0 -9.15625,-2.171875 -2.953125,-2.171875 -4.375,-7.6875 L 5.125,37.0625 q 1.171875,5.515625 3.859375,8.90625 2.6875,3.390625 7.765625,5.21875 5.078125,1.84375 11.765625,1.84375 6.640625,0 10.78125,-1.5625 4.15625,-1.5625 6.109375,-3.9375 1.953125,-2.359375 2.734375,-5.984375 0.4375,-2.234375 0.4375,-8.09375 v -11.71875 q 0,-12.265625 0.5625,-15.515625 Q 49.703125,2.984375 51.375,0 h -9.1875 q -1.359375,2.734375 -1.75,6.390625 z M 39.703125,26.03125 Q 34.90625,24.078125 25.34375,22.703125 19.921875,21.921875 17.671875,20.9375 15.4375,19.96875 14.203125,18.09375 q -1.21875,-1.875 -1.21875,-4.171875 0,-3.515625 2.65625,-5.859375 2.671875,-2.34375 7.796875,-2.34375 5.078125,0 9.03125,2.21875 3.953125,2.21875 5.8125,6.078125 1.421875,2.984375 1.421875,8.78125 z"
                   id="ArialMT-97" />
              </defs>
              <use
                 xlink:href="#ArialMT-51"
                 id="use859"
                 x="0"
                 y="0"
                 width="100%"
                 height="100%" />
              <use
                 x="55.615234"
                 xlink:href="#ArialMT-43"
                 id="use861"
                 y="0"
                 width="100%"
                 height="100%" />
              <use
                 x="114.01367"
                 xlink:href="#ArialMT-112"
                 id="use863"
                 y="0"
                 width="100%"
                 height="100%" />
              <use
                 x="169.62891"
                 xlink:href="#ArialMT-97"
                 id="use865"
                 y="0"
                 width="100%"
                 height="100%" />
            </g>
            <!--  -->
            <g
               style="fill:#262626"
               transform="matrix(0.11,0,0,-0.11,43.74,221.28081)"
               id="g869" />
          </g>
        </g>
        <g
           id="xtick_2">
          <g
             id="line2d_2">
            <g
               id="g875">
              <use
                 style="fill:#262626;stroke:#262626;stroke-width:1.25"
                 x="77.220001"
                 xlink:href="#m6cf0a6eeb5"
                 y="192.24001"
                 id="use873"
                 width="100%"
                 height="100%" />
            </g>
          </g>
          <g
             id="text_2">
            <!-- 3+pf -->
            <g
               style="fill:#262626"
               transform="matrix(0.11,0,0,-0.11,66.362656,209.74766)"
               id="g889">
              <defs
                 id="defs879">
                <path
                   d="M 8.6875,0 V 45.015625 H 0.921875 v 6.84375 H 8.6875 V 57.375 q 0,5.21875 0.9375,7.765625 1.265625,3.421875 4.453125,5.53125 3.203125,2.125 8.96875,2.125 3.71875,0 8.203125,-0.875 l -1.3125,-7.65625 Q 27.203125,64.75 24.75,64.75 q -4,0 -5.65625,-1.71875 -1.65625,-1.703125 -1.65625,-6.390625 v -4.78125 h 10.109375 v -6.84375 H 17.4375 V 0 Z"
                   id="ArialMT-102" />
              </defs>
              <use
                 xlink:href="#ArialMT-51"
                 id="use881"
                 x="0"
                 y="0"
                 width="100%"
                 height="100%" />
              <use
                 x="55.615234"
                 xlink:href="#ArialMT-43"
                 id="use883"
                 y="0"
                 width="100%"
                 height="100%" />
              <use
                 x="114.01367"
                 xlink:href="#ArialMT-112"
                 id="use885"
                 y="0"
                 width="100%"
                 height="100%" />
              <use
                 x="169.62891"
                 xlink:href="#ArialMT-102"
                 id="use887"
                 y="0"
                 width="100%"
                 height="100%" />
            </g>
            <!--  -->
            <g
               style="fill:#262626"
               transform="matrix(0.11,0,0,-0.11,77.22,221.38222)"
               id="g891" />
          </g>
        </g>
        <g
           id="xtick_3">
          <g
             id="line2d_3">
            <g
               id="g897">
              <use
                 style="fill:#262626;stroke:#262626;stroke-width:1.25"
                 x="110.7"
                 xlink:href="#m6cf0a6eeb5"
                 y="192.24001"
                 id="use895"
                 width="100%"
                 height="100%" />
            </g>
          </g>
          <g
             id="text_3">
            <!-- 3+af -->
            <g
               style="fill:#262626"
               transform="matrix(0.11,0,0,-0.11,99.842656,209.61359)"
               id="g908">
              <use
                 xlink:href="#ArialMT-51"
                 id="use900"
                 x="0"
                 y="0"
                 width="100%"
                 height="100%" />
              <use
                 x="55.615234"
                 xlink:href="#ArialMT-43"
                 id="use902"
                 y="0"
                 width="100%"
                 height="100%" />
              <use
                 x="114.01367"
                 xlink:href="#ArialMT-97"
                 id="use904"
                 y="0"
                 width="100%"
                 height="100%" />
              <use
                 x="169.62891"
                 xlink:href="#ArialMT-102"
                 id="use906"
                 y="0"
                 width="100%"
                 height="100%" />
            </g>
            <!--  -->
            <g
               style="fill:#262626"
               transform="matrix(0.11,0,0,-0.11,110.7,221.24816)"
               id="g910" />
          </g>
        </g>
        <g
           id="xtick_4">
          <g
             id="line2d_4">
            <g
               id="g916">
              <use
                 style="fill:#262626;stroke:#262626;stroke-width:1.25"
                 x="144.17999"
                 xlink:href="#m6cf0a6eeb5"
                 y="192.24001"
                 id="use914"
                 width="100%"
                 height="100%" />
            </g>
          </g>
          <g
             id="text_4">
            <!-- 3+n -->
            <g
               style="fill:#262626"
               transform="matrix(0.11,0,0,-0.11,134.85062,209.61359)"
               id="g928">
              <defs
                 id="defs920">
                <path
                   d="M 6.59375,0 V 51.859375 H 14.5 v -7.375 q 5.71875,8.546875 16.5,8.546875 4.6875,0 8.625,-1.6875 3.9375,-1.6875 5.890625,-4.421875 Q 47.46875,44.1875 48.25,40.4375 48.734375,37.984375 48.734375,31.890625 V 0 H 39.9375 v 31.546875 q 0,5.375 -1.03125,8.03125 -1.015625,2.65625 -3.625,4.234375 -2.609375,1.59375 -6.125,1.59375 -5.625,0 -9.703125,-3.5625 Q 15.375,38.28125 15.375,28.328125 V 0 Z"
                   id="ArialMT-110" />
              </defs>
              <use
                 xlink:href="#ArialMT-51"
                 id="use922"
                 x="0"
                 y="0"
                 width="100%"
                 height="100%" />
              <use
                 x="55.615234"
                 xlink:href="#ArialMT-43"
                 id="use924"
                 y="0"
                 width="100%"
                 height="100%" />
              <use
                 x="114.01367"
                 xlink:href="#ArialMT-110"
                 id="use926"
                 y="0"
                 width="100%"
                 height="100%" />
            </g>
            <!--  -->
            <g
               style="fill:#262626"
               transform="matrix(0.11,0,0,-0.11,144.18,221.24816)"
               id="g930" />
          </g>
        </g>
        <g
           id="xtick_5">
          <g
             id="line2d_5">
            <g
               id="g936">
              <use
                 style="fill:#262626;stroke:#262626;stroke-width:1.25"
                 x="177.66"
                 xlink:href="#m6cf0a6eeb5"
                 y="192.24001"
                 id="use934"
                 width="100%"
                 height="100%" />
            </g>
          </g>
          <g
             id="text_5">
            <!-- 3+paf -->
            <g
               style="fill:#262626"
               transform="matrix(0.11,0,0,-0.11,163.74414,209.74766)"
               id="g949">
              <use
                 xlink:href="#ArialMT-51"
                 id="use939"
                 x="0"
                 y="0"
                 width="100%"
                 height="100%" />
              <use
                 x="55.615234"
                 xlink:href="#ArialMT-43"
                 id="use941"
                 y="0"
                 width="100%"
                 height="100%" />
              <use
                 x="114.01367"
                 xlink:href="#ArialMT-112"
                 id="use943"
                 y="0"
                 width="100%"
                 height="100%" />
              <use
                 x="169.62891"
                 xlink:href="#ArialMT-97"
                 id="use945"
                 y="0"
                 width="100%"
                 height="100%" />
              <use
                 x="225.24414"
                 xlink:href="#ArialMT-102"
                 id="use947"
                 y="0"
                 width="100%"
                 height="100%" />
            </g>
            <!--  -->
            <g
               style="fill:#262626"
               transform="matrix(0.11,0,0,-0.11,177.66,221.38222)"
               id="g951" />
          </g>
        </g>
        <g
           id="text_6">
          <!-- Settings -->
          <g
             style="fill:#262626"
             transform="matrix(0.12,0,0,-0.12,89.02125,236.30409)"
             id="g979">
            <defs
               id="defs961">
              <path
                 d="m 4.5,23 8.921875,0.78125 q 0.640625,-5.375 2.953125,-8.8125 2.328125,-3.4375 7.203125,-5.5625 4.890625,-2.125 11,-2.125 5.40625,0 9.5625,1.609375 4.15625,1.609375 6.171875,4.40625 2.03125,2.8125 2.03125,6.140625 0,3.359375 -1.953125,5.875 -1.953125,2.515625 -6.4375,4.234375 -2.890625,1.125 -12.75,3.484375 -9.859375,2.375 -13.8125,4.46875 -5.140625,2.6875 -7.65625,6.65625 -2.5,3.984375 -2.5,8.921875 0,5.421875 3.0625,10.125 3.078125,4.71875 8.984375,7.15625 5.921875,2.4375 13.140625,2.4375 7.953125,0 14.03125,-2.5625 6.09375,-2.5625 9.359375,-7.546875 3.265625,-4.96875 3.515625,-11.265625 L 50.25,50.734375 q -0.734375,6.78125 -4.96875,10.25 -4.21875,3.46875 -12.46875,3.46875 -8.59375,0 -12.53125,-3.15625 -3.921875,-3.140625 -3.921875,-7.578125 0,-3.859375 2.78125,-6.359375 2.734375,-2.484375 14.28125,-5.09375 11.546875,-2.609375 15.84375,-4.5625 6.25,-2.890625 9.21875,-7.3125 2.984375,-4.40625 2.984375,-10.171875 0,-5.71875 -3.265625,-10.78125 -3.265625,-5.046875 -9.40625,-7.859375 -6.125,-2.796875 -13.78125,-2.796875 -9.71875,0 -16.296875,2.828125 Q 12.15625,4.4375 8.421875,10.125 4.6875,15.828125 4.5,23 Z"
                 id="ArialMT-83" />
              <path
                 d="m 42.09375,16.703125 9.078125,-1.125 Q 49.03125,7.625 43.21875,3.21875 37.40625,-1.171875 28.375,-1.171875 q -11.375,0 -18.046875,7 -6.671875,7.015625 -6.671875,19.65625 0,13.09375 6.734375,20.3125 6.75,7.234375 17.484375,7.234375 10.40625,0 17,-7.078125 6.59375,-7.078125 6.59375,-19.921875 0,-0.78125 -0.04687,-2.34375 H 12.75 q 0.484375,-8.546875 4.828125,-13.09375 4.34375,-4.53125 10.84375,-4.53125 4.828125,0 8.25,2.53125 3.421875,2.546875 5.421875,8.109375 z M 13.234375,30.90625 H 42.1875 q -0.578125,6.546875 -3.3125,9.8125 -4.203125,5.078125 -10.890625,5.078125 -6.0625,0 -10.1875,-4.046875 -4.125,-4.046875 -4.5625,-10.84375 z"
                 id="ArialMT-101" />
              <path
                 d="M 25.78125,7.859375 27.046875,0.09375 Q 23.34375,-0.6875 20.40625,-0.6875 15.625,-0.6875 12.984375,0.828125 10.359375,2.34375 9.28125,4.8125 8.203125,7.28125 8.203125,15.1875 v 29.828125 h -6.4375 v 6.84375 h 6.4375 v 12.84375 L 16.9375,69.96875 V 51.859375 h 8.84375 v -6.84375 H 16.9375 v -30.3125 q 0,-3.765625 0.46875,-4.84375 0.46875,-1.0625 1.515625,-1.703125 1.046875,-0.640625 3,-0.640625 1.46875,0 3.859375,0.34375 z"
                 id="ArialMT-116" />
              <path
                 d="M 6.640625,61.46875 V 71.578125 H 15.4375 V 61.46875 Z M 6.640625,0 V 51.859375 H 15.4375 V 0 Z"
                 id="ArialMT-105" />
              <path
                 d="M 4.984375,-4.296875 13.53125,-5.5625 q 0.53125,-3.953125 2.96875,-5.765625 3.28125,-2.4375 8.9375,-2.4375 6.109375,0 9.421875,2.4375 3.328125,2.4375 4.5,6.828125 0.6875,2.6875 0.625,11.28125 Q 34.234375,0 25.640625,0 14.9375,0 9.078125,7.71875 q -5.859375,7.71875 -5.859375,18.5 0,7.421875 2.6875,13.6875 2.6875,6.28125 7.78125,9.703125 5.109375,3.421875 12,3.421875 9.171875,0 15.140625,-7.421875 v 6.25 h 8.09375 V 7.03125 q 0,-12.109375 -2.46875,-17.15625 -2.453125,-5.0625 -7.8125,-7.984375 -5.34375,-2.9375 -13.15625,-2.9375 -9.265625,0 -14.984375,4.171875 -5.71875,4.171875 -5.515625,12.578125 z M 12.25,26.859375 q 0,-10.203125 4.046875,-14.890625 4.0625,-4.6875 10.171875,-4.6875 6.046875,0 10.140625,4.65625 4.109375,4.671875 4.109375,14.625 0,9.515625 -4.21875,14.34375 Q 32.28125,45.75 26.3125,45.75 q -5.859375,0 -9.96875,-4.765625 -4.09375,-4.75 -4.09375,-14.125 z"
                 id="ArialMT-103" />
              <path
                 d="m 3.078125,15.484375 8.6875,1.359375 Q 12.5,11.625 15.84375,8.84375 19.1875,6.0625 25.203125,6.0625 q 6.046875,0 8.96875,2.453125 2.9375,2.46875 2.9375,5.796875 0,2.96875 -2.59375,4.6875 Q 32.71875,20.171875 25.53125,21.96875 15.875,24.421875 12.140625,26.203125 8.40625,27.984375 6.46875,31.125 q -1.921875,3.15625 -1.921875,6.96875 0,3.453125 1.578125,6.40625 1.59375,2.96875 4.328125,4.921875 2.046875,1.5 5.578125,2.546875 3.546875,1.0625 7.609375,1.0625 6.09375,0 10.703125,-1.765625 4.625,-1.75 6.8125,-4.765625 2.203125,-3 3.03125,-8.015625 L 35.59375,37.3125 q -0.578125,4 -3.390625,6.234375 -2.8125,2.25 -7.9375,2.25 -6.046875,0 -8.640625,-2 -2.59375,-2 -2.59375,-4.6875 0,-1.703125 1.078125,-3.078125 1.078125,-1.40625 3.375,-2.34375 1.3125,-0.484375 7.765625,-2.234375 9.328125,-2.5 13,-4.09375 3.6875,-1.578125 5.78125,-4.609375 2.109375,-3.015625 2.109375,-7.515625 0,-4.390625 -2.5625,-8.28125 -2.5625,-3.875 -7.40625,-6 -4.828125,-2.125 -10.921875,-2.125 -10.109375,0 -15.40625,4.203125 -5.296875,4.203125 -6.765625,12.453125 z"
                 id="ArialMT-115" />
            </defs>
            <use
               xlink:href="#ArialMT-83"
               id="use963"
               x="0"
               y="0"
               width="100%"
               height="100%" />
            <use
               x="66.699219"
               xlink:href="#ArialMT-101"
               id="use965"
               y="0"
               width="100%"
               height="100%" />
            <use
               x="122.31445"
               xlink:href="#ArialMT-116"
               id="use967"
               y="0"
               width="100%"
               height="100%" />
            <use
               x="150.09766"
               xlink:href="#ArialMT-116"
               id="use969"
               y="0"
               width="100%"
               height="100%" />
            <use
               x="177.88086"
               xlink:href="#ArialMT-105"
               id="use971"
               y="0"
               width="100%"
               height="100%" />
            <use
               x="200.09766"
               xlink:href="#ArialMT-110"
               id="use973"
               y="0"
               width="100%"
               height="100%" />
            <use
               x="255.71289"
               xlink:href="#ArialMT-103"
               id="use975"
               y="0"
               width="100%"
               height="100%" />
            <use
               x="311.32812"
               xlink:href="#ArialMT-115"
               id="use977"
               y="0"
               width="100%"
               height="100%" />
          </g>
        </g>
      </g>
      <g
         id="matplotlib.axis_2">
        <g
           id="ytick_1">
          <g
             id="line2d_6">
            <defs
               id="defs984">
              <path
                 d="M 0,0 H -6"
                 id="m89f98abe01"
                 style="stroke:#262626;stroke-width:1.25" />
            </defs>
            <g
               id="g988">
              <use
                 style="fill:#262626;stroke:#262626;stroke-width:1.25"
                 x="27"
                 xlink:href="#m89f98abe01"
                 y="176.30374"
                 id="use986"
                 width="100%"
                 height="100%" />
            </g>
          </g>
          <g
             id="text_7">
            <!-- 1000 -->
            <g
               style="fill:#262626"
               transform="matrix(0.11,0,0,-0.11,-6.968125,180.24054)"
               id="g1003">
              <defs
                 id="defs993">
                <path
                   d="m 37.25,0 h -8.78125 v 56 q -3.171875,-3.015625 -8.328125,-6.046875 -5.15625,-3.03125 -9.25,-4.546875 v 8.5 q 7.375,3.46875 12.890625,8.390625 5.515625,4.9375 7.8125,9.578125 H 37.25 Z"
                   id="ArialMT-49" />
                <path
                   d="m 4.15625,35.296875 q 0,12.703125 2.609375,20.4375 2.609375,7.75 7.75,11.9375 5.15625,4.203125 12.96875,4.203125 5.765625,0 10.109375,-2.328125 4.34375,-2.3125 7.171875,-6.6875 Q 47.609375,58.5 49.21875,52.21875 q 1.609375,-6.265625 1.609375,-16.921875 0,-12.59375 -2.59375,-20.328125 Q 45.65625,7.234375 40.5,3 35.359375,-1.21875 27.484375,-1.21875 q -10.34375,0 -16.25,7.421875 -7.078125,8.9375 -7.078125,29.09375 z m 9.03125,0 q 0,-17.625 4.125,-23.46875 Q 21.4375,6 27.484375,6 q 6.0625,0 10.1875,5.859375 4.125,5.859375 4.125,23.4375 0,17.6875 -4.125,23.484375 -4.125,5.8125 -10.28125,5.8125 -6.046875,0 -9.671875,-5.125 Q 13.1875,52.9375 13.1875,35.296875 Z"
                   id="ArialMT-48" />
              </defs>
              <use
                 xlink:href="#ArialMT-49"
                 id="use995"
                 x="0"
                 y="0"
                 width="100%"
                 height="100%" />
              <use
                 x="55.615234"
                 xlink:href="#ArialMT-48"
                 id="use997"
                 y="0"
                 width="100%"
                 height="100%" />
              <use
                 x="111.23047"
                 xlink:href="#ArialMT-48"
                 id="use999"
                 y="0"
                 width="100%"
                 height="100%" />
              <use
                 x="166.8457"
                 xlink:href="#ArialMT-48"
                 id="use1001"
                 y="0"
                 width="100%"
                 height="100%" />
            </g>
          </g>
        </g>
        <g
           id="ytick_2">
          <g
             id="line2d_7">
            <g
               id="g1009">
              <use
                 style="fill:#262626;stroke:#262626;stroke-width:1.25"
                 x="27"
                 xlink:href="#m89f98abe01"
                 y="133.56773"
                 id="use1007"
                 width="100%"
                 height="100%" />
            </g>
          </g>
          <g
             id="text_8">
            <!-- 1500 -->
            <g
               style="fill:#262626"
               transform="matrix(0.11,0,0,-0.11,-6.968125,137.50453)"
               id="g1023">
              <defs
                 id="defs1013">
                <path
                   d="M 4.15625,18.75 13.375,19.53125 Q 14.40625,12.796875 18.140625,9.390625 21.875,6 27.15625,6 33.5,6 37.890625,10.78125 42.28125,15.578125 42.28125,23.484375 42.28125,31 38.0625,35.34375 33.84375,39.703125 27,39.703125 q -4.25,0 -7.671875,-1.9375 -3.40625,-1.921875 -5.359375,-5 l -8.25,1.078125 6.921875,36.765625 H 48.25 v -8.40625 H 19.671875 L 15.828125,42.96875 q 6.4375,4.5 13.515625,4.5 9.375,0 15.8125,-6.5 6.453125,-6.5 6.453125,-16.703125 0,-9.71875 -5.65625,-16.796875 -6.890625,-8.6875 -18.796875,-8.6875 -9.765625,0 -15.953125,5.46875 Q 5.03125,9.71875 4.15625,18.75 Z"
                   id="ArialMT-53" />
              </defs>
              <use
                 xlink:href="#ArialMT-49"
                 id="use1015"
                 x="0"
                 y="0"
                 width="100%"
                 height="100%" />
              <use
                 x="55.615234"
                 xlink:href="#ArialMT-53"
                 id="use1017"
                 y="0"
                 width="100%"
                 height="100%" />
              <use
                 x="111.23047"
                 xlink:href="#ArialMT-48"
                 id="use1019"
                 y="0"
                 width="100%"
                 height="100%" />
              <use
                 x="166.8457"
                 xlink:href="#ArialMT-48"
                 id="use1021"
                 y="0"
                 width="100%"
                 height="100%" />
            </g>
          </g>
        </g>
        <g
           id="ytick_3">
          <g
             id="line2d_8">
            <g
               id="g1029">
              <use
                 style="fill:#262626;stroke:#262626;stroke-width:1.25"
                 x="27"
                 xlink:href="#m89f98abe01"
                 y="90.831726"
                 id="use1027"
                 width="100%"
                 height="100%" />
            </g>
          </g>
          <g
             id="text_9">
            <!-- 2000 -->
            <g
               style="fill:#262626"
               transform="matrix(0.11,0,0,-0.11,-6.968125,94.768521)"
               id="g1043">
              <defs
                 id="defs1033">
                <path
                   d="M 50.34375,8.453125 V 0 H 3.03125 Q 2.9375,3.171875 4.046875,6.109375 5.859375,10.9375 9.828125,15.625 13.8125,20.3125 21.34375,26.46875 q 11.671875,9.5625 15.765625,15.15625 4.109375,5.59375 4.109375,10.578125 0,5.21875 -3.75,8.796875 -3.734375,3.59375 -9.734375,3.59375 -6.34375,0 -10.15625,-3.8125 Q 13.765625,56.984375 13.71875,50.25 L 4.6875,51.171875 q 0.921875,10.109375 6.96875,15.40625 6.0625,5.296875 16.28125,5.296875 10.296875,0 16.296875,-5.71875 Q 50.25,60.453125 50.25,52 50.25,47.703125 48.484375,43.546875 46.734375,39.40625 42.65625,34.8125 38.578125,30.21875 29.109375,22.21875 21.1875,15.578125 18.9375,13.203125 q -2.234375,-2.359375 -3.703125,-4.75 z"
                   id="ArialMT-50" />
              </defs>
              <use
                 xlink:href="#ArialMT-50"
                 id="use1035"
                 x="0"
                 y="0"
                 width="100%"
                 height="100%" />
              <use
                 x="55.615234"
                 xlink:href="#ArialMT-48"
                 id="use1037"
                 y="0"
                 width="100%"
                 height="100%" />
              <use
                 x="111.23047"
                 xlink:href="#ArialMT-48"
                 id="use1039"
                 y="0"
                 width="100%"
                 height="100%" />
              <use
                 x="166.8457"
                 xlink:href="#ArialMT-48"
                 id="use1041"
                 y="0"
                 width="100%"
                 height="100%" />
            </g>
          </g>
        </g>
        <g
           id="ytick_4">
          <g
             id="line2d_9">
            <g
               id="g1049">
              <use
                 style="fill:#262626;stroke:#262626;stroke-width:1.25"
                 x="27"
                 xlink:href="#m89f98abe01"
                 y="48.095715"
                 id="use1047"
                 width="100%"
                 height="100%" />
            </g>
          </g>
          <g
             id="text_10">
            <!-- 2500 -->
            <g
               style="fill:#262626"
               transform="matrix(0.11,0,0,-0.11,-6.968125,52.032512)"
               id="g1060">
              <use
                 xlink:href="#ArialMT-50"
                 id="use1052"
                 x="0"
                 y="0"
                 width="100%"
                 height="100%" />
              <use
                 x="55.615234"
                 xlink:href="#ArialMT-53"
                 id="use1054"
                 y="0"
                 width="100%"
                 height="100%" />
              <use
                 x="111.23047"
                 xlink:href="#ArialMT-48"
                 id="use1056"
                 y="0"
                 width="100%"
                 height="100%" />
              <use
                 x="166.8457"
                 xlink:href="#ArialMT-48"
                 id="use1058"
                 y="0"
                 width="100%"
                 height="100%" />
            </g>
          </g>
        </g>
        <g
           id="text_11">
          <!-- Loop used -->
          <g
             style="fill:#262626"
             transform="matrix(0,-0.12,-0.12,0,-13.353125,137.10281)"
             id="g1089">
            <defs
               id="defs1069">
              <path
                 d="m 7.328125,0 v 71.578125 h 9.46875 v -63.125 h 35.25 V 0 Z"
                 id="ArialMT-76" />
              <path
                 d="m 3.328125,25.921875 q 0,14.40625 8,21.34375 6.6875,5.765625 16.3125,5.765625 10.6875,0 17.46875,-7.015625 6.796875,-7 6.796875,-19.359375 0,-10 -3,-15.75 -3,-5.734375 -8.75,-8.90625 Q 34.421875,-1.171875 27.640625,-1.171875 16.75,-1.171875 10.03125,5.8125 3.328125,12.796875 3.328125,25.921875 Z m 9.03125,0 q 0,-9.953125 4.34375,-14.90625 4.34375,-4.953125 10.9375,-4.953125 6.546875,0 10.890625,4.96875 4.34375,4.984375 4.34375,15.1875 0,9.625 -4.375,14.578125 Q 34.125,45.75 27.640625,45.75 q -6.59375,0 -10.9375,-4.9375 -4.34375,-4.921875 -4.34375,-14.890625 z"
                 id="ArialMT-111" />
              <path
                 id="ArialMT-32"
                 d="" />
              <path
                 d="m 40.578125,0 v 7.625 q -6.0625,-8.796875 -16.453125,-8.796875 -4.59375,0 -8.578125,1.75 Q 11.578125,2.34375 9.640625,5 7.71875,7.671875 6.9375,11.53125 6.390625,14.109375 6.390625,19.734375 v 32.125 H 15.1875 V 23.09375 q 0,-6.875 0.53125,-9.28125 0.828125,-3.453125 3.515625,-5.4375 2.6875,-1.984375 6.640625,-1.984375 3.953125,0 7.421875,2.03125 3.46875,2.03125 4.90625,5.515625 1.453125,3.5 1.453125,10.140625 v 27.78125 H 48.4375 V 0 Z"
                 id="ArialMT-117" />
              <path
                 d="m 40.234375,0 v 6.546875 q -4.9375,-7.71875 -14.5,-7.71875 -6.203125,0 -11.40625,3.421875 -5.203125,3.421875 -8.0625,9.546875 -2.84375,6.125 -2.84375,14.078125 0,7.765625 2.578125,14.09375 2.59375,6.328125 7.765625,9.6875 5.1875,3.375 11.578125,3.375 4.6875,0 8.34375,-1.984375 3.671875,-1.96875 5.96875,-5.140625 v 25.671875 h 8.734375 V 0 Z m -27.78125,25.875 q 0,-9.953125 4.1875,-14.890625 Q 20.84375,6.0625 26.5625,6.0625 q 5.765625,0 9.78125,4.703125 4.03125,4.71875 4.03125,14.375 0,10.65625 -4.109375,15.625 Q 32.171875,45.75 26.171875,45.75 20.3125,45.75 16.375,40.96875 12.453125,36.1875 12.453125,25.875 Z"
                 id="ArialMT-100" />
            </defs>
            <use
               xlink:href="#ArialMT-76"
               id="use1071"
               x="0"
               y="0"
               width="100%"
               height="100%" />
            <use
               x="55.615234"
               xlink:href="#ArialMT-111"
               id="use1073"
               y="0"
               width="100%"
               height="100%" />
            <use
               x="111.23047"
               xlink:href="#ArialMT-111"
               id="use1075"
               y="0"
               width="100%"
               height="100%" />
            <use
               x="166.8457"
               xlink:href="#ArialMT-112"
               id="use1077"
               y="0"
               width="100%"
               height="100%" />
            <use
               x="222.46094"
               xlink:href="#ArialMT-32"
               id="use1079"
               y="0"
               width="100%"
               height="100%" />
            <use
               x="250.24414"
               xlink:href="#ArialMT-117"
               id="use1081"
               y="0"
               width="100%"
               height="100%" />
            <use
               x="305.85938"
               xlink:href="#ArialMT-115"
               id="use1083"
               y="0"
               width="100%"
               height="100%" />
            <use
               x="355.85938"
               xlink:href="#ArialMT-101"
               id="use1085"
               y="0"
               width="100%"
               height="100%" />
            <use
               x="411.47461"
               xlink:href="#ArialMT-100"
               id="use1087"
               y="0"
               width="100%"
               height="100%" />
          </g>
        </g>
      </g>
      <g
         id="patch_3">
        <path
           clip-path="url(#pfdb517aadc)"
           d="m 30.348,129.42234 h 26.784 v -7.09418 H 30.348 Z"
           style="fill:#5875a4;stroke:#4c4c4c;stroke-width:1.5;stroke-linejoin:miter"
           id="path1093" />
      </g>
      <g
         id="patch_4">
        <path
           clip-path="url(#pfdb517aadc)"
           d="M 63.828,149.18774 H 90.612 V 96.814765 H 63.828 Z"
           style="fill:#cc8963;stroke:#4c4c4c;stroke-width:1.5;stroke-linejoin:miter"
           id="path1096" />
      </g>
      <g
         id="patch_5">
        <path
           clip-path="url(#pfdb517aadc)"
           d="m 97.308,156.38876 h 26.784 V 121.94354 H 97.308 Z"
           style="fill:#5f9e6e;stroke:#4c4c4c;stroke-width:1.5;stroke-linejoin:miter"
           id="path1099" />
      </g>
      <g
         id="patch_6">
        <path
           clip-path="url(#pfdb517aadc)"
           d="m 130.788,99.378926 h 26.784 V 73.737321 h -26.784 z"
           style="fill:#b55d60;stroke:#4c4c4c;stroke-width:1.5;stroke-linejoin:miter"
           id="path1102" />
      </g>
      <g
         id="patch_7">
        <path
           clip-path="url(#pfdb517aadc)"
           d="m 164.268,172.43613 h 26.784 v -42.90695 h -26.784 z"
           style="fill:#857aab;stroke:#4c4c4c;stroke-width:1.5;stroke-linejoin:miter"
           id="path1105" />
      </g>
      <g
         id="line2d_10">
        <path
           clip-path="url(#pfdb517aadc)"
           d="m 43.74,129.42234 v 1.32482"
           style="fill:none;stroke:#4c4c4c;stroke-width:1.5;stroke-linecap:round"
           id="path1108" />
      </g>
      <g
         id="line2d_11">
        <path
           clip-path="url(#pfdb517aadc)"
           d="M 43.74,122.32816 V 116.5588"
           style="fill:none;stroke:#4c4c4c;stroke-width:1.5;stroke-linecap:round"
           id="path1111" />
      </g>
      <g
         id="line2d_12">
        <path
           clip-path="url(#pfdb517aadc)"
           d="M 37.044,130.74716 H 50.436"
           style="fill:none;stroke:#4c4c4c;stroke-width:1.5;stroke-linecap:round"
           id="path1114" />
      </g>
      <g
         id="line2d_13">
        <path
           clip-path="url(#pfdb517aadc)"
           d="M 37.044,116.5588 H 50.436"
           style="fill:none;stroke:#4c4c4c;stroke-width:1.5;stroke-linecap:round"
           id="path1117" />
      </g>
      <g
         id="line2d_14" />
      <g
         id="line2d_15">
        <path
           clip-path="url(#pfdb517aadc)"
           d="m 77.22,149.18774 v 24.20995"
           style="fill:none;stroke:#4c4c4c;stroke-width:1.5;stroke-linecap:round"
           id="path1121" />
      </g>
      <g
         id="line2d_16">
        <path
           clip-path="url(#pfdb517aadc)"
           d="M 77.22,96.814765 V 73.139016"
           style="fill:none;stroke:#4c4c4c;stroke-width:1.5;stroke-linecap:round"
           id="path1124" />
      </g>
      <g
         id="line2d_17">
        <path
           clip-path="url(#pfdb517aadc)"
           d="M 70.524,173.39769 H 83.916"
           style="fill:none;stroke:#4c4c4c;stroke-width:1.5;stroke-linecap:round"
           id="path1127" />
      </g>
      <g
         id="line2d_18">
        <path
           clip-path="url(#pfdb517aadc)"
           d="M 70.524,73.139016 H 83.916"
           style="fill:none;stroke:#4c4c4c;stroke-width:1.5;stroke-linecap:round"
           id="path1130" />
      </g>
      <g
         id="line2d_19" />
      <g
         id="line2d_20">
        <path
           clip-path="url(#pfdb517aadc)"
           d="m 110.7,156.38876 v 3.41888"
           style="fill:none;stroke:#4c4c4c;stroke-width:1.5;stroke-linecap:round"
           id="path1134" />
      </g>
      <g
         id="line2d_21">
        <path
           clip-path="url(#pfdb517aadc)"
           d="m 110.7,121.94354 v 0"
           style="fill:none;stroke:#4c4c4c;stroke-width:1.5;stroke-linecap:round"
           id="path1137" />
      </g>
      <g
         id="line2d_22">
        <path
           clip-path="url(#pfdb517aadc)"
           d="m 104.004,159.80764 h 13.392"
           style="fill:none;stroke:#4c4c4c;stroke-width:1.5;stroke-linecap:round"
           id="path1140" />
      </g>
      <g
         id="line2d_23">
        <path
           clip-path="url(#pfdb517aadc)"
           d="m 104.004,121.94354 h 13.392"
           style="fill:none;stroke:#4c4c4c;stroke-width:1.5;stroke-linecap:round"
           id="path1143" />
      </g>
      <g
         id="line2d_24">
        <defs
           id="defs1147">
          <path
             d="M 0,3.535534 2.12132,0 0,-3.535534 -2.12132,0 Z"
             id="mad87e218a9"
             style="stroke:#4c4c4c;stroke-linejoin:miter" />
        </defs>
        <g
           clip-path="url(#pfdb517aadc)"
           id="g1151">
          <use
             style="fill:#4c4c4c;stroke:#4c4c4c;stroke-linejoin:miter"
             x="110.7"
             xlink:href="#mad87e218a9"
             y="60.574631"
             id="use1149"
             width="100%"
             height="100%" />
        </g>
      </g>
      <g
         id="line2d_25">
        <path
           clip-path="url(#pfdb517aadc)"
           d="M 144.18,99.378926 V 111.00312"
           style="fill:none;stroke:#4c4c4c;stroke-width:1.5;stroke-linecap:round"
           id="path1154" />
      </g>
      <g
         id="line2d_26">
        <path
           clip-path="url(#pfdb517aadc)"
           d="M 144.18,73.737321 V 67.497863"
           style="fill:none;stroke:#4c4c4c;stroke-width:1.5;stroke-linecap:round"
           id="path1157" />
      </g>
      <g
         id="line2d_27">
        <path
           clip-path="url(#pfdb517aadc)"
           d="m 137.484,111.00312 h 13.392"
           style="fill:none;stroke:#4c4c4c;stroke-width:1.5;stroke-linecap:round"
           id="path1160" />
      </g>
      <g
         id="line2d_28">
        <path
           clip-path="url(#pfdb517aadc)"
           d="m 137.484,67.497863 h 13.392"
           style="fill:none;stroke:#4c4c4c;stroke-width:1.5;stroke-linecap:round"
           id="path1163" />
      </g>
      <g
         id="line2d_29">
        <g
           clip-path="url(#pfdb517aadc)"
           id="g1170">
          <use
             style="fill:#4c4c4c;stroke:#4c4c4c;stroke-linejoin:miter"
             x="144.17999"
             xlink:href="#mad87e218a9"
             y="158.09821"
             id="use1166"
             width="100%"
             height="100%" />
          <use
             style="fill:#4c4c4c;stroke:#4c4c4c;stroke-linejoin:miter"
             x="144.17999"
             xlink:href="#mad87e218a9"
             y="33.48"
             id="use1168"
             width="100%"
             height="100%" />
        </g>
      </g>
      <g
         id="line2d_30">
        <path
           clip-path="url(#pfdb517aadc)"
           d="M 177.66,172.43613 V 184.68"
           style="fill:none;stroke:#4c4c4c;stroke-width:1.5;stroke-linecap:round"
           id="path1173" />
      </g>
      <g
         id="line2d_31">
        <path
           clip-path="url(#pfdb517aadc)"
           d="M 177.66,129.52918 V 73.908265"
           style="fill:none;stroke:#4c4c4c;stroke-width:1.5;stroke-linecap:round"
           id="path1176" />
      </g>
      <g
         id="line2d_32">
        <path
           clip-path="url(#pfdb517aadc)"
           d="m 170.964,184.68 h 13.392"
           style="fill:none;stroke:#4c4c4c;stroke-width:1.5;stroke-linecap:round"
           id="path1179" />
      </g>
      <g
         id="line2d_33">
        <path
           clip-path="url(#pfdb517aadc)"
           d="m 170.964,73.908265 h 13.392"
           style="fill:none;stroke:#4c4c4c;stroke-width:1.5;stroke-linecap:round"
           id="path1182" />
      </g>
      <g
         id="line2d_34" />
      <g
         id="line2d_35">
        <path
           clip-path="url(#pfdb517aadc)"
           d="M 30.348,128.09752 H 57.132"
           style="fill:none;stroke:#4c4c4c;stroke-width:1.5;stroke-linecap:round"
           id="path1186" />
      </g>
      <g
         id="line2d_36">
        <path
           clip-path="url(#pfdb517aadc)"
           d="M 63.828,111.17406 H 90.612"
           style="fill:none;stroke:#4c4c4c;stroke-width:1.5;stroke-linecap:round"
           id="path1189" />
      </g>
      <g
         id="line2d_37">
        <path
           clip-path="url(#pfdb517aadc)"
           d="m 97.308,143.22607 h 26.784"
           style="fill:none;stroke:#4c4c4c;stroke-width:1.5;stroke-linecap:round"
           id="path1192" />
      </g>
      <g
         id="line2d_38">
        <path
           clip-path="url(#pfdb517aadc)"
           d="m 130.788,85.703403 h 26.784"
           style="fill:none;stroke:#4c4c4c;stroke-width:1.5;stroke-linecap:round"
           id="path1195" />
      </g>
      <g
         id="line2d_39">
        <path
           clip-path="url(#pfdb517aadc)"
           d="m 164.268,161.81623 h 26.784"
           style="fill:none;stroke:#4c4c4c;stroke-width:1.5;stroke-linecap:round"
           id="path1198" />
      </g>
      <g
         id="patch_8">
        <path
           d="M 27,192.24 V 25.92"
           style="fill:none;stroke:#262626;stroke-width:1.25;stroke-linecap:square;stroke-linejoin:miter"
           id="path1201" />
      </g>
      <g
         id="patch_9">
        <path
           d="M 194.4,192.24 V 25.92"
           style="fill:none;stroke:#262626;stroke-width:1.25;stroke-linecap:square;stroke-linejoin:miter"
           id="path1204" />
      </g>
      <g
         id="patch_10">
        <path
           d="M 27,192.24 H 194.4"
           style="fill:none;stroke:#262626;stroke-width:1.25;stroke-linecap:square;stroke-linejoin:miter"
           id="path1207" />
      </g>
      <g
         id="patch_11">
        <path
           d="M 27,25.92 H 194.4"
           style="fill:none;stroke:#262626;stroke-width:1.25;stroke-linecap:square;stroke-linejoin:miter"
           id="path1210" />
      </g>
    </g>
  </g>
  <defs
     id="defs1218">
    <clipPath
       id="pfdb517aadc">
      <rect
         height="166.32001"
         width="167.39999"
         x="27"
         y="25.92"
         id="rect1215" />
    </clipPath>
  </defs>
</svg>
