<?xml version="1.0" encoding="utf-8" standalone="no"?>
<!DOCTYPE svg PUBLIC "-//W3C//DTD SVG 1.1//EN"
  "http://www.w3.org/Graphics/SVG/1.1/DTD/svg11.dtd">
<!-- Created with matplotlib (https://matplotlib.org/) -->
<svg height="345.6pt" version="1.1" viewBox="0 0 460.8 345.6" width="460.8pt" xmlns="http://www.w3.org/2000/svg" xmlns:xlink="http://www.w3.org/1999/xlink">
 <defs>
  <style type="text/css">
*{stroke-linecap:butt;stroke-linejoin:round;}
  </style>
 </defs>
 <g id="figure_1">
  <g id="patch_1">
   <path d="M 0 345.6 
L 460.8 345.6 
L 460.8 0 
L 0 0 
z
" style="fill:#ffffff;"/>
  </g>
  <g id="axes_1">
   <g id="patch_2">
    <path d="M 57.6 307.584 
L 414.72 307.584 
L 414.72 41.472 
L 57.6 41.472 
z
" style="fill:#ffffff;"/>
   </g>
   <g id="matplotlib.axis_1">
    <g id="xtick_1">
     <g id="line2d_1">
      <defs>
       <path d="M 0 0 
L 0 3.5 
" id="ma2780ac201" style="stroke:#000000;stroke-width:0.8;"/>
      </defs>
      <g>
       <use style="stroke:#000000;stroke-width:0.8;" x="73.832727" xlink:href="#ma2780ac201" y="307.584"/>
      </g>
     </g>
     <g id="text_1">
      <!-- 0 -->
      <defs>
       <path d="M 31.78125 66.40625 
Q 24.171875 66.40625 20.328125 58.90625 
Q 16.5 51.421875 16.5 36.375 
Q 16.5 21.390625 20.328125 13.890625 
Q 24.171875 6.390625 31.78125 6.390625 
Q 39.453125 6.390625 43.28125 13.890625 
Q 47.125 21.390625 47.125 36.375 
Q 47.125 51.421875 43.28125 58.90625 
Q 39.453125 66.40625 31.78125 66.40625 
z
M 31.78125 74.21875 
Q 44.046875 74.21875 50.515625 64.515625 
Q 56.984375 54.828125 56.984375 36.375 
Q 56.984375 17.96875 50.515625 8.265625 
Q 44.046875 -1.421875 31.78125 -1.421875 
Q 19.53125 -1.421875 13.0625 8.265625 
Q 6.59375 17.96875 6.59375 36.375 
Q 6.59375 54.828125 13.0625 64.515625 
Q 19.53125 74.21875 31.78125 74.21875 
z
" id="DejaVuSans-48"/>
      </defs>
      <g transform="translate(70.651477 322.182437)scale(0.1 -0.1)">
       <use xlink:href="#DejaVuSans-48"/>
      </g>
     </g>
    </g>
    <g id="xtick_2">
     <g id="line2d_2">
      <g>
       <use style="stroke:#000000;stroke-width:0.8;" x="138.763636" xlink:href="#ma2780ac201" y="307.584"/>
      </g>
     </g>
     <g id="text_2">
      <!-- 20 -->
      <defs>
       <path d="M 19.1875 8.296875 
L 53.609375 8.296875 
L 53.609375 0 
L 7.328125 0 
L 7.328125 8.296875 
Q 12.9375 14.109375 22.625 23.890625 
Q 32.328125 33.6875 34.8125 36.53125 
Q 39.546875 41.84375 41.421875 45.53125 
Q 43.3125 49.21875 43.3125 52.78125 
Q 43.3125 58.59375 39.234375 62.25 
Q 35.15625 65.921875 28.609375 65.921875 
Q 23.96875 65.921875 18.8125 64.3125 
Q 13.671875 62.703125 7.8125 59.421875 
L 7.8125 69.390625 
Q 13.765625 71.78125 18.9375 73 
Q 24.125 74.21875 28.421875 74.21875 
Q 39.75 74.21875 46.484375 68.546875 
Q 53.21875 62.890625 53.21875 53.421875 
Q 53.21875 48.921875 51.53125 44.890625 
Q 49.859375 40.875 45.40625 35.40625 
Q 44.1875 33.984375 37.640625 27.21875 
Q 31.109375 20.453125 19.1875 8.296875 
z
" id="DejaVuSans-50"/>
      </defs>
      <g transform="translate(132.401136 322.182437)scale(0.1 -0.1)">
       <use xlink:href="#DejaVuSans-50"/>
       <use x="63.623047" xlink:href="#DejaVuSans-48"/>
      </g>
     </g>
    </g>
    <g id="xtick_3">
     <g id="line2d_3">
      <g>
       <use style="stroke:#000000;stroke-width:0.8;" x="203.694545" xlink:href="#ma2780ac201" y="307.584"/>
      </g>
     </g>
     <g id="text_3">
      <!-- 40 -->
      <defs>
       <path d="M 37.796875 64.3125 
L 12.890625 25.390625 
L 37.796875 25.390625 
z
M 35.203125 72.90625 
L 47.609375 72.90625 
L 47.609375 25.390625 
L 58.015625 25.390625 
L 58.015625 17.1875 
L 47.609375 17.1875 
L 47.609375 0 
L 37.796875 0 
L 37.796875 17.1875 
L 4.890625 17.1875 
L 4.890625 26.703125 
z
" id="DejaVuSans-52"/>
      </defs>
      <g transform="translate(197.332045 322.182437)scale(0.1 -0.1)">
       <use xlink:href="#DejaVuSans-52"/>
       <use x="63.623047" xlink:href="#DejaVuSans-48"/>
      </g>
     </g>
    </g>
    <g id="xtick_4">
     <g id="line2d_4">
      <g>
       <use style="stroke:#000000;stroke-width:0.8;" x="268.625455" xlink:href="#ma2780ac201" y="307.584"/>
      </g>
     </g>
     <g id="text_4">
      <!-- 60 -->
      <defs>
       <path d="M 33.015625 40.375 
Q 26.375 40.375 22.484375 35.828125 
Q 18.609375 31.296875 18.609375 23.390625 
Q 18.609375 15.53125 22.484375 10.953125 
Q 26.375 6.390625 33.015625 6.390625 
Q 39.65625 6.390625 43.53125 10.953125 
Q 47.40625 15.53125 47.40625 23.390625 
Q 47.40625 31.296875 43.53125 35.828125 
Q 39.65625 40.375 33.015625 40.375 
z
M 52.59375 71.296875 
L 52.59375 62.3125 
Q 48.875 64.0625 45.09375 64.984375 
Q 41.3125 65.921875 37.59375 65.921875 
Q 27.828125 65.921875 22.671875 59.328125 
Q 17.53125 52.734375 16.796875 39.40625 
Q 19.671875 43.65625 24.015625 45.921875 
Q 28.375 48.1875 33.59375 48.1875 
Q 44.578125 48.1875 50.953125 41.515625 
Q 57.328125 34.859375 57.328125 23.390625 
Q 57.328125 12.15625 50.6875 5.359375 
Q 44.046875 -1.421875 33.015625 -1.421875 
Q 20.359375 -1.421875 13.671875 8.265625 
Q 6.984375 17.96875 6.984375 36.375 
Q 6.984375 53.65625 15.1875 63.9375 
Q 23.390625 74.21875 37.203125 74.21875 
Q 40.921875 74.21875 44.703125 73.484375 
Q 48.484375 72.75 52.59375 71.296875 
z
" id="DejaVuSans-54"/>
      </defs>
      <g transform="translate(262.262955 322.182437)scale(0.1 -0.1)">
       <use xlink:href="#DejaVuSans-54"/>
       <use x="63.623047" xlink:href="#DejaVuSans-48"/>
      </g>
     </g>
    </g>
    <g id="xtick_5">
     <g id="line2d_5">
      <g>
       <use style="stroke:#000000;stroke-width:0.8;" x="333.556364" xlink:href="#ma2780ac201" y="307.584"/>
      </g>
     </g>
     <g id="text_5">
      <!-- 80 -->
      <defs>
       <path d="M 31.78125 34.625 
Q 24.75 34.625 20.71875 30.859375 
Q 16.703125 27.09375 16.703125 20.515625 
Q 16.703125 13.921875 20.71875 10.15625 
Q 24.75 6.390625 31.78125 6.390625 
Q 38.8125 6.390625 42.859375 10.171875 
Q 46.921875 13.96875 46.921875 20.515625 
Q 46.921875 27.09375 42.890625 30.859375 
Q 38.875 34.625 31.78125 34.625 
z
M 21.921875 38.8125 
Q 15.578125 40.375 12.03125 44.71875 
Q 8.5 49.078125 8.5 55.328125 
Q 8.5 64.0625 14.71875 69.140625 
Q 20.953125 74.21875 31.78125 74.21875 
Q 42.671875 74.21875 48.875 69.140625 
Q 55.078125 64.0625 55.078125 55.328125 
Q 55.078125 49.078125 51.53125 44.71875 
Q 48 40.375 41.703125 38.8125 
Q 48.828125 37.15625 52.796875 32.3125 
Q 56.78125 27.484375 56.78125 20.515625 
Q 56.78125 9.90625 50.3125 4.234375 
Q 43.84375 -1.421875 31.78125 -1.421875 
Q 19.734375 -1.421875 13.25 4.234375 
Q 6.78125 9.90625 6.78125 20.515625 
Q 6.78125 27.484375 10.78125 32.3125 
Q 14.796875 37.15625 21.921875 38.8125 
z
M 18.3125 54.390625 
Q 18.3125 48.734375 21.84375 45.5625 
Q 25.390625 42.390625 31.78125 42.390625 
Q 38.140625 42.390625 41.71875 45.5625 
Q 45.3125 48.734375 45.3125 54.390625 
Q 45.3125 60.0625 41.71875 63.234375 
Q 38.140625 66.40625 31.78125 66.40625 
Q 25.390625 66.40625 21.84375 63.234375 
Q 18.3125 60.0625 18.3125 54.390625 
z
" id="DejaVuSans-56"/>
      </defs>
      <g transform="translate(327.193864 322.182437)scale(0.1 -0.1)">
       <use xlink:href="#DejaVuSans-56"/>
       <use x="63.623047" xlink:href="#DejaVuSans-48"/>
      </g>
     </g>
    </g>
    <g id="xtick_6">
     <g id="line2d_6">
      <g>
       <use style="stroke:#000000;stroke-width:0.8;" x="398.487273" xlink:href="#ma2780ac201" y="307.584"/>
      </g>
     </g>
     <g id="text_6">
      <!-- 100 -->
      <defs>
       <path d="M 12.40625 8.296875 
L 28.515625 8.296875 
L 28.515625 63.921875 
L 10.984375 60.40625 
L 10.984375 69.390625 
L 28.421875 72.90625 
L 38.28125 72.90625 
L 38.28125 8.296875 
L 54.390625 8.296875 
L 54.390625 0 
L 12.40625 0 
z
" id="DejaVuSans-49"/>
      </defs>
      <g transform="translate(388.943523 322.182437)scale(0.1 -0.1)">
       <use xlink:href="#DejaVuSans-49"/>
       <use x="63.623047" xlink:href="#DejaVuSans-48"/>
       <use x="127.246094" xlink:href="#DejaVuSans-48"/>
      </g>
     </g>
    </g>
    <g id="text_7">
     <!-- generations -->
     <defs>
      <path d="M 45.40625 27.984375 
Q 45.40625 37.75 41.375 43.109375 
Q 37.359375 48.484375 30.078125 48.484375 
Q 22.859375 48.484375 18.828125 43.109375 
Q 14.796875 37.75 14.796875 27.984375 
Q 14.796875 18.265625 18.828125 12.890625 
Q 22.859375 7.515625 30.078125 7.515625 
Q 37.359375 7.515625 41.375 12.890625 
Q 45.40625 18.265625 45.40625 27.984375 
z
M 54.390625 6.78125 
Q 54.390625 -7.171875 48.1875 -13.984375 
Q 42 -20.796875 29.203125 -20.796875 
Q 24.46875 -20.796875 20.265625 -20.09375 
Q 16.0625 -19.390625 12.109375 -17.921875 
L 12.109375 -9.1875 
Q 16.0625 -11.328125 19.921875 -12.34375 
Q 23.78125 -13.375 27.78125 -13.375 
Q 36.625 -13.375 41.015625 -8.765625 
Q 45.40625 -4.15625 45.40625 5.171875 
L 45.40625 9.625 
Q 42.625 4.78125 38.28125 2.390625 
Q 33.9375 0 27.875 0 
Q 17.828125 0 11.671875 7.65625 
Q 5.515625 15.328125 5.515625 27.984375 
Q 5.515625 40.671875 11.671875 48.328125 
Q 17.828125 56 27.875 56 
Q 33.9375 56 38.28125 53.609375 
Q 42.625 51.21875 45.40625 46.390625 
L 45.40625 54.6875 
L 54.390625 54.6875 
z
" id="DejaVuSans-103"/>
      <path d="M 56.203125 29.59375 
L 56.203125 25.203125 
L 14.890625 25.203125 
Q 15.484375 15.921875 20.484375 11.0625 
Q 25.484375 6.203125 34.421875 6.203125 
Q 39.59375 6.203125 44.453125 7.46875 
Q 49.3125 8.734375 54.109375 11.28125 
L 54.109375 2.78125 
Q 49.265625 0.734375 44.1875 -0.34375 
Q 39.109375 -1.421875 33.890625 -1.421875 
Q 20.796875 -1.421875 13.15625 6.1875 
Q 5.515625 13.8125 5.515625 26.8125 
Q 5.515625 40.234375 12.765625 48.109375 
Q 20.015625 56 32.328125 56 
Q 43.359375 56 49.78125 48.890625 
Q 56.203125 41.796875 56.203125 29.59375 
z
M 47.21875 32.234375 
Q 47.125 39.59375 43.09375 43.984375 
Q 39.0625 48.390625 32.421875 48.390625 
Q 24.90625 48.390625 20.390625 44.140625 
Q 15.875 39.890625 15.1875 32.171875 
z
" id="DejaVuSans-101"/>
      <path d="M 54.890625 33.015625 
L 54.890625 0 
L 45.90625 0 
L 45.90625 32.71875 
Q 45.90625 40.484375 42.875 44.328125 
Q 39.84375 48.1875 33.796875 48.1875 
Q 26.515625 48.1875 22.3125 43.546875 
Q 18.109375 38.921875 18.109375 30.90625 
L 18.109375 0 
L 9.078125 0 
L 9.078125 54.6875 
L 18.109375 54.6875 
L 18.109375 46.1875 
Q 21.34375 51.125 25.703125 53.5625 
Q 30.078125 56 35.796875 56 
Q 45.21875 56 50.046875 50.171875 
Q 54.890625 44.34375 54.890625 33.015625 
z
" id="DejaVuSans-110"/>
      <path d="M 41.109375 46.296875 
Q 39.59375 47.171875 37.8125 47.578125 
Q 36.03125 48 33.890625 48 
Q 26.265625 48 22.1875 43.046875 
Q 18.109375 38.09375 18.109375 28.8125 
L 18.109375 0 
L 9.078125 0 
L 9.078125 54.6875 
L 18.109375 54.6875 
L 18.109375 46.1875 
Q 20.953125 51.171875 25.484375 53.578125 
Q 30.03125 56 36.53125 56 
Q 37.453125 56 38.578125 55.875 
Q 39.703125 55.765625 41.0625 55.515625 
z
" id="DejaVuSans-114"/>
      <path d="M 34.28125 27.484375 
Q 23.390625 27.484375 19.1875 25 
Q 14.984375 22.515625 14.984375 16.5 
Q 14.984375 11.71875 18.140625 8.90625 
Q 21.296875 6.109375 26.703125 6.109375 
Q 34.1875 6.109375 38.703125 11.40625 
Q 43.21875 16.703125 43.21875 25.484375 
L 43.21875 27.484375 
z
M 52.203125 31.203125 
L 52.203125 0 
L 43.21875 0 
L 43.21875 8.296875 
Q 40.140625 3.328125 35.546875 0.953125 
Q 30.953125 -1.421875 24.3125 -1.421875 
Q 15.921875 -1.421875 10.953125 3.296875 
Q 6 8.015625 6 15.921875 
Q 6 25.140625 12.171875 29.828125 
Q 18.359375 34.515625 30.609375 34.515625 
L 43.21875 34.515625 
L 43.21875 35.40625 
Q 43.21875 41.609375 39.140625 45 
Q 35.0625 48.390625 27.6875 48.390625 
Q 23 48.390625 18.546875 47.265625 
Q 14.109375 46.140625 10.015625 43.890625 
L 10.015625 52.203125 
Q 14.9375 54.109375 19.578125 55.046875 
Q 24.21875 56 28.609375 56 
Q 40.484375 56 46.34375 49.84375 
Q 52.203125 43.703125 52.203125 31.203125 
z
" id="DejaVuSans-97"/>
      <path d="M 18.3125 70.21875 
L 18.3125 54.6875 
L 36.8125 54.6875 
L 36.8125 47.703125 
L 18.3125 47.703125 
L 18.3125 18.015625 
Q 18.3125 11.328125 20.140625 9.421875 
Q 21.96875 7.515625 27.59375 7.515625 
L 36.8125 7.515625 
L 36.8125 0 
L 27.59375 0 
Q 17.1875 0 13.234375 3.875 
Q 9.28125 7.765625 9.28125 18.015625 
L 9.28125 47.703125 
L 2.6875 47.703125 
L 2.6875 54.6875 
L 9.28125 54.6875 
L 9.28125 70.21875 
z
" id="DejaVuSans-116"/>
      <path d="M 9.421875 54.6875 
L 18.40625 54.6875 
L 18.40625 0 
L 9.421875 0 
z
M 9.421875 75.984375 
L 18.40625 75.984375 
L 18.40625 64.59375 
L 9.421875 64.59375 
z
" id="DejaVuSans-105"/>
      <path d="M 30.609375 48.390625 
Q 23.390625 48.390625 19.1875 42.75 
Q 14.984375 37.109375 14.984375 27.296875 
Q 14.984375 17.484375 19.15625 11.84375 
Q 23.34375 6.203125 30.609375 6.203125 
Q 37.796875 6.203125 41.984375 11.859375 
Q 46.1875 17.53125 46.1875 27.296875 
Q 46.1875 37.015625 41.984375 42.703125 
Q 37.796875 48.390625 30.609375 48.390625 
z
M 30.609375 56 
Q 42.328125 56 49.015625 48.375 
Q 55.71875 40.765625 55.71875 27.296875 
Q 55.71875 13.875 49.015625 6.21875 
Q 42.328125 -1.421875 30.609375 -1.421875 
Q 18.84375 -1.421875 12.171875 6.21875 
Q 5.515625 13.875 5.515625 27.296875 
Q 5.515625 40.765625 12.171875 48.375 
Q 18.84375 56 30.609375 56 
z
" id="DejaVuSans-111"/>
      <path d="M 44.28125 53.078125 
L 44.28125 44.578125 
Q 40.484375 46.53125 36.375 47.5 
Q 32.28125 48.484375 27.875 48.484375 
Q 21.1875 48.484375 17.84375 46.4375 
Q 14.5 44.390625 14.5 40.28125 
Q 14.5 37.15625 16.890625 35.375 
Q 19.28125 33.59375 26.515625 31.984375 
L 29.59375 31.296875 
Q 39.15625 29.25 43.1875 25.515625 
Q 47.21875 21.78125 47.21875 15.09375 
Q 47.21875 7.46875 41.1875 3.015625 
Q 35.15625 -1.421875 24.609375 -1.421875 
Q 20.21875 -1.421875 15.453125 -0.5625 
Q 10.6875 0.296875 5.421875 2 
L 5.421875 11.28125 
Q 10.40625 8.6875 15.234375 7.390625 
Q 20.0625 6.109375 24.8125 6.109375 
Q 31.15625 6.109375 34.5625 8.28125 
Q 37.984375 10.453125 37.984375 14.40625 
Q 37.984375 18.0625 35.515625 20.015625 
Q 33.0625 21.96875 24.703125 23.78125 
L 21.578125 24.515625 
Q 13.234375 26.265625 9.515625 29.90625 
Q 5.8125 33.546875 5.8125 39.890625 
Q 5.8125 47.609375 11.28125 51.796875 
Q 16.75 56 26.8125 56 
Q 31.78125 56 36.171875 55.265625 
Q 40.578125 54.546875 44.28125 53.078125 
z
" id="DejaVuSans-115"/>
     </defs>
     <g transform="translate(206.362344 335.860562)scale(0.1 -0.1)">
      <use xlink:href="#DejaVuSans-103"/>
      <use x="63.476562" xlink:href="#DejaVuSans-101"/>
      <use x="125" xlink:href="#DejaVuSans-110"/>
      <use x="188.378906" xlink:href="#DejaVuSans-101"/>
      <use x="249.902344" xlink:href="#DejaVuSans-114"/>
      <use x="291.015625" xlink:href="#DejaVuSans-97"/>
      <use x="352.294922" xlink:href="#DejaVuSans-116"/>
      <use x="391.503906" xlink:href="#DejaVuSans-105"/>
      <use x="419.287109" xlink:href="#DejaVuSans-111"/>
      <use x="480.46875" xlink:href="#DejaVuSans-110"/>
      <use x="543.847656" xlink:href="#DejaVuSans-115"/>
     </g>
    </g>
   </g>
   <g id="matplotlib.axis_2">
    <g id="ytick_1">
     <g id="line2d_7">
      <defs>
       <path d="M 0 0 
L -3.5 0 
" id="m0a5b72aa58" style="stroke:#000000;stroke-width:0.8;"/>
      </defs>
      <g>
       <use style="stroke:#000000;stroke-width:0.8;" x="57.6" xlink:href="#m0a5b72aa58" y="295.517138"/>
      </g>
     </g>
     <g id="text_8">
      <!-- 0 -->
      <g transform="translate(44.2375 299.316356)scale(0.1 -0.1)">
       <use xlink:href="#DejaVuSans-48"/>
      </g>
     </g>
    </g>
    <g id="ytick_2">
     <g id="line2d_8">
      <g>
       <use style="stroke:#000000;stroke-width:0.8;" x="57.6" xlink:href="#m0a5b72aa58" y="245.497791"/>
      </g>
     </g>
     <g id="text_9">
      <!-- 50 -->
      <defs>
       <path d="M 10.796875 72.90625 
L 49.515625 72.90625 
L 49.515625 64.59375 
L 19.828125 64.59375 
L 19.828125 46.734375 
Q 21.96875 47.46875 24.109375 47.828125 
Q 26.265625 48.1875 28.421875 48.1875 
Q 40.625 48.1875 47.75 41.5 
Q 54.890625 34.8125 54.890625 23.390625 
Q 54.890625 11.625 47.5625 5.09375 
Q 40.234375 -1.421875 26.90625 -1.421875 
Q 22.3125 -1.421875 17.546875 -0.640625 
Q 12.796875 0.140625 7.71875 1.703125 
L 7.71875 11.625 
Q 12.109375 9.234375 16.796875 8.0625 
Q 21.484375 6.890625 26.703125 6.890625 
Q 35.15625 6.890625 40.078125 11.328125 
Q 45.015625 15.765625 45.015625 23.390625 
Q 45.015625 31 40.078125 35.4375 
Q 35.15625 39.890625 26.703125 39.890625 
Q 22.75 39.890625 18.8125 39.015625 
Q 14.890625 38.140625 10.796875 36.28125 
z
" id="DejaVuSans-53"/>
      </defs>
      <g transform="translate(37.875 249.29701)scale(0.1 -0.1)">
       <use xlink:href="#DejaVuSans-53"/>
       <use x="63.623047" xlink:href="#DejaVuSans-48"/>
      </g>
     </g>
    </g>
    <g id="ytick_3">
     <g id="line2d_9">
      <g>
       <use style="stroke:#000000;stroke-width:0.8;" x="57.6" xlink:href="#m0a5b72aa58" y="195.478444"/>
      </g>
     </g>
     <g id="text_10">
      <!-- 100 -->
      <g transform="translate(31.5125 199.277663)scale(0.1 -0.1)">
       <use xlink:href="#DejaVuSans-49"/>
       <use x="63.623047" xlink:href="#DejaVuSans-48"/>
       <use x="127.246094" xlink:href="#DejaVuSans-48"/>
      </g>
     </g>
    </g>
    <g id="ytick_4">
     <g id="line2d_10">
      <g>
       <use style="stroke:#000000;stroke-width:0.8;" x="57.6" xlink:href="#m0a5b72aa58" y="145.459098"/>
      </g>
     </g>
     <g id="text_11">
      <!-- 150 -->
      <g transform="translate(31.5125 149.258316)scale(0.1 -0.1)">
       <use xlink:href="#DejaVuSans-49"/>
       <use x="63.623047" xlink:href="#DejaVuSans-53"/>
       <use x="127.246094" xlink:href="#DejaVuSans-48"/>
      </g>
     </g>
    </g>
    <g id="ytick_5">
     <g id="line2d_11">
      <g>
       <use style="stroke:#000000;stroke-width:0.8;" x="57.6" xlink:href="#m0a5b72aa58" y="95.439751"/>
      </g>
     </g>
     <g id="text_12">
      <!-- 200 -->
      <g transform="translate(31.5125 99.23897)scale(0.1 -0.1)">
       <use xlink:href="#DejaVuSans-50"/>
       <use x="63.623047" xlink:href="#DejaVuSans-48"/>
       <use x="127.246094" xlink:href="#DejaVuSans-48"/>
      </g>
     </g>
    </g>
    <g id="ytick_6">
     <g id="line2d_12">
      <g>
       <use style="stroke:#000000;stroke-width:0.8;" x="57.6" xlink:href="#m0a5b72aa58" y="45.420404"/>
      </g>
     </g>
     <g id="text_13">
      <!-- 250 -->
      <g transform="translate(31.5125 49.219623)scale(0.1 -0.1)">
       <use xlink:href="#DejaVuSans-50"/>
       <use x="63.623047" xlink:href="#DejaVuSans-53"/>
       <use x="127.246094" xlink:href="#DejaVuSans-48"/>
      </g>
     </g>
    </g>
    <g id="text_14">
     <!-- damage -->
     <defs>
      <path d="M 45.40625 46.390625 
L 45.40625 75.984375 
L 54.390625 75.984375 
L 54.390625 0 
L 45.40625 0 
L 45.40625 8.203125 
Q 42.578125 3.328125 38.25 0.953125 
Q 33.9375 -1.421875 27.875 -1.421875 
Q 17.96875 -1.421875 11.734375 6.484375 
Q 5.515625 14.40625 5.515625 27.296875 
Q 5.515625 40.1875 11.734375 48.09375 
Q 17.96875 56 27.875 56 
Q 33.9375 56 38.25 53.625 
Q 42.578125 51.265625 45.40625 46.390625 
z
M 14.796875 27.296875 
Q 14.796875 17.390625 18.875 11.75 
Q 22.953125 6.109375 30.078125 6.109375 
Q 37.203125 6.109375 41.296875 11.75 
Q 45.40625 17.390625 45.40625 27.296875 
Q 45.40625 37.203125 41.296875 42.84375 
Q 37.203125 48.484375 30.078125 48.484375 
Q 22.953125 48.484375 18.875 42.84375 
Q 14.796875 37.203125 14.796875 27.296875 
z
" id="DejaVuSans-100"/>
      <path d="M 52 44.1875 
Q 55.375 50.25 60.0625 53.125 
Q 64.75 56 71.09375 56 
Q 79.640625 56 84.28125 50.015625 
Q 88.921875 44.046875 88.921875 33.015625 
L 88.921875 0 
L 79.890625 0 
L 79.890625 32.71875 
Q 79.890625 40.578125 77.09375 44.375 
Q 74.3125 48.1875 68.609375 48.1875 
Q 61.625 48.1875 57.5625 43.546875 
Q 53.515625 38.921875 53.515625 30.90625 
L 53.515625 0 
L 44.484375 0 
L 44.484375 32.71875 
Q 44.484375 40.625 41.703125 44.40625 
Q 38.921875 48.1875 33.109375 48.1875 
Q 26.21875 48.1875 22.15625 43.53125 
Q 18.109375 38.875 18.109375 30.90625 
L 18.109375 0 
L 9.078125 0 
L 9.078125 54.6875 
L 18.109375 54.6875 
L 18.109375 46.1875 
Q 21.1875 51.21875 25.484375 53.609375 
Q 29.78125 56 35.6875 56 
Q 41.65625 56 45.828125 52.96875 
Q 50 49.953125 52 44.1875 
z
" id="DejaVuSans-109"/>
     </defs>
     <g transform="translate(25.432812 194.951437)rotate(-90)scale(0.1 -0.1)">
      <use xlink:href="#DejaVuSans-100"/>
      <use x="63.476562" xlink:href="#DejaVuSans-97"/>
      <use x="124.755859" xlink:href="#DejaVuSans-109"/>
      <use x="222.167969" xlink:href="#DejaVuSans-97"/>
      <use x="283.447266" xlink:href="#DejaVuSans-103"/>
      <use x="346.923828" xlink:href="#DejaVuSans-101"/>
     </g>
    </g>
   </g>
   <g id="line2d_13">
    <path clip-path="url(#p92ff0ee320)" d="M 73.832727 198.599652 
L 77.079273 193.977864 
L 80.325818 195.478444 
L 83.572364 197.439203 
L 86.818909 196.698916 
L 90.065455 193.437655 
L 93.312 174.010141 
L 96.558545 174.19021 
L 99.805091 173.93011 
L 103.051636 170.928949 
L 106.298182 170.808903 
L 109.544727 168.347951 
L 112.791273 156.523377 
L 116.037818 153.282123 
L 119.284364 151.641489 
L 122.530909 149.880808 
L 125.777455 152.381775 
L 129.024 151.561458 
L 132.270545 138.776513 
L 135.517091 135.955422 
L 138.763636 133.094315 
L 142.010182 134.714942 
L 145.256727 131.593735 
L 148.503273 131.473688 
L 151.749818 127.852288 
L 154.996364 130.073147 
L 158.242909 133.174346 
L 161.489455 133.0543 
L 164.736 129.693 
L 167.982545 131.213588 
L 171.229091 125.271289 
L 174.475636 127.752249 
L 177.722182 128.532551 
L 180.968727 123.090446 
L 184.215273 122.490214 
L 187.461818 120.009254 
L 190.708364 113.066569 
L 193.954909 113.626785 
L 197.201455 120.009254 
L 200.448 120.909602 
L 203.694545 124.410957 
L 206.941091 126.971947 
L 210.187636 124.510995 
L 213.434182 121.689904 
L 216.680727 119.969239 
L 219.927273 120.089285 
L 223.173818 118.748766 
L 226.420364 115.347451 
L 229.666909 110.705656 
L 232.913455 110.365524 
L 236.16 113.926901 
L 239.406545 115.107358 
L 242.653091 116.667962 
L 245.899636 118.568697 
L 249.146182 112.006159 
L 252.392727 117.088124 
L 255.639273 120.029262 
L 258.885818 122.970399 
L 262.132364 122.970399 
L 265.378909 120.889595 
L 268.625455 118.00848 
L 271.872 117.028101 
L 275.118545 116.627946 
L 278.365091 121.569858 
L 281.611636 121.889981 
L 284.858182 121.009641 
L 288.104727 109.945361 
L 291.351273 108.404766 
L 294.597818 106.604069 
L 297.844364 109.445168 
L 301.090909 110.245478 
L 304.337455 116.267807 
L 307.584 116.547915 
L 310.830545 120.249347 
L 314.077091 121.789943 
L 317.323636 122.230113 
L 320.570182 120.829571 
L 323.816727 121.709912 
L 327.063273 115.367459 
L 330.309818 115.567536 
L 333.556364 115.587544 
L 336.802909 116.187776 
L 340.049455 115.44749 
L 343.296 115.767613 
L 346.542545 106.944201 
L 349.789091 107.804533 
L 353.035636 106.664092 
L 356.282182 110.605617 
L 359.528727 108.844936 
L 362.775273 110.905733 
L 366.021818 105.18352 
L 369.268364 103.522877 
L 372.514909 107.904572 
L 375.761455 107.404379 
L 379.008 102.52249 
L 382.254545 104.903411 
L 385.501091 102.782591 
L 388.747636 103.302792 
L 391.994182 103.782978 
L 395.240727 102.442459 
L 398.487273 104.063086 
" style="fill:none;stroke:#1f77b4;stroke-linecap:square;stroke-width:1.5;"/>
   </g>
   <g id="line2d_14">
    <path clip-path="url(#p92ff0ee320)" d="M 73.832727 197.962739 
L 77.079273 194.044556 
L 80.325818 194.061229 
L 83.572364 193.661075 
L 86.818909 192.043783 
L 90.065455 188.992602 
L 93.312 190.376471 
L 96.558545 188.92591 
L 99.805091 188.642467 
L 103.051636 186.508308 
L 106.298182 185.34119 
L 109.544727 184.774304 
L 112.791273 185.758018 
L 116.037818 184.507534 
L 119.284364 184.907689 
L 122.530909 184.991055 
L 125.777455 186.191519 
L 129.024 184.024014 
L 132.270545 183.757244 
L 135.517091 182.790203 
L 138.763636 180.089159 
L 142.010182 179.705677 
L 145.256727 179.622311 
L 148.503273 178.105058 
L 151.749818 177.704903 
L 154.996364 177.871634 
L 158.242909 177.988346 
L 161.489455 175.320648 
L 164.736 175.287301 
L 167.982545 177.504826 
L 171.229091 176.754536 
L 174.475636 177.738249 
L 177.722182 178.888694 
L 180.968727 178.155077 
L 184.215273 176.721189 
L 187.461818 176.454419 
L 190.708364 177.054652 
L 193.954909 180.556006 
L 197.201455 180.906141 
L 200.448 180.139178 
L 203.694545 182.623472 
L 206.941091 180.656045 
L 210.187636 179.739023 
L 213.434182 177.538172 
L 216.680727 175.087224 
L 219.927273 174.320261 
L 223.173818 173.286527 
L 226.420364 173.603317 
L 229.666909 170.218674 
L 232.913455 170.452098 
L 236.16 171.602543 
L 239.406545 170.83558 
L 242.653091 171.102349 
L 245.899636 170.51879 
L 249.146182 169.084902 
L 252.392727 170.318713 
L 255.639273 171.335773 
L 258.885818 171.702582 
L 262.132364 169.418365 
L 265.378909 167.500956 
L 268.625455 168.301266 
L 271.872 167.651014 
L 275.118545 164.249699 
L 278.365091 164.266372 
L 281.611636 164.116314 
L 284.858182 164.116314 
L 288.104727 164.649854 
L 291.351273 163.532755 
L 294.597818 161.682039 
L 297.844364 159.948035 
L 301.090909 159.781304 
L 304.337455 160.815037 
L 307.584 157.597126 
L 310.830545 158.214031 
L 314.077091 158.063973 
L 317.323636 157.663818 
L 320.570182 156.646758 
L 323.816727 154.362541 
L 327.063273 152.828615 
L 330.309818 151.644823 
L 333.556364 151.861574 
L 336.802909 151.861574 
L 340.049455 150.561071 
L 343.296 148.927106 
L 346.542545 150.744475 
L 349.789091 150.427686 
L 353.035636 151.4114 
L 356.282182 151.728189 
L 359.528727 150.577744 
L 362.775273 148.84374 
L 366.021818 146.576196 
L 369.268364 146.976351 
L 372.514909 147.593256 
L 375.761455 146.976351 
L 379.008 150.544398 
L 382.254545 150.594417 
L 385.501091 154.712677 
L 388.747636 155.996507 
L 391.994182 153.97906 
L 395.240727 153.145404 
L 398.487273 149.277241 
" style="fill:none;stroke:#ff7f0e;stroke-dasharray:6,2.25;stroke-dashoffset:0;stroke-width:1.5;"/>
   </g>
   <g id="line2d_15">
    <path clip-path="url(#p92ff0ee320)" d="M 73.832727 194.7615 
L 77.079273 192.535639 
L 80.325818 191.001713 
L 83.572364 189.150997 
L 86.818909 178.68028 
L 90.065455 178.738636 
L 93.312 176.42941 
L 96.558545 176.596141 
L 99.805091 175.41235 
L 103.051636 175.429023 
L 106.298182 168.559699 
L 109.544727 168.184554 
L 112.791273 166.567262 
L 116.037818 167.175831 
L 119.284364 165.19173 
L 122.530909 165.141711 
L 125.777455 158.689215 
L 129.024 158.038963 
L 132.270545 156.338306 
L 135.517091 156.73846 
L 138.763636 156.01318 
L 142.010182 157.113605 
L 145.256727 148.977125 
L 148.503273 150.044204 
L 151.749818 147.393179 
L 154.996364 146.826293 
L 158.242909 146.209388 
L 161.489455 144.792173 
L 164.736 137.822811 
L 167.982545 137.522695 
L 171.229091 134.07136 
L 174.475636 134.629909 
L 177.722182 132.929251 
L 180.968727 131.320296 
L 184.215273 123.367219 
L 187.461818 122.558573 
L 190.708364 123.975788 
L 193.954909 123.975788 
L 197.201455 124.150856 
L 200.448 126.10161 
L 203.694545 121.024647 
L 206.941091 118.532016 
L 210.187636 118.690411 
L 213.434182 118.365285 
L 216.680727 116.798012 
L 219.927273 117.815072 
L 223.173818 112.996542 
L 226.420364 113.054897 
L 229.666909 111.787741 
L 232.913455 112.179559 
L 236.16 112.996542 
L 239.406545 111.987818 
L 242.653091 112.629733 
L 245.899636 113.054897 
L 249.146182 110.178785 
L 252.392727 106.260603 
L 255.639273 104.051415 
L 258.885818 103.034355 
L 262.132364 99.716405 
L 265.378909 100.141569 
L 268.625455 98.282517 
L 271.872 97.482208 
L 275.118545 96.79861 
L 278.365091 96.256734 
L 281.611636 95.147971 
L 284.858182 96.548513 
L 288.104727 96.190041 
L 291.351273 93.980853 
L 294.597818 94.414354 
L 297.844364 94.806173 
L 301.090909 95.389732 
L 304.337455 93.514006 
L 307.584 97.240447 
L 310.830545 94.997913 
L 314.077091 95.364722 
L 317.323636 94.581085 
L 320.570182 94.155921 
L 323.816727 94.297642 
L 327.063273 93.388958 
L 330.309818 92.905437 
L 333.556364 92.396907 
L 336.802909 92.271859 
L 340.049455 93.730757 
L 343.296 95.00625 
L 346.542545 94.339325 
L 349.789091 93.98919 
L 353.035636 93.43064 
L 356.282182 94.956231 
L 359.528727 92.772052 
L 362.775273 93.739093 
L 366.021818 93.488996 
L 369.268364 91.771665 
L 372.514909 91.038048 
L 375.761455 92.94712 
L 379.008 91.913387 
L 382.254545 91.871704 
L 385.501091 93.255573 
L 388.747636 93.155534 
L 391.994182 92.43859 
L 395.240727 172.944729 
L 398.487273 168.893162 
" style="fill:none;stroke:#2ca02c;stroke-dasharray:1.5,1.5;stroke-dashoffset:0;stroke-width:1.5;"/>
   </g>
   <g id="line2d_16">
    <path clip-path="url(#p92ff0ee320)" d="M 73.832727 202.347768 
L 77.079273 195.133867 
L 80.325818 194.611442 
L 83.572364 195.322829 
L 86.818909 193.244247 
L 90.065455 191.799243 
L 93.312 174.047933 
L 96.558545 174.714858 
L 99.805091 172.714084 
L 103.051636 172.102736 
L 106.298182 170.135309 
L 109.544727 171.569197 
L 112.791273 158.675321 
L 116.037818 159.008783 
L 119.284364 158.675321 
L 122.530909 155.207313 
L 125.777455 155.040581 
L 129.024 154.840504 
L 132.270545 144.492057 
L 135.517091 142.95813 
L 138.763636 142.091128 
L 142.010182 138.323004 
L 145.256727 135.533036 
L 148.503273 134.176956 
L 151.749818 122.528006 
L 154.996364 124.017471 
L 158.242909 122.805891 
L 161.489455 120.293809 
L 164.736 119.048883 
L 167.982545 115.536413 
L 171.229091 109.245091 
L 174.475636 109.245091 
L 177.722182 110.31217 
L 180.968727 111.612673 
L 184.215273 112.568598 
L 187.461818 112.301828 
L 190.708364 110.289939 
L 193.954909 110.234362 
L 197.201455 108.42255 
L 200.448 105.454736 
L 203.694545 101.686612 
L 206.941091 99.941492 
L 210.187636 97.996295 
L 213.434182 101.631034 
L 216.680727 102.842614 
L 219.927273 104.343195 
L 223.173818 102.008958 
L 226.420364 103.509539 
L 229.666909 95.995521 
L 232.913455 94.47271 
L 236.16 95.851021 
L 239.406545 95.628713 
L 242.653091 96.228945 
L 245.899636 97.218217 
L 249.146182 93.616824 
L 252.392727 92.905437 
L 255.639273 93.894709 
L 258.885818 92.160705 
L 262.132364 88.148042 
L 265.378909 85.235804 
L 268.625455 75.92109 
L 271.872 74.175971 
L 275.118545 73.664662 
L 278.365091 71.697234 
L 281.611636 71.541619 
L 284.858182 70.263346 
L 288.104727 63.560754 
L 291.351273 64.472218 
L 294.597818 63.694139 
L 297.844364 65.383681 
L 301.090909 65.950567 
L 304.337455 66.773108 
L 307.584 65.094681 
L 310.830545 62.949406 
L 314.077091 62.727098 
L 317.323636 62.993868 
L 320.570182 61.537749 
L 323.816727 60.726324 
L 327.063273 58.458781 
L 330.309818 56.947085 
L 333.556364 56.791469 
L 336.802909 55.379812 
L 340.049455 56.947085 
L 343.296 59.014551 
L 346.542545 55.546543 
L 349.789091 53.890347 
L 353.035636 54.257155 
L 356.282182 54.957426 
L 359.528727 57.002662 
L 362.775273 56.413545 
L 366.021818 56.01339 
L 369.268364 54.535041 
L 372.514909 55.413158 
L 375.761455 55.824428 
L 379.008 55.113042 
L 382.254545 54.846272 
L 385.501091 54.045963 
L 388.747636 53.568 
L 391.994182 55.313119 
L 395.240727 58.203126 
L 398.487273 58.569935 
" style="fill:none;stroke:#d62728;stroke-dasharray:4.5,1.5,2.25,1.5;stroke-dashoffset:0;stroke-width:1.5;"/>
   </g>
   <g id="line2d_17">
    <path clip-path="url(#p92ff0ee320)" d="M 73.832727 294.952411 
L 77.079273 295.095826 
L 80.325818 295.171892 
L 83.572364 295.217181 
L 86.818909 295.254647 
L 90.065455 295.285975 
L 93.312 295.306178 
L 96.558545 295.326478 
L 99.805091 295.348758 
L 103.051636 295.369359 
L 106.298182 295.388227 
L 109.544727 295.401928 
L 112.791273 295.410255 
L 116.037818 295.420692 
L 119.284364 295.430465 
L 122.530909 295.442195 
L 125.777455 295.452243 
L 129.024 295.463085 
L 132.270545 295.468872 
L 135.517091 295.473685 
L 138.763636 295.477839 
L 142.010182 295.480964 
L 145.256727 295.484794 
L 148.503273 295.487511 
L 151.749818 295.488 
L 154.996364 295.485113 
L 158.242909 295.481933 
L 161.489455 295.479084 
L 164.736 295.475892 
L 167.982545 295.473582 
L 171.229091 295.470941 
L 174.475636 295.467471 
L 177.722182 295.463832 
L 180.968727 295.459825 
L 184.215273 295.456127 
L 187.461818 295.451663 
L 190.708364 295.447025 
L 193.954909 295.443281 
L 197.201455 295.439999 
L 200.448 295.436783 
L 203.694545 295.434049 
L 206.941091 295.430938 
L 210.187636 295.424931 
L 213.434182 295.421631 
L 216.680727 295.418645 
L 219.927273 295.415444 
L 223.173818 295.412365 
L 226.420364 295.409646 
L 229.666909 295.403954 
L 232.913455 295.401011 
L 236.16 295.397653 
L 239.406545 295.395019 
L 242.653091 295.392418 
L 245.899636 295.389654 
L 249.146182 295.383958 
L 252.392727 295.380367 
L 255.639273 295.376851 
L 258.885818 295.373344 
L 262.132364 295.369618 
L 265.378909 295.366261 
L 268.625455 295.360198 
L 271.872 295.356789 
L 275.118545 295.352989 
L 278.365091 295.350226 
L 281.611636 295.347464 
L 284.858182 295.344435 
L 288.104727 295.339413 
L 291.351273 295.336734 
L 294.597818 295.334037 
L 297.844364 295.331474 
L 301.090909 295.329164 
L 304.337455 295.326609 
L 307.584 295.323519 
L 310.830545 295.321257 
L 314.077091 295.319097 
L 317.323636 295.316815 
L 320.570182 295.314679 
L 323.816727 295.312797 
L 327.063273 295.310824 
L 330.309818 295.309305 
L 333.556364 295.307884 
L 336.802909 295.306347 
L 340.049455 295.305269 
L 343.296 295.303879 
L 346.542545 295.302028 
L 349.789091 295.300656 
L 353.035636 295.299563 
L 356.282182 295.298438 
L 359.528727 295.297383 
L 362.775273 295.296302 
L 366.021818 295.295099 
L 369.268364 295.294265 
L 372.514909 295.293316 
L 375.761455 295.292444 
L 379.008 295.291713 
L 382.254545 295.291114 
L 385.501091 295.29037 
L 388.747636 295.289693 
L 391.994182 295.289107 
L 395.240727 295.2886 
L 398.487273 295.288008 
" style="fill:none;stroke:#9467bd;stroke-dasharray:7.5,1.5,1.5,1.5;stroke-dashoffset:0;stroke-width:1.5;"/>
   </g>
   <g id="line2d_18"/>
   <g id="line2d_19"/>
   <g id="line2d_20"/>
   <g id="line2d_21"/>
   <g id="line2d_22"/>
   <g id="patch_3">
    <path d="M 57.6 307.584 
L 57.6 41.472 
" style="fill:none;stroke:#000000;stroke-linecap:square;stroke-linejoin:miter;stroke-width:0.8;"/>
   </g>
   <g id="patch_4">
    <path d="M 414.72 307.584 
L 414.72 41.472 
" style="fill:none;stroke:#000000;stroke-linecap:square;stroke-linejoin:miter;stroke-width:0.8;"/>
   </g>
   <g id="patch_5">
    <path d="M 57.6 307.584 
L 414.72 307.584 
" style="fill:none;stroke:#000000;stroke-linecap:square;stroke-linejoin:miter;stroke-width:0.8;"/>
   </g>
   <g id="patch_6">
    <path d="M 57.6 41.472 
L 414.72 41.472 
" style="fill:none;stroke:#000000;stroke-linecap:square;stroke-linejoin:miter;stroke-width:0.8;"/>
   </g>
   <g id="text_15">
    <!-- Schemes in 3 objs: aver damage to enemy -->
    <defs>
     <path d="M 53.515625 70.515625 
L 53.515625 60.890625 
Q 47.90625 63.578125 42.921875 64.890625 
Q 37.9375 66.21875 33.296875 66.21875 
Q 25.25 66.21875 20.875 63.09375 
Q 16.5 59.96875 16.5 54.203125 
Q 16.5 49.359375 19.40625 46.890625 
Q 22.3125 44.4375 30.421875 42.921875 
L 36.375 41.703125 
Q 47.40625 39.59375 52.65625 34.296875 
Q 57.90625 29 57.90625 20.125 
Q 57.90625 9.515625 50.796875 4.046875 
Q 43.703125 -1.421875 29.984375 -1.421875 
Q 24.8125 -1.421875 18.96875 -0.25 
Q 13.140625 0.921875 6.890625 3.21875 
L 6.890625 13.375 
Q 12.890625 10.015625 18.65625 8.296875 
Q 24.421875 6.59375 29.984375 6.59375 
Q 38.421875 6.59375 43.015625 9.90625 
Q 47.609375 13.234375 47.609375 19.390625 
Q 47.609375 24.75 44.3125 27.78125 
Q 41.015625 30.8125 33.5 32.328125 
L 27.484375 33.5 
Q 16.453125 35.6875 11.515625 40.375 
Q 6.59375 45.0625 6.59375 53.421875 
Q 6.59375 63.09375 13.40625 68.65625 
Q 20.21875 74.21875 32.171875 74.21875 
Q 37.3125 74.21875 42.625 73.28125 
Q 47.953125 72.359375 53.515625 70.515625 
z
" id="DejaVuSans-83"/>
     <path d="M 48.78125 52.59375 
L 48.78125 44.1875 
Q 44.96875 46.296875 41.140625 47.34375 
Q 37.3125 48.390625 33.40625 48.390625 
Q 24.65625 48.390625 19.8125 42.84375 
Q 14.984375 37.3125 14.984375 27.296875 
Q 14.984375 17.28125 19.8125 11.734375 
Q 24.65625 6.203125 33.40625 6.203125 
Q 37.3125 6.203125 41.140625 7.25 
Q 44.96875 8.296875 48.78125 10.40625 
L 48.78125 2.09375 
Q 45.015625 0.34375 40.984375 -0.53125 
Q 36.96875 -1.421875 32.421875 -1.421875 
Q 20.0625 -1.421875 12.78125 6.34375 
Q 5.515625 14.109375 5.515625 27.296875 
Q 5.515625 40.671875 12.859375 48.328125 
Q 20.21875 56 33.015625 56 
Q 37.15625 56 41.109375 55.140625 
Q 45.0625 54.296875 48.78125 52.59375 
z
" id="DejaVuSans-99"/>
     <path d="M 54.890625 33.015625 
L 54.890625 0 
L 45.90625 0 
L 45.90625 32.71875 
Q 45.90625 40.484375 42.875 44.328125 
Q 39.84375 48.1875 33.796875 48.1875 
Q 26.515625 48.1875 22.3125 43.546875 
Q 18.109375 38.921875 18.109375 30.90625 
L 18.109375 0 
L 9.078125 0 
L 9.078125 75.984375 
L 18.109375 75.984375 
L 18.109375 46.1875 
Q 21.34375 51.125 25.703125 53.5625 
Q 30.078125 56 35.796875 56 
Q 45.21875 56 50.046875 50.171875 
Q 54.890625 44.34375 54.890625 33.015625 
z
" id="DejaVuSans-104"/>
     <path id="DejaVuSans-32"/>
     <path d="M 40.578125 39.3125 
Q 47.65625 37.796875 51.625 33 
Q 55.609375 28.21875 55.609375 21.1875 
Q 55.609375 10.40625 48.1875 4.484375 
Q 40.765625 -1.421875 27.09375 -1.421875 
Q 22.515625 -1.421875 17.65625 -0.515625 
Q 12.796875 0.390625 7.625 2.203125 
L 7.625 11.71875 
Q 11.71875 9.328125 16.59375 8.109375 
Q 21.484375 6.890625 26.8125 6.890625 
Q 36.078125 6.890625 40.9375 10.546875 
Q 45.796875 14.203125 45.796875 21.1875 
Q 45.796875 27.640625 41.28125 31.265625 
Q 36.765625 34.90625 28.71875 34.90625 
L 20.21875 34.90625 
L 20.21875 43.015625 
L 29.109375 43.015625 
Q 36.375 43.015625 40.234375 45.921875 
Q 44.09375 48.828125 44.09375 54.296875 
Q 44.09375 59.90625 40.109375 62.90625 
Q 36.140625 65.921875 28.71875 65.921875 
Q 24.65625 65.921875 20.015625 65.03125 
Q 15.375 64.15625 9.8125 62.3125 
L 9.8125 71.09375 
Q 15.4375 72.65625 20.34375 73.4375 
Q 25.25 74.21875 29.59375 74.21875 
Q 40.828125 74.21875 47.359375 69.109375 
Q 53.90625 64.015625 53.90625 55.328125 
Q 53.90625 49.265625 50.4375 45.09375 
Q 46.96875 40.921875 40.578125 39.3125 
z
" id="DejaVuSans-51"/>
     <path d="M 48.6875 27.296875 
Q 48.6875 37.203125 44.609375 42.84375 
Q 40.53125 48.484375 33.40625 48.484375 
Q 26.265625 48.484375 22.1875 42.84375 
Q 18.109375 37.203125 18.109375 27.296875 
Q 18.109375 17.390625 22.1875 11.75 
Q 26.265625 6.109375 33.40625 6.109375 
Q 40.53125 6.109375 44.609375 11.75 
Q 48.6875 17.390625 48.6875 27.296875 
z
M 18.109375 46.390625 
Q 20.953125 51.265625 25.265625 53.625 
Q 29.59375 56 35.59375 56 
Q 45.5625 56 51.78125 48.09375 
Q 58.015625 40.1875 58.015625 27.296875 
Q 58.015625 14.40625 51.78125 6.484375 
Q 45.5625 -1.421875 35.59375 -1.421875 
Q 29.59375 -1.421875 25.265625 0.953125 
Q 20.953125 3.328125 18.109375 8.203125 
L 18.109375 0 
L 9.078125 0 
L 9.078125 75.984375 
L 18.109375 75.984375 
z
" id="DejaVuSans-98"/>
     <path d="M 9.421875 54.6875 
L 18.40625 54.6875 
L 18.40625 -0.984375 
Q 18.40625 -11.421875 14.421875 -16.109375 
Q 10.453125 -20.796875 1.609375 -20.796875 
L -1.8125 -20.796875 
L -1.8125 -13.1875 
L 0.59375 -13.1875 
Q 5.71875 -13.1875 7.5625 -10.8125 
Q 9.421875 -8.453125 9.421875 -0.984375 
z
M 9.421875 75.984375 
L 18.40625 75.984375 
L 18.40625 64.59375 
L 9.421875 64.59375 
z
" id="DejaVuSans-106"/>
     <path d="M 11.71875 12.40625 
L 22.015625 12.40625 
L 22.015625 0 
L 11.71875 0 
z
M 11.71875 51.703125 
L 22.015625 51.703125 
L 22.015625 39.3125 
L 11.71875 39.3125 
z
" id="DejaVuSans-58"/>
     <path d="M 2.984375 54.6875 
L 12.5 54.6875 
L 29.59375 8.796875 
L 46.6875 54.6875 
L 56.203125 54.6875 
L 35.6875 0 
L 23.484375 0 
z
" id="DejaVuSans-118"/>
     <path d="M 32.171875 -5.078125 
Q 28.375 -14.84375 24.75 -17.8125 
Q 21.140625 -20.796875 15.09375 -20.796875 
L 7.90625 -20.796875 
L 7.90625 -13.28125 
L 13.1875 -13.28125 
Q 16.890625 -13.28125 18.9375 -11.515625 
Q 21 -9.765625 23.484375 -3.21875 
L 25.09375 0.875 
L 2.984375 54.6875 
L 12.5 54.6875 
L 29.59375 11.921875 
L 46.6875 54.6875 
L 56.203125 54.6875 
z
" id="DejaVuSans-121"/>
    </defs>
    <g transform="translate(107.466563 35.472)scale(0.12 -0.12)">
     <use xlink:href="#DejaVuSans-83"/>
     <use x="63.476562" xlink:href="#DejaVuSans-99"/>
     <use x="118.457031" xlink:href="#DejaVuSans-104"/>
     <use x="181.835938" xlink:href="#DejaVuSans-101"/>
     <use x="243.359375" xlink:href="#DejaVuSans-109"/>
     <use x="340.771484" xlink:href="#DejaVuSans-101"/>
     <use x="402.294922" xlink:href="#DejaVuSans-115"/>
     <use x="454.394531" xlink:href="#DejaVuSans-32"/>
     <use x="486.181641" xlink:href="#DejaVuSans-105"/>
     <use x="513.964844" xlink:href="#DejaVuSans-110"/>
     <use x="577.34375" xlink:href="#DejaVuSans-32"/>
     <use x="609.130859" xlink:href="#DejaVuSans-51"/>
     <use x="672.753906" xlink:href="#DejaVuSans-32"/>
     <use x="704.541016" xlink:href="#DejaVuSans-111"/>
     <use x="765.722656" xlink:href="#DejaVuSans-98"/>
     <use x="829.199219" xlink:href="#DejaVuSans-106"/>
     <use x="856.982422" xlink:href="#DejaVuSans-115"/>
     <use x="909.082031" xlink:href="#DejaVuSans-58"/>
     <use x="942.773438" xlink:href="#DejaVuSans-32"/>
     <use x="974.560547" xlink:href="#DejaVuSans-97"/>
     <use x="1035.839844" xlink:href="#DejaVuSans-118"/>
     <use x="1095.019531" xlink:href="#DejaVuSans-101"/>
     <use x="1156.542969" xlink:href="#DejaVuSans-114"/>
     <use x="1197.65625" xlink:href="#DejaVuSans-32"/>
     <use x="1229.443359" xlink:href="#DejaVuSans-100"/>
     <use x="1292.919922" xlink:href="#DejaVuSans-97"/>
     <use x="1354.199219" xlink:href="#DejaVuSans-109"/>
     <use x="1451.611328" xlink:href="#DejaVuSans-97"/>
     <use x="1512.890625" xlink:href="#DejaVuSans-103"/>
     <use x="1576.367188" xlink:href="#DejaVuSans-101"/>
     <use x="1637.890625" xlink:href="#DejaVuSans-32"/>
     <use x="1669.677734" xlink:href="#DejaVuSans-116"/>
     <use x="1708.886719" xlink:href="#DejaVuSans-111"/>
     <use x="1770.068359" xlink:href="#DejaVuSans-32"/>
     <use x="1801.855469" xlink:href="#DejaVuSans-101"/>
     <use x="1863.378906" xlink:href="#DejaVuSans-110"/>
     <use x="1926.757812" xlink:href="#DejaVuSans-101"/>
     <use x="1988.28125" xlink:href="#DejaVuSans-109"/>
     <use x="2085.693359" xlink:href="#DejaVuSans-121"/>
    </g>
   </g>
   <g id="legend_1">
    <g id="patch_7">
     <path d="M 64.6 302.584 
L 254.653125 302.584 
Q 256.653125 302.584 256.653125 300.584 
L 256.653125 228.193375 
Q 256.653125 226.193375 254.653125 226.193375 
L 64.6 226.193375 
Q 62.6 226.193375 62.6 228.193375 
L 62.6 300.584 
Q 62.6 302.584 64.6 302.584 
z
" style="fill:#ffffff;opacity:0.8;stroke:#cccccc;stroke-linejoin:miter;"/>
    </g>
    <g id="line2d_23">
     <path d="M 66.6 234.291812 
L 86.6 234.291812 
" style="fill:none;stroke:#1f77b4;stroke-linecap:square;stroke-width:1.5;"/>
    </g>
    <g id="line2d_24"/>
    <g id="text_16">
     <!-- 3目标+新拥挤距离+fix/priori/assemble -->
     <defs>
      <path d="M 4.984375 -17.671875 
L 4.984375 70.515625 
L 54.984375 70.515625 
L 54.984375 -17.671875 
z
M 10.59375 -12.109375 
L 49.421875 -12.109375 
L 49.421875 64.890625 
L 10.59375 64.890625 
z
" id="DejaVuSans-30446"/>
      <path d="M 4.984375 -17.671875 
L 4.984375 70.515625 
L 54.984375 70.515625 
L 54.984375 -17.671875 
z
M 10.59375 -12.109375 
L 49.421875 -12.109375 
L 49.421875 64.890625 
L 10.59375 64.890625 
z
" id="DejaVuSans-26631"/>
      <path d="M 46 62.703125 
L 46 35.5 
L 73.1875 35.5 
L 73.1875 27.203125 
L 46 27.203125 
L 46 0 
L 37.796875 0 
L 37.796875 27.203125 
L 10.59375 27.203125 
L 10.59375 35.5 
L 37.796875 35.5 
L 37.796875 62.703125 
z
" id="DejaVuSans-43"/>
      <path d="M 4.984375 -17.671875 
L 4.984375 70.515625 
L 54.984375 70.515625 
L 54.984375 -17.671875 
z
M 10.59375 -12.109375 
L 49.421875 -12.109375 
L 49.421875 64.890625 
L 10.59375 64.890625 
z
" id="DejaVuSans-26032"/>
      <path d="M 4.984375 -17.671875 
L 4.984375 70.515625 
L 54.984375 70.515625 
L 54.984375 -17.671875 
z
M 10.59375 -12.109375 
L 49.421875 -12.109375 
L 49.421875 64.890625 
L 10.59375 64.890625 
z
" id="DejaVuSans-25317"/>
      <path d="M 4.984375 -17.671875 
L 4.984375 70.515625 
L 54.984375 70.515625 
L 54.984375 -17.671875 
z
M 10.59375 -12.109375 
L 49.421875 -12.109375 
L 49.421875 64.890625 
L 10.59375 64.890625 
z
" id="DejaVuSans-25380"/>
      <path d="M 4.984375 -17.671875 
L 4.984375 70.515625 
L 54.984375 70.515625 
L 54.984375 -17.671875 
z
M 10.59375 -12.109375 
L 49.421875 -12.109375 
L 49.421875 64.890625 
L 10.59375 64.890625 
z
" id="DejaVuSans-36317"/>
      <path d="M 4.984375 -17.671875 
L 4.984375 70.515625 
L 54.984375 70.515625 
L 54.984375 -17.671875 
z
M 10.59375 -12.109375 
L 49.421875 -12.109375 
L 49.421875 64.890625 
L 10.59375 64.890625 
z
" id="DejaVuSans-31163"/>
      <path d="M 37.109375 75.984375 
L 37.109375 68.5 
L 28.515625 68.5 
Q 23.6875 68.5 21.796875 66.546875 
Q 19.921875 64.59375 19.921875 59.515625 
L 19.921875 54.6875 
L 34.71875 54.6875 
L 34.71875 47.703125 
L 19.921875 47.703125 
L 19.921875 0 
L 10.890625 0 
L 10.890625 47.703125 
L 2.296875 47.703125 
L 2.296875 54.6875 
L 10.890625 54.6875 
L 10.890625 58.5 
Q 10.890625 67.625 15.140625 71.796875 
Q 19.390625 75.984375 28.609375 75.984375 
z
" id="DejaVuSans-102"/>
      <path d="M 54.890625 54.6875 
L 35.109375 28.078125 
L 55.90625 0 
L 45.3125 0 
L 29.390625 21.484375 
L 13.484375 0 
L 2.875 0 
L 24.125 28.609375 
L 4.6875 54.6875 
L 15.28125 54.6875 
L 29.78125 35.203125 
L 44.28125 54.6875 
z
" id="DejaVuSans-120"/>
      <path d="M 25.390625 72.90625 
L 33.6875 72.90625 
L 8.296875 -9.28125 
L 0 -9.28125 
z
" id="DejaVuSans-47"/>
      <path d="M 18.109375 8.203125 
L 18.109375 -20.796875 
L 9.078125 -20.796875 
L 9.078125 54.6875 
L 18.109375 54.6875 
L 18.109375 46.390625 
Q 20.953125 51.265625 25.265625 53.625 
Q 29.59375 56 35.59375 56 
Q 45.5625 56 51.78125 48.09375 
Q 58.015625 40.1875 58.015625 27.296875 
Q 58.015625 14.40625 51.78125 6.484375 
Q 45.5625 -1.421875 35.59375 -1.421875 
Q 29.59375 -1.421875 25.265625 0.953125 
Q 20.953125 3.328125 18.109375 8.203125 
z
M 48.6875 27.296875 
Q 48.6875 37.203125 44.609375 42.84375 
Q 40.53125 48.484375 33.40625 48.484375 
Q 26.265625 48.484375 22.1875 42.84375 
Q 18.109375 37.203125 18.109375 27.296875 
Q 18.109375 17.390625 22.1875 11.75 
Q 26.265625 6.109375 33.40625 6.109375 
Q 40.53125 6.109375 44.609375 11.75 
Q 48.6875 17.390625 48.6875 27.296875 
z
" id="DejaVuSans-112"/>
      <path d="M 9.421875 75.984375 
L 18.40625 75.984375 
L 18.40625 0 
L 9.421875 0 
z
" id="DejaVuSans-108"/>
     </defs>
     <g transform="translate(94.6 237.791812)scale(0.1 -0.1)">
      <use xlink:href="#DejaVuSans-51"/>
      <use x="63.623047" xlink:href="#DejaVuSans-30446"/>
      <use x="123.632812" xlink:href="#DejaVuSans-26631"/>
      <use x="183.642578" xlink:href="#DejaVuSans-43"/>
      <use x="267.431641" xlink:href="#DejaVuSans-26032"/>
      <use x="327.441406" xlink:href="#DejaVuSans-25317"/>
      <use x="387.451172" xlink:href="#DejaVuSans-25380"/>
      <use x="447.460938" xlink:href="#DejaVuSans-36317"/>
      <use x="507.470703" xlink:href="#DejaVuSans-31163"/>
      <use x="567.480469" xlink:href="#DejaVuSans-43"/>
      <use x="651.269531" xlink:href="#DejaVuSans-102"/>
      <use x="686.474609" xlink:href="#DejaVuSans-105"/>
      <use x="714.257812" xlink:href="#DejaVuSans-120"/>
      <use x="773.4375" xlink:href="#DejaVuSans-47"/>
      <use x="807.128906" xlink:href="#DejaVuSans-112"/>
      <use x="870.605469" xlink:href="#DejaVuSans-114"/>
      <use x="911.71875" xlink:href="#DejaVuSans-105"/>
      <use x="939.501953" xlink:href="#DejaVuSans-111"/>
      <use x="1000.683594" xlink:href="#DejaVuSans-114"/>
      <use x="1041.796875" xlink:href="#DejaVuSans-105"/>
      <use x="1069.580078" xlink:href="#DejaVuSans-47"/>
      <use x="1103.271484" xlink:href="#DejaVuSans-97"/>
      <use x="1164.550781" xlink:href="#DejaVuSans-115"/>
      <use x="1216.650391" xlink:href="#DejaVuSans-115"/>
      <use x="1268.75" xlink:href="#DejaVuSans-101"/>
      <use x="1330.273438" xlink:href="#DejaVuSans-109"/>
      <use x="1427.685547" xlink:href="#DejaVuSans-98"/>
      <use x="1491.162109" xlink:href="#DejaVuSans-108"/>
      <use x="1518.945312" xlink:href="#DejaVuSans-101"/>
     </g>
    </g>
    <g id="line2d_25">
     <path d="M 66.6 248.969937 
L 86.6 248.969937 
" style="fill:none;stroke:#ff7f0e;stroke-dasharray:6,2.25;stroke-dashoffset:0;stroke-width:1.5;"/>
    </g>
    <g id="line2d_26"/>
    <g id="text_17">
     <!-- 3目标+新拥挤-datafix -->
     <defs>
      <path d="M 4.890625 31.390625 
L 31.203125 31.390625 
L 31.203125 23.390625 
L 4.890625 23.390625 
z
" id="DejaVuSans-45"/>
     </defs>
     <g transform="translate(94.6 252.469937)scale(0.1 -0.1)">
      <use xlink:href="#DejaVuSans-51"/>
      <use x="63.623047" xlink:href="#DejaVuSans-30446"/>
      <use x="123.632812" xlink:href="#DejaVuSans-26631"/>
      <use x="183.642578" xlink:href="#DejaVuSans-43"/>
      <use x="267.431641" xlink:href="#DejaVuSans-26032"/>
      <use x="327.441406" xlink:href="#DejaVuSans-25317"/>
      <use x="387.451172" xlink:href="#DejaVuSans-25380"/>
      <use x="447.460938" xlink:href="#DejaVuSans-45"/>
      <use x="483.544922" xlink:href="#DejaVuSans-100"/>
      <use x="547.021484" xlink:href="#DejaVuSans-97"/>
      <use x="608.300781" xlink:href="#DejaVuSans-116"/>
      <use x="647.509766" xlink:href="#DejaVuSans-97"/>
      <use x="708.789062" xlink:href="#DejaVuSans-102"/>
      <use x="743.994141" xlink:href="#DejaVuSans-105"/>
      <use x="771.777344" xlink:href="#DejaVuSans-120"/>
     </g>
    </g>
    <g id="line2d_27">
     <path d="M 66.6 263.648062 
L 86.6 263.648062 
" style="fill:none;stroke:#2ca02c;stroke-dasharray:1.5,1.5;stroke-dashoffset:0;stroke-width:1.5;"/>
    </g>
    <g id="line2d_28"/>
    <g id="text_18">
     <!-- 3目标+新拥挤-assemble -->
     <g transform="translate(94.6 267.148062)scale(0.1 -0.1)">
      <use xlink:href="#DejaVuSans-51"/>
      <use x="63.623047" xlink:href="#DejaVuSans-30446"/>
      <use x="123.632812" xlink:href="#DejaVuSans-26631"/>
      <use x="183.642578" xlink:href="#DejaVuSans-43"/>
      <use x="267.431641" xlink:href="#DejaVuSans-26032"/>
      <use x="327.441406" xlink:href="#DejaVuSans-25317"/>
      <use x="387.451172" xlink:href="#DejaVuSans-25380"/>
      <use x="447.460938" xlink:href="#DejaVuSans-45"/>
      <use x="483.544922" xlink:href="#DejaVuSans-97"/>
      <use x="544.824219" xlink:href="#DejaVuSans-115"/>
      <use x="596.923828" xlink:href="#DejaVuSans-115"/>
      <use x="649.023438" xlink:href="#DejaVuSans-101"/>
      <use x="710.546875" xlink:href="#DejaVuSans-109"/>
      <use x="807.958984" xlink:href="#DejaVuSans-98"/>
      <use x="871.435547" xlink:href="#DejaVuSans-108"/>
      <use x="899.21875" xlink:href="#DejaVuSans-101"/>
     </g>
    </g>
    <g id="line2d_29">
     <path d="M 66.6 278.326188 
L 86.6 278.326188 
" style="fill:none;stroke:#d62728;stroke-dasharray:4.5,1.5,2.25,1.5;stroke-dashoffset:0;stroke-width:1.5;"/>
    </g>
    <g id="line2d_30"/>
    <g id="text_19">
     <!-- 3目标+新拥挤-priori -->
     <g transform="translate(94.6 281.826188)scale(0.1 -0.1)">
      <use xlink:href="#DejaVuSans-51"/>
      <use x="63.623047" xlink:href="#DejaVuSans-30446"/>
      <use x="123.632812" xlink:href="#DejaVuSans-26631"/>
      <use x="183.642578" xlink:href="#DejaVuSans-43"/>
      <use x="267.431641" xlink:href="#DejaVuSans-26032"/>
      <use x="327.441406" xlink:href="#DejaVuSans-25317"/>
      <use x="387.451172" xlink:href="#DejaVuSans-25380"/>
      <use x="447.460938" xlink:href="#DejaVuSans-45"/>
      <use x="483.544922" xlink:href="#DejaVuSans-112"/>
      <use x="547.021484" xlink:href="#DejaVuSans-114"/>
      <use x="588.134766" xlink:href="#DejaVuSans-105"/>
      <use x="615.917969" xlink:href="#DejaVuSans-111"/>
      <use x="677.099609" xlink:href="#DejaVuSans-114"/>
      <use x="718.212891" xlink:href="#DejaVuSans-105"/>
     </g>
    </g>
    <g id="line2d_31">
     <path d="M 66.6 293.004312 
L 86.6 293.004312 
" style="fill:none;stroke:#9467bd;stroke-dasharray:7.5,1.5,1.5,1.5;stroke-dashoffset:0;stroke-width:1.5;"/>
    </g>
    <g id="line2d_32"/>
    <g id="text_20">
     <!-- 2+all -->
     <g transform="translate(94.6 296.504312)scale(0.1 -0.1)">
      <use xlink:href="#DejaVuSans-50"/>
      <use x="63.623047" xlink:href="#DejaVuSans-43"/>
      <use x="147.412109" xlink:href="#DejaVuSans-97"/>
      <use x="208.691406" xlink:href="#DejaVuSans-108"/>
      <use x="236.474609" xlink:href="#DejaVuSans-108"/>
     </g>
    </g>
   </g>
  </g>
 </g>
 <defs>
  <clipPath id="p92ff0ee320">
   <rect height="266.112" width="357.12" x="57.6" y="41.472"/>
  </clipPath>
 </defs>
</svg>
