<?xml version="1.0" encoding="UTF-8" standalone="no"?>
<svg
   xmlns:dc="http://purl.org/dc/elements/1.1/"
   xmlns:cc="http://creativecommons.org/ns#"
   xmlns:rdf="http://www.w3.org/1999/02/22-rdf-syntax-ns#"
   xmlns:svg="http://www.w3.org/2000/svg"
   xmlns="http://www.w3.org/2000/svg"
   xmlns:xlink="http://www.w3.org/1999/xlink"
   xmlns:sodipodi="http://sodipodi.sourceforge.net/DTD/sodipodi-0.dtd"
   xmlns:inkscape="http://www.inkscape.org/namespaces/inkscape"
   height="227.72356pt"
   version="1.1"
   viewBox="0 0 201.18678 227.72356"
   width="201.18678pt"
   id="svg293"
   sodipodi:docname="evo_mix_map_dmgM.svg"
   inkscape:version="1.0.1 (c497b03c, 2020-09-10)">
  <sodipodi:namedview
     pagecolor="#ffffff"
     bordercolor="#666666"
     borderopacity="1"
     objecttolerance="10"
     gridtolerance="10"
     guidetolerance="10"
     inkscape:pageopacity="0"
     inkscape:pageshadow="2"
     inkscape:window-width="1440"
     inkscape:window-height="855"
     id="namedview295"
     inkscape:document-rotation="0"
     showgrid="false"
     inkscape:zoom="2.211182"
     inkscape:cx="139.80533"
     inkscape:cy="187.00405"
     inkscape:window-x="0"
     inkscape:window-y="23"
     inkscape:window-maximized="0"
     inkscape:current-layer="matplotlib.axis_1" />
  <metadata
     id="metadata2">
    <rdf:RDF>
      <cc:Work>
        <dc:type
           rdf:resource="http://purl.org/dc/dcmitype/StillImage" />
        <dc:date>2020-10-20T15:56:15.585963</dc:date>
        <dc:format>image/svg+xml</dc:format>
        <dc:creator>
          <cc:Agent>
            <dc:title>Matplotlib v3.3.1, https://matplotlib.org/</dc:title>
          </cc:Agent>
        </dc:creator>
      </cc:Work>
    </rdf:RDF>
  </metadata>
  <defs
     id="defs6">
    <style
       type="text/css"
       id="style4">*{stroke-linecap:butt;stroke-linejoin:round;}</style>
  </defs>
  <g
     id="figure_1"
     transform="translate(21.186772)">
    <g
       id="patch_1">
      <path
         d="M 0,216 H 180 V 0 H 0 Z"
         style="fill:#ffffff"
         id="path8" />
    </g>
    <g
       id="axes_1">
      <g
         id="patch_2">
        <path
           d="M 22.5,192.24 H 162 V 25.92 H 22.5 Z"
           style="fill:#ffffff"
           id="path11" />
      </g>
      <g
         id="matplotlib.axis_1">
        <g
           id="xtick_1">
          <g
             id="line2d_1">
            <defs
               id="defs15">
              <path
                 d="M 0,0 V 6"
                 id="mb8ea4131b3"
                 style="stroke:#262626;stroke-width:1.25" />
            </defs>
            <g
               id="g19">
              <use
                 style="fill:#262626;stroke:#262626;stroke-width:1.25"
                 x="57.375"
                 xlink:href="#mb8ea4131b3"
                 y="192.24001"
                 id="use17"
                 width="100%"
                 height="100%" />
            </g>
          </g>
          <g
             id="text_1">
            <!-- 0 -->
            <g
               style="fill:#262626"
               transform="matrix(0.11,0,0,-0.11,54.316484,209.61359)"
               id="g27">
              <defs
                 id="defs23">
                <path
                   d="m 4.15625,35.296875 q 0,12.703125 2.609375,20.4375 2.609375,7.75 7.75,11.9375 5.15625,4.203125 12.96875,4.203125 5.765625,0 10.109375,-2.328125 4.34375,-2.3125 7.171875,-6.6875 Q 47.609375,58.5 49.21875,52.21875 q 1.609375,-6.265625 1.609375,-16.921875 0,-12.59375 -2.59375,-20.328125 Q 45.65625,7.234375 40.5,3 35.359375,-1.21875 27.484375,-1.21875 q -10.34375,0 -16.25,7.421875 -7.078125,8.9375 -7.078125,29.09375 z m 9.03125,0 q 0,-17.625 4.125,-23.46875 Q 21.4375,6 27.484375,6 q 6.0625,0 10.1875,5.859375 4.125,5.859375 4.125,23.4375 0,17.6875 -4.125,23.484375 -4.125,5.8125 -10.28125,5.8125 -6.046875,0 -9.671875,-5.125 Q 13.1875,52.9375 13.1875,35.296875 Z"
                   id="ArialMT-48" />
              </defs>
              <use
                 xlink:href="#ArialMT-48"
                 id="use25"
                 x="0"
                 y="0"
                 width="100%"
                 height="100%" />
            </g>
          </g>
        </g>
        <g
           id="xtick_2">
          <g
             id="line2d_2">
            <g
               id="g33">
              <use
                 style="fill:#262626;stroke:#262626;stroke-width:1.25"
                 x="127.125"
                 xlink:href="#mb8ea4131b3"
                 y="192.24001"
                 id="use31"
                 width="100%"
                 height="100%" />
            </g>
          </g>
          <g
             id="text_2">
            <!-- 1 -->
            <g
               style="fill:#262626"
               transform="matrix(0.11,0,0,-0.11,124.06648,209.61359)"
               id="g41">
              <defs
                 id="defs37">
                <path
                   d="m 37.25,0 h -8.78125 v 56 q -3.171875,-3.015625 -8.328125,-6.046875 -5.15625,-3.03125 -9.25,-4.546875 v 8.5 q 7.375,3.46875 12.890625,8.390625 5.515625,4.9375 7.8125,9.578125 H 37.25 Z"
                   id="ArialMT-49" />
              </defs>
              <use
                 xlink:href="#ArialMT-49"
                 id="use39"
                 x="0"
                 y="0"
                 width="100%"
                 height="100%" />
            </g>
          </g>
        </g>
        <text
           xml:space="preserve"
           style="font-style:normal;font-weight:normal;font-size:12px;line-height:1.25;font-family:sans-serif;fill:#000000;fill-opacity:1;stroke:none;stroke-width:0.75"
           x="35.796322"
           y="225.30948"
           id="text8783"><tspan
             sodipodi:role="line"
             id="tspan8781"
             x="35.796322"
             y="225.30948"
             style="font-size:12px;stroke-width:0.75">Is enemy pop evo</tspan></text>
      </g>
      <g
         id="matplotlib.axis_2">
        <g
           id="ytick_1">
          <g
             id="line2d_3">
            <defs
               id="defs94">
              <path
                 d="M 0,0 H -6"
                 id="m41379be8ca"
                 style="stroke:#262626;stroke-width:1.25" />
            </defs>
            <g
               id="g98">
              <use
                 style="fill:#262626;stroke:#262626;stroke-width:1.25"
                 x="22.5"
                 xlink:href="#m41379be8ca"
                 y="171.39893"
                 id="use96"
                 width="100%"
                 height="100%" />
            </g>
          </g>
          <g
             id="text_4">
            <!-- 225 -->
            <g
               style="fill:#262626"
               transform="matrix(0.11,0,0,-0.11,-5.351094,175.33572)"
               id="g111">
              <defs
                 id="defs103">
                <path
                   d="M 50.34375,8.453125 V 0 H 3.03125 Q 2.9375,3.171875 4.046875,6.109375 5.859375,10.9375 9.828125,15.625 13.8125,20.3125 21.34375,26.46875 q 11.671875,9.5625 15.765625,15.15625 4.109375,5.59375 4.109375,10.578125 0,5.21875 -3.75,8.796875 -3.734375,3.59375 -9.734375,3.59375 -6.34375,0 -10.15625,-3.8125 Q 13.765625,56.984375 13.71875,50.25 L 4.6875,51.171875 q 0.921875,10.109375 6.96875,15.40625 6.0625,5.296875 16.28125,5.296875 10.296875,0 16.296875,-5.71875 Q 50.25,60.453125 50.25,52 50.25,47.703125 48.484375,43.546875 46.734375,39.40625 42.65625,34.8125 38.578125,30.21875 29.109375,22.21875 21.1875,15.578125 18.9375,13.203125 q -2.234375,-2.359375 -3.703125,-4.75 z"
                   id="ArialMT-50" />
                <path
                   d="M 4.15625,18.75 13.375,19.53125 Q 14.40625,12.796875 18.140625,9.390625 21.875,6 27.15625,6 33.5,6 37.890625,10.78125 42.28125,15.578125 42.28125,23.484375 42.28125,31 38.0625,35.34375 33.84375,39.703125 27,39.703125 q -4.25,0 -7.671875,-1.9375 -3.40625,-1.921875 -5.359375,-5 l -8.25,1.078125 6.921875,36.765625 H 48.25 v -8.40625 H 19.671875 L 15.828125,42.96875 q 6.4375,4.5 13.515625,4.5 9.375,0 15.8125,-6.5 6.453125,-6.5 6.453125,-16.703125 0,-9.71875 -5.65625,-16.796875 -6.890625,-8.6875 -18.796875,-8.6875 -9.765625,0 -15.953125,5.46875 Q 5.03125,9.71875 4.15625,18.75 Z"
                   id="ArialMT-53" />
              </defs>
              <use
                 xlink:href="#ArialMT-50"
                 id="use105"
                 x="0"
                 y="0"
                 width="100%"
                 height="100%" />
              <use
                 x="55.615234"
                 xlink:href="#ArialMT-50"
                 id="use107"
                 y="0"
                 width="100%"
                 height="100%" />
              <use
                 x="111.23047"
                 xlink:href="#ArialMT-53"
                 id="use109"
                 y="0"
                 width="100%"
                 height="100%" />
            </g>
          </g>
        </g>
        <g
           id="ytick_2">
          <g
             id="line2d_4">
            <g
               id="g117">
              <use
                 style="fill:#262626;stroke:#262626;stroke-width:1.25"
                 x="22.5"
                 xlink:href="#m41379be8ca"
                 y="145.85838"
                 id="use115"
                 width="100%"
                 height="100%" />
            </g>
          </g>
          <g
             id="text_5">
            <!-- 250 -->
            <g
               style="fill:#262626"
               transform="matrix(0.11,0,0,-0.11,-5.351094,149.79517)"
               id="g126">
              <use
                 xlink:href="#ArialMT-50"
                 id="use120"
                 x="0"
                 y="0"
                 width="100%"
                 height="100%" />
              <use
                 x="55.615234"
                 xlink:href="#ArialMT-53"
                 id="use122"
                 y="0"
                 width="100%"
                 height="100%" />
              <use
                 x="111.23047"
                 xlink:href="#ArialMT-48"
                 id="use124"
                 y="0"
                 width="100%"
                 height="100%" />
            </g>
          </g>
        </g>
        <g
           id="ytick_3">
          <g
             id="line2d_5">
            <g
               id="g132">
              <use
                 style="fill:#262626;stroke:#262626;stroke-width:1.25"
                 x="22.5"
                 xlink:href="#m41379be8ca"
                 y="120.31784"
                 id="use130"
                 width="100%"
                 height="100%" />
            </g>
          </g>
          <g
             id="text_6">
            <!-- 275 -->
            <g
               style="fill:#262626"
               transform="matrix(0.11,0,0,-0.11,-5.351094,124.25463)"
               id="g144">
              <defs
                 id="defs136">
                <path
                   d="m 4.734375,62.203125 v 8.453125 h 46.34375 V 63.8125 Q 44.234375,56.546875 37.515625,44.484375 30.8125,32.421875 27.15625,19.671875 24.515625,10.6875 23.78125,0 H 14.75 q 0.140625,8.453125 3.3125,20.40625 3.171875,11.96875 9.109375,23.078125 5.9375,11.109375 12.625,18.71875 z"
                   id="ArialMT-55" />
              </defs>
              <use
                 xlink:href="#ArialMT-50"
                 id="use138"
                 x="0"
                 y="0"
                 width="100%"
                 height="100%" />
              <use
                 x="55.615234"
                 xlink:href="#ArialMT-55"
                 id="use140"
                 y="0"
                 width="100%"
                 height="100%" />
              <use
                 x="111.23047"
                 xlink:href="#ArialMT-53"
                 id="use142"
                 y="0"
                 width="100%"
                 height="100%" />
            </g>
          </g>
        </g>
        <g
           id="ytick_4">
          <g
             id="line2d_6">
            <g
               id="g150">
              <use
                 style="fill:#262626;stroke:#262626;stroke-width:1.25"
                 x="22.5"
                 xlink:href="#m41379be8ca"
                 y="94.777298"
                 id="use148"
                 width="100%"
                 height="100%" />
            </g>
          </g>
          <g
             id="text_7">
            <!-- 300 -->
            <g
               style="fill:#262626"
               transform="matrix(0.11,0,0,-0.11,-5.351094,98.714094)"
               id="g162">
              <defs
                 id="defs154">
                <path
                   d="m 4.203125,18.890625 8.78125,1.171875 Q 14.5,12.59375 18.140625,9.296875 21.78125,6 27,6 33.203125,6 37.46875,10.296875 41.75,14.59375 41.75,20.953125 q 0,6.046875 -3.953125,9.96875 -3.953125,3.9375 -10.0625,3.9375 -2.484375,0 -6.203125,-0.96875 l 0.984375,7.71875 Q 23.390625,41.5 23.921875,41.5 q 5.625,0 10.109375,2.921875 4.5,2.9375 4.5,9.046875 0,4.828125 -3.28125,8 -3.265625,3.1875 -8.4375,3.1875 -5.125,0 -8.546875,-3.234375 -3.421875,-3.21875 -4.390625,-9.65625 l -8.796875,1.5625 q 1.609375,8.828125 7.3125,13.6875 5.71875,4.859375 14.21875,4.859375 5.859375,0 10.78125,-2.515625 4.9375,-2.515625 7.546875,-6.859375 2.625,-4.34375 2.625,-9.234375 0,-4.625 -2.5,-8.4375 -2.484375,-3.8125 -7.359375,-6.0625 6.34375,-1.453125 9.859375,-6.078125 3.515625,-4.609375 3.515625,-11.546875 0,-9.375 -6.84375,-15.890625 -6.828125,-6.515625 -17.28125,-6.515625 -9.421875,0 -15.65625,5.609375 -6.21875,5.625 -7.09375,14.546875 z"
                   id="ArialMT-51" />
              </defs>
              <use
                 xlink:href="#ArialMT-51"
                 id="use156"
                 x="0"
                 y="0"
                 width="100%"
                 height="100%" />
              <use
                 x="55.615234"
                 xlink:href="#ArialMT-48"
                 id="use158"
                 y="0"
                 width="100%"
                 height="100%" />
              <use
                 x="111.23047"
                 xlink:href="#ArialMT-48"
                 id="use160"
                 y="0"
                 width="100%"
                 height="100%" />
            </g>
          </g>
        </g>
        <g
           id="ytick_5">
          <g
             id="line2d_7">
            <g
               id="g168">
              <use
                 style="fill:#262626;stroke:#262626;stroke-width:1.25"
                 x="22.5"
                 xlink:href="#m41379be8ca"
                 y="69.236755"
                 id="use166"
                 width="100%"
                 height="100%" />
            </g>
          </g>
          <g
             id="text_8">
            <!-- 325 -->
            <g
               style="fill:#262626"
               transform="matrix(0.11,0,0,-0.11,-5.351094,73.173554)"
               id="g177">
              <use
                 xlink:href="#ArialMT-51"
                 id="use171"
                 x="0"
                 y="0"
                 width="100%"
                 height="100%" />
              <use
                 x="55.615234"
                 xlink:href="#ArialMT-50"
                 id="use173"
                 y="0"
                 width="100%"
                 height="100%" />
              <use
                 x="111.23047"
                 xlink:href="#ArialMT-53"
                 id="use175"
                 y="0"
                 width="100%"
                 height="100%" />
            </g>
          </g>
        </g>
        <g
           id="ytick_6">
          <g
             id="line2d_8">
            <g
               id="g183">
              <use
                 style="fill:#262626;stroke:#262626;stroke-width:1.25"
                 x="22.5"
                 xlink:href="#m41379be8ca"
                 y="43.696217"
                 id="use181"
                 width="100%"
                 height="100%" />
            </g>
          </g>
          <g
             id="text_9">
            <!-- 350 -->
            <g
               style="fill:#262626"
               transform="matrix(0.11,0,0,-0.11,-5.351094,47.633013)"
               id="g192">
              <use
                 xlink:href="#ArialMT-51"
                 id="use186"
                 x="0"
                 y="0"
                 width="100%"
                 height="100%" />
              <use
                 x="55.615234"
                 xlink:href="#ArialMT-53"
                 id="use188"
                 y="0"
                 width="100%"
                 height="100%" />
              <use
                 x="111.23047"
                 xlink:href="#ArialMT-48"
                 id="use190"
                 y="0"
                 width="100%"
                 height="100%" />
            </g>
          </g>
        </g>
        <g
           id="text_10"
           style="fill:#333333">
          <!-- damage_to_enemy -->
          <g
             style="fill:#333333"
             transform="matrix(0,-0.12,-0.12,0,-11.876719,160.44469)"
             id="g232">
            <defs
               id="defs200">
              <path
                 d="m 40.234375,0 v 6.546875 q -4.9375,-7.71875 -14.5,-7.71875 -6.203125,0 -11.40625,3.421875 -5.203125,3.421875 -8.0625,9.546875 -2.84375,6.125 -2.84375,14.078125 0,7.765625 2.578125,14.09375 2.59375,6.328125 7.765625,9.6875 5.1875,3.375 11.578125,3.375 4.6875,0 8.34375,-1.984375 3.671875,-1.96875 5.96875,-5.140625 v 25.671875 h 8.734375 V 0 Z m -27.78125,25.875 q 0,-9.953125 4.1875,-14.890625 Q 20.84375,6.0625 26.5625,6.0625 q 5.765625,0 9.78125,4.703125 4.03125,4.71875 4.03125,14.375 0,10.65625 -4.109375,15.625 Q 32.171875,45.75 26.171875,45.75 20.3125,45.75 16.375,40.96875 12.453125,36.1875 12.453125,25.875 Z"
                 id="ArialMT-100" />
              <path
                 d="M 40.4375,6.390625 Q 35.546875,2.25 31.03125,0.53125 q -4.515625,-1.703125 -9.6875,-1.703125 -8.546875,0 -13.140625,4.171875 -4.59375,4.171875 -4.59375,10.671875 0,3.8125 1.734375,6.953125 1.734375,3.15625 4.546875,5.0625 2.8125,1.90625 6.328125,2.875 2.578125,0.6875 7.8125,1.328125 10.640625,1.265625 15.671875,3.015625 0.04687,1.8125 0.04687,2.296875 0,5.375 -2.5,7.578125 -3.359375,2.96875 -10,2.96875 -6.203125,0 -9.15625,-2.171875 -2.953125,-2.171875 -4.375,-7.6875 L 5.125,37.0625 q 1.171875,5.515625 3.859375,8.90625 2.6875,3.390625 7.765625,5.21875 5.078125,1.84375 11.765625,1.84375 6.640625,0 10.78125,-1.5625 4.15625,-1.5625 6.109375,-3.9375 1.953125,-2.359375 2.734375,-5.984375 0.4375,-2.234375 0.4375,-8.09375 v -11.71875 q 0,-12.265625 0.5625,-15.515625 Q 49.703125,2.984375 51.375,0 h -9.1875 q -1.359375,2.734375 -1.75,6.390625 z M 39.703125,26.03125 Q 34.90625,24.078125 25.34375,22.703125 19.921875,21.921875 17.671875,20.9375 15.4375,19.96875 14.203125,18.09375 q -1.21875,-1.875 -1.21875,-4.171875 0,-3.515625 2.65625,-5.859375 2.671875,-2.34375 7.796875,-2.34375 5.078125,0 9.03125,2.21875 3.953125,2.21875 5.8125,6.078125 1.421875,2.984375 1.421875,8.78125 z"
                 id="ArialMT-97" />
              <path
                 d="M 4.984375,-4.296875 13.53125,-5.5625 q 0.53125,-3.953125 2.96875,-5.765625 3.28125,-2.4375 8.9375,-2.4375 6.109375,0 9.421875,2.4375 3.328125,2.4375 4.5,6.828125 0.6875,2.6875 0.625,11.28125 Q 34.234375,0 25.640625,0 14.9375,0 9.078125,7.71875 q -5.859375,7.71875 -5.859375,18.5 0,7.421875 2.6875,13.6875 2.6875,6.28125 7.78125,9.703125 5.109375,3.421875 12,3.421875 9.171875,0 15.140625,-7.421875 v 6.25 h 8.09375 V 7.03125 q 0,-12.109375 -2.46875,-17.15625 -2.453125,-5.0625 -7.8125,-7.984375 -5.34375,-2.9375 -13.15625,-2.9375 -9.265625,0 -14.984375,4.171875 -5.71875,4.171875 -5.515625,12.578125 z M 12.25,26.859375 q 0,-10.203125 4.046875,-14.890625 4.0625,-4.6875 10.171875,-4.6875 6.046875,0 10.140625,4.65625 4.109375,4.671875 4.109375,14.625 0,9.515625 -4.21875,14.34375 Q 32.28125,45.75 26.3125,45.75 q -5.859375,0 -9.96875,-4.765625 -4.09375,-4.75 -4.09375,-14.125 z"
                 id="ArialMT-103" />
              <path
                 d="M 25.78125,7.859375 27.046875,0.09375 Q 23.34375,-0.6875 20.40625,-0.6875 15.625,-0.6875 12.984375,0.828125 10.359375,2.34375 9.28125,4.8125 8.203125,7.28125 8.203125,15.1875 v 29.828125 h -6.4375 v 6.84375 h 6.4375 v 12.84375 L 16.9375,69.96875 V 51.859375 h 8.84375 v -6.84375 H 16.9375 v -30.3125 q 0,-3.765625 0.46875,-4.84375 0.46875,-1.0625 1.515625,-1.703125 1.046875,-0.640625 3,-0.640625 1.46875,0 3.859375,0.34375 z"
                 id="ArialMT-116" />
            </defs>
            <text
               xml:space="preserve"
               style="font-style:normal;font-weight:normal;font-size:100px;line-height:1.25;font-family:sans-serif;fill:#333333;fill-opacity:1;stroke:none;stroke-width:2.04907"
               x="-34.45752"
               y="-1.607216"
               id="text1023"
               transform="scale(1,-1)"><tspan
                 sodipodi:role="line"
                 id="tspan1021"
                 x="-34.45752"
                 y="-1.607216"
                 style="font-size:100px;fill:#333333;stroke-width:2.04907">Damage (to enemy)</tspan></text>
          </g>
        </g>
      </g>
      <g
         id="patch_3">
        <path
           clip-path="url(#p6fae07dc83)"
           d="m 29.475,161.1827 h 55.8 v -24.00811 h -55.8 z"
           style="fill:#abc9ea;stroke:#737373;stroke-width:1.5;stroke-linejoin:miter"
           id="path236" />
      </g>
      <g
         id="patch_4">
        <path
           clip-path="url(#p6fae07dc83)"
           d="m 99.225,123.3827 h 55.8 V 50.847568 h -55.8 z"
           style="fill:#efb792;stroke:#737373;stroke-width:1.5;stroke-linejoin:miter"
           id="path239" />
      </g>
      <g
         id="line2d_9">
        <path
           clip-path="url(#p6fae07dc83)"
           d="M 57.375,161.1827 V 184.68"
           style="fill:none;stroke:#737373;stroke-width:1.5;stroke-linecap:round"
           id="path242" />
      </g>
      <g
         id="line2d_10">
        <path
           clip-path="url(#p6fae07dc83)"
           d="M 57.375,137.17459 V 122.36108"
           style="fill:none;stroke:#737373;stroke-width:1.5;stroke-linecap:round"
           id="path245" />
      </g>
      <g
         id="line2d_11">
        <path
           clip-path="url(#p6fae07dc83)"
           d="m 43.425,184.68 h 27.9"
           style="fill:none;stroke:#737373;stroke-width:1.5;stroke-linecap:round"
           id="path248" />
      </g>
      <g
         id="line2d_12">
        <path
           clip-path="url(#p6fae07dc83)"
           d="m 43.425,122.36108 h 27.9"
           style="fill:none;stroke:#737373;stroke-width:1.5;stroke-linecap:round"
           id="path251" />
      </g>
      <g
         id="line2d_13" />
      <g
         id="line2d_14">
        <path
           clip-path="url(#p6fae07dc83)"
           d="m 127.125,123.3827 v 37.8"
           style="fill:none;stroke:#737373;stroke-width:1.5;stroke-linecap:round"
           id="path255" />
      </g>
      <g
         id="line2d_15">
        <path
           clip-path="url(#p6fae07dc83)"
           d="M 127.125,50.847568 V 33.48"
           style="fill:none;stroke:#737373;stroke-width:1.5;stroke-linecap:round"
           id="path258" />
      </g>
      <g
         id="line2d_16">
        <path
           clip-path="url(#p6fae07dc83)"
           d="m 113.175,161.1827 h 27.9"
           style="fill:none;stroke:#737373;stroke-width:1.5;stroke-linecap:round"
           id="path261" />
      </g>
      <g
         id="line2d_17">
        <path
           clip-path="url(#p6fae07dc83)"
           d="m 113.175,33.48 h 27.9"
           style="fill:none;stroke:#737373;stroke-width:1.5;stroke-linecap:round"
           id="path264" />
      </g>
      <g
         id="line2d_18" />
      <g
         id="line2d_19">
        <path
           clip-path="url(#p6fae07dc83)"
           d="m 29.475,153.00973 h 55.8"
           style="fill:none;stroke:#737373;stroke-width:1.5;stroke-linecap:round"
           id="path268" />
      </g>
      <g
         id="line2d_20"
         transform="translate(0,-43.5)">
        <path
           clip-path="url(#p6fae07dc83)"
           d="m 99.225,118.2746 h 55.8"
           style="fill:none;stroke:#737373;stroke-width:1.5;stroke-linecap:round"
           id="path271" />
      </g>
      <g
         id="patch_5">
        <path
           d="M 22.5,192.24 V 25.92"
           style="fill:none;stroke:#262626;stroke-width:1.25;stroke-linecap:square;stroke-linejoin:miter"
           id="path274" />
      </g>
      <g
         id="patch_6">
        <path
           d="M 162,192.24 V 25.92"
           style="fill:none;stroke:#262626;stroke-width:1.25;stroke-linecap:square;stroke-linejoin:miter"
           id="path277" />
      </g>
      <g
         id="patch_7">
        <path
           d="M 22.5,192.24 H 162"
           style="fill:none;stroke:#262626;stroke-width:1.25;stroke-linecap:square;stroke-linejoin:miter"
           id="path280" />
      </g>
      <g
         id="patch_8">
        <path
           d="M 22.5,25.92 H 162"
           style="fill:none;stroke:#262626;stroke-width:1.25;stroke-linecap:square;stroke-linejoin:miter"
           id="path283" />
      </g>
    </g>
  </g>
  <defs
     id="defs291">
    <clipPath
       id="p6fae07dc83">
      <rect
         height="166.32001"
         width="139.5"
         x="22.5"
         y="25.92"
         id="rect288" />
    </clipPath>
  </defs>
</svg>
