<?xml version="1.0" encoding="UTF-8" standalone="no"?>
<svg
   xmlns:dc="http://purl.org/dc/elements/1.1/"
   xmlns:cc="http://creativecommons.org/ns#"
   xmlns:rdf="http://www.w3.org/1999/02/22-rdf-syntax-ns#"
   xmlns:svg="http://www.w3.org/2000/svg"
   xmlns="http://www.w3.org/2000/svg"
   xmlns:xlink="http://www.w3.org/1999/xlink"
   xmlns:sodipodi="http://sodipodi.sourceforge.net/DTD/sodipodi-0.dtd"
   xmlns:inkscape="http://www.inkscape.org/namespaces/inkscape"
   height="226.91484pt"
   version="1.1"
   viewBox="0 0 200.32547 226.91484"
   width="200.32547pt"
   id="svg270"
   sodipodi:docname="evo_mix_map_loops.svg">
  <sodipodi:namedview
     pagecolor="#ffffff"
     bordercolor="#666666"
     borderopacity="1"
     objecttolerance="10"
     gridtolerance="10"
     guidetolerance="10"
     inkscape:pageopacity="0"
     inkscape:pageshadow="2"
     inkscape:window-width="640"
     inkscape:window-height="480"
     id="namedview272" />
  <metadata
     id="metadata2">
    <rdf:RDF>
      <cc:Work>
        <dc:type
           rdf:resource="http://purl.org/dc/dcmitype/StillImage" />
        <dc:date>2020-10-20T15:56:14.768069</dc:date>
        <dc:format>image/svg+xml</dc:format>
        <dc:creator>
          <cc:Agent>
            <dc:title>Matplotlib v3.3.1, https://matplotlib.org/</dc:title>
          </cc:Agent>
        </dc:creator>
      </cc:Work>
    </rdf:RDF>
  </metadata>
  <defs
     id="defs6">
    <style
       type="text/css"
       id="style4">*{stroke-linecap:butt;stroke-linejoin:round;}</style>
  </defs>
  <g
     id="figure_1"
     transform="translate(20.325469)">
    <g
       id="patch_1">
      <path
         d="M 0,216 H 180 V 0 H 0 Z"
         style="fill:#ffffff"
         id="path8" />
    </g>
    <g
       id="axes_1">
      <g
         id="patch_2">
        <path
           d="M 22.5,192.24 H 162 V 25.92 H 22.5 Z"
           style="fill:#ffffff"
           id="path11" />
      </g>
      <g
         id="matplotlib.axis_1">
        <g
           id="xtick_1">
          <g
             id="line2d_1">
            <defs
               id="defs15">
              <path
                 d="M 0,0 V 6"
                 id="m96691e920d"
                 style="stroke:#262626;stroke-width:1.25" />
            </defs>
            <g
               id="g19">
              <use
                 style="fill:#262626;stroke:#262626;stroke-width:1.25"
                 x="57.375"
                 xlink:href="#m96691e920d"
                 y="192.24001"
                 id="use17"
                 width="100%"
                 height="100%" />
            </g>
          </g>
          <g
             id="text_1">
            <!-- 0 -->
            <g
               style="fill:#262626"
               transform="matrix(0.11,0,0,-0.11,54.316484,209.61359)"
               id="g27">
              <defs
                 id="defs23">
                <path
                   d="m 4.15625,35.296875 q 0,12.703125 2.609375,20.4375 2.609375,7.75 7.75,11.9375 5.15625,4.203125 12.96875,4.203125 5.765625,0 10.109375,-2.328125 4.34375,-2.3125 7.171875,-6.6875 Q 47.609375,58.5 49.21875,52.21875 q 1.609375,-6.265625 1.609375,-16.921875 0,-12.59375 -2.59375,-20.328125 Q 45.65625,7.234375 40.5,3 35.359375,-1.21875 27.484375,-1.21875 q -10.34375,0 -16.25,7.421875 -7.078125,8.9375 -7.078125,29.09375 z m 9.03125,0 q 0,-17.625 4.125,-23.46875 Q 21.4375,6 27.484375,6 q 6.0625,0 10.1875,5.859375 4.125,5.859375 4.125,23.4375 0,17.6875 -4.125,23.484375 -4.125,5.8125 -10.28125,5.8125 -6.046875,0 -9.671875,-5.125 Q 13.1875,52.9375 13.1875,35.296875 Z"
                   id="ArialMT-48" />
              </defs>
              <use
                 xlink:href="#ArialMT-48"
                 id="use25"
                 x="0"
                 y="0"
                 width="100%"
                 height="100%" />
            </g>
          </g>
        </g>
        <g
           id="xtick_2">
          <g
             id="line2d_2">
            <g
               id="g33">
              <use
                 style="fill:#262626;stroke:#262626;stroke-width:1.25"
                 x="127.125"
                 xlink:href="#m96691e920d"
                 y="192.24001"
                 id="use31"
                 width="100%"
                 height="100%" />
            </g>
          </g>
          <g
             id="text_2">
            <!-- 1 -->
            <g
               style="fill:#262626"
               transform="matrix(0.11,0,0,-0.11,124.06648,209.61359)"
               id="g41">
              <defs
                 id="defs37">
                <path
                   d="m 37.25,0 h -8.78125 v 56 q -3.171875,-3.015625 -8.328125,-6.046875 -5.15625,-3.03125 -9.25,-4.546875 v 8.5 q 7.375,3.46875 12.890625,8.390625 5.515625,4.9375 7.8125,9.578125 H 37.25 Z"
                   id="ArialMT-49" />
              </defs>
              <use
                 xlink:href="#ArialMT-49"
                 id="use39"
                 x="0"
                 y="0"
                 width="100%"
                 height="100%" />
            </g>
          </g>
        </g>
        <g
           id="text_3">
          <!-- is_enemy_pop_evo -->
          <g
             style="fill:#262626"
             transform="matrix(0.12,0,0,-0.12,40.216875,224.38922)"
             id="g89">
            <defs
               id="defs55">
              <path
                 d="M 6.640625,61.46875 V 71.578125 H 15.4375 V 61.46875 Z M 6.640625,0 V 51.859375 H 15.4375 V 0 Z"
                 id="ArialMT-105" />
              <path
                 d="m 3.078125,15.484375 8.6875,1.359375 Q 12.5,11.625 15.84375,8.84375 19.1875,6.0625 25.203125,6.0625 q 6.046875,0 8.96875,2.453125 2.9375,2.46875 2.9375,5.796875 0,2.96875 -2.59375,4.6875 Q 32.71875,20.171875 25.53125,21.96875 15.875,24.421875 12.140625,26.203125 8.40625,27.984375 6.46875,31.125 q -1.921875,3.15625 -1.921875,6.96875 0,3.453125 1.578125,6.40625 1.59375,2.96875 4.328125,4.921875 2.046875,1.5 5.578125,2.546875 3.546875,1.0625 7.609375,1.0625 6.09375,0 10.703125,-1.765625 4.625,-1.75 6.8125,-4.765625 2.203125,-3 3.03125,-8.015625 L 35.59375,37.3125 q -0.578125,4 -3.390625,6.234375 -2.8125,2.25 -7.9375,2.25 -6.046875,0 -8.640625,-2 -2.59375,-2 -2.59375,-4.6875 0,-1.703125 1.078125,-3.078125 1.078125,-1.40625 3.375,-2.34375 1.3125,-0.484375 7.765625,-2.234375 9.328125,-2.5 13,-4.09375 3.6875,-1.578125 5.78125,-4.609375 2.109375,-3.015625 2.109375,-7.515625 0,-4.390625 -2.5625,-8.28125 -2.5625,-3.875 -7.40625,-6 -4.828125,-2.125 -10.921875,-2.125 -10.109375,0 -15.40625,4.203125 -5.296875,4.203125 -6.765625,12.453125 z"
                 id="ArialMT-115" />
              <path
                 d="m -1.515625,-19.875 v 6.34375 h 58.25 V -19.875 Z"
                 id="ArialMT-95" />
              <path
                 d="m 42.09375,16.703125 9.078125,-1.125 Q 49.03125,7.625 43.21875,3.21875 37.40625,-1.171875 28.375,-1.171875 q -11.375,0 -18.046875,7 -6.671875,7.015625 -6.671875,19.65625 0,13.09375 6.734375,20.3125 6.75,7.234375 17.484375,7.234375 10.40625,0 17,-7.078125 6.59375,-7.078125 6.59375,-19.921875 0,-0.78125 -0.04687,-2.34375 H 12.75 q 0.484375,-8.546875 4.828125,-13.09375 4.34375,-4.53125 10.84375,-4.53125 4.828125,0 8.25,2.53125 3.421875,2.546875 5.421875,8.109375 z M 13.234375,30.90625 H 42.1875 q -0.578125,6.546875 -3.3125,9.8125 -4.203125,5.078125 -10.890625,5.078125 -6.0625,0 -10.1875,-4.046875 -4.125,-4.046875 -4.5625,-10.84375 z"
                 id="ArialMT-101" />
              <path
                 d="M 6.59375,0 V 51.859375 H 14.5 v -7.375 q 5.71875,8.546875 16.5,8.546875 4.6875,0 8.625,-1.6875 3.9375,-1.6875 5.890625,-4.421875 Q 47.46875,44.1875 48.25,40.4375 48.734375,37.984375 48.734375,31.890625 V 0 H 39.9375 v 31.546875 q 0,5.375 -1.03125,8.03125 -1.015625,2.65625 -3.625,4.234375 -2.609375,1.59375 -6.125,1.59375 -5.625,0 -9.703125,-3.5625 Q 15.375,38.28125 15.375,28.328125 V 0 Z"
                 id="ArialMT-110" />
              <path
                 d="m 6.59375,0 v 51.859375 h 7.859375 v -7.28125 q 2.4375,3.8125 6.484375,6.125 4.0625,2.328125 9.234375,2.328125 5.765625,0 9.453125,-2.390625 3.6875,-2.390625 5.203125,-6.6875 6.15625,9.078125 16.015625,9.078125 7.71875,0 11.859375,-4.28125 4.15625,-4.265625 4.15625,-13.15625 V 0 h -8.75 v 32.671875 q 0,5.265625 -0.859375,7.578125 -0.84375,2.328125 -3.09375,3.734375 -2.234375,1.421875 -5.265625,1.421875 -5.46875,0 -9.09375,-3.640625 Q 46.1875,38.140625 46.1875,30.125 V 0 h -8.78125 v 33.6875 q 0,5.859375 -2.15625,8.78125 -2.140625,2.9375 -7.03125,2.9375 -3.703125,0 -6.859375,-1.953125 Q 18.21875,41.5 16.796875,37.734375 15.375,33.984375 15.375,26.90625 V 0 Z"
                 id="ArialMT-109" />
              <path
                 d="m 6.203125,-19.96875 -0.984375,8.25 Q 8.109375,-12.5 10.25,-12.5 q 2.9375,0 4.6875,0.984375 1.765625,0.96875 2.890625,2.71875 0.828125,1.328125 2.6875,6.546875 0.234375,0.734375 0.78125,2.15625 l -19.6875,51.953125 h 9.46875 L 21.875,21.828125 Q 23.96875,16.109375 25.640625,9.8125 27.15625,15.875 29.25,21.625 L 40.328125,51.859375 H 49.125 L 29.390625,-0.875 Q 26.21875,-9.421875 24.46875,-12.640625 22.125,-17 19.09375,-19.015625 q -3.03125,-2.03125 -7.234375,-2.03125 -2.53125,0 -5.65625,1.078125 z"
                 id="ArialMT-121" />
              <path
                 d="m 6.59375,-19.875 v 71.734375 h 8 V 45.125 Q 17.4375,49.078125 21,51.046875 q 3.5625,1.984375 8.640625,1.984375 6.640625,0 11.71875,-3.421875 5.078125,-3.421875 7.65625,-9.65625 2.59375,-6.21875 2.59375,-13.640625 0,-7.953125 -2.859375,-14.328125 Q 45.90625,5.609375 40.453125,2.21875 35.015625,-1.171875 29,-1.171875 q -4.390625,0 -7.890625,1.859375 Q 17.625,2.546875 15.375,5.375 v -25.25 z m 7.953125,45.515625 q 0,-10.015625 4.046875,-14.796875 4.0625,-4.78125 9.828125,-4.78125 5.859375,0 10.03125,4.953125 Q 42.625,15.96875 42.625,26.375 q 0,9.90625 -4.078125,14.828125 -4.078125,4.9375 -9.734375,4.9375 -5.625,0 -9.953125,-5.25 -4.3125,-5.25 -4.3125,-15.25 z"
                 id="ArialMT-112" />
              <path
                 d="m 3.328125,25.921875 q 0,14.40625 8,21.34375 6.6875,5.765625 16.3125,5.765625 10.6875,0 17.46875,-7.015625 6.796875,-7 6.796875,-19.359375 0,-10 -3,-15.75 -3,-5.734375 -8.75,-8.90625 Q 34.421875,-1.171875 27.640625,-1.171875 16.75,-1.171875 10.03125,5.8125 3.328125,12.796875 3.328125,25.921875 Z m 9.03125,0 q 0,-9.953125 4.34375,-14.90625 4.34375,-4.953125 10.9375,-4.953125 6.546875,0 10.890625,4.96875 4.34375,4.984375 4.34375,15.1875 0,9.625 -4.375,14.578125 Q 34.125,45.75 27.640625,45.75 q -6.59375,0 -10.9375,-4.9375 -4.34375,-4.921875 -4.34375,-14.890625 z"
                 id="ArialMT-111" />
              <path
                 d="M 21,0 1.265625,51.859375 h 9.28125 L 21.6875,20.796875 q 1.796875,-5.03125 3.3125,-10.4375 1.171875,4.09375 3.265625,9.859375 l 11.53125,31.640625 h 9.03125 L 29.203125,0 Z"
                 id="ArialMT-118" />
            </defs>
            <use
               xlink:href="#ArialMT-105"
               id="use57"
               x="0"
               y="0"
               width="100%"
               height="100%" />
            <use
               x="22.216797"
               xlink:href="#ArialMT-115"
               id="use59"
               y="0"
               width="100%"
               height="100%" />
            <use
               x="72.216797"
               xlink:href="#ArialMT-95"
               id="use61"
               y="0"
               width="100%"
               height="100%" />
            <use
               x="127.83203"
               xlink:href="#ArialMT-101"
               id="use63"
               y="0"
               width="100%"
               height="100%" />
            <use
               x="183.44727"
               xlink:href="#ArialMT-110"
               id="use65"
               y="0"
               width="100%"
               height="100%" />
            <use
               x="239.0625"
               xlink:href="#ArialMT-101"
               id="use67"
               y="0"
               width="100%"
               height="100%" />
            <use
               x="294.67773"
               xlink:href="#ArialMT-109"
               id="use69"
               y="0"
               width="100%"
               height="100%" />
            <use
               x="377.97852"
               xlink:href="#ArialMT-121"
               id="use71"
               y="0"
               width="100%"
               height="100%" />
            <use
               x="427.97852"
               xlink:href="#ArialMT-95"
               id="use73"
               y="0"
               width="100%"
               height="100%" />
            <use
               x="483.59375"
               xlink:href="#ArialMT-112"
               id="use75"
               y="0"
               width="100%"
               height="100%" />
            <use
               x="539.20898"
               xlink:href="#ArialMT-111"
               id="use77"
               y="0"
               width="100%"
               height="100%" />
            <use
               x="594.82422"
               xlink:href="#ArialMT-112"
               id="use79"
               y="0"
               width="100%"
               height="100%" />
            <use
               x="650.43945"
               xlink:href="#ArialMT-95"
               id="use81"
               y="0"
               width="100%"
               height="100%" />
            <use
               x="706.05469"
               xlink:href="#ArialMT-101"
               id="use83"
               y="0"
               width="100%"
               height="100%" />
            <use
               x="761.66992"
               xlink:href="#ArialMT-118"
               id="use85"
               y="0"
               width="100%"
               height="100%" />
            <use
               x="811.66992"
               xlink:href="#ArialMT-111"
               id="use87"
               y="0"
               width="100%"
               height="100%" />
          </g>
        </g>
      </g>
      <g
         id="matplotlib.axis_2">
        <g
           id="ytick_1">
          <g
             id="line2d_3">
            <defs
               id="defs94">
              <path
                 d="M 0,0 H -6"
                 id="m75adcecc2c"
                 style="stroke:#262626;stroke-width:1.25" />
            </defs>
            <g
               id="g98">
              <use
                 style="fill:#262626;stroke:#262626;stroke-width:1.25"
                 x="22.5"
                 xlink:href="#m75adcecc2c"
                 y="170.30536"
                 id="use96"
                 width="100%"
                 height="100%" />
            </g>
          </g>
          <g
             id="text_4">
            <!-- 350 -->
            <g
               style="fill:#262626"
               transform="matrix(0.11,0,0,-0.11,-5.351094,174.24215)"
               id="g111">
              <defs
                 id="defs103">
                <path
                   d="m 4.203125,18.890625 8.78125,1.171875 Q 14.5,12.59375 18.140625,9.296875 21.78125,6 27,6 33.203125,6 37.46875,10.296875 41.75,14.59375 41.75,20.953125 q 0,6.046875 -3.953125,9.96875 -3.953125,3.9375 -10.0625,3.9375 -2.484375,0 -6.203125,-0.96875 l 0.984375,7.71875 Q 23.390625,41.5 23.921875,41.5 q 5.625,0 10.109375,2.921875 4.5,2.9375 4.5,9.046875 0,4.828125 -3.28125,8 -3.265625,3.1875 -8.4375,3.1875 -5.125,0 -8.546875,-3.234375 -3.421875,-3.21875 -4.390625,-9.65625 l -8.796875,1.5625 q 1.609375,8.828125 7.3125,13.6875 5.71875,4.859375 14.21875,4.859375 5.859375,0 10.78125,-2.515625 4.9375,-2.515625 7.546875,-6.859375 2.625,-4.34375 2.625,-9.234375 0,-4.625 -2.5,-8.4375 -2.484375,-3.8125 -7.359375,-6.0625 6.34375,-1.453125 9.859375,-6.078125 3.515625,-4.609375 3.515625,-11.546875 0,-9.375 -6.84375,-15.890625 -6.828125,-6.515625 -17.28125,-6.515625 -9.421875,0 -15.65625,5.609375 -6.21875,5.625 -7.09375,14.546875 z"
                   id="ArialMT-51" />
                <path
                   d="M 4.15625,18.75 13.375,19.53125 Q 14.40625,12.796875 18.140625,9.390625 21.875,6 27.15625,6 33.5,6 37.890625,10.78125 42.28125,15.578125 42.28125,23.484375 42.28125,31 38.0625,35.34375 33.84375,39.703125 27,39.703125 q -4.25,0 -7.671875,-1.9375 -3.40625,-1.921875 -5.359375,-5 l -8.25,1.078125 6.921875,36.765625 H 48.25 v -8.40625 H 19.671875 L 15.828125,42.96875 q 6.4375,4.5 13.515625,4.5 9.375,0 15.8125,-6.5 6.453125,-6.5 6.453125,-16.703125 0,-9.71875 -5.65625,-16.796875 -6.890625,-8.6875 -18.796875,-8.6875 -9.765625,0 -15.953125,5.46875 Q 5.03125,9.71875 4.15625,18.75 Z"
                   id="ArialMT-53" />
              </defs>
              <use
                 xlink:href="#ArialMT-51"
                 id="use105"
                 x="0"
                 y="0"
                 width="100%"
                 height="100%" />
              <use
                 x="55.615234"
                 xlink:href="#ArialMT-53"
                 id="use107"
                 y="0"
                 width="100%"
                 height="100%" />
              <use
                 x="111.23047"
                 xlink:href="#ArialMT-48"
                 id="use109"
                 y="0"
                 width="100%"
                 height="100%" />
            </g>
          </g>
        </g>
        <g
           id="ytick_2">
          <g
             id="line2d_4">
            <g
               id="g117">
              <use
                 style="fill:#262626;stroke:#262626;stroke-width:1.25"
                 x="22.5"
                 xlink:href="#m75adcecc2c"
                 y="143.68564"
                 id="use115"
                 width="100%"
                 height="100%" />
            </g>
          </g>
          <g
             id="text_5">
            <!-- 400 -->
            <g
               style="fill:#262626"
               transform="matrix(0.11,0,0,-0.11,-5.351094,147.62243)"
               id="g129">
              <defs
                 id="defs121">
                <path
                   d="m 32.328125,0 v 17.140625 h -31.0625 v 8.0625 l 32.671875,46.375 h 7.171875 v -46.375 h 9.671875 v -8.0625 H 41.109375 V 0 Z m 0,25.203125 V 57.46875 L 9.90625,25.203125 Z"
                   id="ArialMT-52" />
              </defs>
              <use
                 xlink:href="#ArialMT-52"
                 id="use123"
                 x="0"
                 y="0"
                 width="100%"
                 height="100%" />
              <use
                 x="55.615234"
                 xlink:href="#ArialMT-48"
                 id="use125"
                 y="0"
                 width="100%"
                 height="100%" />
              <use
                 x="111.23047"
                 xlink:href="#ArialMT-48"
                 id="use127"
                 y="0"
                 width="100%"
                 height="100%" />
            </g>
          </g>
        </g>
        <g
           id="ytick_3">
          <g
             id="line2d_5">
            <g
               id="g135">
              <use
                 style="fill:#262626;stroke:#262626;stroke-width:1.25"
                 x="22.5"
                 xlink:href="#m75adcecc2c"
                 y="117.06592"
                 id="use133"
                 width="100%"
                 height="100%" />
            </g>
          </g>
          <g
             id="text_6">
            <!-- 450 -->
            <g
               style="fill:#262626"
               transform="matrix(0.11,0,0,-0.11,-5.351094,121.00271)"
               id="g144">
              <use
                 xlink:href="#ArialMT-52"
                 id="use138"
                 x="0"
                 y="0"
                 width="100%"
                 height="100%" />
              <use
                 x="55.615234"
                 xlink:href="#ArialMT-53"
                 id="use140"
                 y="0"
                 width="100%"
                 height="100%" />
              <use
                 x="111.23047"
                 xlink:href="#ArialMT-48"
                 id="use142"
                 y="0"
                 width="100%"
                 height="100%" />
            </g>
          </g>
        </g>
        <g
           id="ytick_4">
          <g
             id="line2d_6">
            <g
               id="g150">
              <use
                 style="fill:#262626;stroke:#262626;stroke-width:1.25"
                 x="22.5"
                 xlink:href="#m75adcecc2c"
                 y="90.446198"
                 id="use148"
                 width="100%"
                 height="100%" />
            </g>
          </g>
          <g
             id="text_7">
            <!-- 500 -->
            <g
               style="fill:#262626"
               transform="matrix(0.11,0,0,-0.11,-5.351094,94.382994)"
               id="g159">
              <use
                 xlink:href="#ArialMT-53"
                 id="use153"
                 x="0"
                 y="0"
                 width="100%"
                 height="100%" />
              <use
                 x="55.615234"
                 xlink:href="#ArialMT-48"
                 id="use155"
                 y="0"
                 width="100%"
                 height="100%" />
              <use
                 x="111.23047"
                 xlink:href="#ArialMT-48"
                 id="use157"
                 y="0"
                 width="100%"
                 height="100%" />
            </g>
          </g>
        </g>
        <g
           id="ytick_5">
          <g
             id="line2d_7">
            <g
               id="g165">
              <use
                 style="fill:#262626;stroke:#262626;stroke-width:1.25"
                 x="22.5"
                 xlink:href="#m75adcecc2c"
                 y="63.826481"
                 id="use163"
                 width="100%"
                 height="100%" />
            </g>
          </g>
          <g
             id="text_8">
            <!-- 550 -->
            <g
               style="fill:#262626"
               transform="matrix(0.11,0,0,-0.11,-5.351094,67.763276)"
               id="g174">
              <use
                 xlink:href="#ArialMT-53"
                 id="use168"
                 x="0"
                 y="0"
                 width="100%"
                 height="100%" />
              <use
                 x="55.615234"
                 xlink:href="#ArialMT-53"
                 id="use170"
                 y="0"
                 width="100%"
                 height="100%" />
              <use
                 x="111.23047"
                 xlink:href="#ArialMT-48"
                 id="use172"
                 y="0"
                 width="100%"
                 height="100%" />
            </g>
          </g>
        </g>
        <g
           id="ytick_6">
          <g
             id="line2d_8">
            <g
               id="g180">
              <use
                 style="fill:#262626;stroke:#262626;stroke-width:1.25"
                 x="22.5"
                 xlink:href="#m75adcecc2c"
                 y="37.20676"
                 id="use178"
                 width="100%"
                 height="100%" />
            </g>
          </g>
          <g
             id="text_9">
            <!-- 600 -->
            <g
               style="fill:#262626"
               transform="matrix(0.11,0,0,-0.11,-5.351094,41.143557)"
               id="g192">
              <defs
                 id="defs184">
                <path
                   d="M 49.75,54.046875 41.015625,53.375 q -1.171875,5.171875 -3.3125,7.515625 -3.578125,3.765625 -8.796875,3.765625 -4.203125,0 -7.375,-2.34375 Q 17.390625,59.28125 14.984375,53.46875 12.59375,47.65625 12.5,36.921875 15.671875,41.75 20.265625,44.09375 q 4.59375,2.34375 9.625,2.34375 8.78125,0 14.953125,-6.46875 Q 51.03125,33.5 51.03125,23.25 51.03125,16.5 48.125,10.71875 45.21875,4.9375 40.140625,1.859375 35.0625,-1.21875 28.609375,-1.21875 17.625,-1.21875 10.6875,6.859375 3.765625,14.9375 3.765625,33.5 q 0,20.75 7.65625,30.171875 6.6875,8.203125 18.015625,8.203125 8.453125,0 13.84375,-4.734375 Q 48.6875,62.40625 49.75,54.046875 Z M 13.875,23.1875 q 0,-4.53125 1.921875,-8.6875 Q 17.71875,10.359375 21.1875,8.171875 24.65625,6 28.46875,6 q 5.5625,0 9.5625,4.484375 4.015625,4.5 4.015625,12.21875 0,7.421875 -3.96875,11.6875 -3.953125,4.28125 -9.953125,4.28125 -5.953125,0 -10.109375,-4.28125 Q 13.875,30.125 13.875,23.1875 Z"
                   id="ArialMT-54" />
              </defs>
              <use
                 xlink:href="#ArialMT-54"
                 id="use186"
                 x="0"
                 y="0"
                 width="100%"
                 height="100%" />
              <use
                 x="55.615234"
                 xlink:href="#ArialMT-48"
                 id="use188"
                 y="0"
                 width="100%"
                 height="100%" />
              <use
                 x="111.23047"
                 xlink:href="#ArialMT-48"
                 id="use190"
                 y="0"
                 width="100%"
                 height="100%" />
            </g>
          </g>
        </g>
        <g
           id="text_10">
          <!-- loops -->
          <g
             style="fill:#262626"
             transform="matrix(0,-0.12,-0.12,0,-11.736094,123.42281)"
             id="g209">
            <defs
               id="defs197">
              <path
                 d="M 6.390625,0 V 71.578125 H 15.1875 V 0 Z"
                 id="ArialMT-108" />
            </defs>
            <use
               xlink:href="#ArialMT-108"
               id="use199"
               x="0"
               y="0"
               width="100%"
               height="100%" />
            <use
               x="22.216797"
               xlink:href="#ArialMT-111"
               id="use201"
               y="0"
               width="100%"
               height="100%" />
            <use
               x="77.832031"
               xlink:href="#ArialMT-111"
               id="use203"
               y="0"
               width="100%"
               height="100%" />
            <use
               x="133.44727"
               xlink:href="#ArialMT-112"
               id="use205"
               y="0"
               width="100%"
               height="100%" />
            <use
               x="189.0625"
               xlink:href="#ArialMT-115"
               id="use207"
               y="0"
               width="100%"
               height="100%" />
          </g>
        </g>
      </g>
      <g
         id="patch_3">
        <path
           clip-path="url(#p8706764269)"
           d="m 29.475,171.37014 h 55.8 v -55.63521 h -55.8 z"
           style="fill:#abc9ea;stroke:#737373;stroke-width:1.5;stroke-linejoin:miter"
           id="path213" />
      </g>
      <g
         id="patch_4">
        <path
           clip-path="url(#p8706764269)"
           d="m 99.225,145.81521 h 55.8 V 94.172958 h -55.8 z"
           style="fill:#efb792;stroke:#737373;stroke-width:1.5;stroke-linejoin:miter"
           id="path216" />
      </g>
      <g
         id="line2d_9">
        <path
           clip-path="url(#p8706764269)"
           d="M 57.375,171.37014 V 184.68"
           style="fill:none;stroke:#737373;stroke-width:1.5;stroke-linecap:round"
           id="path219" />
      </g>
      <g
         id="line2d_10">
        <path
           clip-path="url(#p8706764269)"
           d="M 57.375,115.73493 V 101.09409"
           style="fill:none;stroke:#737373;stroke-width:1.5;stroke-linecap:round"
           id="path222" />
      </g>
      <g
         id="line2d_11">
        <path
           clip-path="url(#p8706764269)"
           d="m 43.425,184.68 h 27.9"
           style="fill:none;stroke:#737373;stroke-width:1.5;stroke-linecap:round"
           id="path225" />
      </g>
      <g
         id="line2d_12">
        <path
           clip-path="url(#p8706764269)"
           d="m 43.425,101.09409 h 27.9"
           style="fill:none;stroke:#737373;stroke-width:1.5;stroke-linecap:round"
           id="path228" />
      </g>
      <g
         id="line2d_13" />
      <g
         id="line2d_14">
        <path
           clip-path="url(#p8706764269)"
           d="m 127.125,145.81521 v 28.2169"
           style="fill:none;stroke:#737373;stroke-width:1.5;stroke-linecap:round"
           id="path232" />
      </g>
      <g
         id="line2d_15">
        <path
           clip-path="url(#p8706764269)"
           d="M 127.125,94.172958 V 33.48"
           style="fill:none;stroke:#737373;stroke-width:1.5;stroke-linecap:round"
           id="path235" />
      </g>
      <g
         id="line2d_16">
        <path
           clip-path="url(#p8706764269)"
           d="m 113.175,174.03211 h 27.9"
           style="fill:none;stroke:#737373;stroke-width:1.5;stroke-linecap:round"
           id="path238" />
      </g>
      <g
         id="line2d_17">
        <path
           clip-path="url(#p8706764269)"
           d="m 113.175,33.48 h 27.9"
           style="fill:none;stroke:#737373;stroke-width:1.5;stroke-linecap:round"
           id="path241" />
      </g>
      <g
         id="line2d_18" />
      <g
         id="line2d_19">
        <path
           clip-path="url(#p8706764269)"
           d="m 29.475,122.38986 h 55.8"
           style="fill:none;stroke:#737373;stroke-width:1.5;stroke-linecap:round"
           id="path245" />
      </g>
      <g
         id="line2d_20">
        <path
           clip-path="url(#p8706764269)"
           d="m 99.225,127.7138 h 55.8"
           style="fill:none;stroke:#737373;stroke-width:1.5;stroke-linecap:round"
           id="path248" />
      </g>
      <g
         id="patch_5">
        <path
           d="M 22.5,192.24 V 25.92"
           style="fill:none;stroke:#262626;stroke-width:1.25;stroke-linecap:square;stroke-linejoin:miter"
           id="path251" />
      </g>
      <g
         id="patch_6">
        <path
           d="M 162,192.24 V 25.92"
           style="fill:none;stroke:#262626;stroke-width:1.25;stroke-linecap:square;stroke-linejoin:miter"
           id="path254" />
      </g>
      <g
         id="patch_7">
        <path
           d="M 22.5,192.24 H 162"
           style="fill:none;stroke:#262626;stroke-width:1.25;stroke-linecap:square;stroke-linejoin:miter"
           id="path257" />
      </g>
      <g
         id="patch_8">
        <path
           d="M 22.5,25.92 H 162"
           style="fill:none;stroke:#262626;stroke-width:1.25;stroke-linecap:square;stroke-linejoin:miter"
           id="path260" />
      </g>
    </g>
  </g>
  <defs
     id="defs268">
    <clipPath
       id="p8706764269">
      <rect
         height="166.32001"
         width="139.5"
         x="22.5"
         y="25.92"
         id="rect265" />
    </clipPath>
  </defs>
</svg>
