<?xml version="1.0" encoding="UTF-8" standalone="no"?>
<svg
   xmlns:dc="http://purl.org/dc/elements/1.1/"
   xmlns:cc="http://creativecommons.org/ns#"
   xmlns:rdf="http://www.w3.org/1999/02/22-rdf-syntax-ns#"
   xmlns:svg="http://www.w3.org/2000/svg"
   xmlns="http://www.w3.org/2000/svg"
   xmlns:xlink="http://www.w3.org/1999/xlink"
   xmlns:sodipodi="http://sodipodi.sourceforge.net/DTD/sodipodi-0.dtd"
   xmlns:inkscape="http://www.inkscape.org/namespaces/inkscape"
   height="553.18347pt"
   version="1.1"
   viewBox="0 0 1064.2892 553.18346"
   width="1064.2892pt"
   id="svg1136"
   sodipodi:docname="original.svg"
   inkscape:version="1.0.1 (c497b03c, 2020-09-10)">
  <metadata
     id="metadata1140">
    <rdf:RDF>
      <cc:Work
         rdf:about="">
        <dc:format>image/svg+xml</dc:format>
        <dc:type
           rdf:resource="http://purl.org/dc/dcmitype/StillImage" />
      </cc:Work>
    </rdf:RDF>
  </metadata>
  <sodipodi:namedview
     pagecolor="#ffffff"
     bordercolor="#666666"
     borderopacity="1"
     objecttolerance="10"
     gridtolerance="10"
     guidetolerance="10"
     inkscape:pageopacity="0"
     inkscape:pageshadow="2"
     inkscape:window-width="1440"
     inkscape:window-height="855"
     id="namedview1138"
     showgrid="false"
     inkscape:zoom="0.40025183"
     inkscape:cx="467.08558"
     inkscape:cy="246.13771"
     inkscape:window-x="0"
     inkscape:window-y="23"
     inkscape:window-maximized="1"
     inkscape:current-layer="axes_1" />
  <defs
     id="defs835">
    <style
       type="text/css"
       id="style833">
*{stroke-linecap:butt;stroke-linejoin:round;}
  </style>
  </defs>
  <g
     id="figure_1"
     transform="translate(-137.07984,-82.562426)">
    <g
       id="axes_1">
      <g
         id="patch_2">
        <path
           d="M 166.77,617.7312 H 1200.744 V 83.2896 H 166.77 Z"
           style="fill:#ffffff"
           id="path840" />
      </g>
      <g
         id="matplotlib.axis_1">
        <g
           id="xtick_1">
          <g
             id="line2d_1">
            <path
               clip-path="url(#p667df45fc3)"
               d="M 213.76882,617.7312 V 83.2896"
               style="fill:none;stroke:#cccccc;stroke-linecap:round"
               id="path843" />
          </g>
          <g
             id="text_1">
            <!-- 0 -->
            <defs
               id="defs847">
              <path
                 d="m 31.78125,66.40625 q -7.609375,0 -11.453125,-7.5 Q 16.5,51.421875 16.5,36.375 q 0,-14.984375 3.828125,-22.484375 3.84375,-7.5 11.453125,-7.5 7.671875,0 11.5,7.5 3.84375,7.5 3.84375,22.484375 0,15.046875 -3.84375,22.53125 -3.828125,7.5 -11.5,7.5 z m 0,7.8125 q 12.265625,0 18.734375,-9.703125 6.46875,-9.6875 6.46875,-28.140625 0,-18.40625 -6.46875,-28.109375 -6.46875,-9.6875 -18.734375,-9.6875 -12.25,0 -18.71875,9.6875 Q 6.59375,17.96875 6.59375,36.375 q 0,18.453125 6.46875,28.140625 6.46875,9.703125 18.71875,9.703125 z"
                 id="DejaVuSans-48" />
            </defs>
            <g
               style="fill:#262626"
               transform="matrix(0.11,0,0,-0.11,210.26944,635.58948)"
               id="g851">
              <use
                 xlink:href="#DejaVuSans-48"
                 id="use849"
                 x="0"
                 y="0"
                 width="100%"
                 height="100%" />
            </g>
          </g>
        </g>
        <g
           id="xtick_2">
          <g
             id="line2d_2">
            <path
               clip-path="url(#p667df45fc3)"
               d="M 370.9555,617.7312 V 83.2896"
               style="fill:none;stroke:#cccccc;stroke-linecap:round"
               id="path855" />
          </g>
          <g
             id="text_2">
            <!-- 50 -->
            <defs
               id="defs859">
              <path
                 d="m 10.796875,72.90625 h 38.71875 v -8.3125 h -29.6875 V 46.734375 q 2.140625,0.734375 4.28125,1.09375 2.15625,0.359375 4.3125,0.359375 Q 40.625,48.1875 47.75,41.5 54.890625,34.8125 54.890625,23.390625 54.890625,11.625 47.5625,5.09375 40.234375,-1.421875 26.90625,-1.421875 q -4.59375,0 -9.359375,0.78125 -4.75,0.78125 -9.828125,2.34375 V 11.625 q 4.390625,-2.390625 9.078125,-3.5625 4.6875,-1.171875 9.90625,-1.171875 8.453125,0 13.375,4.4375 4.9375,4.4375 4.9375,12.0625 0,7.609375 -4.9375,12.046875 -4.921875,4.453125 -13.375,4.453125 -3.953125,0 -7.890625,-0.875 -3.921875,-0.875 -8.015625,-2.734375 z"
                 id="DejaVuSans-53" />
            </defs>
            <g
               style="fill:#262626"
               transform="matrix(0.11,0,0,-0.11,363.95675,635.58948)"
               id="g865">
              <use
                 xlink:href="#DejaVuSans-53"
                 id="use861"
                 x="0"
                 y="0"
                 width="100%"
                 height="100%" />
              <use
                 x="63.623047"
                 xlink:href="#DejaVuSans-48"
                 id="use863"
                 y="0"
                 width="100%"
                 height="100%" />
            </g>
          </g>
        </g>
        <g
           id="xtick_3">
          <g
             id="line2d_3">
            <path
               clip-path="url(#p667df45fc3)"
               d="M 528.14218,617.7312 V 83.2896"
               style="fill:none;stroke:#cccccc;stroke-linecap:round"
               id="path869" />
          </g>
          <g
             id="text_3">
            <!-- 100 -->
            <defs
               id="defs873">
              <path
                 d="m 12.40625,8.296875 h 16.109375 v 55.625 L 10.984375,60.40625 v 8.984375 l 17.4375,3.515625 H 38.28125 V 8.296875 H 54.390625 V 0 H 12.40625 Z"
                 id="DejaVuSans-49" />
            </defs>
            <g
               style="fill:#262626"
               transform="matrix(0.11,0,0,-0.11,517.64406,635.58948)"
               id="g881">
              <use
                 xlink:href="#DejaVuSans-49"
                 id="use875"
                 x="0"
                 y="0"
                 width="100%"
                 height="100%" />
              <use
                 x="63.623047"
                 xlink:href="#DejaVuSans-48"
                 id="use877"
                 y="0"
                 width="100%"
                 height="100%" />
              <use
                 x="127.24609"
                 xlink:href="#DejaVuSans-48"
                 id="use879"
                 y="0"
                 width="100%"
                 height="100%" />
            </g>
          </g>
        </g>
        <g
           id="xtick_4">
          <g
             id="line2d_4">
            <path
               clip-path="url(#p667df45fc3)"
               d="M 685.32887,617.7312 V 83.2896"
               style="fill:none;stroke:#cccccc;stroke-linecap:round"
               id="path885" />
          </g>
          <g
             id="text_4">
            <!-- 150 -->
            <g
               style="fill:#262626"
               transform="matrix(0.11,0,0,-0.11,674.83074,635.58948)"
               id="g894">
              <use
                 xlink:href="#DejaVuSans-49"
                 id="use888"
                 x="0"
                 y="0"
                 width="100%"
                 height="100%" />
              <use
                 x="63.623047"
                 xlink:href="#DejaVuSans-53"
                 id="use890"
                 y="0"
                 width="100%"
                 height="100%" />
              <use
                 x="127.24609"
                 xlink:href="#DejaVuSans-48"
                 id="use892"
                 y="0"
                 width="100%"
                 height="100%" />
            </g>
          </g>
        </g>
        <g
           id="xtick_5">
          <g
             id="line2d_5">
            <path
               clip-path="url(#p667df45fc3)"
               d="M 842.51555,617.7312 V 83.2896"
               style="fill:none;stroke:#cccccc;stroke-linecap:round"
               id="path898" />
          </g>
          <g
             id="text_5">
            <!-- 200 -->
            <defs
               id="defs902">
              <path
                 d="M 19.1875,8.296875 H 53.609375 V 0 H 7.328125 v 8.296875 q 5.609375,5.8125 15.296875,15.59375 9.703125,9.796875 12.1875,12.640625 4.734375,5.3125 6.609375,9 1.890625,3.6875 1.890625,7.25 0,5.8125 -4.078125,9.46875 -4.078125,3.671875 -10.625,3.671875 -4.640625,0 -9.796875,-1.609375 -5.140625,-1.609375 -11,-4.890625 v 9.96875 Q 13.765625,71.78125 18.9375,73 q 5.1875,1.21875 9.484375,1.21875 11.328125,0 18.0625,-5.671875 6.734375,-5.65625 6.734375,-15.125 0,-4.5 -1.6875,-8.53125 Q 49.859375,40.875 45.40625,35.40625 44.1875,33.984375 37.640625,27.21875 31.109375,20.453125 19.1875,8.296875 Z"
                 id="DejaVuSans-50" />
            </defs>
            <g
               style="fill:#262626"
               transform="matrix(0.11,0,0,-0.11,832.01742,635.58948)"
               id="g910">
              <use
                 xlink:href="#DejaVuSans-50"
                 id="use904"
                 x="0"
                 y="0"
                 width="100%"
                 height="100%" />
              <use
                 x="63.623047"
                 xlink:href="#DejaVuSans-48"
                 id="use906"
                 y="0"
                 width="100%"
                 height="100%" />
              <use
                 x="127.24609"
                 xlink:href="#DejaVuSans-48"
                 id="use908"
                 y="0"
                 width="100%"
                 height="100%" />
            </g>
          </g>
        </g>
        <g
           id="xtick_6">
          <g
             id="line2d_6">
            <path
               clip-path="url(#p667df45fc3)"
               d="M 999.70223,617.7312 V 83.2896"
               style="fill:none;stroke:#cccccc;stroke-linecap:round"
               id="path914" />
          </g>
          <g
             id="text_6">
            <!-- 250 -->
            <g
               style="fill:#262626"
               transform="matrix(0.11,0,0,-0.11,989.20411,635.58948)"
               id="g923">
              <use
                 xlink:href="#DejaVuSans-50"
                 id="use917"
                 x="0"
                 y="0"
                 width="100%"
                 height="100%" />
              <use
                 x="63.623047"
                 xlink:href="#DejaVuSans-53"
                 id="use919"
                 y="0"
                 width="100%"
                 height="100%" />
              <use
                 x="127.24609"
                 xlink:href="#DejaVuSans-48"
                 id="use921"
                 y="0"
                 width="100%"
                 height="100%" />
            </g>
          </g>
        </g>
        <g
           id="xtick_7">
          <g
             id="line2d_7">
            <path
               clip-path="url(#p667df45fc3)"
               d="M 1156.8889,617.7312 V 83.2896"
               style="fill:none;stroke:#cccccc;stroke-linecap:round"
               id="path927" />
          </g>
          <g
             id="text_7">
            <!-- 300 -->
            <defs
               id="defs931">
              <path
                 d="M 40.578125,39.3125 Q 47.65625,37.796875 51.625,33 q 3.984375,-4.78125 3.984375,-11.8125 0,-10.78125 -7.421875,-16.703125 -7.421875,-5.90625 -21.09375,-5.90625 -4.578125,0 -9.4375,0.90625 -4.859375,0.90625 -10.03125,2.71875 v 9.515625 q 4.09375,-2.390625 8.96875,-3.609375 4.890625,-1.21875 10.21875,-1.21875 9.265625,0 14.125,3.65625 4.859375,3.65625 4.859375,10.640625 0,6.453125 -4.515625,10.078125 -4.515625,3.640625 -12.5625,3.640625 h -8.5 v 8.109375 h 8.890625 q 7.265625,0 11.125,2.90625 3.859375,2.90625 3.859375,8.375 0,5.609375 -3.984375,8.609375 -3.96875,3.015625 -11.390625,3.015625 -4.0625,0 -8.703125,-0.890625 Q 15.375,64.15625 9.8125,62.3125 v 8.78125 q 5.625,1.5625 10.53125,2.34375 4.90625,0.78125 9.25,0.78125 11.234375,0 17.765625,-5.109375 6.546875,-5.09375 6.546875,-13.78125 0,-6.0625 -3.46875,-10.234375 -3.46875,-4.171875 -9.859375,-5.78125 z"
                 id="DejaVuSans-51" />
            </defs>
            <g
               style="fill:#262626"
               transform="matrix(0.11,0,0,-0.11,1146.3908,635.58948)"
               id="g939">
              <use
                 xlink:href="#DejaVuSans-51"
                 id="use933"
                 x="0"
                 y="0"
                 width="100%"
                 height="100%" />
              <use
                 x="63.623047"
                 xlink:href="#DejaVuSans-48"
                 id="use935"
                 y="0"
                 width="100%"
                 height="100%" />
              <use
                 x="127.24609"
                 xlink:href="#DejaVuSans-48"
                 id="use937"
                 y="0"
                 width="100%"
                 height="100%" />
            </g>
          </g>
        </g>
      </g>
      <g
         id="matplotlib.axis_2">
        <g
           id="ytick_1">
          <g
             id="line2d_8">
            <path
               clip-path="url(#p667df45fc3)"
               d="M 166.77,612.42366 H 1200.744"
               style="fill:none;stroke:#cccccc;stroke-linecap:round"
               id="path944" />
          </g>
          <g
             id="text_8">
            <!-- 0 -->
            <g
               style="fill:#262626"
               transform="matrix(0.11,0,0,-0.11,150.27125,616.6028)"
               id="g949">
              <use
                 xlink:href="#DejaVuSans-48"
                 id="use947"
                 x="0"
                 y="0"
                 width="100%"
                 height="100%" />
            </g>
          </g>
        </g>
        <g
           id="ytick_2">
          <g
             id="line2d_9">
            <path
               clip-path="url(#p667df45fc3)"
               d="M 166.77,507.2484 H 1200.744"
               style="fill:none;stroke:#cccccc;stroke-linecap:round"
               id="path953" />
          </g>
          <g
             id="text_9">
            <!-- 50 -->
            <g
               style="fill:#262626"
               transform="matrix(0.11,0,0,-0.11,143.2725,511.42754)"
               id="g960">
              <use
                 xlink:href="#DejaVuSans-53"
                 id="use956"
                 x="0"
                 y="0"
                 width="100%"
                 height="100%" />
              <use
                 x="63.623047"
                 xlink:href="#DejaVuSans-48"
                 id="use958"
                 y="0"
                 width="100%"
                 height="100%" />
            </g>
          </g>
        </g>
        <g
           id="ytick_3">
          <g
             id="line2d_10">
            <path
               clip-path="url(#p667df45fc3)"
               d="M 166.77,402.07313 H 1200.744"
               style="fill:none;stroke:#cccccc;stroke-linecap:round"
               id="path964" />
          </g>
          <g
             id="text_10">
            <!-- 100 -->
            <g
               style="fill:#262626"
               transform="matrix(0.11,0,0,-0.11,136.27375,406.25227)"
               id="g973">
              <use
                 xlink:href="#DejaVuSans-49"
                 id="use967"
                 x="0"
                 y="0"
                 width="100%"
                 height="100%" />
              <use
                 x="63.623047"
                 xlink:href="#DejaVuSans-48"
                 id="use969"
                 y="0"
                 width="100%"
                 height="100%" />
              <use
                 x="127.24609"
                 xlink:href="#DejaVuSans-48"
                 id="use971"
                 y="0"
                 width="100%"
                 height="100%" />
            </g>
          </g>
        </g>
        <g
           id="ytick_4">
          <g
             id="line2d_11">
            <path
               clip-path="url(#p667df45fc3)"
               d="M 166.77,296.89787 H 1200.744"
               style="fill:none;stroke:#cccccc;stroke-linecap:round"
               id="path977" />
          </g>
          <g
             id="text_11">
            <!-- 150 -->
            <g
               style="fill:#262626"
               transform="matrix(0.11,0,0,-0.11,136.27375,301.07701)"
               id="g986">
              <use
                 xlink:href="#DejaVuSans-49"
                 id="use980"
                 x="0"
                 y="0"
                 width="100%"
                 height="100%" />
              <use
                 x="63.623047"
                 xlink:href="#DejaVuSans-53"
                 id="use982"
                 y="0"
                 width="100%"
                 height="100%" />
              <use
                 x="127.24609"
                 xlink:href="#DejaVuSans-48"
                 id="use984"
                 y="0"
                 width="100%"
                 height="100%" />
            </g>
          </g>
        </g>
        <g
           id="ytick_5">
          <g
             id="line2d_12">
            <path
               clip-path="url(#p667df45fc3)"
               d="M 166.77,191.72261 H 1200.744"
               style="fill:none;stroke:#cccccc;stroke-linecap:round"
               id="path990" />
          </g>
          <g
             id="text_12">
            <!-- 200 -->
            <g
               style="fill:#262626"
               transform="matrix(0.11,0,0,-0.11,136.27375,195.90175)"
               id="g999">
              <use
                 xlink:href="#DejaVuSans-50"
                 id="use993"
                 x="0"
                 y="0"
                 width="100%"
                 height="100%" />
              <use
                 x="63.623047"
                 xlink:href="#DejaVuSans-48"
                 id="use995"
                 y="0"
                 width="100%"
                 height="100%" />
              <use
                 x="127.24609"
                 xlink:href="#DejaVuSans-48"
                 id="use997"
                 y="0"
                 width="100%"
                 height="100%" />
            </g>
          </g>
        </g>
        <g
           id="ytick_6">
          <g
             id="line2d_13">
            <path
               clip-path="url(#p667df45fc3)"
               d="M 166.77,86.547348 H 1200.744"
               style="fill:none;stroke:#cccccc;stroke-linecap:round"
               id="path1003" />
          </g>
          <g
             id="text_13">
            <!-- 250 -->
            <g
               style="fill:#262626"
               transform="matrix(0.11,0,0,-0.11,136.27375,90.726488)"
               id="g1012">
              <use
                 xlink:href="#DejaVuSans-50"
                 id="use1006"
                 x="0"
                 y="0"
                 width="100%"
                 height="100%" />
              <use
                 x="63.623047"
                 xlink:href="#DejaVuSans-53"
                 id="use1008"
                 y="0"
                 width="100%"
                 height="100%" />
              <use
                 x="127.24609"
                 xlink:href="#DejaVuSans-48"
                 id="use1010"
                 y="0"
                 width="100%"
                 height="100%" />
            </g>
          </g>
        </g>
      </g>
      <g
         id="line2d_14"
         style="stroke-width:2.8346457;stroke-miterlimit:4;stroke-dasharray:none">
        <path
           clip-path="url(#p667df45fc3)"
           d="m 213.76882,580.87108 3.14373,-10.51752 3.14373,-63.10516 3.14374,-10.51753 h 3.14373 l 3.14374,-10.51753 h 3.14373 l 3.14373,-10.51752 h 9.4312 l 3.14374,-10.51753 3.14373,-21.03505 h 6.28747 l 3.14373,-10.51753 3.14374,-21.03505 h 6.28746 l 3.14374,-10.51753 h 3.14373 l 3.14373,-10.51752 h 9.43121 l 3.14373,-10.51753 h 12.57493 l 3.14374,-10.51752 h 9.4312 l 3.14373,-10.51753 h 28.2936 l 3.14374,-10.51753 h 12.57493 l 3.14374,-10.51752 h 34.58107 l 3.14373,-10.51753 h 50.29974 l 3.14373,-10.51753 h 31.43734 l 3.14373,-10.51752 h 100.59948 l 3.14373,-10.51753 h 150.89922 l 3.14373,-10.51752 h 69.16214 l 3.14374,-10.51753 h 3.14373 l 3.14373,-10.51753 h 9.43121 l 3.14373,-10.51752 h 18.8624 l 3.14374,-10.51753 h 9.4312 l 3.14373,-10.51753 h 3.14373 l 6.28747,-21.03505 h 15.71867 l 3.14373,-10.51752 h 12.57494 l 3.14373,-10.51753 h 9.4312 l 3.14374,-10.51753 h 15.71866 l 3.14374,-10.51752 h 18.8624 l 3.14373,-10.51753 h 25.14987 l 3.14377,-10.51753 h 28.2936 l 3.1437,-10.51752 h 31.4373 l 3.1438,-10.51753 h 44.0122 l 3.1438,-10.51752 h 31.4373 l 3.1437,-10.51753 h 3.1438 v 0"
           style="fill:none;stroke:#4c72b0;stroke-width:2.8346457;stroke-linecap:round;stroke-miterlimit:4;stroke-dasharray:none"
           id="path1017" />
      </g>
      <g
         id="line2d_15"
         style="stroke-width:2.8346457;stroke-miterlimit:4;stroke-dasharray:none">
        <path
           clip-path="url(#p667df45fc3)"
           d="m 213.76882,527.87919 3.14373,65.55921 3.14373,-56.49784 3.14374,-62.26305 3.14373,75.15993 3.14374,-84.90032 3.14373,43.67309 3.14373,-54.92739 h 3.14374 l 3.14373,32.39309 3.14373,-32.39309 3.14374,43.99432 3.14373,-42.49741 3.14374,-82.56507 3.14373,49.3645 3.14373,-1.39593 3.14374,-10.67891 3.14373,0.20558 3.14373,-8.52133 3.14374,11.45408 3.14373,-2e-5 3.14373,-25.84953 3.14374,-9.74707 3.14373,22.72724 3.14374,9.46661 3.14373,34.29738 3.14373,-34.06961 h 3.14374 l 3.14373,34.06961 3.14373,-58.67309 3.14374,24.12206 3.14373,-1.77865 3.14373,-40.31314 3.14374,4e-5 3.14373,-34.35264 3.14374,-31.02892 3.14373,17.61124 3.14373,10.26814 3.14374,-27.87938 3.14373,27.87938 3.14373,5.67441 3.14374,-5.67441 3.14373,-10.33438 3.14373,29.7869 3.14374,-5.7976 3.14373,-47.38027 3.14374,39.00407 3.14373,-45.24253 3.14373,92.44966 3.14374,-47.13594 3.14373,-92.05868 3.14374,96.58435 3.14373,-33.47483 3.14373,34.31568 3.14374,-0.84085 3.14373,-46.93821 3.14373,17.57461 3.14374,-1.53962 3.14373,25.14847 3.14373,-25.14847 3.14374,31.74407 3.14373,-4.78386 3.14373,49.006 3.14374,-78.53782 3.14373,-1.59602 3.14374,-3.79877 3.14373,32.07858 3.14373,-15.89399 3.14374,-7.34567 3.14373,-5.83224 3.14373,5.83224 3.14374,-13.34764 3.14373,12.32153 3.14373,6.71269 3.14374,20.40111 3.14373,-21.94844 3.14374,3.20646 3.14373,18.74198 3.14373,-30.64122 3.14374,0.49651 3.14373,2.52552 3.14373,4.45473 3.14374,-6.24956 3.14373,35.90027 3.14373,-33.53922 3.14374,7.90249 3.14373,-10.99423 3.14374,-0.39287 3.14373,3.48461 3.14373,-1.77407 3.14374,-5.48016 3.14373,1.57188 3.14374,4.69915 3.14373,-5.89126 6.28747,5.46177 3.14373,-5.84154 3.14373,5.54805 3.14374,13.44236 3.14373,-10.39992 3.14373,-3.49847 3.14374,-2.23363 3.14373,-1.53523 3.14374,4.51838 3.14373,1.77484 3.14373,-19.47116 3.14374,19.98275 3.14373,0.005 3.14373,-3.8706 3.14374,-66.10921 3.14373,66.10921 3.14373,-2.34163 3.14374,-0.59781 3.14373,7.92015 3.14373,-3.76315 3.14374,-1.39072 3.14373,0.36667 3.14374,13.34039 3.14373,-29.58975 3.14373,19.3254 3.14374,1.05834 3.14373,-0.46252 3.14373,-6.51796 3.14374,5.72083 3.14373,-0.91858 3.14374,-4.80225 3.14373,-1.23024 3.14373,9.21631 3.14374,-5.5415 3.14373,2.42563 3.14373,-4.90034 h 3.14374 l 3.14373,-1.2001 3.14374,5.47975 3.14373,-2.69409 3.14373,1.29068 3.14374,1.81117 3.14373,0.16433 3.14373,3.16447 3.14374,-1.52983 3.14373,-20.30408 h 3.14373 l 3.14374,17.93779 3.14373,15.81696 3.14373,-19.93705 3.14374,5.1126 3.14373,1.97527 3.14374,-7.08787 3.14373,5.08673 3.14373,-3.50117 3.14374,0.95976 3.14373,1.73433 3.14373,-0.92699 3.14374,-3.35266 3.14373,3.01535 3.14374,0.0453 3.14373,2.69036 3.14373,-5.23892 3.14374,2.79538 3.14373,4.27788 3.14373,-3.30566 3.14374,-1.03346 3.14373,-4.40306 3.14373,1.10677 3.14374,1.48063 3.14373,15.98001 3.14373,4.8891 3.14374,-19.4234 3.14373,-80.98363 3.14374,80.06251 3.14373,-0.36956 3.14373,1.29068 3.14374,-1.47286 3.14373,2.26245 h 3.14373 l 3.14374,-0.90016 3.14373,0.11057 3.14374,-4.32493 3.14373,3.87288 3.14373,-5.40147 3.14374,-0.61597 3.14373,6.60417 h 3.14373 l 3.14374,-0.13468 h 3.14373 l 3.14374,-1.40921 3.14373,-5.06028 3.14373,6.35895 3.14374,-5.74298 3.14373,6.64311 3.14373,22.86791 3.14374,-22.68843 3.14373,-0.83439 3.14373,23.52282 3.14374,-89.00415 3.14373,31.55306 3.14373,-8.09834 3.14374,-4.73122 h 3.14373 l 3.14374,-75.76731 3.14373,87.70118 3.14373,-7.96236 3.14374,-3.81032 3.14373,3.8933 3.14373,-22.00692 h 3.14374 l 3.14373,29.8863 3.14374,-34.00652 3.14373,20.2265 3.14373,-4.78004 h 3.14374 l 3.14373,-60.86518 3.14373,-5.74708 3.14374,-14.68904 3.14373,13.26685 h 3.14373 l 3.14374,28.86007 3.14373,-7.1652 3.14374,29.54469 3.14373,-72.68391 3.14373,49.79655 h 6.28747 l 3.14373,-33.39231 3.14374,74.22601 3.14373,-68.04212 h 3.14373 l 3.14374,-0.93556 3.14373,0.93556 3.14374,-30.04781 3.14373,16.31584 3.14373,5.19829 3.14374,-33.23841 3.14373,36.81038 h 3.14373 l 3.14374,-9.08244 3.14373,-13.19524 3.14374,20.01466 3.14373,-20.01466 3.14373,-8.87721 3.14374,28.89187 3.14373,-15.78993 3.14373,9.78783 3.14374,8.26512 3.14373,-8.26512 3.14373,0.51089 3.14374,7.75423 3.14373,-21.95299 h 3.14373 l 3.14374,19.59297 3.14373,15.92952 3.14377,-44.32347 3.1437,-0.40099 3.1437,0.85972 3.1438,-0.45873 3.1437,0.45873 3.1437,19.52887 3.1438,-19.9876 3.1437,19.9876 3.1437,-19.9876 3.1438,21.67153 3.1437,-23.75376 3.1437,6.0377 3.1438,15.45471 3.1437,5.72821 h 3.1437 l 3.1438,-5.72821 3.1437,-19.81117 3.1437,24.77351 3.1438,4.42344 3.1437,-4.9653 3.1437,-21.29571 3.1438,-4.59772 3.1437,2.06277 3.1437,22.16236 3.1438,-1.24498 3.1437,-1.5072 3.1437,7.54368 3.1438,-27.35485 3.1437,0.40099 3.1437,19.41018 3.1438,-12.22416 3.1437,15.05209 3.1437,-22.63903 3.1438,26.91299 3.1437,-28.57478 3.1437,29.01657 3.1438,-22.33575 3.1437,3.85818 h 6.2875 l 3.1437,12.44109 3.1437,-12.44109 3.1438,3.63003 3.1437,-4.86833 3.1437,0.945 3.1438,-3.56488 h 3.1437 l 3.1437,13.55563 h 3.1438 v 0"
           style="fill:none;stroke:#dd8452;stroke-width:2.8346457;stroke-dasharray:none;stroke-dashoffset:0;stroke-miterlimit:4"
           id="path1020" />
      </g>
      <g
         id="line2d_16" />
      <g
         id="line2d_17" />
      <g
         id="patch_3">
        <path
           d="M 166.77,617.7312 V 83.2896"
           style="fill:none;stroke:#cccccc;stroke-width:1.25;stroke-linecap:square;stroke-linejoin:miter"
           id="path1025" />
      </g>
      <g
         id="patch_4">
        <path
           d="M 1200.744,617.7312 V 83.2896"
           style="fill:none;stroke:#cccccc;stroke-width:1.25;stroke-linecap:square;stroke-linejoin:miter"
           id="path1028" />
      </g>
      <g
         id="patch_5">
        <path
           d="M 166.77,617.7312 H 1200.744"
           style="fill:none;stroke:#cccccc;stroke-width:1.25;stroke-linecap:square;stroke-linejoin:miter"
           id="path1031" />
      </g>
      <g
         id="patch_6">
        <path
           d="M 166.77,83.2896 H 1200.744"
           style="fill:none;stroke:#cccccc;stroke-width:1.25;stroke-linecap:square;stroke-linejoin:miter"
           id="path1034" />
      </g>
      <g
         id="text_14">
        <!-- Predicition -->
        <defs
           id="defs1046">
          <path
             d="M 19.671875,64.796875 V 37.40625 h 12.40625 q 6.890625,0 10.640625,3.5625 3.765625,3.5625 3.765625,10.15625 0,6.546875 -3.765625,10.109375 -3.75,3.5625 -10.640625,3.5625 z M 9.8125,72.90625 h 22.265625 q 12.265625,0 18.53125,-5.546875 6.28125,-5.546875 6.28125,-16.234375 0,-10.796875 -6.28125,-16.3125 -6.265625,-5.515625 -18.53125,-5.515625 H 19.671875 V 0 H 9.8125 Z"
             id="DejaVuSans-80" />
          <path
             d="m 41.109375,46.296875 q -1.515625,0.875 -3.296875,1.28125 Q 36.03125,48 33.890625,48 26.265625,48 22.1875,43.046875 18.109375,38.09375 18.109375,28.8125 V 0 h -9.03125 v 54.6875 h 9.03125 v -8.5 q 2.84375,4.984375 7.375,7.390625 Q 30.03125,56 36.53125,56 q 0.921875,0 2.046875,-0.125 1.125,-0.109375 2.484375,-0.359375 z"
             id="DejaVuSans-114" />
          <path
             d="m 56.203125,29.59375 v -4.390625 h -41.3125 q 0.59375,-9.28125 5.59375,-14.140625 5,-4.859375 13.9375,-4.859375 5.171875,0 10.03125,1.265625 4.859375,1.265625 9.65625,3.8125 v -8.5 q -4.84375,-2.046875 -9.921875,-3.125 -5.078125,-1.078125 -10.296875,-1.078125 -13.09375,0 -20.734375,7.609375 -7.640625,7.625 -7.640625,20.625 0,13.421875 7.25,21.296875 Q 20.015625,56 32.328125,56 q 11.03125,0 17.453125,-7.109375 6.421875,-7.09375 6.421875,-19.296875 z m -8.984375,2.640625 q -0.09375,7.359375 -4.125,11.75 -4.03125,4.40625 -10.671875,4.40625 -7.515625,0 -12.03125,-4.25 -4.515625,-4.25 -5.203125,-11.96875 z"
             id="DejaVuSans-101" />
          <path
             d="m 45.40625,46.390625 v 29.59375 h 8.984375 V 0 H 45.40625 v 8.203125 q -2.828125,-4.875 -7.15625,-7.25 -4.3125,-2.375 -10.375,-2.375 -9.90625,0 -16.140625,7.90625 -6.21875,7.921875 -6.21875,20.8125 0,12.890625 6.21875,20.796875 Q 17.96875,56 27.875,56 q 6.0625,0 10.375,-2.375 4.328125,-2.359375 7.15625,-7.234375 z M 14.796875,27.296875 q 0,-9.90625 4.078125,-15.546875 4.078125,-5.640625 11.203125,-5.640625 7.125,0 11.21875,5.640625 4.109375,5.640625 4.109375,15.546875 0,9.90625 -4.109375,15.546875 -4.09375,5.640625 -11.21875,5.640625 -7.125,0 -11.203125,-5.640625 -4.078125,-5.640625 -4.078125,-15.546875 z"
             id="DejaVuSans-100" />
          <path
             d="M 9.421875,54.6875 H 18.40625 V 0 H 9.421875 Z m 0,21.296875 H 18.40625 V 64.59375 H 9.421875 Z"
             id="DejaVuSans-105" />
          <path
             d="M 48.78125,52.59375 V 44.1875 q -3.8125,2.109375 -7.640625,3.15625 -3.828125,1.046875 -7.734375,1.046875 -8.75,0 -13.59375,-5.546875 -4.828125,-5.53125 -4.828125,-15.546875 0,-10.015625 4.828125,-15.5625 4.84375,-5.53125 13.59375,-5.53125 3.90625,0 7.734375,1.046875 3.828125,1.046875 7.640625,3.15625 v -8.3125 q -3.765625,-1.75 -7.796875,-2.625 -4.015625,-0.890625 -8.5625,-0.890625 -12.359375,0 -19.640625,7.765625 -7.265625,7.765625 -7.265625,20.953125 0,13.375 7.34375,21.03125 Q 20.21875,56 33.015625,56 q 4.140625,0 8.09375,-0.859375 3.953125,-0.84375 7.671875,-2.546875 z"
             id="DejaVuSans-99" />
          <path
             d="M 18.3125,70.21875 V 54.6875 h 18.5 v -6.984375 h -18.5 v -29.6875 q 0,-6.6875 1.828125,-8.59375 1.828125,-1.90625 7.453125,-1.90625 H 36.8125 V 0 H 27.59375 Q 17.1875,0 13.234375,3.875 9.28125,7.765625 9.28125,18.015625 v 29.6875 H 2.6875 V 54.6875 h 6.59375 v 15.53125 z"
             id="DejaVuSans-116" />
          <path
             d="m 30.609375,48.390625 q -7.21875,0 -11.421875,-5.640625 -4.203125,-5.640625 -4.203125,-15.453125 0,-9.8125 4.171875,-15.453125 4.1875,-5.640625 11.453125,-5.640625 7.1875,0 11.375,5.65625 4.203125,5.671875 4.203125,15.4375 0,9.71875 -4.203125,15.40625 -4.1875,5.6875 -11.375,5.6875 z m 0,7.609375 q 11.71875,0 18.40625,-7.625 6.703125,-7.609375 6.703125,-21.078125 0,-13.421875 -6.703125,-21.078125 -6.6875,-7.640625 -18.40625,-7.640625 -11.765625,0 -18.4375,7.640625 -6.65625,7.65625 -6.65625,21.078125 0,13.46875 6.65625,21.078125 Q 18.84375,56 30.609375,56 Z"
             id="DejaVuSans-111" />
          <path
             d="M 54.890625,33.015625 V 0 H 45.90625 v 32.71875 q 0,7.765625 -3.03125,11.609375 -3.03125,3.859375 -9.078125,3.859375 -7.28125,0 -11.484375,-4.640625 -4.203125,-4.625 -4.203125,-12.640625 V 0 h -9.03125 v 54.6875 h 9.03125 v -8.5 q 3.234375,4.9375 7.59375,7.375 4.375,2.4375 10.09375,2.4375 9.421875,0 14.25,-5.828125 4.84375,-5.828125 4.84375,-17.15625 z"
             id="DejaVuSans-110" />
        </defs>
      </g>
      <g
         id="legend_1"
         transform="matrix(2.9928441,0,0,2.9928441,-342.31085,-175.94741)">
        <g
           id="patch_7">
          <path
             d="m 174.47,124.38147 h 76.31594 q 2.2,0 2.2,-2.19999 V 90.9896 q 0,-2.2 -2.2,-2.2 H 174.47 q -2.2,0 -2.2,2.2 v 31.19188 q 0,2.19999 2.2,2.19999 z"
             style="opacity:0.8;fill:#ffffff;stroke:#cccccc;stroke-linejoin:miter"
             id="path1073" />
        </g>
        <g
           id="line2d_18">
          <path
             d="m 176.67,97.697881 h 22"
             style="fill:none;stroke:#4c72b0;stroke-width:1.5;stroke-linecap:round"
             id="path1076" />
        </g>
        <g
           id="line2d_19" />
        <g
           id="text_15">
          <!-- original -->
          <defs
             id="defs1083">
            <path
               d="m 45.40625,27.984375 q 0,9.765625 -4.03125,15.125 -4.015625,5.375 -11.296875,5.375 -7.21875,0 -11.25,-5.375 -4.03125,-5.359375 -4.03125,-15.125 0,-9.71875 4.03125,-15.09375 4.03125,-5.375 11.25,-5.375 7.28125,0 11.296875,5.375 4.03125,5.375 4.03125,15.09375 z M 54.390625,6.78125 q 0,-13.953125 -6.203125,-20.765625 -6.1875,-6.8125 -18.984375,-6.8125 -4.734375,0 -8.9375,0.703125 -4.203125,0.703125 -8.15625,2.171875 V -9.1875 q 3.953125,-2.140625 7.8125,-3.15625 3.859375,-1.03125 7.859375,-1.03125 8.84375,0 13.234375,4.609375 4.390625,4.609375 4.390625,13.9375 V 9.625 Q 42.625,4.78125 38.28125,2.390625 33.9375,0 27.875,0 17.828125,0 11.671875,7.65625 q -6.15625,7.671875 -6.15625,20.328125 0,12.6875 6.15625,20.34375 Q 17.828125,56 27.875,56 q 6.0625,0 10.40625,-2.390625 4.34375,-2.390625 7.125,-7.21875 V 54.6875 h 8.984375 z"
               id="DejaVuSans-103" />
            <path
               d="m 34.28125,27.484375 q -10.890625,0 -15.09375,-2.484375 -4.203125,-2.484375 -4.203125,-8.5 0,-4.78125 3.15625,-7.59375 3.15625,-2.796875 8.5625,-2.796875 7.484375,0 12,5.296875 4.515625,5.296875 4.515625,14.078125 v 2 z m 17.921875,3.71875 V 0 H 43.21875 v 8.296875 q -3.078125,-4.96875 -7.671875,-7.34375 -4.59375,-2.375 -11.234375,-2.375 -8.390625,0 -13.359375,4.71875 Q 6,8.015625 6,15.921875 q 0,9.21875 6.171875,13.90625 6.1875,4.6875 18.4375,4.6875 H 43.21875 v 0.890625 q 0,6.203125 -4.078125,9.59375 -4.078125,3.390625 -11.453125,3.390625 -4.6875,0 -9.140625,-1.125 -4.4375,-1.125 -8.53125,-3.375 v 8.3125 q 4.921875,1.90625 9.5625,2.84375 Q 24.21875,56 28.609375,56 q 11.875,0 17.734375,-6.15625 5.859375,-6.140625 5.859375,-18.640625 z"
               id="DejaVuSans-97" />
            <path
               d="M 9.421875,75.984375 H 18.40625 V 0 H 9.421875 Z"
               id="DejaVuSans-108" />
          </defs>
          <g
             style="fill:#262626"
             transform="matrix(0.11,0,0,-0.11,207.47,101.54788)"
             id="g1101">
            <use
               xlink:href="#DejaVuSans-111"
               id="use1085"
               x="0"
               y="0"
               width="100%"
               height="100%" />
            <use
               x="61.181641"
               xlink:href="#DejaVuSans-114"
               id="use1087"
               y="0"
               width="100%"
               height="100%" />
            <use
               x="102.29492"
               xlink:href="#DejaVuSans-105"
               id="use1089"
               y="0"
               width="100%"
               height="100%" />
            <use
               x="130.07812"
               xlink:href="#DejaVuSans-103"
               id="use1091"
               y="0"
               width="100%"
               height="100%" />
            <use
               x="193.55469"
               xlink:href="#DejaVuSans-105"
               id="use1093"
               y="0"
               width="100%"
               height="100%" />
            <use
               x="221.33789"
               xlink:href="#DejaVuSans-110"
               id="use1095"
               y="0"
               width="100%"
               height="100%" />
            <use
               x="284.7168"
               xlink:href="#DejaVuSans-97"
               id="use1097"
               y="0"
               width="100%"
               height="100%" />
            <use
               x="345.99609"
               xlink:href="#DejaVuSans-108"
               id="use1099"
               y="0"
               width="100%"
               height="100%" />
          </g>
        </g>
        <g
           id="line2d_20">
          <path
             d="m 176.67,113.84382 h 22"
             style="fill:none;stroke:#dd8452;stroke-width:1.5;stroke-dasharray:6, 2.25;stroke-dashoffset:0"
             id="path1104" />
        </g>
        <g
           id="line2d_21" />
        <g
           id="text_16">
          <!-- predict -->
          <defs
             id="defs1109">
            <path
               d="m 18.109375,8.203125 v -29 H 9.078125 V 54.6875 h 9.03125 v -8.296875 q 2.84375,4.875 7.15625,7.234375 Q 29.59375,56 35.59375,56 q 9.96875,0 16.1875,-7.90625 6.234375,-7.90625 6.234375,-20.796875 0,-12.890625 -6.234375,-20.8125 -6.21875,-7.90625 -16.1875,-7.90625 -6,0 -10.328125,2.375 -4.3125,2.375 -7.15625,7.25 z M 48.6875,27.296875 q 0,9.90625 -4.078125,15.546875 -4.078125,5.640625 -11.203125,5.640625 -7.140625,0 -11.21875,-5.640625 -4.078125,-5.640625 -4.078125,-15.546875 0,-9.90625 4.078125,-15.546875 4.078125,-5.640625 11.21875,-5.640625 7.125,0 11.203125,5.640625 4.078125,5.640625 4.078125,15.546875 z"
               id="DejaVuSans-112" />
          </defs>
          <g
             style="fill:#262626"
             transform="matrix(0.11,0,0,-0.11,207.47,117.69382)"
             id="g1125">
            <use
               xlink:href="#DejaVuSans-112"
               id="use1111"
               x="0"
               y="0"
               width="100%"
               height="100%" />
            <use
               x="63.476562"
               xlink:href="#DejaVuSans-114"
               id="use1113"
               y="0"
               width="100%"
               height="100%" />
            <use
               x="104.55859"
               xlink:href="#DejaVuSans-101"
               id="use1115"
               y="0"
               width="100%"
               height="100%" />
            <use
               x="166.08203"
               xlink:href="#DejaVuSans-100"
               id="use1117"
               y="0"
               width="100%"
               height="100%" />
            <use
               x="229.55859"
               xlink:href="#DejaVuSans-105"
               id="use1119"
               y="0"
               width="100%"
               height="100%" />
            <use
               x="257.3418"
               xlink:href="#DejaVuSans-99"
               id="use1121"
               y="0"
               width="100%"
               height="100%" />
            <use
               x="312.32227"
               xlink:href="#DejaVuSans-116"
               id="use1123"
               y="0"
               width="100%"
               height="100%" />
          </g>
        </g>
      </g>
    </g>
  </g>
  <defs
     id="defs1134">
    <clipPath
       id="p667df45fc3">
      <rect
         height="534.44159"
         width="1033.974"
         x="166.77"
         y="83.289597"
         id="rect1131" />
    </clipPath>
  </defs>
</svg>
