<?xml version="1.0" encoding="utf-8" standalone="no"?>
<!DOCTYPE svg PUBLIC "-//W3C//DTD SVG 1.1//EN"
  "http://www.w3.org/Graphics/SVG/1.1/DTD/svg11.dtd">
<!-- Created with matplotlib (https://matplotlib.org/) -->
<svg height="694.08pt" version="1.1" viewBox="0 0 1334.16 694.08" width="1334.16pt" xmlns="http://www.w3.org/2000/svg" xmlns:xlink="http://www.w3.org/1999/xlink">
 <defs>
  <style type="text/css">
*{stroke-linecap:butt;stroke-linejoin:round;}
  </style>
 </defs>
 <g id="figure_1">
  <g id="patch_1">
   <path d="M 0 694.08 
L 1334.16 694.08 
L 1334.16 0 
L 0 0 
z
" style="fill:#ffffff;"/>
  </g>
  <g id="axes_1">
   <g id="patch_2">
    <path d="M 166.77 617.7312 
L 1200.744 617.7312 
L 1200.744 83.2896 
L 166.77 83.2896 
z
" style="fill:#ffffff;"/>
   </g>
   <g id="matplotlib.axis_1">
    <g id="xtick_1">
     <g id="line2d_1">
      <path clip-path="url(#pe9c565fcf0)" d="M 213.768818 617.7312 
L 213.768818 83.2896 
" style="fill:none;stroke:#cccccc;stroke-linecap:round;"/>
     </g>
     <g id="text_1">
      <!-- 0 -->
      <defs>
       <path d="M 31.78125 66.40625 
Q 24.171875 66.40625 20.328125 58.90625 
Q 16.5 51.421875 16.5 36.375 
Q 16.5 21.390625 20.328125 13.890625 
Q 24.171875 6.390625 31.78125 6.390625 
Q 39.453125 6.390625 43.28125 13.890625 
Q 47.125 21.390625 47.125 36.375 
Q 47.125 51.421875 43.28125 58.90625 
Q 39.453125 66.40625 31.78125 66.40625 
z
M 31.78125 74.21875 
Q 44.046875 74.21875 50.515625 64.515625 
Q 56.984375 54.828125 56.984375 36.375 
Q 56.984375 17.96875 50.515625 8.265625 
Q 44.046875 -1.421875 31.78125 -1.421875 
Q 19.53125 -1.421875 13.0625 8.265625 
Q 6.59375 17.96875 6.59375 36.375 
Q 6.59375 54.828125 13.0625 64.515625 
Q 19.53125 74.21875 31.78125 74.21875 
z
" id="DejaVuSans-48"/>
      </defs>
      <g style="fill:#262626;" transform="translate(210.269443 635.589481)scale(0.11 -0.11)">
       <use xlink:href="#DejaVuSans-48"/>
      </g>
     </g>
    </g>
    <g id="xtick_2">
     <g id="line2d_2">
      <path clip-path="url(#pe9c565fcf0)" d="M 370.955501 617.7312 
L 370.955501 83.2896 
" style="fill:none;stroke:#cccccc;stroke-linecap:round;"/>
     </g>
     <g id="text_2">
      <!-- 50 -->
      <defs>
       <path d="M 10.796875 72.90625 
L 49.515625 72.90625 
L 49.515625 64.59375 
L 19.828125 64.59375 
L 19.828125 46.734375 
Q 21.96875 47.46875 24.109375 47.828125 
Q 26.265625 48.1875 28.421875 48.1875 
Q 40.625 48.1875 47.75 41.5 
Q 54.890625 34.8125 54.890625 23.390625 
Q 54.890625 11.625 47.5625 5.09375 
Q 40.234375 -1.421875 26.90625 -1.421875 
Q 22.3125 -1.421875 17.546875 -0.640625 
Q 12.796875 0.140625 7.71875 1.703125 
L 7.71875 11.625 
Q 12.109375 9.234375 16.796875 8.0625 
Q 21.484375 6.890625 26.703125 6.890625 
Q 35.15625 6.890625 40.078125 11.328125 
Q 45.015625 15.765625 45.015625 23.390625 
Q 45.015625 31 40.078125 35.4375 
Q 35.15625 39.890625 26.703125 39.890625 
Q 22.75 39.890625 18.8125 39.015625 
Q 14.890625 38.140625 10.796875 36.28125 
z
" id="DejaVuSans-53"/>
      </defs>
      <g style="fill:#262626;" transform="translate(363.956751 635.589481)scale(0.11 -0.11)">
       <use xlink:href="#DejaVuSans-53"/>
       <use x="63.623047" xlink:href="#DejaVuSans-48"/>
      </g>
     </g>
    </g>
    <g id="xtick_3">
     <g id="line2d_3">
      <path clip-path="url(#pe9c565fcf0)" d="M 528.142184 617.7312 
L 528.142184 83.2896 
" style="fill:none;stroke:#cccccc;stroke-linecap:round;"/>
     </g>
     <g id="text_3">
      <!-- 100 -->
      <defs>
       <path d="M 12.40625 8.296875 
L 28.515625 8.296875 
L 28.515625 63.921875 
L 10.984375 60.40625 
L 10.984375 69.390625 
L 28.421875 72.90625 
L 38.28125 72.90625 
L 38.28125 8.296875 
L 54.390625 8.296875 
L 54.390625 0 
L 12.40625 0 
z
" id="DejaVuSans-49"/>
      </defs>
      <g style="fill:#262626;" transform="translate(517.644059 635.589481)scale(0.11 -0.11)">
       <use xlink:href="#DejaVuSans-49"/>
       <use x="63.623047" xlink:href="#DejaVuSans-48"/>
       <use x="127.246094" xlink:href="#DejaVuSans-48"/>
      </g>
     </g>
    </g>
    <g id="xtick_4">
     <g id="line2d_4">
      <path clip-path="url(#pe9c565fcf0)" d="M 685.328867 617.7312 
L 685.328867 83.2896 
" style="fill:none;stroke:#cccccc;stroke-linecap:round;"/>
     </g>
     <g id="text_4">
      <!-- 150 -->
      <g style="fill:#262626;" transform="translate(674.830742 635.589481)scale(0.11 -0.11)">
       <use xlink:href="#DejaVuSans-49"/>
       <use x="63.623047" xlink:href="#DejaVuSans-53"/>
       <use x="127.246094" xlink:href="#DejaVuSans-48"/>
      </g>
     </g>
    </g>
    <g id="xtick_5">
     <g id="line2d_5">
      <path clip-path="url(#pe9c565fcf0)" d="M 842.51555 617.7312 
L 842.51555 83.2896 
" style="fill:none;stroke:#cccccc;stroke-linecap:round;"/>
     </g>
     <g id="text_5">
      <!-- 200 -->
      <defs>
       <path d="M 19.1875 8.296875 
L 53.609375 8.296875 
L 53.609375 0 
L 7.328125 0 
L 7.328125 8.296875 
Q 12.9375 14.109375 22.625 23.890625 
Q 32.328125 33.6875 34.8125 36.53125 
Q 39.546875 41.84375 41.421875 45.53125 
Q 43.3125 49.21875 43.3125 52.78125 
Q 43.3125 58.59375 39.234375 62.25 
Q 35.15625 65.921875 28.609375 65.921875 
Q 23.96875 65.921875 18.8125 64.3125 
Q 13.671875 62.703125 7.8125 59.421875 
L 7.8125 69.390625 
Q 13.765625 71.78125 18.9375 73 
Q 24.125 74.21875 28.421875 74.21875 
Q 39.75 74.21875 46.484375 68.546875 
Q 53.21875 62.890625 53.21875 53.421875 
Q 53.21875 48.921875 51.53125 44.890625 
Q 49.859375 40.875 45.40625 35.40625 
Q 44.1875 33.984375 37.640625 27.21875 
Q 31.109375 20.453125 19.1875 8.296875 
z
" id="DejaVuSans-50"/>
      </defs>
      <g style="fill:#262626;" transform="translate(832.017425 635.589481)scale(0.11 -0.11)">
       <use xlink:href="#DejaVuSans-50"/>
       <use x="63.623047" xlink:href="#DejaVuSans-48"/>
       <use x="127.246094" xlink:href="#DejaVuSans-48"/>
      </g>
     </g>
    </g>
    <g id="xtick_6">
     <g id="line2d_6">
      <path clip-path="url(#pe9c565fcf0)" d="M 999.702233 617.7312 
L 999.702233 83.2896 
" style="fill:none;stroke:#cccccc;stroke-linecap:round;"/>
     </g>
     <g id="text_6">
      <!-- 250 -->
      <g style="fill:#262626;" transform="translate(989.204108 635.589481)scale(0.11 -0.11)">
       <use xlink:href="#DejaVuSans-50"/>
       <use x="63.623047" xlink:href="#DejaVuSans-53"/>
       <use x="127.246094" xlink:href="#DejaVuSans-48"/>
      </g>
     </g>
    </g>
    <g id="xtick_7">
     <g id="line2d_7">
      <path clip-path="url(#pe9c565fcf0)" d="M 1156.888915 617.7312 
L 1156.888915 83.2896 
" style="fill:none;stroke:#cccccc;stroke-linecap:round;"/>
     </g>
     <g id="text_7">
      <!-- 300 -->
      <defs>
       <path d="M 40.578125 39.3125 
Q 47.65625 37.796875 51.625 33 
Q 55.609375 28.21875 55.609375 21.1875 
Q 55.609375 10.40625 48.1875 4.484375 
Q 40.765625 -1.421875 27.09375 -1.421875 
Q 22.515625 -1.421875 17.65625 -0.515625 
Q 12.796875 0.390625 7.625 2.203125 
L 7.625 11.71875 
Q 11.71875 9.328125 16.59375 8.109375 
Q 21.484375 6.890625 26.8125 6.890625 
Q 36.078125 6.890625 40.9375 10.546875 
Q 45.796875 14.203125 45.796875 21.1875 
Q 45.796875 27.640625 41.28125 31.265625 
Q 36.765625 34.90625 28.71875 34.90625 
L 20.21875 34.90625 
L 20.21875 43.015625 
L 29.109375 43.015625 
Q 36.375 43.015625 40.234375 45.921875 
Q 44.09375 48.828125 44.09375 54.296875 
Q 44.09375 59.90625 40.109375 62.90625 
Q 36.140625 65.921875 28.71875 65.921875 
Q 24.65625 65.921875 20.015625 65.03125 
Q 15.375 64.15625 9.8125 62.3125 
L 9.8125 71.09375 
Q 15.4375 72.65625 20.34375 73.4375 
Q 25.25 74.21875 29.59375 74.21875 
Q 40.828125 74.21875 47.359375 69.109375 
Q 53.90625 64.015625 53.90625 55.328125 
Q 53.90625 49.265625 50.4375 45.09375 
Q 46.96875 40.921875 40.578125 39.3125 
z
" id="DejaVuSans-51"/>
      </defs>
      <g style="fill:#262626;" transform="translate(1146.39079 635.589481)scale(0.11 -0.11)">
       <use xlink:href="#DejaVuSans-51"/>
       <use x="63.623047" xlink:href="#DejaVuSans-48"/>
       <use x="127.246094" xlink:href="#DejaVuSans-48"/>
      </g>
     </g>
    </g>
   </g>
   <g id="matplotlib.axis_2">
    <g id="ytick_1">
     <g id="line2d_8">
      <path clip-path="url(#pe9c565fcf0)" d="M 166.77 517.8608 
L 1200.744 517.8608 
" style="fill:none;stroke:#cccccc;stroke-linecap:round;"/>
     </g>
     <g id="text_8">
      <!-- 50 -->
      <g style="fill:#262626;" transform="translate(143.2725 522.039941)scale(0.11 -0.11)">
       <use xlink:href="#DejaVuSans-53"/>
       <use x="63.623047" xlink:href="#DejaVuSans-48"/>
      </g>
     </g>
    </g>
    <g id="ytick_2">
     <g id="line2d_9">
      <path clip-path="url(#pe9c565fcf0)" d="M 166.77 409.8928 
L 1200.744 409.8928 
" style="fill:none;stroke:#cccccc;stroke-linecap:round;"/>
     </g>
     <g id="text_9">
      <!-- 100 -->
      <g style="fill:#262626;" transform="translate(136.27375 414.071941)scale(0.11 -0.11)">
       <use xlink:href="#DejaVuSans-49"/>
       <use x="63.623047" xlink:href="#DejaVuSans-48"/>
       <use x="127.246094" xlink:href="#DejaVuSans-48"/>
      </g>
     </g>
    </g>
    <g id="ytick_3">
     <g id="line2d_10">
      <path clip-path="url(#pe9c565fcf0)" d="M 166.77 301.9248 
L 1200.744 301.9248 
" style="fill:none;stroke:#cccccc;stroke-linecap:round;"/>
     </g>
     <g id="text_10">
      <!-- 150 -->
      <g style="fill:#262626;" transform="translate(136.27375 306.103941)scale(0.11 -0.11)">
       <use xlink:href="#DejaVuSans-49"/>
       <use x="63.623047" xlink:href="#DejaVuSans-53"/>
       <use x="127.246094" xlink:href="#DejaVuSans-48"/>
      </g>
     </g>
    </g>
    <g id="ytick_4">
     <g id="line2d_11">
      <path clip-path="url(#pe9c565fcf0)" d="M 166.77 193.9568 
L 1200.744 193.9568 
" style="fill:none;stroke:#cccccc;stroke-linecap:round;"/>
     </g>
     <g id="text_11">
      <!-- 200 -->
      <g style="fill:#262626;" transform="translate(136.27375 198.135941)scale(0.11 -0.11)">
       <use xlink:href="#DejaVuSans-50"/>
       <use x="63.623047" xlink:href="#DejaVuSans-48"/>
       <use x="127.246094" xlink:href="#DejaVuSans-48"/>
      </g>
     </g>
    </g>
    <g id="ytick_5">
     <g id="line2d_12">
      <path clip-path="url(#pe9c565fcf0)" d="M 166.77 85.9888 
L 1200.744 85.9888 
" style="fill:none;stroke:#cccccc;stroke-linecap:round;"/>
     </g>
     <g id="text_12">
      <!-- 250 -->
      <g style="fill:#262626;" transform="translate(136.27375 90.167941)scale(0.11 -0.11)">
       <use xlink:href="#DejaVuSans-50"/>
       <use x="63.623047" xlink:href="#DejaVuSans-53"/>
       <use x="127.246094" xlink:href="#DejaVuSans-48"/>
      </g>
     </g>
    </g>
   </g>
   <g id="line2d_13">
    <path clip-path="url(#pe9c565fcf0)" d="M 213.768818 550.2512 
L 216.912552 507.064 
L 223.200019 593.4384 
L 226.343753 474.6736 
L 229.487486 528.6576 
L 238.918687 528.6576 
L 242.062421 485.4704 
L 245.206155 431.4864 
L 248.349888 431.4864 
L 251.493622 485.4704 
L 254.637356 485.4704 
L 257.781089 593.4384 
L 260.924823 388.2992 
L 264.068557 431.4864 
L 267.21229 431.4864 
L 270.356024 453.08 
L 273.499758 388.2992 
L 276.643491 453.08 
L 279.787225 463.8768 
L 282.930959 409.8928 
L 286.074692 366.7056 
L 289.218426 388.2992 
L 292.36216 420.6896 
L 295.505893 377.5024 
L 298.649627 377.5024 
L 301.793361 355.9088 
L 304.937094 345.112 
L 311.224562 345.112 
L 314.368295 323.5184 
L 317.512029 345.112 
L 320.655763 345.112 
L 323.799496 334.3152 
L 326.94323 377.5024 
L 333.230697 377.5024 
L 336.374431 571.8448 
L 339.518164 409.8928 
L 342.661898 312.7216 
L 345.805632 334.3152 
L 352.093099 334.3152 
L 355.236833 345.112 
L 358.380566 334.3152 
L 361.5243 388.2992 
L 364.668034 291.128 
L 367.811767 334.3152 
L 370.955501 323.5184 
L 377.242968 323.5184 
L 383.530436 301.9248 
L 389.817903 301.9248 
L 392.961637 334.3152 
L 396.10537 334.3152 
L 399.249104 345.112 
L 402.392838 345.112 
L 405.536571 301.9248 
L 408.680305 345.112 
L 418.111506 345.112 
L 421.25524 301.9248 
L 424.398973 312.7216 
L 427.542707 291.128 
L 436.973908 291.128 
L 440.117642 301.9248 
L 443.261375 323.5184 
L 446.405109 334.3152 
L 452.692576 334.3152 
L 455.83631 323.5184 
L 458.980043 291.128 
L 462.123777 312.7216 
L 465.267511 312.7216 
L 468.411244 291.128 
L 474.698712 291.128 
L 477.842445 323.5184 
L 484.129913 301.9248 
L 493.561114 301.9248 
L 496.704847 291.128 
L 509.279782 291.128 
L 512.423516 312.7216 
L 515.567249 291.128 
L 521.854717 291.128 
L 524.99845 323.5184 
L 528.142184 291.128 
L 531.285918 301.9248 
L 534.429651 291.128 
L 537.573385 291.128 
L 540.717119 323.5184 
L 543.860852 345.112 
L 547.004586 355.9088 
L 550.14832 334.3152 
L 553.292053 301.9248 
L 556.435787 312.7216 
L 559.579521 355.9088 
L 562.723254 312.7216 
L 565.866988 345.112 
L 569.010721 334.3152 
L 572.154455 301.9248 
L 581.585656 301.9248 
L 584.72939 312.7216 
L 587.873123 301.9248 
L 591.016857 312.7216 
L 594.160591 301.9248 
L 613.022993 301.9248 
L 619.31046 323.5184 
L 622.454194 301.9248 
L 631.885395 301.9248 
L 638.172862 323.5184 
L 641.316596 323.5184 
L 644.460329 312.7216 
L 647.604063 323.5184 
L 650.747797 312.7216 
L 653.89153 323.5184 
L 660.178998 301.9248 
L 685.328867 301.9248 
L 688.4726 312.7216 
L 691.616334 301.9248 
L 694.760068 301.9248 
L 697.903801 312.7216 
L 701.047535 312.7216 
L 704.191269 301.9248 
L 707.335002 334.3152 
L 710.478736 301.9248 
L 713.62247 323.5184 
L 719.909937 323.5184 
L 723.053671 301.9248 
L 729.341138 301.9248 
L 732.484872 312.7216 
L 735.628605 355.9088 
L 738.772339 291.128 
L 741.916073 312.7216 
L 745.059806 291.128 
L 748.20354 312.7216 
L 751.347274 301.9248 
L 754.491007 301.9248 
L 757.634741 280.3312 
L 760.778475 291.128 
L 763.922208 269.5344 
L 767.065942 269.5344 
L 770.209676 291.128 
L 776.497143 291.128 
L 779.640877 269.5344 
L 782.78461 323.5184 
L 785.928344 269.5344 
L 789.072078 323.5184 
L 792.215811 269.5344 
L 795.359545 258.7376 
L 801.647012 258.7376 
L 804.790746 247.9408 
L 807.934479 291.128 
L 811.078213 312.7216 
L 814.221947 312.7216 
L 817.36568 204.7536 
L 820.509414 237.144 
L 823.653148 247.9408 
L 826.796881 247.9408 
L 829.940615 291.128 
L 833.084349 280.3312 
L 836.228082 237.144 
L 839.371816 312.7216 
L 842.51555 215.5504 
L 845.659283 258.7376 
L 848.803017 204.7536 
L 851.946751 237.144 
L 858.234218 193.9568 
L 861.377952 226.3472 
L 864.521685 237.144 
L 867.665419 237.144 
L 873.952886 215.5504 
L 877.09662 247.9408 
L 883.384087 247.9408 
L 889.671555 183.16 
L 892.815288 237.144 
L 902.246489 237.144 
L 905.390223 183.16 
L 908.533957 215.5504 
L 911.67769 215.5504 
L 914.821424 226.3472 
L 917.965157 204.7536 
L 921.108891 247.9408 
L 924.252625 247.9408 
L 927.396358 269.5344 
L 930.540092 226.3472 
L 933.683826 215.5504 
L 936.827559 215.5504 
L 939.971293 161.5664 
L 943.115027 193.9568 
L 946.25876 161.5664 
L 949.402494 193.9568 
L 952.546228 193.9568 
L 955.689961 139.9728 
L 958.833695 139.9728 
L 961.977429 129.176 
L 965.121162 161.5664 
L 968.264896 150.7696 
L 971.40863 150.7696 
L 974.552363 161.5664 
L 977.696097 139.9728 
L 980.839831 107.5824 
L 983.983564 150.7696 
L 987.127298 150.7696 
L 990.271032 118.3792 
L 993.414765 129.176 
L 1002.845966 129.176 
L 1005.9897 139.9728 
L 1009.133434 161.5664 
L 1012.277167 129.176 
L 1015.420901 129.176 
L 1018.564635 150.7696 
L 1021.708368 150.7696 
L 1024.852102 139.9728 
L 1027.995836 139.9728 
L 1031.139569 172.3632 
L 1034.283303 193.9568 
L 1040.57077 193.9568 
L 1043.714504 118.3792 
L 1046.858237 118.3792 
L 1050.001971 215.5504 
L 1053.145705 139.9728 
L 1056.289438 118.3792 
L 1065.720639 118.3792 
L 1068.864373 172.3632 
L 1072.008107 118.3792 
L 1081.439308 118.3792 
L 1084.583041 161.5664 
L 1087.726775 129.176 
L 1090.870509 107.5824 
L 1094.014242 107.5824 
L 1097.157976 215.5504 
L 1100.30171 150.7696 
L 1103.445443 129.176 
L 1106.589177 150.7696 
L 1109.732911 150.7696 
L 1112.876644 129.176 
L 1116.020378 129.176 
L 1119.164112 150.7696 
L 1122.307845 129.176 
L 1125.451579 129.176 
L 1128.595313 161.5664 
L 1131.739046 150.7696 
L 1134.88278 129.176 
L 1138.026514 139.9728 
L 1141.170247 129.176 
L 1144.313981 150.7696 
L 1150.601448 150.7696 
L 1153.745182 139.9728 
L 1153.745182 139.9728 
" style="fill:none;stroke:#4c72b0;stroke-linecap:round;stroke-width:1.5;"/>
   </g>
   <g id="line2d_14">
    <path clip-path="url(#pe9c565fcf0)" d="M 213.768818 553.91601 
L 216.912552 545.658894 
L 220.056285 533.141585 
L 223.200019 531.04216 
L 226.343753 513.581504 
L 229.487486 502.868856 
L 232.63122 497.754445 
L 235.774954 497.754445 
L 238.918687 490.373985 
L 242.062421 486.516505 
L 245.206155 480.320025 
L 248.349888 480.173138 
L 251.493622 479.129142 
L 254.637356 473.582272 
L 257.781089 468.619066 
L 260.924823 456.071048 
L 264.068557 420.094488 
L 267.21229 420.094488 
L 270.356024 416.780867 
L 276.643491 404.613264 
L 279.787225 392.131227 
L 282.930959 392.076515 
L 286.074692 391.009636 
L 289.218426 386.874179 
L 292.36216 376.671849 
L 295.505893 373.606303 
L 298.649627 360.926373 
L 301.793361 358.415066 
L 304.937094 353.850116 
L 308.080828 353.850116 
L 311.224562 351.223075 
L 314.368295 350.452986 
L 317.512029 349.185347 
L 320.655763 349.185347 
L 323.799496 340.82847 
L 326.94323 338.847398 
L 330.086964 338.847398 
L 333.230697 337.653055 
L 336.374431 335.607435 
L 339.518164 334.011408 
L 342.661898 330.838959 
L 345.805632 328.562794 
L 352.093099 328.562761 
L 355.236833 327.826576 
L 361.5243 327.280344 
L 364.668034 326.187847 
L 367.811767 323.934845 
L 370.955501 322.929466 
L 374.099235 322.095982 
L 380.386702 321.787215 
L 389.817903 321.787215 
L 392.961637 321.537295 
L 396.10537 321.537295 
L 399.249104 321.118247 
L 402.392838 321.118247 
L 408.680305 320.993864 
L 418.111506 320.993864 
L 421.25524 320.694981 
L 465.267511 320.32829 
L 468.411244 320.141105 
L 477.842445 320.071022 
L 484.129913 319.96542 
L 493.561114 319.96542 
L 496.704847 319.823145 
L 515.567249 319.761728 
L 524.99845 319.4982 
L 534.429651 318.887453 
L 537.573385 318.787123 
L 540.717119 318.373347 
L 547.004586 318.277168 
L 550.14832 317.866719 
L 553.292053 317.765532 
L 556.435787 317.486782 
L 562.723254 317.387275 
L 575.298189 317.207241 
L 578.441922 317.207241 
L 581.585656 317.059496 
L 587.873123 316.16855 
L 594.160591 316.140246 
L 597.304324 316.028449 
L 603.591792 316.028449 
L 606.735525 315.719748 
L 616.166726 315.699616 
L 619.31046 315.210123 
L 622.454194 315.026101 
L 631.885395 314.971537 
L 635.029128 314.946793 
L 638.172862 314.807483 
L 653.89153 314.80745 
L 660.178998 314.320691 
L 669.610199 314.218977 
L 672.753932 314.086291 
L 694.760068 314.02863 
L 701.047535 313.940523 
L 707.335002 313.846289 
L 713.62247 313.479696 
L 716.766203 313.479696 
L 719.909937 313.084338 
L 726.197404 313.063119 
L 729.341138 312.534514 
L 735.628605 308.011377 
L 738.772339 305.34885 
L 741.916073 305.116327 
L 745.059806 304.737708 
L 748.20354 302.244605 
L 751.347274 300.591345 
L 757.634741 300.591345 
L 760.778475 297.36644 
L 763.922208 294.502824 
L 767.065942 288.100428 
L 770.209676 286.574023 
L 779.640877 286.57399 
L 782.78461 286.414384 
L 785.928344 284.105895 
L 789.072078 283.468559 
L 792.215811 280.009352 
L 795.359545 279.330928 
L 801.647012 279.330928 
L 804.790746 270.9269 
L 807.934479 268.824674 
L 811.078213 266.392132 
L 814.221947 265.87987 
L 817.36568 260.134054 
L 820.509414 260.005486 
L 823.653148 259.335035 
L 826.796881 259.335035 
L 829.940615 254.620134 
L 833.084349 253.381375 
L 836.228082 252.268284 
L 839.371816 250.627677 
L 842.51555 250.496045 
L 845.659283 248.575633 
L 848.803017 245.811687 
L 851.946751 244.569106 
L 855.090484 244.112529 
L 858.234218 243.905279 
L 861.377952 241.790565 
L 864.521685 238.264867 
L 867.665419 238.264867 
L 870.809153 235.615288 
L 873.952886 224.066093 
L 877.09662 222.266769 
L 883.384087 222.266769 
L 886.527821 209.250246 
L 889.671555 207.889344 
L 892.815288 197.345166 
L 899.102756 197.345166 
L 902.246489 196.149636 
L 905.390223 195.640439 
L 908.533957 194.38995 
L 911.67769 194.38995 
L 914.821424 194.264612 
L 917.965157 193.941413 
L 921.108891 191.142574 
L 927.396358 191.058883 
L 930.540092 190.878915 
L 933.683826 190.503261 
L 939.971293 190.414858 
L 943.115027 188.299452 
L 946.25876 188.079187 
L 952.546228 187.986731 
L 955.689961 187.190546 
L 958.833695 187.190546 
L 961.977429 184.50904 
L 965.121162 184.278296 
L 971.40863 184.278296 
L 974.552363 183.50366 
L 977.696097 178.526879 
L 980.839831 177.34868 
L 983.983564 177.01161 
L 987.127298 176.946305 
L 990.271032 176.516054 
L 993.414765 176.516054 
L 996.558499 176.332461 
L 1009.133434 176.296546 
L 1012.277167 175.168233 
L 1021.708368 175.123027 
L 1024.852102 174.537387 
L 1027.995836 174.537387 
L 1031.139569 174.187401 
L 1034.283303 170.634025 
L 1040.57077 170.634025 
L 1043.714504 169.596586 
L 1046.858237 169.596586 
L 1050.001971 168.792954 
L 1053.145705 168.369392 
L 1072.008107 168.369392 
L 1075.15184 168.107545 
L 1078.295574 167.128096 
L 1081.439308 167.128096 
L 1084.583041 165.780605 
L 1087.726775 162.882787 
L 1090.870509 161.234173 
L 1094.014242 161.234173 
L 1097.157976 159.414025 
L 1100.30171 159.349379 
L 1103.445443 157.914506 
L 1125.451579 157.914506 
L 1128.595313 157.537337 
L 1131.739046 156.980462 
L 1134.88278 156.980462 
L 1138.026514 155.548489 
L 1141.170247 152.853572 
L 1153.745182 152.853572 
L 1153.745182 152.853572 
" style="fill:none;stroke:#dd8452;stroke-dasharray:6,2.25;stroke-dashoffset:0;stroke-width:1.5;"/>
   </g>
   <g id="line2d_15"/>
   <g id="line2d_16"/>
   <g id="patch_3">
    <path d="M 166.77 617.7312 
L 166.77 83.2896 
" style="fill:none;stroke:#cccccc;stroke-linecap:square;stroke-linejoin:miter;stroke-width:1.25;"/>
   </g>
   <g id="patch_4">
    <path d="M 1200.744 617.7312 
L 1200.744 83.2896 
" style="fill:none;stroke:#cccccc;stroke-linecap:square;stroke-linejoin:miter;stroke-width:1.25;"/>
   </g>
   <g id="patch_5">
    <path d="M 166.77 617.7312 
L 1200.744 617.7312 
" style="fill:none;stroke:#cccccc;stroke-linecap:square;stroke-linejoin:miter;stroke-width:1.25;"/>
   </g>
   <g id="patch_6">
    <path d="M 166.77 83.2896 
L 1200.744 83.2896 
" style="fill:none;stroke:#cccccc;stroke-linecap:square;stroke-linejoin:miter;stroke-width:1.25;"/>
   </g>
   <g id="text_13">
    <!-- Predicition -->
    <defs>
     <path d="M 19.671875 64.796875 
L 19.671875 37.40625 
L 32.078125 37.40625 
Q 38.96875 37.40625 42.71875 40.96875 
Q 46.484375 44.53125 46.484375 51.125 
Q 46.484375 57.671875 42.71875 61.234375 
Q 38.96875 64.796875 32.078125 64.796875 
z
M 9.8125 72.90625 
L 32.078125 72.90625 
Q 44.34375 72.90625 50.609375 67.359375 
Q 56.890625 61.8125 56.890625 51.125 
Q 56.890625 40.328125 50.609375 34.8125 
Q 44.34375 29.296875 32.078125 29.296875 
L 19.671875 29.296875 
L 19.671875 0 
L 9.8125 0 
z
" id="DejaVuSans-80"/>
     <path d="M 41.109375 46.296875 
Q 39.59375 47.171875 37.8125 47.578125 
Q 36.03125 48 33.890625 48 
Q 26.265625 48 22.1875 43.046875 
Q 18.109375 38.09375 18.109375 28.8125 
L 18.109375 0 
L 9.078125 0 
L 9.078125 54.6875 
L 18.109375 54.6875 
L 18.109375 46.1875 
Q 20.953125 51.171875 25.484375 53.578125 
Q 30.03125 56 36.53125 56 
Q 37.453125 56 38.578125 55.875 
Q 39.703125 55.765625 41.0625 55.515625 
z
" id="DejaVuSans-114"/>
     <path d="M 56.203125 29.59375 
L 56.203125 25.203125 
L 14.890625 25.203125 
Q 15.484375 15.921875 20.484375 11.0625 
Q 25.484375 6.203125 34.421875 6.203125 
Q 39.59375 6.203125 44.453125 7.46875 
Q 49.3125 8.734375 54.109375 11.28125 
L 54.109375 2.78125 
Q 49.265625 0.734375 44.1875 -0.34375 
Q 39.109375 -1.421875 33.890625 -1.421875 
Q 20.796875 -1.421875 13.15625 6.1875 
Q 5.515625 13.8125 5.515625 26.8125 
Q 5.515625 40.234375 12.765625 48.109375 
Q 20.015625 56 32.328125 56 
Q 43.359375 56 49.78125 48.890625 
Q 56.203125 41.796875 56.203125 29.59375 
z
M 47.21875 32.234375 
Q 47.125 39.59375 43.09375 43.984375 
Q 39.0625 48.390625 32.421875 48.390625 
Q 24.90625 48.390625 20.390625 44.140625 
Q 15.875 39.890625 15.1875 32.171875 
z
" id="DejaVuSans-101"/>
     <path d="M 45.40625 46.390625 
L 45.40625 75.984375 
L 54.390625 75.984375 
L 54.390625 0 
L 45.40625 0 
L 45.40625 8.203125 
Q 42.578125 3.328125 38.25 0.953125 
Q 33.9375 -1.421875 27.875 -1.421875 
Q 17.96875 -1.421875 11.734375 6.484375 
Q 5.515625 14.40625 5.515625 27.296875 
Q 5.515625 40.1875 11.734375 48.09375 
Q 17.96875 56 27.875 56 
Q 33.9375 56 38.25 53.625 
Q 42.578125 51.265625 45.40625 46.390625 
z
M 14.796875 27.296875 
Q 14.796875 17.390625 18.875 11.75 
Q 22.953125 6.109375 30.078125 6.109375 
Q 37.203125 6.109375 41.296875 11.75 
Q 45.40625 17.390625 45.40625 27.296875 
Q 45.40625 37.203125 41.296875 42.84375 
Q 37.203125 48.484375 30.078125 48.484375 
Q 22.953125 48.484375 18.875 42.84375 
Q 14.796875 37.203125 14.796875 27.296875 
z
" id="DejaVuSans-100"/>
     <path d="M 9.421875 54.6875 
L 18.40625 54.6875 
L 18.40625 0 
L 9.421875 0 
z
M 9.421875 75.984375 
L 18.40625 75.984375 
L 18.40625 64.59375 
L 9.421875 64.59375 
z
" id="DejaVuSans-105"/>
     <path d="M 48.78125 52.59375 
L 48.78125 44.1875 
Q 44.96875 46.296875 41.140625 47.34375 
Q 37.3125 48.390625 33.40625 48.390625 
Q 24.65625 48.390625 19.8125 42.84375 
Q 14.984375 37.3125 14.984375 27.296875 
Q 14.984375 17.28125 19.8125 11.734375 
Q 24.65625 6.203125 33.40625 6.203125 
Q 37.3125 6.203125 41.140625 7.25 
Q 44.96875 8.296875 48.78125 10.40625 
L 48.78125 2.09375 
Q 45.015625 0.34375 40.984375 -0.53125 
Q 36.96875 -1.421875 32.421875 -1.421875 
Q 20.0625 -1.421875 12.78125 6.34375 
Q 5.515625 14.109375 5.515625 27.296875 
Q 5.515625 40.671875 12.859375 48.328125 
Q 20.21875 56 33.015625 56 
Q 37.15625 56 41.109375 55.140625 
Q 45.0625 54.296875 48.78125 52.59375 
z
" id="DejaVuSans-99"/>
     <path d="M 18.3125 70.21875 
L 18.3125 54.6875 
L 36.8125 54.6875 
L 36.8125 47.703125 
L 18.3125 47.703125 
L 18.3125 18.015625 
Q 18.3125 11.328125 20.140625 9.421875 
Q 21.96875 7.515625 27.59375 7.515625 
L 36.8125 7.515625 
L 36.8125 0 
L 27.59375 0 
Q 17.1875 0 13.234375 3.875 
Q 9.28125 7.765625 9.28125 18.015625 
L 9.28125 47.703125 
L 2.6875 47.703125 
L 2.6875 54.6875 
L 9.28125 54.6875 
L 9.28125 70.21875 
z
" id="DejaVuSans-116"/>
     <path d="M 30.609375 48.390625 
Q 23.390625 48.390625 19.1875 42.75 
Q 14.984375 37.109375 14.984375 27.296875 
Q 14.984375 17.484375 19.15625 11.84375 
Q 23.34375 6.203125 30.609375 6.203125 
Q 37.796875 6.203125 41.984375 11.859375 
Q 46.1875 17.53125 46.1875 27.296875 
Q 46.1875 37.015625 41.984375 42.703125 
Q 37.796875 48.390625 30.609375 48.390625 
z
M 30.609375 56 
Q 42.328125 56 49.015625 48.375 
Q 55.71875 40.765625 55.71875 27.296875 
Q 55.71875 13.875 49.015625 6.21875 
Q 42.328125 -1.421875 30.609375 -1.421875 
Q 18.84375 -1.421875 12.171875 6.21875 
Q 5.515625 13.875 5.515625 27.296875 
Q 5.515625 40.765625 12.171875 48.375 
Q 18.84375 56 30.609375 56 
z
" id="DejaVuSans-111"/>
     <path d="M 54.890625 33.015625 
L 54.890625 0 
L 45.90625 0 
L 45.90625 32.71875 
Q 45.90625 40.484375 42.875 44.328125 
Q 39.84375 48.1875 33.796875 48.1875 
Q 26.515625 48.1875 22.3125 43.546875 
Q 18.109375 38.921875 18.109375 30.90625 
L 18.109375 0 
L 9.078125 0 
L 9.078125 54.6875 
L 18.109375 54.6875 
L 18.109375 46.1875 
Q 21.34375 51.125 25.703125 53.5625 
Q 30.078125 56 35.796875 56 
Q 45.21875 56 50.046875 50.171875 
Q 54.890625 44.34375 54.890625 33.015625 
z
" id="DejaVuSans-110"/>
    </defs>
    <g style="fill:#262626;" transform="translate(652.048875 77.2896)scale(0.12 -0.12)">
     <use xlink:href="#DejaVuSans-80"/>
     <use x="60.287109" xlink:href="#DejaVuSans-114"/>
     <use x="101.369141" xlink:href="#DejaVuSans-101"/>
     <use x="162.892578" xlink:href="#DejaVuSans-100"/>
     <use x="226.369141" xlink:href="#DejaVuSans-105"/>
     <use x="254.152344" xlink:href="#DejaVuSans-99"/>
     <use x="309.132812" xlink:href="#DejaVuSans-105"/>
     <use x="336.916016" xlink:href="#DejaVuSans-116"/>
     <use x="376.125" xlink:href="#DejaVuSans-105"/>
     <use x="403.908203" xlink:href="#DejaVuSans-111"/>
     <use x="465.089844" xlink:href="#DejaVuSans-110"/>
    </g>
   </g>
   <g id="legend_1">
    <g id="patch_7">
     <path d="M 1116.728063 124.381475 
L 1193.044 124.381475 
Q 1195.244 124.381475 1195.244 122.181475 
L 1195.244 90.9896 
Q 1195.244 88.7896 1193.044 88.7896 
L 1116.728063 88.7896 
Q 1114.528063 88.7896 1114.528063 90.9896 
L 1114.528063 122.181475 
Q 1114.528063 124.381475 1116.728063 124.381475 
z
" style="fill:#ffffff;opacity:0.8;stroke:#cccccc;stroke-linejoin:miter;"/>
    </g>
    <g id="line2d_17">
     <path d="M 1118.928063 97.697881 
L 1140.928063 97.697881 
" style="fill:none;stroke:#4c72b0;stroke-linecap:round;stroke-width:1.5;"/>
    </g>
    <g id="line2d_18"/>
    <g id="text_14">
     <!-- predict -->
     <defs>
      <path d="M 18.109375 8.203125 
L 18.109375 -20.796875 
L 9.078125 -20.796875 
L 9.078125 54.6875 
L 18.109375 54.6875 
L 18.109375 46.390625 
Q 20.953125 51.265625 25.265625 53.625 
Q 29.59375 56 35.59375 56 
Q 45.5625 56 51.78125 48.09375 
Q 58.015625 40.1875 58.015625 27.296875 
Q 58.015625 14.40625 51.78125 6.484375 
Q 45.5625 -1.421875 35.59375 -1.421875 
Q 29.59375 -1.421875 25.265625 0.953125 
Q 20.953125 3.328125 18.109375 8.203125 
z
M 48.6875 27.296875 
Q 48.6875 37.203125 44.609375 42.84375 
Q 40.53125 48.484375 33.40625 48.484375 
Q 26.265625 48.484375 22.1875 42.84375 
Q 18.109375 37.203125 18.109375 27.296875 
Q 18.109375 17.390625 22.1875 11.75 
Q 26.265625 6.109375 33.40625 6.109375 
Q 40.53125 6.109375 44.609375 11.75 
Q 48.6875 17.390625 48.6875 27.296875 
z
" id="DejaVuSans-112"/>
     </defs>
     <g style="fill:#262626;" transform="translate(1149.728063 101.547881)scale(0.11 -0.11)">
      <use xlink:href="#DejaVuSans-112"/>
      <use x="63.476562" xlink:href="#DejaVuSans-114"/>
      <use x="104.558594" xlink:href="#DejaVuSans-101"/>
      <use x="166.082031" xlink:href="#DejaVuSans-100"/>
      <use x="229.558594" xlink:href="#DejaVuSans-105"/>
      <use x="257.341797" xlink:href="#DejaVuSans-99"/>
      <use x="312.322266" xlink:href="#DejaVuSans-116"/>
     </g>
    </g>
    <g id="line2d_19">
     <path d="M 1118.928063 113.843819 
L 1140.928063 113.843819 
" style="fill:none;stroke:#dd8452;stroke-dasharray:6,2.25;stroke-dashoffset:0;stroke-width:1.5;"/>
    </g>
    <g id="line2d_20"/>
    <g id="text_15">
     <!-- original -->
     <defs>
      <path d="M 45.40625 27.984375 
Q 45.40625 37.75 41.375 43.109375 
Q 37.359375 48.484375 30.078125 48.484375 
Q 22.859375 48.484375 18.828125 43.109375 
Q 14.796875 37.75 14.796875 27.984375 
Q 14.796875 18.265625 18.828125 12.890625 
Q 22.859375 7.515625 30.078125 7.515625 
Q 37.359375 7.515625 41.375 12.890625 
Q 45.40625 18.265625 45.40625 27.984375 
z
M 54.390625 6.78125 
Q 54.390625 -7.171875 48.1875 -13.984375 
Q 42 -20.796875 29.203125 -20.796875 
Q 24.46875 -20.796875 20.265625 -20.09375 
Q 16.0625 -19.390625 12.109375 -17.921875 
L 12.109375 -9.1875 
Q 16.0625 -11.328125 19.921875 -12.34375 
Q 23.78125 -13.375 27.78125 -13.375 
Q 36.625 -13.375 41.015625 -8.765625 
Q 45.40625 -4.15625 45.40625 5.171875 
L 45.40625 9.625 
Q 42.625 4.78125 38.28125 2.390625 
Q 33.9375 0 27.875 0 
Q 17.828125 0 11.671875 7.65625 
Q 5.515625 15.328125 5.515625 27.984375 
Q 5.515625 40.671875 11.671875 48.328125 
Q 17.828125 56 27.875 56 
Q 33.9375 56 38.28125 53.609375 
Q 42.625 51.21875 45.40625 46.390625 
L 45.40625 54.6875 
L 54.390625 54.6875 
z
" id="DejaVuSans-103"/>
      <path d="M 34.28125 27.484375 
Q 23.390625 27.484375 19.1875 25 
Q 14.984375 22.515625 14.984375 16.5 
Q 14.984375 11.71875 18.140625 8.90625 
Q 21.296875 6.109375 26.703125 6.109375 
Q 34.1875 6.109375 38.703125 11.40625 
Q 43.21875 16.703125 43.21875 25.484375 
L 43.21875 27.484375 
z
M 52.203125 31.203125 
L 52.203125 0 
L 43.21875 0 
L 43.21875 8.296875 
Q 40.140625 3.328125 35.546875 0.953125 
Q 30.953125 -1.421875 24.3125 -1.421875 
Q 15.921875 -1.421875 10.953125 3.296875 
Q 6 8.015625 6 15.921875 
Q 6 25.140625 12.171875 29.828125 
Q 18.359375 34.515625 30.609375 34.515625 
L 43.21875 34.515625 
L 43.21875 35.40625 
Q 43.21875 41.609375 39.140625 45 
Q 35.0625 48.390625 27.6875 48.390625 
Q 23 48.390625 18.546875 47.265625 
Q 14.109375 46.140625 10.015625 43.890625 
L 10.015625 52.203125 
Q 14.9375 54.109375 19.578125 55.046875 
Q 24.21875 56 28.609375 56 
Q 40.484375 56 46.34375 49.84375 
Q 52.203125 43.703125 52.203125 31.203125 
z
" id="DejaVuSans-97"/>
      <path d="M 9.421875 75.984375 
L 18.40625 75.984375 
L 18.40625 0 
L 9.421875 0 
z
" id="DejaVuSans-108"/>
     </defs>
     <g style="fill:#262626;" transform="translate(1149.728063 117.693819)scale(0.11 -0.11)">
      <use xlink:href="#DejaVuSans-111"/>
      <use x="61.181641" xlink:href="#DejaVuSans-114"/>
      <use x="102.294922" xlink:href="#DejaVuSans-105"/>
      <use x="130.078125" xlink:href="#DejaVuSans-103"/>
      <use x="193.554688" xlink:href="#DejaVuSans-105"/>
      <use x="221.337891" xlink:href="#DejaVuSans-110"/>
      <use x="284.716797" xlink:href="#DejaVuSans-97"/>
      <use x="345.996094" xlink:href="#DejaVuSans-108"/>
     </g>
    </g>
   </g>
  </g>
 </g>
 <defs>
  <clipPath id="pe9c565fcf0">
   <rect height="534.4416" width="1033.974" x="166.77" y="83.2896"/>
  </clipPath>
 </defs>
</svg>
