<?xml version="1.0" encoding="UTF-8" standalone="no"?>
<svg
   xmlns:dc="http://purl.org/dc/elements/1.1/"
   xmlns:cc="http://creativecommons.org/ns#"
   xmlns:rdf="http://www.w3.org/1999/02/22-rdf-syntax-ns#"
   xmlns:svg="http://www.w3.org/2000/svg"
   xmlns="http://www.w3.org/2000/svg"
   xmlns:xlink="http://www.w3.org/1999/xlink"
   xmlns:sodipodi="http://sodipodi.sourceforge.net/DTD/sodipodi-0.dtd"
   xmlns:inkscape="http://www.inkscape.org/namespaces/inkscape"
   height="279.61008pt"
   version="1.1"
   viewBox="0 0 280.36813 279.61008"
   width="280.36813pt"
   id="svg1233"
   sodipodi:docname="tower_loop_cat.svg"
   inkscape:version="1.0.1 (c497b03c, 2020-09-10)">
  <sodipodi:namedview
     pagecolor="#ffffff"
     bordercolor="#666666"
     borderopacity="1"
     objecttolerance="10"
     gridtolerance="10"
     guidetolerance="10"
     inkscape:pageopacity="0"
     inkscape:pageshadow="2"
     inkscape:window-width="1440"
     inkscape:window-height="855"
     id="namedview1235"
     showgrid="false"
     inkscape:zoom="1.7421875"
     inkscape:cx="195.69083"
     inkscape:cy="132.21405"
     inkscape:window-x="0"
     inkscape:window-y="23"
     inkscape:window-maximized="1"
     inkscape:current-layer="figure_1" />
  <metadata
     id="metadata833">
    <rdf:RDF>
      <cc:Work>
        <dc:type
           rdf:resource="http://purl.org/dc/dcmitype/StillImage" />
        <dc:date>2020-11-08T09:30:19.211751</dc:date>
        <dc:format>image/svg+xml</dc:format>
        <dc:creator>
          <cc:Agent>
            <dc:title>Matplotlib v3.3.1, https://matplotlib.org/</dc:title>
          </cc:Agent>
        </dc:creator>
      </cc:Work>
    </rdf:RDF>
  </metadata>
  <defs
     id="defs837">
    <style
       type="text/css"
       id="style835">*{stroke-linecap:butt;stroke-linejoin:round;}</style>
  </defs>
  <g
     id="figure_1"
     transform="translate(2.7681255,-10.4)">
    <g
       id="axes_1">
      <g
         id="patch_2">
        <path
           d="M 43.36,248.456 H 277.2 V 10.8 H 43.36 Z"
           style="fill:#ffffff"
           id="path842" />
      </g>
      <g
         id="patch_3">
        <path
           clip-path="url(#pb4b10efbe1)"
           d="M 48.0368,119.21591 H 85.4512 V 81.927604 H 48.0368 Z"
           style="fill:#3274a1;stroke:#3d3d3d;stroke-width:1.5;stroke-linejoin:miter"
           id="path845" />
      </g>
      <g
         id="patch_4">
        <path
           clip-path="url(#pb4b10efbe1)"
           d="m 94.8048,224.89864 h 37.4144 V 179.28066 H 94.8048 Z"
           style="fill:#e1812c;stroke:#3d3d3d;stroke-width:1.5;stroke-linejoin:miter"
           id="path848" />
      </g>
      <g
         id="patch_5">
        <path
           clip-path="url(#pb4b10efbe1)"
           d="m 141.5728,175.70151 h 37.4144 V 83.229115 h -37.4144 z"
           style="fill:#3a923a;stroke:#3d3d3d;stroke-width:1.5;stroke-linejoin:miter"
           id="path851" />
      </g>
      <g
         id="patch_6">
        <path
           clip-path="url(#pb4b10efbe1)"
           d="m 188.3408,228.9984 h 37.4144 v -59.60922 h -37.4144 z"
           style="fill:#c03d3e;stroke:#3d3d3d;stroke-width:1.5;stroke-linejoin:miter"
           id="path854" />
      </g>
      <g
         id="patch_7">
        <path
           clip-path="url(#pb4b10efbe1)"
           d="m 235.1088,212.66443 h 37.4144 v -15.74829 h -37.4144 z"
           style="fill:#9372b2;stroke:#3d3d3d;stroke-width:1.5;stroke-linejoin:miter"
           id="path857" />
      </g>
      <g
         id="matplotlib.axis_1">
        <g
           id="xtick_1">
          <g
             id="line2d_1">
            <defs
               id="defs861">
              <path
                 d="M 0,0 V 3.5"
                 id="m0ea56902c5"
                 style="stroke:#000000;stroke-width:0.8" />
            </defs>
            <g
               id="g865">
              <use
                 style="stroke:#000000;stroke-width:0.8"
                 x="66.744003"
                 xlink:href="#m0ea56902c5"
                 y="248.45599"
                 id="use863"
                 width="100%"
                 height="100%" />
            </g>
          </g>
          <g
             id="text_1">
            <!-- 3+n -->
            <g
               transform="matrix(0.1,0,0,-0.1,56.204156,263.05444)"
               id="g879">
              <defs
                 id="defs871">
                <path
                   d="M 40.578125,39.3125 Q 47.65625,37.796875 51.625,33 q 3.984375,-4.78125 3.984375,-11.8125 0,-10.78125 -7.421875,-16.703125 -7.421875,-5.90625 -21.09375,-5.90625 -4.578125,0 -9.4375,0.90625 -4.859375,0.90625 -10.03125,2.71875 v 9.515625 q 4.09375,-2.390625 8.96875,-3.609375 4.890625,-1.21875 10.21875,-1.21875 9.265625,0 14.125,3.65625 4.859375,3.65625 4.859375,10.640625 0,6.453125 -4.515625,10.078125 -4.515625,3.640625 -12.5625,3.640625 h -8.5 v 8.109375 h 8.890625 q 7.265625,0 11.125,2.90625 3.859375,2.90625 3.859375,8.375 0,5.609375 -3.984375,8.609375 -3.96875,3.015625 -11.390625,3.015625 -4.0625,0 -8.703125,-0.890625 Q 15.375,64.15625 9.8125,62.3125 v 8.78125 q 5.625,1.5625 10.53125,2.34375 4.90625,0.78125 9.25,0.78125 11.234375,0 17.765625,-5.109375 6.546875,-5.09375 6.546875,-13.78125 0,-6.0625 -3.46875,-10.234375 -3.46875,-4.171875 -9.859375,-5.78125 z"
                   id="DejaVuSans-51" />
                <path
                   d="M 46,62.703125 V 35.5 H 73.1875 V 27.203125 H 46 V 0 H 37.796875 V 27.203125 H 10.59375 V 35.5 h 27.203125 v 27.203125 z"
                   id="DejaVuSans-43" />
                <path
                   d="M 54.890625,33.015625 V 0 H 45.90625 v 32.71875 q 0,7.765625 -3.03125,11.609375 -3.03125,3.859375 -9.078125,3.859375 -7.28125,0 -11.484375,-4.640625 -4.203125,-4.625 -4.203125,-12.640625 V 0 h -9.03125 v 54.6875 h 9.03125 v -8.5 q 3.234375,4.9375 7.59375,7.375 4.375,2.4375 10.09375,2.4375 9.421875,0 14.25,-5.828125 4.84375,-5.828125 4.84375,-17.15625 z"
                   id="DejaVuSans-110" />
              </defs>
              <use
                 xlink:href="#DejaVuSans-51"
                 id="use873"
                 x="0"
                 y="0"
                 width="100%"
                 height="100%" />
              <use
                 x="63.623047"
                 xlink:href="#DejaVuSans-43"
                 id="use875"
                 y="0"
                 width="100%"
                 height="100%" />
              <use
                 x="147.41211"
                 xlink:href="#DejaVuSans-110"
                 id="use877"
                 y="0"
                 width="100%"
                 height="100%" />
            </g>
            <!--  -->
            <g
               transform="matrix(0.1,0,0,-0.1,66.744,274.25225)"
               id="g881" />
          </g>
        </g>
        <g
           id="xtick_2">
          <g
             id="line2d_2">
            <g
               id="g887">
              <use
                 style="stroke:#000000;stroke-width:0.8"
                 x="113.512"
                 xlink:href="#m0ea56902c5"
                 y="248.45599"
                 id="use885"
                 width="100%"
                 height="100%" />
            </g>
          </g>
          <g
             id="text_2">
            <!-- 3+paf -->
            <g
               transform="matrix(0.1,0,0,-0.1,98.142469,263.05444)"
               id="g905">
              <defs
                 id="defs893">
                <path
                   d="m 18.109375,8.203125 v -29 H 9.078125 V 54.6875 h 9.03125 v -8.296875 q 2.84375,4.875 7.15625,7.234375 Q 29.59375,56 35.59375,56 q 9.96875,0 16.1875,-7.90625 6.234375,-7.90625 6.234375,-20.796875 0,-12.890625 -6.234375,-20.8125 -6.21875,-7.90625 -16.1875,-7.90625 -6,0 -10.328125,2.375 -4.3125,2.375 -7.15625,7.25 z M 48.6875,27.296875 q 0,9.90625 -4.078125,15.546875 -4.078125,5.640625 -11.203125,5.640625 -7.140625,0 -11.21875,-5.640625 -4.078125,-5.640625 -4.078125,-15.546875 0,-9.90625 4.078125,-15.546875 4.078125,-5.640625 11.21875,-5.640625 7.125,0 11.203125,5.640625 4.078125,5.640625 4.078125,15.546875 z"
                   id="DejaVuSans-112" />
                <path
                   d="m 34.28125,27.484375 q -10.890625,0 -15.09375,-2.484375 -4.203125,-2.484375 -4.203125,-8.5 0,-4.78125 3.15625,-7.59375 3.15625,-2.796875 8.5625,-2.796875 7.484375,0 12,5.296875 4.515625,5.296875 4.515625,14.078125 v 2 z m 17.921875,3.71875 V 0 H 43.21875 v 8.296875 q -3.078125,-4.96875 -7.671875,-7.34375 -4.59375,-2.375 -11.234375,-2.375 -8.390625,0 -13.359375,4.71875 Q 6,8.015625 6,15.921875 q 0,9.21875 6.171875,13.90625 6.1875,4.6875 18.4375,4.6875 H 43.21875 v 0.890625 q 0,6.203125 -4.078125,9.59375 -4.078125,3.390625 -11.453125,3.390625 -4.6875,0 -9.140625,-1.125 -4.4375,-1.125 -8.53125,-3.375 v 8.3125 q 4.921875,1.90625 9.5625,2.84375 Q 24.21875,56 28.609375,56 q 11.875,0 17.734375,-6.15625 5.859375,-6.140625 5.859375,-18.640625 z"
                   id="DejaVuSans-97" />
                <path
                   d="M 37.109375,75.984375 V 68.5 h -8.59375 q -4.828125,0 -6.71875,-1.953125 -1.875,-1.953125 -1.875,-7.03125 V 54.6875 H 34.71875 V 47.703125 H 19.921875 V 0 h -9.03125 V 47.703125 H 2.296875 V 54.6875 h 8.59375 V 58.5 q 0,9.125 4.25,13.296875 4.25,4.1875 13.46875,4.1875 z"
                   id="DejaVuSans-102" />
              </defs>
              <use
                 xlink:href="#DejaVuSans-51"
                 id="use895"
                 x="0"
                 y="0"
                 width="100%"
                 height="100%" />
              <use
                 x="63.623047"
                 xlink:href="#DejaVuSans-43"
                 id="use897"
                 y="0"
                 width="100%"
                 height="100%" />
              <use
                 x="147.41211"
                 xlink:href="#DejaVuSans-112"
                 id="use899"
                 y="0"
                 width="100%"
                 height="100%" />
              <use
                 x="210.88867"
                 xlink:href="#DejaVuSans-97"
                 id="use901"
                 y="0"
                 width="100%"
                 height="100%" />
              <use
                 x="272.16797"
                 xlink:href="#DejaVuSans-102"
                 id="use903"
                 y="0"
                 width="100%"
                 height="100%" />
            </g>
            <!--  -->
            <g
               transform="matrix(0.1,0,0,-0.1,113.512,274.25225)"
               id="g907" />
          </g>
        </g>
        <g
           id="xtick_3">
          <g
             id="line2d_3">
            <g
               id="g913">
              <use
                 style="stroke:#000000;stroke-width:0.8"
                 x="160.28"
                 xlink:href="#m0ea56902c5"
                 y="248.45599"
                 id="use911"
                 width="100%"
                 height="100%" />
            </g>
          </g>
          <g
             id="text_3">
            <!-- 3+af -->
            <g
               transform="matrix(0.1,0,0,-0.1,148.08469,263.05444)"
               id="g924">
              <use
                 xlink:href="#DejaVuSans-51"
                 id="use916"
                 x="0"
                 y="0"
                 width="100%"
                 height="100%" />
              <use
                 x="63.623047"
                 xlink:href="#DejaVuSans-43"
                 id="use918"
                 y="0"
                 width="100%"
                 height="100%" />
              <use
                 x="147.41211"
                 xlink:href="#DejaVuSans-97"
                 id="use920"
                 y="0"
                 width="100%"
                 height="100%" />
              <use
                 x="208.69141"
                 xlink:href="#DejaVuSans-102"
                 id="use922"
                 y="0"
                 width="100%"
                 height="100%" />
            </g>
            <!--  -->
            <g
               transform="matrix(0.1,0,0,-0.1,160.28,274.25225)"
               id="g926" />
          </g>
        </g>
        <g
           id="xtick_4">
          <g
             id="line2d_4">
            <g
               id="g932">
              <use
                 style="stroke:#000000;stroke-width:0.8"
                 x="207.048"
                 xlink:href="#m0ea56902c5"
                 y="248.45599"
                 id="use930"
                 width="100%"
                 height="100%" />
            </g>
          </g>
          <g
             id="text_4">
            <!-- 3+pa -->
            <g
               transform="matrix(0.1,0,0,-0.1,193.43862,263.05444)"
               id="g943">
              <use
                 xlink:href="#DejaVuSans-51"
                 id="use935"
                 x="0"
                 y="0"
                 width="100%"
                 height="100%" />
              <use
                 x="63.623047"
                 xlink:href="#DejaVuSans-43"
                 id="use937"
                 y="0"
                 width="100%"
                 height="100%" />
              <use
                 x="147.41211"
                 xlink:href="#DejaVuSans-112"
                 id="use939"
                 y="0"
                 width="100%"
                 height="100%" />
              <use
                 x="210.88867"
                 xlink:href="#DejaVuSans-97"
                 id="use941"
                 y="0"
                 width="100%"
                 height="100%" />
            </g>
            <!--  -->
            <g
               transform="matrix(0.1,0,0,-0.1,207.048,274.25225)"
               id="g945" />
          </g>
        </g>
        <g
           id="xtick_5">
          <g
             id="line2d_5">
            <g
               id="g951">
              <use
                 style="stroke:#000000;stroke-width:0.8"
                 x="253.81599"
                 xlink:href="#m0ea56902c5"
                 y="248.45599"
                 id="use949"
                 width="100%"
                 height="100%" />
            </g>
          </g>
          <g
             id="text_5">
            <!-- 3+pf -->
            <g
               transform="matrix(0.1,0,0,-0.1,241.51053,263.05444)"
               id="g962">
              <use
                 xlink:href="#DejaVuSans-51"
                 id="use954"
                 x="0"
                 y="0"
                 width="100%"
                 height="100%" />
              <use
                 x="63.623047"
                 xlink:href="#DejaVuSans-43"
                 id="use956"
                 y="0"
                 width="100%"
                 height="100%" />
              <use
                 x="147.41211"
                 xlink:href="#DejaVuSans-112"
                 id="use958"
                 y="0"
                 width="100%"
                 height="100%" />
              <use
                 x="210.88867"
                 xlink:href="#DejaVuSans-102"
                 id="use960"
                 y="0"
                 width="100%"
                 height="100%" />
            </g>
            <!--  -->
            <g
               transform="matrix(0.1,0,0,-0.1,253.816,274.25225)"
               id="g964" />
          </g>
        </g>
        <g
           id="text_6">
          <!-- Settings -->
          <g
             transform="matrix(0.1,0,0,-0.1,139.77219,287.93038)"
             id="g992">
            <defs
               id="defs974">
              <path
                 d="m 53.515625,70.515625 v -9.625 q -5.609375,2.6875 -10.59375,4 -4.984375,1.328125 -9.625,1.328125 -8.046875,0 -12.421875,-3.125 -4.375,-3.125 -4.375,-8.890625 0,-4.84375 2.90625,-7.3125 2.90625,-2.453125 11.015625,-3.96875 L 36.375,41.703125 Q 47.40625,39.59375 52.65625,34.296875 57.90625,29 57.90625,20.125 q 0,-10.609375 -7.109375,-16.078125 -7.09375,-5.46875 -20.8125,-5.46875 -5.171875,0 -11.015625,1.171875 Q 13.140625,0.921875 6.890625,3.21875 V 13.375 q 6,-3.359375 11.765625,-5.078125 5.765625,-1.703125 11.328125,-1.703125 8.4375,0 13.03125,3.3125 4.59375,3.328125 4.59375,9.484375 0,5.359375 -3.296875,8.390625 Q 41.015625,30.8125 33.5,32.328125 L 27.484375,33.5 q -11.03125,2.1875 -15.96875,6.875 -4.921875,4.6875 -4.921875,13.046875 0,9.671875 6.8125,15.234375 6.8125,5.5625 18.765625,5.5625 5.140625,0 10.453125,-0.9375 5.328125,-0.921875 10.890625,-2.765625 z"
                 id="DejaVuSans-83" />
              <path
                 d="m 56.203125,29.59375 v -4.390625 h -41.3125 q 0.59375,-9.28125 5.59375,-14.140625 5,-4.859375 13.9375,-4.859375 5.171875,0 10.03125,1.265625 4.859375,1.265625 9.65625,3.8125 v -8.5 q -4.84375,-2.046875 -9.921875,-3.125 -5.078125,-1.078125 -10.296875,-1.078125 -13.09375,0 -20.734375,7.609375 -7.640625,7.625 -7.640625,20.625 0,13.421875 7.25,21.296875 Q 20.015625,56 32.328125,56 q 11.03125,0 17.453125,-7.109375 6.421875,-7.09375 6.421875,-19.296875 z m -8.984375,2.640625 q -0.09375,7.359375 -4.125,11.75 -4.03125,4.40625 -10.671875,4.40625 -7.515625,0 -12.03125,-4.25 -4.515625,-4.25 -5.203125,-11.96875 z"
                 id="DejaVuSans-101" />
              <path
                 d="M 18.3125,70.21875 V 54.6875 h 18.5 v -6.984375 h -18.5 v -29.6875 q 0,-6.6875 1.828125,-8.59375 1.828125,-1.90625 7.453125,-1.90625 H 36.8125 V 0 H 27.59375 Q 17.1875,0 13.234375,3.875 9.28125,7.765625 9.28125,18.015625 v 29.6875 H 2.6875 V 54.6875 h 6.59375 v 15.53125 z"
                 id="DejaVuSans-116" />
              <path
                 d="M 9.421875,54.6875 H 18.40625 V 0 H 9.421875 Z m 0,21.296875 H 18.40625 V 64.59375 H 9.421875 Z"
                 id="DejaVuSans-105" />
              <path
                 d="m 45.40625,27.984375 q 0,9.765625 -4.03125,15.125 -4.015625,5.375 -11.296875,5.375 -7.21875,0 -11.25,-5.375 -4.03125,-5.359375 -4.03125,-15.125 0,-9.71875 4.03125,-15.09375 4.03125,-5.375 11.25,-5.375 7.28125,0 11.296875,5.375 4.03125,5.375 4.03125,15.09375 z M 54.390625,6.78125 q 0,-13.953125 -6.203125,-20.765625 -6.1875,-6.8125 -18.984375,-6.8125 -4.734375,0 -8.9375,0.703125 -4.203125,0.703125 -8.15625,2.171875 V -9.1875 q 3.953125,-2.140625 7.8125,-3.15625 3.859375,-1.03125 7.859375,-1.03125 8.84375,0 13.234375,4.609375 4.390625,4.609375 4.390625,13.9375 V 9.625 Q 42.625,4.78125 38.28125,2.390625 33.9375,0 27.875,0 17.828125,0 11.671875,7.65625 q -6.15625,7.671875 -6.15625,20.328125 0,12.6875 6.15625,20.34375 Q 17.828125,56 27.875,56 q 6.0625,0 10.40625,-2.390625 4.34375,-2.390625 7.125,-7.21875 V 54.6875 h 8.984375 z"
                 id="DejaVuSans-103" />
              <path
                 d="m 44.28125,53.078125 v -8.5 Q 40.484375,46.53125 36.375,47.5 q -4.09375,0.984375 -8.5,0.984375 -6.6875,0 -10.03125,-2.046875 Q 14.5,44.390625 14.5,40.28125 q 0,-3.125 2.390625,-4.90625 2.390625,-1.78125 9.625,-3.390625 l 3.078125,-0.6875 Q 39.15625,29.25 43.1875,25.515625 47.21875,21.78125 47.21875,15.09375 q 0,-7.625 -6.03125,-12.078125 -6.03125,-4.4375 -16.578125,-4.4375 -4.390625,0 -9.15625,0.859375 Q 10.6875,0.296875 5.421875,2 v 9.28125 q 4.984375,-2.59375 9.8125,-3.890625 4.828125,-1.28125 9.578125,-1.28125 6.34375,0 9.75,2.171875 3.421875,2.171875 3.421875,6.125 0,3.65625 -2.46875,5.609375 -2.453125,1.953125 -10.8125,3.765625 l -3.125,0.734375 q -8.34375,1.75 -12.0625,5.390625 -3.703125,3.640625 -3.703125,9.984375 0,7.71875 5.46875,11.90625 Q 16.75,56 26.8125,56 q 4.96875,0 9.359375,-0.734375 4.40625,-0.71875 8.109375,-2.1875 z"
                 id="DejaVuSans-115" />
            </defs>
            <use
               xlink:href="#DejaVuSans-83"
               id="use976"
               x="0"
               y="0"
               width="100%"
               height="100%" />
            <use
               x="63.476562"
               xlink:href="#DejaVuSans-101"
               id="use978"
               y="0"
               width="100%"
               height="100%" />
            <use
               x="125"
               xlink:href="#DejaVuSans-116"
               id="use980"
               y="0"
               width="100%"
               height="100%" />
            <use
               x="164.20898"
               xlink:href="#DejaVuSans-116"
               id="use982"
               y="0"
               width="100%"
               height="100%" />
            <use
               x="203.41797"
               xlink:href="#DejaVuSans-105"
               id="use984"
               y="0"
               width="100%"
               height="100%" />
            <use
               x="231.20117"
               xlink:href="#DejaVuSans-110"
               id="use986"
               y="0"
               width="100%"
               height="100%" />
            <use
               x="294.58008"
               xlink:href="#DejaVuSans-103"
               id="use988"
               y="0"
               width="100%"
               height="100%" />
            <use
               x="358.05664"
               xlink:href="#DejaVuSans-115"
               id="use990"
               y="0"
               width="100%"
               height="100%" />
          </g>
        </g>
      </g>
      <g
         id="matplotlib.axis_2">
        <g
           id="ytick_1">
          <g
             id="line2d_6">
            <defs
               id="defs997">
              <path
                 d="M 0,0 H -3.5"
                 id="m7a9a615355"
                 style="stroke:#000000;stroke-width:0.8" />
            </defs>
            <g
               id="g1001">
              <use
                 style="stroke:#000000;stroke-width:0.8"
                 x="43.360001"
                 xlink:href="#m7a9a615355"
                 y="236.87254"
                 id="use999"
                 width="100%"
                 height="100%" />
            </g>
          </g>
          <g
             id="text_7">
            <!-- 200 -->
            <g
               transform="matrix(0.1,0,0,-0.1,17.2725,240.67177)"
               id="g1014">
              <defs
                 id="defs1006">
                <path
                   d="M 19.1875,8.296875 H 53.609375 V 0 H 7.328125 v 8.296875 q 5.609375,5.8125 15.296875,15.59375 9.703125,9.796875 12.1875,12.640625 4.734375,5.3125 6.609375,9 1.890625,3.6875 1.890625,7.25 0,5.8125 -4.078125,9.46875 -4.078125,3.671875 -10.625,3.671875 -4.640625,0 -9.796875,-1.609375 -5.140625,-1.609375 -11,-4.890625 v 9.96875 Q 13.765625,71.78125 18.9375,73 q 5.1875,1.21875 9.484375,1.21875 11.328125,0 18.0625,-5.671875 6.734375,-5.65625 6.734375,-15.125 0,-4.5 -1.6875,-8.53125 Q 49.859375,40.875 45.40625,35.40625 44.1875,33.984375 37.640625,27.21875 31.109375,20.453125 19.1875,8.296875 Z"
                   id="DejaVuSans-50" />
                <path
                   d="m 31.78125,66.40625 q -7.609375,0 -11.453125,-7.5 Q 16.5,51.421875 16.5,36.375 q 0,-14.984375 3.828125,-22.484375 3.84375,-7.5 11.453125,-7.5 7.671875,0 11.5,7.5 3.84375,7.5 3.84375,22.484375 0,15.046875 -3.84375,22.53125 -3.828125,7.5 -11.5,7.5 z m 0,7.8125 q 12.265625,0 18.734375,-9.703125 6.46875,-9.6875 6.46875,-28.140625 0,-18.40625 -6.46875,-28.109375 -6.46875,-9.6875 -18.734375,-9.6875 -12.25,0 -18.71875,9.6875 Q 6.59375,17.96875 6.59375,36.375 q 0,18.453125 6.46875,28.140625 6.46875,9.703125 18.71875,9.703125 z"
                   id="DejaVuSans-48" />
              </defs>
              <use
                 xlink:href="#DejaVuSans-50"
                 id="use1008"
                 x="0"
                 y="0"
                 width="100%"
                 height="100%" />
              <use
                 x="63.623047"
                 xlink:href="#DejaVuSans-48"
                 id="use1010"
                 y="0"
                 width="100%"
                 height="100%" />
              <use
                 x="127.24609"
                 xlink:href="#DejaVuSans-48"
                 id="use1012"
                 y="0"
                 width="100%"
                 height="100%" />
            </g>
          </g>
        </g>
        <g
           id="ytick_2">
          <g
             id="line2d_7">
            <g
               id="g1020">
              <use
                 style="stroke:#000000;stroke-width:0.8"
                 x="43.360001"
                 xlink:href="#m7a9a615355"
                 y="184.81209"
                 id="use1018"
                 width="100%"
                 height="100%" />
            </g>
          </g>
          <g
             id="text_8">
            <!-- 400 -->
            <g
               transform="matrix(0.1,0,0,-0.1,17.2725,188.61131)"
               id="g1032">
              <defs
                 id="defs1024">
                <path
                   d="M 37.796875,64.3125 12.890625,25.390625 h 24.90625 z m -2.59375,8.59375 h 12.40625 V 25.390625 h 10.40625 V 17.1875 H 47.609375 V 0 h -9.8125 V 17.1875 H 4.890625 v 9.515625 z"
                   id="DejaVuSans-52" />
              </defs>
              <use
                 xlink:href="#DejaVuSans-52"
                 id="use1026"
                 x="0"
                 y="0"
                 width="100%"
                 height="100%" />
              <use
                 x="63.623047"
                 xlink:href="#DejaVuSans-48"
                 id="use1028"
                 y="0"
                 width="100%"
                 height="100%" />
              <use
                 x="127.24609"
                 xlink:href="#DejaVuSans-48"
                 id="use1030"
                 y="0"
                 width="100%"
                 height="100%" />
            </g>
          </g>
        </g>
        <g
           id="ytick_3">
          <g
             id="line2d_8">
            <g
               id="g1038">
              <use
                 style="stroke:#000000;stroke-width:0.8"
                 x="43.360001"
                 xlink:href="#m7a9a615355"
                 y="132.75163"
                 id="use1036"
                 width="100%"
                 height="100%" />
            </g>
          </g>
          <g
             id="text_9">
            <!-- 600 -->
            <g
               transform="matrix(0.1,0,0,-0.1,17.2725,136.55085)"
               id="g1050">
              <defs
                 id="defs1042">
                <path
                   d="m 33.015625,40.375 q -6.640625,0 -10.53125,-4.546875 -3.875,-4.53125 -3.875,-12.4375 0,-7.859375 3.875,-12.4375 3.890625,-4.5625 10.53125,-4.5625 6.640625,0 10.515625,4.5625 3.875,4.578125 3.875,12.4375 0,7.90625 -3.875,12.4375 Q 39.65625,40.375 33.015625,40.375 Z M 52.59375,71.296875 V 62.3125 q -3.71875,1.75 -7.5,2.671875 -3.78125,0.9375 -7.5,0.9375 -9.765625,0 -14.921875,-6.59375 -5.140625,-6.59375 -5.875,-19.921875 2.875,4.25 7.21875,6.515625 4.359375,2.265625 9.578125,2.265625 10.984375,0 17.359375,-6.671875 6.375,-6.65625 6.375,-18.125 0,-11.234375 -6.640625,-18.03125 -6.640625,-6.78125 -17.671875,-6.78125 -12.65625,0 -19.34375,9.6875 -6.6875,9.703125 -6.6875,28.109375 0,17.28125 8.203125,27.5625 8.203125,10.28125 22.015625,10.28125 3.71875,0 7.5,-0.734375 3.78125,-0.734375 7.890625,-2.1875 z"
                   id="DejaVuSans-54" />
              </defs>
              <use
                 xlink:href="#DejaVuSans-54"
                 id="use1044"
                 x="0"
                 y="0"
                 width="100%"
                 height="100%" />
              <use
                 x="63.623047"
                 xlink:href="#DejaVuSans-48"
                 id="use1046"
                 y="0"
                 width="100%"
                 height="100%" />
              <use
                 x="127.24609"
                 xlink:href="#DejaVuSans-48"
                 id="use1048"
                 y="0"
                 width="100%"
                 height="100%" />
            </g>
          </g>
        </g>
        <g
           id="ytick_4">
          <g
             id="line2d_9">
            <g
               id="g1056">
              <use
                 style="stroke:#000000;stroke-width:0.8"
                 x="43.360001"
                 xlink:href="#m7a9a615355"
                 y="80.69117"
                 id="use1054"
                 width="100%"
                 height="100%" />
            </g>
          </g>
          <g
             id="text_10">
            <!-- 800 -->
            <g
               transform="matrix(0.1,0,0,-0.1,17.2725,84.490386)"
               id="g1068">
              <defs
                 id="defs1060">
                <path
                   d="m 31.78125,34.625 q -7.03125,0 -11.0625,-3.765625 -4.015625,-3.765625 -4.015625,-10.34375 0,-6.59375 4.015625,-10.359375 4.03125,-3.765625 11.0625,-3.765625 7.03125,0 11.078125,3.78125 4.0625,3.796875 4.0625,10.34375 0,6.578125 -4.03125,10.34375 Q 38.875,34.625 31.78125,34.625 Z m -9.859375,4.1875 Q 15.578125,40.375 12.03125,44.71875 8.5,49.078125 8.5,55.328125 q 0,8.734375 6.21875,13.8125 6.234375,5.078125 17.0625,5.078125 10.890625,0 17.09375,-5.078125 6.203125,-5.078125 6.203125,-13.8125 0,-6.25 -3.546875,-10.609375 Q 48,40.375 41.703125,38.8125 q 7.125,-1.65625 11.09375,-6.5 3.984375,-4.828125 3.984375,-11.796875 0,-10.609375 -6.46875,-16.28125 -6.46875,-5.65625 -18.53125,-5.65625 -12.046875,0 -18.53125,5.65625 -6.46875,5.671875 -6.46875,16.28125 0,6.96875 4,11.796875 4.015625,4.84375 11.140625,6.5 z M 18.3125,54.390625 q 0,-5.65625 3.53125,-8.828125 3.546875,-3.171875 9.9375,-3.171875 6.359375,0 9.9375,3.171875 3.59375,3.171875 3.59375,8.828125 0,5.671875 -3.59375,8.84375 -3.578125,3.171875 -9.9375,3.171875 -6.390625,0 -9.9375,-3.171875 Q 18.3125,60.0625 18.3125,54.390625 Z"
                   id="DejaVuSans-56" />
              </defs>
              <use
                 xlink:href="#DejaVuSans-56"
                 id="use1062"
                 x="0"
                 y="0"
                 width="100%"
                 height="100%" />
              <use
                 x="63.623047"
                 xlink:href="#DejaVuSans-48"
                 id="use1064"
                 y="0"
                 width="100%"
                 height="100%" />
              <use
                 x="127.24609"
                 xlink:href="#DejaVuSans-48"
                 id="use1066"
                 y="0"
                 width="100%"
                 height="100%" />
            </g>
          </g>
        </g>
        <g
           id="ytick_5">
          <g
             id="line2d_10">
            <g
               id="g1074">
              <use
                 style="stroke:#000000;stroke-width:0.8"
                 x="43.360001"
                 xlink:href="#m7a9a615355"
                 y="28.630709"
                 id="use1072"
                 width="100%"
                 height="100%" />
            </g>
          </g>
          <g
             id="text_11">
            <!-- 1000 -->
            <g
               transform="matrix(0.1,0,0,-0.1,10.91,32.429926)"
               id="g1088">
              <defs
                 id="defs1078">
                <path
                   d="m 12.40625,8.296875 h 16.109375 v 55.625 L 10.984375,60.40625 v 8.984375 l 17.4375,3.515625 H 38.28125 V 8.296875 H 54.390625 V 0 H 12.40625 Z"
                   id="DejaVuSans-49" />
              </defs>
              <use
                 xlink:href="#DejaVuSans-49"
                 id="use1080"
                 x="0"
                 y="0"
                 width="100%"
                 height="100%" />
              <use
                 x="63.623047"
                 xlink:href="#DejaVuSans-48"
                 id="use1082"
                 y="0"
                 width="100%"
                 height="100%" />
              <use
                 x="127.24609"
                 xlink:href="#DejaVuSans-48"
                 id="use1084"
                 y="0"
                 width="100%"
                 height="100%" />
              <use
                 x="190.86914"
                 xlink:href="#DejaVuSans-48"
                 id="use1086"
                 y="0"
                 width="100%"
                 height="100%" />
            </g>
          </g>
        </g>
        <g
           id="text_12">
          <!-- Loops used -->
          <g
             transform="matrix(0,-0.1,-0.1,0,4.830312,157.83737)"
             id="g1119">
            <defs
               id="defs1097">
              <path
                 d="m 9.8125,72.90625 h 9.859375 V 8.296875 h 35.5 V 0 H 9.8125 Z"
                 id="DejaVuSans-76" />
              <path
                 d="m 30.609375,48.390625 q -7.21875,0 -11.421875,-5.640625 -4.203125,-5.640625 -4.203125,-15.453125 0,-9.8125 4.171875,-15.453125 4.1875,-5.640625 11.453125,-5.640625 7.1875,0 11.375,5.65625 4.203125,5.671875 4.203125,15.4375 0,9.71875 -4.203125,15.40625 -4.1875,5.6875 -11.375,5.6875 z m 0,7.609375 q 11.71875,0 18.40625,-7.625 6.703125,-7.609375 6.703125,-21.078125 0,-13.421875 -6.703125,-21.078125 -6.6875,-7.640625 -18.40625,-7.640625 -11.765625,0 -18.4375,7.640625 -6.65625,7.65625 -6.65625,21.078125 0,13.46875 6.65625,21.078125 Q 18.84375,56 30.609375,56 Z"
                 id="DejaVuSans-111" />
              <path
                 id="DejaVuSans-32"
                 d="" />
              <path
                 d="M 8.5,21.578125 V 54.6875 h 8.984375 V 21.921875 q 0,-7.765625 3.015625,-11.65625 3.03125,-3.875 9.09375,-3.875 7.265625,0 11.484375,4.640625 4.234375,4.640625 4.234375,12.65625 v 31 h 8.984375 V 0 H 45.3125 V 8.40625 Q 42.046875,3.421875 37.71875,1 33.40625,-1.421875 27.6875,-1.421875 18.265625,-1.421875 13.375,4.4375 8.5,10.296875 8.5,21.578125 Z M 31.109375,56 Z"
                 id="DejaVuSans-117" />
              <path
                 d="m 45.40625,46.390625 v 29.59375 h 8.984375 V 0 H 45.40625 v 8.203125 q -2.828125,-4.875 -7.15625,-7.25 -4.3125,-2.375 -10.375,-2.375 -9.90625,0 -16.140625,7.90625 -6.21875,7.921875 -6.21875,20.8125 0,12.890625 6.21875,20.796875 Q 17.96875,56 27.875,56 q 6.0625,0 10.375,-2.375 4.328125,-2.359375 7.15625,-7.234375 z M 14.796875,27.296875 q 0,-9.90625 4.078125,-15.546875 4.078125,-5.640625 11.203125,-5.640625 7.125,0 11.21875,5.640625 4.109375,5.640625 4.109375,15.546875 0,9.90625 -4.109375,15.546875 -4.09375,5.640625 -11.21875,5.640625 -7.125,0 -11.203125,-5.640625 -4.078125,-5.640625 -4.078125,-15.546875 z"
                 id="DejaVuSans-100" />
            </defs>
            <use
               xlink:href="#DejaVuSans-76"
               id="use1099"
               x="0"
               y="0"
               width="100%"
               height="100%" />
            <use
               x="53.962891"
               xlink:href="#DejaVuSans-111"
               id="use1101"
               y="0"
               width="100%"
               height="100%" />
            <use
               x="115.14453"
               xlink:href="#DejaVuSans-111"
               id="use1103"
               y="0"
               width="100%"
               height="100%" />
            <use
               x="176.32617"
               xlink:href="#DejaVuSans-112"
               id="use1105"
               y="0"
               width="100%"
               height="100%" />
            <use
               x="239.80273"
               xlink:href="#DejaVuSans-115"
               id="use1107"
               y="0"
               width="100%"
               height="100%" />
            <use
               x="291.90234"
               xlink:href="#DejaVuSans-32"
               id="use1109"
               y="0"
               width="100%"
               height="100%" />
            <use
               x="323.68945"
               xlink:href="#DejaVuSans-117"
               id="use1111"
               y="0"
               width="100%"
               height="100%" />
            <use
               x="387.06836"
               xlink:href="#DejaVuSans-115"
               id="use1113"
               y="0"
               width="100%"
               height="100%" />
            <use
               x="439.16797"
               xlink:href="#DejaVuSans-101"
               id="use1115"
               y="0"
               width="100%"
               height="100%" />
            <use
               x="500.69141"
               xlink:href="#DejaVuSans-100"
               id="use1117"
               y="0"
               width="100%"
               height="100%" />
          </g>
        </g>
      </g>
      <g
         id="line2d_11">
        <path
           clip-path="url(#pb4b10efbe1)"
           d="M 66.744,119.21591 V 141.3416"
           style="fill:none;stroke:#3d3d3d;stroke-width:1.5;stroke-linecap:square"
           id="path1123" />
      </g>
      <g
         id="line2d_12">
        <path
           clip-path="url(#pb4b10efbe1)"
           d="M 66.744,81.927604 V 30.713126"
           style="fill:none;stroke:#3d3d3d;stroke-width:1.5;stroke-linecap:square"
           id="path1126" />
      </g>
      <g
         id="line2d_13">
        <path
           clip-path="url(#pb4b10efbe1)"
           d="M 57.3904,141.3416 H 76.0976"
           style="fill:none;stroke:#3d3d3d;stroke-width:1.5;stroke-linecap:square"
           id="path1129" />
      </g>
      <g
         id="line2d_14">
        <path
           clip-path="url(#pb4b10efbe1)"
           d="M 57.3904,30.713126 H 76.0976"
           style="fill:none;stroke:#3d3d3d;stroke-width:1.5;stroke-linecap:square"
           id="path1132" />
      </g>
      <g
         id="line2d_15">
        <defs
           id="defs1136">
          <path
             d="M 0,3.535534 2.12132,0 0,-3.535534 -2.12132,0 Z"
             id="mb8ac350631"
             style="stroke:#3d3d3d;stroke-linejoin:miter" />
        </defs>
        <g
           clip-path="url(#pb4b10efbe1)"
           id="g1140">
          <use
             style="fill:#3d3d3d;stroke:#3d3d3d;stroke-linejoin:miter"
             x="66.744003"
             xlink:href="#mb8ac350631"
             y="21.602545"
             id="use1138"
             width="100%"
             height="100%" />
        </g>
      </g>
      <g
         id="line2d_16">
        <path
           clip-path="url(#pb4b10efbe1)"
           d="m 113.512,224.89864 v 12.75481"
           style="fill:none;stroke:#3d3d3d;stroke-width:1.5;stroke-linecap:square"
           id="path1143" />
      </g>
      <g
         id="line2d_17">
        <path
           clip-path="url(#pb4b10efbe1)"
           d="M 113.512,179.28066 V 137.69737"
           style="fill:none;stroke:#3d3d3d;stroke-width:1.5;stroke-linecap:square"
           id="path1146" />
      </g>
      <g
         id="line2d_18">
        <path
           clip-path="url(#pb4b10efbe1)"
           d="m 104.1584,237.65345 h 18.7072"
           style="fill:none;stroke:#3d3d3d;stroke-width:1.5;stroke-linecap:square"
           id="path1149" />
      </g>
      <g
         id="line2d_19">
        <path
           clip-path="url(#pb4b10efbe1)"
           d="m 104.1584,137.69737 h 18.7072"
           style="fill:none;stroke:#3d3d3d;stroke-width:1.5;stroke-linecap:square"
           id="path1152" />
      </g>
      <g
         id="line2d_20" />
      <g
         id="line2d_21">
        <path
           clip-path="url(#pb4b10efbe1)"
           d="m 160.28,175.70151 v 38.52474"
           style="fill:none;stroke:#3d3d3d;stroke-width:1.5;stroke-linecap:square"
           id="path1156" />
      </g>
      <g
         id="line2d_22">
        <path
           clip-path="url(#pb4b10efbe1)"
           d="M 160.28,83.229115 V 41.38552"
           style="fill:none;stroke:#3d3d3d;stroke-width:1.5;stroke-linecap:square"
           id="path1159" />
      </g>
      <g
         id="line2d_23">
        <path
           clip-path="url(#pb4b10efbe1)"
           d="m 150.9264,214.22625 h 18.7072"
           style="fill:none;stroke:#3d3d3d;stroke-width:1.5;stroke-linecap:square"
           id="path1162" />
      </g>
      <g
         id="line2d_24">
        <path
           clip-path="url(#pb4b10efbe1)"
           d="m 150.9264,41.38552 h 18.7072"
           style="fill:none;stroke:#3d3d3d;stroke-width:1.5;stroke-linecap:square"
           id="path1165" />
      </g>
      <g
         id="line2d_25" />
      <g
         id="line2d_26">
        <path
           clip-path="url(#pb4b10efbe1)"
           d="m 207.048,228.9984 v 5.79173"
           style="fill:none;stroke:#3d3d3d;stroke-width:1.5;stroke-linecap:square"
           id="path1169" />
      </g>
      <g
         id="line2d_27">
        <path
           clip-path="url(#pb4b10efbe1)"
           d="M 207.048,169.38918 V 152.2743"
           style="fill:none;stroke:#3d3d3d;stroke-width:1.5;stroke-linecap:square"
           id="path1172" />
      </g>
      <g
         id="line2d_28">
        <path
           clip-path="url(#pb4b10efbe1)"
           d="m 197.6944,234.79013 h 18.7072"
           style="fill:none;stroke:#3d3d3d;stroke-width:1.5;stroke-linecap:square"
           id="path1175" />
      </g>
      <g
         id="line2d_29">
        <path
           clip-path="url(#pb4b10efbe1)"
           d="m 197.6944,152.2743 h 18.7072"
           style="fill:none;stroke:#3d3d3d;stroke-width:1.5;stroke-linecap:square"
           id="path1178" />
      </g>
      <g
         id="line2d_30">
        <g
           clip-path="url(#pb4b10efbe1)"
           id="g1183">
          <use
             style="fill:#3d3d3d;stroke:#3d3d3d;stroke-linejoin:miter"
             x="207.048"
             xlink:href="#mb8ac350631"
             y="64.812729"
             id="use1181"
             width="100%"
             height="100%" />
        </g>
      </g>
      <g
         id="line2d_31">
        <path
           clip-path="url(#pb4b10efbe1)"
           d="m 253.816,212.66443 v 0.78091"
           style="fill:none;stroke:#3d3d3d;stroke-width:1.5;stroke-linecap:square"
           id="path1186" />
      </g>
      <g
         id="line2d_32">
        <path
           clip-path="url(#pb4b10efbe1)"
           d="m 253.816,196.91614 v -4.29498"
           style="fill:none;stroke:#3d3d3d;stroke-width:1.5;stroke-linecap:square"
           id="path1189" />
      </g>
      <g
         id="line2d_33">
        <path
           clip-path="url(#pb4b10efbe1)"
           d="m 244.4624,213.44534 h 18.7072"
           style="fill:none;stroke:#3d3d3d;stroke-width:1.5;stroke-linecap:square"
           id="path1192" />
      </g>
      <g
         id="line2d_34">
        <path
           clip-path="url(#pb4b10efbe1)"
           d="m 244.4624,192.62116 h 18.7072"
           style="fill:none;stroke:#3d3d3d;stroke-width:1.5;stroke-linecap:square"
           id="path1195" />
      </g>
      <g
         id="line2d_35">
        <g
           clip-path="url(#pb4b10efbe1)"
           id="g1202">
          <use
             style="fill:#3d3d3d;stroke:#3d3d3d;stroke-linejoin:miter"
             x="253.81599"
             xlink:href="#mb8ac350631"
             y="167.37184"
             id="use1198"
             width="100%"
             height="100%" />
          <use
             style="fill:#3d3d3d;stroke:#3d3d3d;stroke-linejoin:miter"
             x="253.81599"
             xlink:href="#mb8ac350631"
             y="169.19395"
             id="use1200"
             width="100%"
             height="100%" />
        </g>
      </g>
      <g
         id="line2d_36">
        <path
           clip-path="url(#pb4b10efbe1)"
           d="M 48.0368,98.521875 H 85.4512"
           style="fill:none;stroke:#3d3d3d;stroke-width:1.5;stroke-linecap:square"
           id="path1205" />
      </g>
      <g
         id="line2d_37">
        <path
           clip-path="url(#pb4b10efbe1)"
           d="m 94.8048,197.43675 h 37.4144"
           style="fill:none;stroke:#3d3d3d;stroke-width:1.5;stroke-linecap:square"
           id="path1208" />
      </g>
      <g
         id="line2d_38">
        <path
           clip-path="url(#pb4b10efbe1)"
           d="m 141.5728,156.69944 h 37.4144"
           style="fill:none;stroke:#3d3d3d;stroke-width:1.5;stroke-linecap:square"
           id="path1211" />
      </g>
      <g
         id="line2d_39">
        <path
           clip-path="url(#pb4b10efbe1)"
           d="m 188.3408,212.92474 h 37.4144"
           style="fill:none;stroke:#3d3d3d;stroke-width:1.5;stroke-linecap:square"
           id="path1214" />
      </g>
      <g
         id="line2d_40">
        <path
           clip-path="url(#pb4b10efbe1)"
           d="m 235.1088,212.53428 h 37.4144"
           style="fill:none;stroke:#3d3d3d;stroke-width:1.5;stroke-linecap:square"
           id="path1217" />
      </g>
      <g
         id="patch_8">
        <path
           d="M 43.36,248.456 V 10.8"
           style="fill:none;stroke:#000000;stroke-width:0.8;stroke-linecap:square;stroke-linejoin:miter"
           id="path1220" />
      </g>
      <g
         id="patch_9">
        <path
           d="M 43.36,248.456 H 277.2"
           style="fill:none;stroke:#000000;stroke-width:0.8;stroke-linecap:square;stroke-linejoin:miter"
           id="path1223" />
      </g>
    </g>
  </g>
  <defs
     id="defs1231">
    <clipPath
       id="pb4b10efbe1">
      <rect
         height="237.65601"
         width="233.84"
         x="43.360001"
         y="10.8"
         id="rect1228" />
    </clipPath>
  </defs>
</svg>
