<?xml version="1.0" encoding="UTF-8" standalone="no"?>
<svg
   xmlns:dc="http://purl.org/dc/elements/1.1/"
   xmlns:cc="http://creativecommons.org/ns#"
   xmlns:rdf="http://www.w3.org/1999/02/22-rdf-syntax-ns#"
   xmlns:svg="http://www.w3.org/2000/svg"
   xmlns="http://www.w3.org/2000/svg"
   xmlns:xlink="http://www.w3.org/1999/xlink"
   xmlns:sodipodi="http://sodipodi.sourceforge.net/DTD/sodipodi-0.dtd"
   xmlns:inkscape="http://www.inkscape.org/namespaces/inkscape"
   height="218.01007pt"
   version="1.1"
   viewBox="0 0 218.7847 218.01008"
   width="218.7847pt"
   id="svg1231"
   sodipodi:docname="tower_damage_cat.svg"
   inkscape:version="1.0.1 (c497b03c, 2020-09-10)">
  <sodipodi:namedview
     pagecolor="#ffffff"
     bordercolor="#666666"
     borderopacity="1"
     objecttolerance="10"
     gridtolerance="10"
     guidetolerance="10"
     inkscape:pageopacity="0"
     inkscape:pageshadow="2"
     inkscape:window-width="1440"
     inkscape:window-height="855"
     id="namedview1233"
     showgrid="false"
     inkscape:zoom="2.3229167"
     inkscape:cx="147.71292"
     inkscape:cy="109.56054"
     inkscape:window-x="0"
     inkscape:window-y="23"
     inkscape:window-maximized="0"
     inkscape:current-layer="svg1231" />
  <metadata
     id="metadata833">
    <rdf:RDF>
      <cc:Work>
        <dc:type
           rdf:resource="http://purl.org/dc/dcmitype/StillImage" />
        <dc:date>2020-11-08T09:34:53.661483</dc:date>
        <dc:format>image/svg+xml</dc:format>
        <dc:creator>
          <cc:Agent>
            <dc:title>Matplotlib v3.3.1, https://matplotlib.org/</dc:title>
          </cc:Agent>
        </dc:creator>
      </cc:Work>
    </rdf:RDF>
  </metadata>
  <defs
     id="defs837">
    <style
       type="text/css"
       id="style835">*{stroke-linecap:butt;stroke-linejoin:round;}</style>
  </defs>
  <g
     id="figure_1"
     transform="translate(2.784688)">
    <g
       id="patch_1">
      <path
         d="M 0,216 H 216 V 0 H 0 Z"
         style="fill:#ffffff"
         id="path839" />
    </g>
    <g
       id="axes_1">
      <g
         id="patch_2">
        <path
           d="M 36.97,176.456 H 205.2 V 10.8 H 36.97 Z"
           style="fill:#ffffff"
           id="path842" />
      </g>
      <g
         id="patch_3">
        <path
           clip-path="url(#p24a70ff48d)"
           d="m 40.3346,158.93085 h 26.9168 v -6.66356 H 40.3346 Z"
           style="fill:#3274a1;stroke:#3d3d3d;stroke-width:1.5;stroke-linejoin:miter"
           id="path845" />
      </g>
      <g
         id="patch_4">
        <path
           clip-path="url(#p24a70ff48d)"
           d="m 73.9806,85.631733 h 26.9168 V 45.983575 H 73.9806 Z"
           style="fill:#e1812c;stroke:#3d3d3d;stroke-width:1.5;stroke-linejoin:miter"
           id="path848" />
      </g>
      <g
         id="patch_5">
        <path
           clip-path="url(#p24a70ff48d)"
           d="m 107.6266,138.94018 h 26.9168 v -20.82361 h -26.9168 z"
           style="fill:#3a923a;stroke:#3d3d3d;stroke-width:1.5;stroke-linejoin:miter"
           id="path851" />
      </g>
      <g
         id="patch_6">
        <path
           clip-path="url(#p24a70ff48d)"
           d="m 141.2726,79.467944 h 26.9168 V 45.816986 h -26.9168 z"
           style="fill:#c03d3e;stroke:#3d3d3d;stroke-width:1.5;stroke-linejoin:miter"
           id="path854" />
      </g>
      <g
         id="patch_7">
        <path
           clip-path="url(#p24a70ff48d)"
           d="m 174.9186,34.65553 h 26.9168 V 21.661596 h -26.9168 z"
           style="fill:#9372b2;stroke:#3d3d3d;stroke-width:1.5;stroke-linejoin:miter"
           id="path857" />
      </g>
      <g
         id="matplotlib.axis_1">
        <g
           id="xtick_1">
          <g
             id="line2d_1">
            <defs
               id="defs861">
              <path
                 d="M 0,0 V 3.5"
                 id="m901ea8c1f3"
                 style="stroke:#000000;stroke-width:0.8" />
            </defs>
            <g
               id="g865">
              <use
                 style="stroke:#000000;stroke-width:0.8"
                 x="53.792999"
                 xlink:href="#m901ea8c1f3"
                 y="176.45599"
                 id="use863"
                 width="100%"
                 height="100%" />
            </g>
          </g>
          <g
             id="text_1">
            <!-- 3+n -->
            <g
               transform="matrix(0.1,0,0,-0.1,43.253156,191.05444)"
               id="g879">
              <defs
                 id="defs871">
                <path
                   d="M 40.578125,39.3125 Q 47.65625,37.796875 51.625,33 q 3.984375,-4.78125 3.984375,-11.8125 0,-10.78125 -7.421875,-16.703125 -7.421875,-5.90625 -21.09375,-5.90625 -4.578125,0 -9.4375,0.90625 -4.859375,0.90625 -10.03125,2.71875 v 9.515625 q 4.09375,-2.390625 8.96875,-3.609375 4.890625,-1.21875 10.21875,-1.21875 9.265625,0 14.125,3.65625 4.859375,3.65625 4.859375,10.640625 0,6.453125 -4.515625,10.078125 -4.515625,3.640625 -12.5625,3.640625 h -8.5 v 8.109375 h 8.890625 q 7.265625,0 11.125,2.90625 3.859375,2.90625 3.859375,8.375 0,5.609375 -3.984375,8.609375 -3.96875,3.015625 -11.390625,3.015625 -4.0625,0 -8.703125,-0.890625 Q 15.375,64.15625 9.8125,62.3125 v 8.78125 q 5.625,1.5625 10.53125,2.34375 4.90625,0.78125 9.25,0.78125 11.234375,0 17.765625,-5.109375 6.546875,-5.09375 6.546875,-13.78125 0,-6.0625 -3.46875,-10.234375 -3.46875,-4.171875 -9.859375,-5.78125 z"
                   id="DejaVuSans-51" />
                <path
                   d="M 46,62.703125 V 35.5 H 73.1875 V 27.203125 H 46 V 0 H 37.796875 V 27.203125 H 10.59375 V 35.5 h 27.203125 v 27.203125 z"
                   id="DejaVuSans-43" />
                <path
                   d="M 54.890625,33.015625 V 0 H 45.90625 v 32.71875 q 0,7.765625 -3.03125,11.609375 -3.03125,3.859375 -9.078125,3.859375 -7.28125,0 -11.484375,-4.640625 -4.203125,-4.625 -4.203125,-12.640625 V 0 h -9.03125 v 54.6875 h 9.03125 v -8.5 q 3.234375,4.9375 7.59375,7.375 4.375,2.4375 10.09375,2.4375 9.421875,0 14.25,-5.828125 4.84375,-5.828125 4.84375,-17.15625 z"
                   id="DejaVuSans-110" />
              </defs>
              <use
                 xlink:href="#DejaVuSans-51"
                 id="use873"
                 x="0"
                 y="0"
                 width="100%"
                 height="100%" />
              <use
                 x="63.623047"
                 xlink:href="#DejaVuSans-43"
                 id="use875"
                 y="0"
                 width="100%"
                 height="100%" />
              <use
                 x="147.41211"
                 xlink:href="#DejaVuSans-110"
                 id="use877"
                 y="0"
                 width="100%"
                 height="100%" />
            </g>
            <!--  -->
            <g
               transform="matrix(0.1,0,0,-0.1,53.793,202.25225)"
               id="g881" />
          </g>
        </g>
        <g
           id="xtick_2">
          <g
             id="line2d_2">
            <g
               id="g887">
              <use
                 style="stroke:#000000;stroke-width:0.8"
                 x="87.439003"
                 xlink:href="#m901ea8c1f3"
                 y="176.45599"
                 id="use885"
                 width="100%"
                 height="100%" />
            </g>
          </g>
          <g
             id="text_2">
            <!-- 3+paf -->
            <g
               transform="matrix(0.1,0,0,-0.1,72.069469,191.05444)"
               id="g905">
              <defs
                 id="defs893">
                <path
                   d="m 18.109375,8.203125 v -29 H 9.078125 V 54.6875 h 9.03125 v -8.296875 q 2.84375,4.875 7.15625,7.234375 Q 29.59375,56 35.59375,56 q 9.96875,0 16.1875,-7.90625 6.234375,-7.90625 6.234375,-20.796875 0,-12.890625 -6.234375,-20.8125 -6.21875,-7.90625 -16.1875,-7.90625 -6,0 -10.328125,2.375 -4.3125,2.375 -7.15625,7.25 z M 48.6875,27.296875 q 0,9.90625 -4.078125,15.546875 -4.078125,5.640625 -11.203125,5.640625 -7.140625,0 -11.21875,-5.640625 -4.078125,-5.640625 -4.078125,-15.546875 0,-9.90625 4.078125,-15.546875 4.078125,-5.640625 11.21875,-5.640625 7.125,0 11.203125,5.640625 4.078125,5.640625 4.078125,15.546875 z"
                   id="DejaVuSans-112" />
                <path
                   d="m 34.28125,27.484375 q -10.890625,0 -15.09375,-2.484375 -4.203125,-2.484375 -4.203125,-8.5 0,-4.78125 3.15625,-7.59375 3.15625,-2.796875 8.5625,-2.796875 7.484375,0 12,5.296875 4.515625,5.296875 4.515625,14.078125 v 2 z m 17.921875,3.71875 V 0 H 43.21875 v 8.296875 q -3.078125,-4.96875 -7.671875,-7.34375 -4.59375,-2.375 -11.234375,-2.375 -8.390625,0 -13.359375,4.71875 Q 6,8.015625 6,15.921875 q 0,9.21875 6.171875,13.90625 6.1875,4.6875 18.4375,4.6875 H 43.21875 v 0.890625 q 0,6.203125 -4.078125,9.59375 -4.078125,3.390625 -11.453125,3.390625 -4.6875,0 -9.140625,-1.125 -4.4375,-1.125 -8.53125,-3.375 v 8.3125 q 4.921875,1.90625 9.5625,2.84375 Q 24.21875,56 28.609375,56 q 11.875,0 17.734375,-6.15625 5.859375,-6.140625 5.859375,-18.640625 z"
                   id="DejaVuSans-97" />
                <path
                   d="M 37.109375,75.984375 V 68.5 h -8.59375 q -4.828125,0 -6.71875,-1.953125 -1.875,-1.953125 -1.875,-7.03125 V 54.6875 H 34.71875 V 47.703125 H 19.921875 V 0 h -9.03125 V 47.703125 H 2.296875 V 54.6875 h 8.59375 V 58.5 q 0,9.125 4.25,13.296875 4.25,4.1875 13.46875,4.1875 z"
                   id="DejaVuSans-102" />
              </defs>
              <use
                 xlink:href="#DejaVuSans-51"
                 id="use895"
                 x="0"
                 y="0"
                 width="100%"
                 height="100%" />
              <use
                 x="63.623047"
                 xlink:href="#DejaVuSans-43"
                 id="use897"
                 y="0"
                 width="100%"
                 height="100%" />
              <use
                 x="147.41211"
                 xlink:href="#DejaVuSans-112"
                 id="use899"
                 y="0"
                 width="100%"
                 height="100%" />
              <use
                 x="210.88867"
                 xlink:href="#DejaVuSans-97"
                 id="use901"
                 y="0"
                 width="100%"
                 height="100%" />
              <use
                 x="272.16797"
                 xlink:href="#DejaVuSans-102"
                 id="use903"
                 y="0"
                 width="100%"
                 height="100%" />
            </g>
            <!--  -->
            <g
               transform="matrix(0.1,0,0,-0.1,87.439,202.25225)"
               id="g907" />
          </g>
        </g>
        <g
           id="xtick_3">
          <g
             id="line2d_3">
            <g
               id="g913">
              <use
                 style="stroke:#000000;stroke-width:0.8"
                 x="121.085"
                 xlink:href="#m901ea8c1f3"
                 y="176.45599"
                 id="use911"
                 width="100%"
                 height="100%" />
            </g>
          </g>
          <g
             id="text_3">
            <!-- 3+af -->
            <g
               transform="matrix(0.1,0,0,-0.1,108.88969,191.05444)"
               id="g924">
              <use
                 xlink:href="#DejaVuSans-51"
                 id="use916"
                 x="0"
                 y="0"
                 width="100%"
                 height="100%" />
              <use
                 x="63.623047"
                 xlink:href="#DejaVuSans-43"
                 id="use918"
                 y="0"
                 width="100%"
                 height="100%" />
              <use
                 x="147.41211"
                 xlink:href="#DejaVuSans-97"
                 id="use920"
                 y="0"
                 width="100%"
                 height="100%" />
              <use
                 x="208.69141"
                 xlink:href="#DejaVuSans-102"
                 id="use922"
                 y="0"
                 width="100%"
                 height="100%" />
            </g>
            <!--  -->
            <g
               transform="matrix(0.1,0,0,-0.1,121.085,202.25225)"
               id="g926" />
          </g>
        </g>
        <g
           id="xtick_4">
          <g
             id="line2d_4">
            <g
               id="g932">
              <use
                 style="stroke:#000000;stroke-width:0.8"
                 x="154.731"
                 xlink:href="#m901ea8c1f3"
                 y="176.45599"
                 id="use930"
                 width="100%"
                 height="100%" />
            </g>
          </g>
          <g
             id="text_4">
            <!-- 3+pa -->
            <g
               transform="matrix(0.1,0,0,-0.1,141.12162,191.05444)"
               id="g943">
              <use
                 xlink:href="#DejaVuSans-51"
                 id="use935"
                 x="0"
                 y="0"
                 width="100%"
                 height="100%" />
              <use
                 x="63.623047"
                 xlink:href="#DejaVuSans-43"
                 id="use937"
                 y="0"
                 width="100%"
                 height="100%" />
              <use
                 x="147.41211"
                 xlink:href="#DejaVuSans-112"
                 id="use939"
                 y="0"
                 width="100%"
                 height="100%" />
              <use
                 x="210.88867"
                 xlink:href="#DejaVuSans-97"
                 id="use941"
                 y="0"
                 width="100%"
                 height="100%" />
            </g>
            <!--  -->
            <g
               transform="matrix(0.1,0,0,-0.1,154.731,202.25225)"
               id="g945" />
          </g>
        </g>
        <g
           id="xtick_5">
          <g
             id="line2d_5">
            <g
               id="g951">
              <use
                 style="stroke:#000000;stroke-width:0.8"
                 x="188.377"
                 xlink:href="#m901ea8c1f3"
                 y="176.45599"
                 id="use949"
                 width="100%"
                 height="100%" />
            </g>
          </g>
          <g
             id="text_5">
            <!-- 3+pf -->
            <g
               transform="matrix(0.1,0,0,-0.1,176.07153,191.05444)"
               id="g962">
              <use
                 xlink:href="#DejaVuSans-51"
                 id="use954"
                 x="0"
                 y="0"
                 width="100%"
                 height="100%" />
              <use
                 x="63.623047"
                 xlink:href="#DejaVuSans-43"
                 id="use956"
                 y="0"
                 width="100%"
                 height="100%" />
              <use
                 x="147.41211"
                 xlink:href="#DejaVuSans-112"
                 id="use958"
                 y="0"
                 width="100%"
                 height="100%" />
              <use
                 x="210.88867"
                 xlink:href="#DejaVuSans-102"
                 id="use960"
                 y="0"
                 width="100%"
                 height="100%" />
            </g>
            <!--  -->
            <g
               transform="matrix(0.1,0,0,-0.1,188.377,202.25225)"
               id="g964" />
          </g>
        </g>
        <g
           id="text_6">
          <!-- Settings -->
          <g
             transform="matrix(0.1,0,0,-0.1,100.57719,215.93037)"
             id="g992">
            <defs
               id="defs974">
              <path
                 d="m 53.515625,70.515625 v -9.625 q -5.609375,2.6875 -10.59375,4 -4.984375,1.328125 -9.625,1.328125 -8.046875,0 -12.421875,-3.125 -4.375,-3.125 -4.375,-8.890625 0,-4.84375 2.90625,-7.3125 2.90625,-2.453125 11.015625,-3.96875 L 36.375,41.703125 Q 47.40625,39.59375 52.65625,34.296875 57.90625,29 57.90625,20.125 q 0,-10.609375 -7.109375,-16.078125 -7.09375,-5.46875 -20.8125,-5.46875 -5.171875,0 -11.015625,1.171875 Q 13.140625,0.921875 6.890625,3.21875 V 13.375 q 6,-3.359375 11.765625,-5.078125 5.765625,-1.703125 11.328125,-1.703125 8.4375,0 13.03125,3.3125 4.59375,3.328125 4.59375,9.484375 0,5.359375 -3.296875,8.390625 Q 41.015625,30.8125 33.5,32.328125 L 27.484375,33.5 q -11.03125,2.1875 -15.96875,6.875 -4.921875,4.6875 -4.921875,13.046875 0,9.671875 6.8125,15.234375 6.8125,5.5625 18.765625,5.5625 5.140625,0 10.453125,-0.9375 5.328125,-0.921875 10.890625,-2.765625 z"
                 id="DejaVuSans-83" />
              <path
                 d="m 56.203125,29.59375 v -4.390625 h -41.3125 q 0.59375,-9.28125 5.59375,-14.140625 5,-4.859375 13.9375,-4.859375 5.171875,0 10.03125,1.265625 4.859375,1.265625 9.65625,3.8125 v -8.5 q -4.84375,-2.046875 -9.921875,-3.125 -5.078125,-1.078125 -10.296875,-1.078125 -13.09375,0 -20.734375,7.609375 -7.640625,7.625 -7.640625,20.625 0,13.421875 7.25,21.296875 Q 20.015625,56 32.328125,56 q 11.03125,0 17.453125,-7.109375 6.421875,-7.09375 6.421875,-19.296875 z m -8.984375,2.640625 q -0.09375,7.359375 -4.125,11.75 -4.03125,4.40625 -10.671875,4.40625 -7.515625,0 -12.03125,-4.25 -4.515625,-4.25 -5.203125,-11.96875 z"
                 id="DejaVuSans-101" />
              <path
                 d="M 18.3125,70.21875 V 54.6875 h 18.5 v -6.984375 h -18.5 v -29.6875 q 0,-6.6875 1.828125,-8.59375 1.828125,-1.90625 7.453125,-1.90625 H 36.8125 V 0 H 27.59375 Q 17.1875,0 13.234375,3.875 9.28125,7.765625 9.28125,18.015625 v 29.6875 H 2.6875 V 54.6875 h 6.59375 v 15.53125 z"
                 id="DejaVuSans-116" />
              <path
                 d="M 9.421875,54.6875 H 18.40625 V 0 H 9.421875 Z m 0,21.296875 H 18.40625 V 64.59375 H 9.421875 Z"
                 id="DejaVuSans-105" />
              <path
                 d="m 45.40625,27.984375 q 0,9.765625 -4.03125,15.125 -4.015625,5.375 -11.296875,5.375 -7.21875,0 -11.25,-5.375 -4.03125,-5.359375 -4.03125,-15.125 0,-9.71875 4.03125,-15.09375 4.03125,-5.375 11.25,-5.375 7.28125,0 11.296875,5.375 4.03125,5.375 4.03125,15.09375 z M 54.390625,6.78125 q 0,-13.953125 -6.203125,-20.765625 -6.1875,-6.8125 -18.984375,-6.8125 -4.734375,0 -8.9375,0.703125 -4.203125,0.703125 -8.15625,2.171875 V -9.1875 q 3.953125,-2.140625 7.8125,-3.15625 3.859375,-1.03125 7.859375,-1.03125 8.84375,0 13.234375,4.609375 4.390625,4.609375 4.390625,13.9375 V 9.625 Q 42.625,4.78125 38.28125,2.390625 33.9375,0 27.875,0 17.828125,0 11.671875,7.65625 q -6.15625,7.671875 -6.15625,20.328125 0,12.6875 6.15625,20.34375 Q 17.828125,56 27.875,56 q 6.0625,0 10.40625,-2.390625 4.34375,-2.390625 7.125,-7.21875 V 54.6875 h 8.984375 z"
                 id="DejaVuSans-103" />
              <path
                 d="m 44.28125,53.078125 v -8.5 Q 40.484375,46.53125 36.375,47.5 q -4.09375,0.984375 -8.5,0.984375 -6.6875,0 -10.03125,-2.046875 Q 14.5,44.390625 14.5,40.28125 q 0,-3.125 2.390625,-4.90625 2.390625,-1.78125 9.625,-3.390625 l 3.078125,-0.6875 Q 39.15625,29.25 43.1875,25.515625 47.21875,21.78125 47.21875,15.09375 q 0,-7.625 -6.03125,-12.078125 -6.03125,-4.4375 -16.578125,-4.4375 -4.390625,0 -9.15625,0.859375 Q 10.6875,0.296875 5.421875,2 v 9.28125 q 4.984375,-2.59375 9.8125,-3.890625 4.828125,-1.28125 9.578125,-1.28125 6.34375,0 9.75,2.171875 3.421875,2.171875 3.421875,6.125 0,3.65625 -2.46875,5.609375 -2.453125,1.953125 -10.8125,3.765625 l -3.125,0.734375 q -8.34375,1.75 -12.0625,5.390625 -3.703125,3.640625 -3.703125,9.984375 0,7.71875 5.46875,11.90625 Q 16.75,56 26.8125,56 q 4.96875,0 9.359375,-0.734375 4.40625,-0.71875 8.109375,-2.1875 z"
                 id="DejaVuSans-115" />
            </defs>
            <use
               xlink:href="#DejaVuSans-83"
               id="use976"
               x="0"
               y="0"
               width="100%"
               height="100%" />
            <use
               x="63.476562"
               xlink:href="#DejaVuSans-101"
               id="use978"
               y="0"
               width="100%"
               height="100%" />
            <use
               x="125"
               xlink:href="#DejaVuSans-116"
               id="use980"
               y="0"
               width="100%"
               height="100%" />
            <use
               x="164.20898"
               xlink:href="#DejaVuSans-116"
               id="use982"
               y="0"
               width="100%"
               height="100%" />
            <use
               x="203.41797"
               xlink:href="#DejaVuSans-105"
               id="use984"
               y="0"
               width="100%"
               height="100%" />
            <use
               x="231.20117"
               xlink:href="#DejaVuSans-110"
               id="use986"
               y="0"
               width="100%"
               height="100%" />
            <use
               x="294.58008"
               xlink:href="#DejaVuSans-103"
               id="use988"
               y="0"
               width="100%"
               height="100%" />
            <use
               x="358.05664"
               xlink:href="#DejaVuSans-115"
               id="use990"
               y="0"
               width="100%"
               height="100%" />
          </g>
        </g>
      </g>
      <g
         id="matplotlib.axis_2">
        <g
           id="ytick_1">
          <g
             id="line2d_6">
            <defs
               id="defs997">
              <path
                 d="M 0,0 H -3.5"
                 id="m71b6a73e24"
                 style="stroke:#000000;stroke-width:0.8" />
            </defs>
            <g
               id="g1001">
              <use
                 style="stroke:#000000;stroke-width:0.8"
                 x="36.970001"
                 xlink:href="#m71b6a73e24"
                 y="175.58974"
                 id="use999"
                 width="100%"
                 height="100%" />
            </g>
          </g>
          <g
             id="text_7">
            <!-- 50 -->
            <g
               transform="matrix(0.1,0,0,-0.1,17.245,179.38896)"
               id="g1012">
              <defs
                 id="defs1006">
                <path
                   d="m 10.796875,72.90625 h 38.71875 v -8.3125 h -29.6875 V 46.734375 q 2.140625,0.734375 4.28125,1.09375 2.15625,0.359375 4.3125,0.359375 Q 40.625,48.1875 47.75,41.5 54.890625,34.8125 54.890625,23.390625 54.890625,11.625 47.5625,5.09375 40.234375,-1.421875 26.90625,-1.421875 q -4.59375,0 -9.359375,0.78125 -4.75,0.78125 -9.828125,2.34375 V 11.625 q 4.390625,-2.390625 9.078125,-3.5625 4.6875,-1.171875 9.90625,-1.171875 8.453125,0 13.375,4.4375 4.9375,4.4375 4.9375,12.0625 0,7.609375 -4.9375,12.046875 -4.921875,4.453125 -13.375,4.453125 -3.953125,0 -7.890625,-0.875 -3.921875,-0.875 -8.015625,-2.734375 z"
                   id="DejaVuSans-53" />
                <path
                   d="m 31.78125,66.40625 q -7.609375,0 -11.453125,-7.5 Q 16.5,51.421875 16.5,36.375 q 0,-14.984375 3.828125,-22.484375 3.84375,-7.5 11.453125,-7.5 7.671875,0 11.5,7.5 3.84375,7.5 3.84375,22.484375 0,15.046875 -3.84375,22.53125 -3.828125,7.5 -11.5,7.5 z m 0,7.8125 q 12.265625,0 18.734375,-9.703125 6.46875,-9.6875 6.46875,-28.140625 0,-18.40625 -6.46875,-28.109375 -6.46875,-9.6875 -18.734375,-9.6875 -12.25,0 -18.71875,9.6875 Q 6.59375,17.96875 6.59375,36.375 q 0,18.453125 6.46875,28.140625 6.46875,9.703125 18.71875,9.703125 z"
                   id="DejaVuSans-48" />
              </defs>
              <use
                 xlink:href="#DejaVuSans-53"
                 id="use1008"
                 x="0"
                 y="0"
                 width="100%"
                 height="100%" />
              <use
                 x="63.623047"
                 xlink:href="#DejaVuSans-48"
                 id="use1010"
                 y="0"
                 width="100%"
                 height="100%" />
            </g>
          </g>
        </g>
        <g
           id="ytick_2">
          <g
             id="line2d_7">
            <g
               id="g1018">
              <use
                 style="stroke:#000000;stroke-width:0.8"
                 x="36.970001"
                 xlink:href="#m71b6a73e24"
                 y="142.27196"
                 id="use1016"
                 width="100%"
                 height="100%" />
            </g>
          </g>
          <g
             id="text_8">
            <!-- 100 -->
            <g
               transform="matrix(0.1,0,0,-0.1,10.8825,146.07118)"
               id="g1030">
              <defs
                 id="defs1022">
                <path
                   d="m 12.40625,8.296875 h 16.109375 v 55.625 L 10.984375,60.40625 v 8.984375 l 17.4375,3.515625 H 38.28125 V 8.296875 H 54.390625 V 0 H 12.40625 Z"
                   id="DejaVuSans-49" />
              </defs>
              <use
                 xlink:href="#DejaVuSans-49"
                 id="use1024"
                 x="0"
                 y="0"
                 width="100%"
                 height="100%" />
              <use
                 x="63.623047"
                 xlink:href="#DejaVuSans-48"
                 id="use1026"
                 y="0"
                 width="100%"
                 height="100%" />
              <use
                 x="127.24609"
                 xlink:href="#DejaVuSans-48"
                 id="use1028"
                 y="0"
                 width="100%"
                 height="100%" />
            </g>
          </g>
        </g>
        <g
           id="ytick_3">
          <g
             id="line2d_8">
            <g
               id="g1036">
              <use
                 style="stroke:#000000;stroke-width:0.8"
                 x="36.970001"
                 xlink:href="#m71b6a73e24"
                 y="108.95418"
                 id="use1034"
                 width="100%"
                 height="100%" />
            </g>
          </g>
          <g
             id="text_9">
            <!-- 150 -->
            <g
               transform="matrix(0.1,0,0,-0.1,10.8825,112.7534)"
               id="g1045">
              <use
                 xlink:href="#DejaVuSans-49"
                 id="use1039"
                 x="0"
                 y="0"
                 width="100%"
                 height="100%" />
              <use
                 x="63.623047"
                 xlink:href="#DejaVuSans-53"
                 id="use1041"
                 y="0"
                 width="100%"
                 height="100%" />
              <use
                 x="127.24609"
                 xlink:href="#DejaVuSans-48"
                 id="use1043"
                 y="0"
                 width="100%"
                 height="100%" />
            </g>
          </g>
        </g>
        <g
           id="ytick_4">
          <g
             id="line2d_9">
            <g
               id="g1051">
              <use
                 style="stroke:#000000;stroke-width:0.8"
                 x="36.970001"
                 xlink:href="#m71b6a73e24"
                 y="75.636398"
                 id="use1049"
                 width="100%"
                 height="100%" />
            </g>
          </g>
          <g
             id="text_10">
            <!-- 200 -->
            <g
               transform="matrix(0.1,0,0,-0.1,10.8825,79.435618)"
               id="g1063">
              <defs
                 id="defs1055">
                <path
                   d="M 19.1875,8.296875 H 53.609375 V 0 H 7.328125 v 8.296875 q 5.609375,5.8125 15.296875,15.59375 9.703125,9.796875 12.1875,12.640625 4.734375,5.3125 6.609375,9 1.890625,3.6875 1.890625,7.25 0,5.8125 -4.078125,9.46875 -4.078125,3.671875 -10.625,3.671875 -4.640625,0 -9.796875,-1.609375 -5.140625,-1.609375 -11,-4.890625 v 9.96875 Q 13.765625,71.78125 18.9375,73 q 5.1875,1.21875 9.484375,1.21875 11.328125,0 18.0625,-5.671875 6.734375,-5.65625 6.734375,-15.125 0,-4.5 -1.6875,-8.53125 Q 49.859375,40.875 45.40625,35.40625 44.1875,33.984375 37.640625,27.21875 31.109375,20.453125 19.1875,8.296875 Z"
                   id="DejaVuSans-50" />
              </defs>
              <use
                 xlink:href="#DejaVuSans-50"
                 id="use1057"
                 x="0"
                 y="0"
                 width="100%"
                 height="100%" />
              <use
                 x="63.623047"
                 xlink:href="#DejaVuSans-48"
                 id="use1059"
                 y="0"
                 width="100%"
                 height="100%" />
              <use
                 x="127.24609"
                 xlink:href="#DejaVuSans-48"
                 id="use1061"
                 y="0"
                 width="100%"
                 height="100%" />
            </g>
          </g>
        </g>
        <g
           id="ytick_5">
          <g
             id="line2d_10">
            <g
               id="g1069">
              <use
                 style="stroke:#000000;stroke-width:0.8"
                 x="36.970001"
                 xlink:href="#m71b6a73e24"
                 y="42.318619"
                 id="use1067"
                 width="100%"
                 height="100%" />
            </g>
          </g>
          <g
             id="text_11">
            <!-- 250 -->
            <g
               transform="matrix(0.1,0,0,-0.1,10.8825,46.117838)"
               id="g1078">
              <use
                 xlink:href="#DejaVuSans-50"
                 id="use1072"
                 x="0"
                 y="0"
                 width="100%"
                 height="100%" />
              <use
                 x="63.623047"
                 xlink:href="#DejaVuSans-53"
                 id="use1074"
                 y="0"
                 width="100%"
                 height="100%" />
              <use
                 x="127.24609"
                 xlink:href="#DejaVuSans-48"
                 id="use1076"
                 y="0"
                 width="100%"
                 height="100%" />
            </g>
          </g>
        </g>
        <g
           id="text_12">
          <!-- Damage (to enemy) -->
          <g
             transform="matrix(0,-0.1,-0.1,0,4.802812,143.978)"
             id="g1125">
            <defs
               id="defs1089">
              <path
                 d="M 19.671875,64.796875 V 8.109375 H 31.59375 q 15.09375,0 22.09375,6.828125 7,6.84375 7,21.59375 0,14.640625 -7,21.453125 -7,6.8125 -22.09375,6.8125 z M 9.8125,72.90625 h 20.265625 q 21.1875,0 31.09375,-8.8125 9.921875,-8.8125 9.921875,-27.5625 0,-18.859375 -9.96875,-27.703125 Q 51.171875,0 30.078125,0 H 9.8125 Z"
                 id="DejaVuSans-68" />
              <path
                 d="M 52,44.1875 Q 55.375,50.25 60.0625,53.125 64.75,56 71.09375,56 q 8.546875,0 13.1875,-5.984375 4.640625,-5.96875 4.640625,-17 V 0 h -9.03125 v 32.71875 q 0,7.859375 -2.796875,11.65625 -2.78125,3.8125 -8.484375,3.8125 -6.984375,0 -11.046875,-4.640625 -4.046875,-4.625 -4.046875,-12.640625 V 0 h -9.03125 v 32.71875 q 0,7.90625 -2.78125,11.6875 -2.78125,3.78125 -8.59375,3.78125 -6.890625,0 -10.953125,-4.65625 -4.046875,-4.65625 -4.046875,-12.625 V 0 h -9.03125 v 54.6875 h 9.03125 v -8.5 q 3.078125,5.03125 7.375,7.421875 Q 29.78125,56 35.6875,56 41.65625,56 45.828125,52.96875 50,49.953125 52,44.1875 Z"
                 id="DejaVuSans-109" />
              <path
                 id="DejaVuSans-32"
                 d="" />
              <path
                 d="M 31,75.875 Q 24.46875,64.65625 21.28125,53.65625 18.109375,42.671875 18.109375,31.390625 18.109375,20.125 21.3125,9.0625 24.515625,-2 31,-13.1875 H 23.1875 Q 15.875,-1.703125 12.234375,9.375 8.59375,20.453125 8.59375,31.390625 q 0,10.890625 3.609375,21.921875 3.625,11.046875 10.984375,22.5625 z"
                 id="DejaVuSans-40" />
              <path
                 d="m 30.609375,48.390625 q -7.21875,0 -11.421875,-5.640625 -4.203125,-5.640625 -4.203125,-15.453125 0,-9.8125 4.171875,-15.453125 4.1875,-5.640625 11.453125,-5.640625 7.1875,0 11.375,5.65625 4.203125,5.671875 4.203125,15.4375 0,9.71875 -4.203125,15.40625 -4.1875,5.6875 -11.375,5.6875 z m 0,7.609375 q 11.71875,0 18.40625,-7.625 6.703125,-7.609375 6.703125,-21.078125 0,-13.421875 -6.703125,-21.078125 -6.6875,-7.640625 -18.40625,-7.640625 -11.765625,0 -18.4375,7.640625 -6.65625,7.65625 -6.65625,21.078125 0,13.46875 6.65625,21.078125 Q 18.84375,56 30.609375,56 Z"
                 id="DejaVuSans-111" />
              <path
                 d="M 32.171875,-5.078125 Q 28.375,-14.84375 24.75,-17.8125 q -3.609375,-2.984375 -9.65625,-2.984375 h -7.1875 v 7.515625 h 5.28125 q 3.703125,0 5.75,1.765625 2.0625,1.75 4.546875,8.296875 L 25.09375,0.875 2.984375,54.6875 H 12.5 L 29.59375,11.921875 46.6875,54.6875 h 9.515625 z"
                 id="DejaVuSans-121" />
              <path
                 d="m 8.015625,75.875 h 7.8125 q 7.3125,-11.515625 10.953125,-22.5625 3.640625,-11.03125 3.640625,-21.921875 0,-10.9375 -3.640625,-22.015625 -3.640625,-11.078125 -10.953125,-22.5625 h -7.8125 Q 14.5,-2 17.703125,9.0625 20.90625,20.125 20.90625,31.390625 q 0,11.28125 -3.203125,22.265625 -3.203125,11 -9.6875,22.21875 z"
                 id="DejaVuSans-41" />
            </defs>
            <use
               xlink:href="#DejaVuSans-68"
               id="use1091"
               x="0"
               y="0"
               width="100%"
               height="100%" />
            <use
               x="77.001953"
               xlink:href="#DejaVuSans-97"
               id="use1093"
               y="0"
               width="100%"
               height="100%" />
            <use
               x="138.28125"
               xlink:href="#DejaVuSans-109"
               id="use1095"
               y="0"
               width="100%"
               height="100%" />
            <use
               x="235.69336"
               xlink:href="#DejaVuSans-97"
               id="use1097"
               y="0"
               width="100%"
               height="100%" />
            <use
               x="296.97266"
               xlink:href="#DejaVuSans-103"
               id="use1099"
               y="0"
               width="100%"
               height="100%" />
            <use
               x="360.44922"
               xlink:href="#DejaVuSans-101"
               id="use1101"
               y="0"
               width="100%"
               height="100%" />
            <use
               x="421.97266"
               xlink:href="#DejaVuSans-32"
               id="use1103"
               y="0"
               width="100%"
               height="100%" />
            <use
               x="453.75977"
               xlink:href="#DejaVuSans-40"
               id="use1105"
               y="0"
               width="100%"
               height="100%" />
            <use
               x="492.77344"
               xlink:href="#DejaVuSans-116"
               id="use1107"
               y="0"
               width="100%"
               height="100%" />
            <use
               x="531.98242"
               xlink:href="#DejaVuSans-111"
               id="use1109"
               y="0"
               width="100%"
               height="100%" />
            <use
               x="593.16406"
               xlink:href="#DejaVuSans-32"
               id="use1111"
               y="0"
               width="100%"
               height="100%" />
            <use
               x="624.95117"
               xlink:href="#DejaVuSans-101"
               id="use1113"
               y="0"
               width="100%"
               height="100%" />
            <use
               x="686.47461"
               xlink:href="#DejaVuSans-110"
               id="use1115"
               y="0"
               width="100%"
               height="100%" />
            <use
               x="749.85352"
               xlink:href="#DejaVuSans-101"
               id="use1117"
               y="0"
               width="100%"
               height="100%" />
            <use
               x="811.37695"
               xlink:href="#DejaVuSans-109"
               id="use1119"
               y="0"
               width="100%"
               height="100%" />
            <use
               x="908.78906"
               xlink:href="#DejaVuSans-121"
               id="use1121"
               y="0"
               width="100%"
               height="100%" />
            <use
               x="967.96875"
               xlink:href="#DejaVuSans-41"
               id="use1123"
               y="0"
               width="100%"
               height="100%" />
          </g>
        </g>
      </g>
      <g
         id="line2d_11">
        <path
           clip-path="url(#p24a70ff48d)"
           d="m 53.793,158.93085 v 9.99533"
           style="fill:none;stroke:#3d3d3d;stroke-width:1.5;stroke-linecap:square"
           id="path1129" />
      </g>
      <g
         id="line2d_12">
        <path
           clip-path="url(#p24a70ff48d)"
           d="m 53.793,152.26729 v -9.99533"
           style="fill:none;stroke:#3d3d3d;stroke-width:1.5;stroke-linecap:square"
           id="path1132" />
      </g>
      <g
         id="line2d_13">
        <path
           clip-path="url(#p24a70ff48d)"
           d="M 47.0638,168.92618 H 60.5222"
           style="fill:none;stroke:#3d3d3d;stroke-width:1.5;stroke-linecap:square"
           id="path1135" />
      </g>
      <g
         id="line2d_14">
        <path
           clip-path="url(#p24a70ff48d)"
           d="M 47.0638,142.27196 H 60.5222"
           style="fill:none;stroke:#3d3d3d;stroke-width:1.5;stroke-linecap:square"
           id="path1138" />
      </g>
      <g
         id="line2d_15" />
      <g
         id="line2d_16">
        <path
           clip-path="url(#p24a70ff48d)"
           d="M 87.439,85.631733 V 115.61773"
           style="fill:none;stroke:#3d3d3d;stroke-width:1.5;stroke-linecap:square"
           id="path1142" />
      </g>
      <g
         id="line2d_17">
        <path
           clip-path="url(#p24a70ff48d)"
           d="M 87.439,45.983575 V 18.329818"
           style="fill:none;stroke:#3d3d3d;stroke-width:1.5;stroke-linecap:square"
           id="path1145" />
      </g>
      <g
         id="line2d_18">
        <path
           clip-path="url(#p24a70ff48d)"
           d="M 80.7098,115.61773 H 94.1682"
           style="fill:none;stroke:#3d3d3d;stroke-width:1.5;stroke-linecap:square"
           id="path1148" />
      </g>
      <g
         id="line2d_19">
        <path
           clip-path="url(#p24a70ff48d)"
           d="M 80.7098,18.329818 H 94.1682"
           style="fill:none;stroke:#3d3d3d;stroke-width:1.5;stroke-linecap:square"
           id="path1151" />
      </g>
      <g
         id="line2d_20" />
      <g
         id="line2d_21">
        <path
           clip-path="url(#p24a70ff48d)"
           d="m 121.085,138.94018 v 3.33178"
           style="fill:none;stroke:#3d3d3d;stroke-width:1.5;stroke-linecap:square"
           id="path1155" />
      </g>
      <g
         id="line2d_22">
        <path
           clip-path="url(#p24a70ff48d)"
           d="M 121.085,118.11657 V 98.958845"
           style="fill:none;stroke:#3d3d3d;stroke-width:1.5;stroke-linecap:square"
           id="path1158" />
      </g>
      <g
         id="line2d_23">
        <path
           clip-path="url(#p24a70ff48d)"
           d="m 114.3558,142.27196 h 13.4584"
           style="fill:none;stroke:#3d3d3d;stroke-width:1.5;stroke-linecap:square"
           id="path1161" />
      </g>
      <g
         id="line2d_24">
        <path
           clip-path="url(#p24a70ff48d)"
           d="m 114.3558,98.958845 h 13.4584"
           style="fill:none;stroke:#3d3d3d;stroke-width:1.5;stroke-linecap:square"
           id="path1164" />
      </g>
      <g
         id="line2d_25" />
      <g
         id="line2d_26">
        <path
           clip-path="url(#p24a70ff48d)"
           d="M 154.731,79.467944 V 90.296222"
           style="fill:none;stroke:#3d3d3d;stroke-width:1.5;stroke-linecap:square"
           id="path1168" />
      </g>
      <g
         id="line2d_27">
        <path
           clip-path="url(#p24a70ff48d)"
           d="M 154.731,45.816986 V 20.995241"
           style="fill:none;stroke:#3d3d3d;stroke-width:1.5;stroke-linecap:square"
           id="path1171" />
      </g>
      <g
         id="line2d_28">
        <path
           clip-path="url(#p24a70ff48d)"
           d="m 148.0018,90.296222 h 13.4584"
           style="fill:none;stroke:#3d3d3d;stroke-width:1.5;stroke-linecap:square"
           id="path1174" />
      </g>
      <g
         id="line2d_29">
        <path
           clip-path="url(#p24a70ff48d)"
           d="m 148.0018,20.995241 h 13.4584"
           style="fill:none;stroke:#3d3d3d;stroke-width:1.5;stroke-linecap:square"
           id="path1177" />
      </g>
      <g
         id="line2d_30" />
      <g
         id="line2d_31">
        <path
           clip-path="url(#p24a70ff48d)"
           d="m 188.377,34.65553 v 0.999534"
           style="fill:none;stroke:#3d3d3d;stroke-width:1.5;stroke-linecap:square"
           id="path1181" />
      </g>
      <g
         id="line2d_32">
        <path
           clip-path="url(#p24a70ff48d)"
           d="m 188.377,21.661596 v 0"
           style="fill:none;stroke:#3d3d3d;stroke-width:1.5;stroke-linecap:square"
           id="path1184" />
      </g>
      <g
         id="line2d_33">
        <path
           clip-path="url(#p24a70ff48d)"
           d="m 181.6478,35.655064 h 13.4584"
           style="fill:none;stroke:#3d3d3d;stroke-width:1.5;stroke-linecap:square"
           id="path1187" />
      </g>
      <g
         id="line2d_34">
        <path
           clip-path="url(#p24a70ff48d)"
           d="m 181.6478,21.661596 h 13.4584"
           style="fill:none;stroke:#3d3d3d;stroke-width:1.5;stroke-linecap:square"
           id="path1190" />
      </g>
      <g
         id="line2d_35">
        <defs
           id="defs1194">
          <path
             d="M 0,3.535534 2.12132,0 0,-3.535534 -2.12132,0 Z"
             id="m8097d0ad0d"
             style="stroke:#3d3d3d;stroke-linejoin:miter" />
        </defs>
        <g
           clip-path="url(#p24a70ff48d)"
           id="g1200">
          <use
             style="fill:#3d3d3d;stroke:#3d3d3d;stroke-linejoin:miter"
             x="188.377"
             xlink:href="#m8097d0ad0d"
             y="112.28596"
             id="use1196"
             width="100%"
             height="100%" />
          <use
             style="fill:#3d3d3d;stroke:#3d3d3d;stroke-linejoin:miter"
             x="188.377"
             xlink:href="#m8097d0ad0d"
             y="61.642933"
             id="use1198"
             width="100%"
             height="100%" />
        </g>
      </g>
      <g
         id="line2d_36">
        <path
           clip-path="url(#p24a70ff48d)"
           d="M 40.3346,157.26496 H 67.2514"
           style="fill:none;stroke:#3d3d3d;stroke-width:1.5;stroke-linecap:square"
           id="path1203" />
      </g>
      <g
         id="line2d_37">
        <path
           clip-path="url(#p24a70ff48d)"
           d="m 73.9806,67.306954 h 26.9168"
           style="fill:none;stroke:#3d3d3d;stroke-width:1.5;stroke-linecap:square"
           id="path1206" />
      </g>
      <g
         id="line2d_38">
        <path
           clip-path="url(#p24a70ff48d)"
           d="m 107.6266,130.61073 h 26.9168"
           style="fill:none;stroke:#3d3d3d;stroke-width:1.5;stroke-linecap:square"
           id="path1209" />
      </g>
      <g
         id="line2d_39">
        <path
           clip-path="url(#p24a70ff48d)"
           d="m 141.2726,51.31442 h 26.9168"
           style="fill:none;stroke:#3d3d3d;stroke-width:1.5;stroke-linecap:square"
           id="path1212" />
      </g>
      <g
         id="line2d_40">
        <path
           clip-path="url(#p24a70ff48d)"
           d="m 174.9186,26.659263 h 26.9168"
           style="fill:none;stroke:#3d3d3d;stroke-width:1.5;stroke-linecap:square"
           id="path1215" />
      </g>
      <g
         id="patch_8">
        <path
           d="M 36.97,176.456 V 10.8"
           style="fill:none;stroke:#000000;stroke-width:0.8;stroke-linecap:square;stroke-linejoin:miter"
           id="path1218" />
      </g>
      <g
         id="patch_9">
        <path
           d="M 36.97,176.456 H 205.2"
           style="fill:none;stroke:#000000;stroke-width:0.8;stroke-linecap:square;stroke-linejoin:miter"
           id="path1221" />
      </g>
    </g>
  </g>
  <defs
     id="defs1229">
    <clipPath
       id="p24a70ff48d">
      <rect
         height="165.65601"
         width="168.23"
         x="36.970001"
         y="10.8"
         id="rect1226" />
    </clipPath>
  </defs>
</svg>
